<?xml version="1.0" encoding="utf-8"?>
<!-- Generator: Adobe Illustrator 24.0.0, SVG Export Plug-In . SVG Version: 6.00 Build 0)  -->
<svg version="1.1" id="Layer_1" xmlns="http://www.w3.org/2000/svg" xmlns:xlink="http://www.w3.org/1999/xlink" x="0px" y="0px"
	 viewBox="0 0 750 630.5" style="enable-background:new 0 0 750 630.5;" xml:space="preserve">
<style type="text/css">
	.st0{display:none;fill:url(#SVGID_1_);}
	.st1{display:none;fill:url(#SVGID_2_);}
	.st2{fill:url(#SVGID_3_);}
	.st3{display:none;}
	.st4{display:inline;}
	.st5{fill:#0D0808;}
	.st6{fill:#872222;}
	.st7{fill:#681B1B;}
	.st8{fill:#7F2222;}
	.st9{fill:#631A1A;}
	.st10{fill:#6D1D1D;}
	.st11{fill:#511515;}
	.st12{opacity:0.1;fill:#EFEFEF;enable-background:new    ;}
	.st13{fill:#CCCCCC;}
	.st14{fill:#EAEAEA;}
	.st15{opacity:0.5;}
	.st16{fill:#8E8E8E;}
	.st17{fill:none;}
	.st18{display:inline;fill:#1A1A1A;}
	.st19{display:inline;fill:#0D0D0D;}
	.st20{fill:#1A1A1A;}
	.st21{fill:#0D0D0D;}
	.st22{opacity:0.15;fill:url(#Right_2_);enable-background:new    ;}
	.st23{opacity:0.15;fill:url(#Left_1_);enable-background:new    ;}
	.st24{opacity:0.3;fill:url(#shouldershades_left_1_);enable-background:new    ;}
	.st25{opacity:0.3;fill:url(#shouldershades_right_1_);enable-background:new    ;}
	.st26{fill:#FFFFFF;}
	.st27{opacity:0.5;fill:#872222;enable-background:new    ;}
	.st28{fill:#141414;}
	.st29{fill:#D3D3D3;}
</style>
<g id="Layer_1_1_">
	<path d="M664.2,214c-6.7-16.7-20.5-20.9-21.8-22c-11.7-10.3-2.5-21.2-19.9-30.7c-18.3-9.9-71.9-37-114.2-31.4
		c-9.2,1.2-27.8,17.6-41.2,17.6c-21.9,0-92.1,0-92.1,0s-70.3,0-92.1,0c-13.4,0-32-16.4-41.2-17.6c-42.2-5.6-95.9,21.4-114.2,31.4
		c-17.5,9.5-8.2,20.3-19.9,30.7c-1.3,1.1-15.1,5.3-21.8,22C23.1,370-1.5,469,0.3,529c2.9,94.4,76.5,101.3,76.5,101.3
		c37-8.6,111.5-129.1,168.4-129.1c31.1,0,129.7,0,129.7,0s98.6,0,129.7,0c57,0,131.4,120.4,168.4,129.1c0,0,73.6-6.9,76.5-101.3
		C751.5,469,726.9,370,664.2,214z"/>
	<g>
		
			<linearGradient id="SVGID_1_" gradientUnits="userSpaceOnUse" x1="106.4134" y1="976.4" x2="107.5677" y2="976.4" gradientTransform="matrix(1 0 0 1 0 -784)">
			<stop  offset="0" style="stop-color:#029AEB"/>
			<stop  offset="1" style="stop-color:#161D45"/>
		</linearGradient>
		<path class="st0" d="M106.4,192.7c0.5-0.3,0.9-0.5,1.2-0.6C107.2,192.3,106.8,192.5,106.4,192.7z"/>
		
			<linearGradient id="SVGID_2_" gradientUnits="userSpaceOnUse" x1="642.3953" y1="976.4" x2="643.9213" y2="976.4" gradientTransform="matrix(1 0 0 1 0 -784)">
			<stop  offset="0" style="stop-color:#029AEB"/>
			<stop  offset="1" style="stop-color:#161D45"/>
		</linearGradient>
		<path class="st1" d="M642.4,192c0.2,0.2,0.8,0.4,1.5,0.8C643.4,192.6,642.9,192.3,642.4,192z"/>
		<linearGradient id="SVGID_3_" gradientUnits="userSpaceOnUse" x1="374.9051" y1="630.1" x2="374.9051" y2="148.7703">
			<stop  offset="0" style="stop-color:#872222"/>
			<stop  offset="0.1025" style="stop-color:#822121"/>
			<stop  offset="0.231" style="stop-color:#721D1D"/>
			<stop  offset="0.3733" style="stop-color:#591616"/>
			<stop  offset="0.5257" style="stop-color:#350D0D"/>
			<stop  offset="0.6845" style="stop-color:#080202"/>
			<stop  offset="0.7086" style="stop-color:#000000"/>
		</linearGradient>
		<path class="st2" d="M664.1,213.8c-3.3-8.3-8.4-13.5-12.9-16.8c-3-2.2-5.7-3.6-7.4-4.4c-0.8-0.4-1.3-0.6-1.5-0.8
			c-33.5-18-86.8-41.6-120-42.9c-26.8,0,0.3,7.4-82.1,7.4c-15.1,0-66.9-0.1-66.9-0.1s-38.4,0.3-53.4,0.3
			c-95.5,0.4-64.2-8.3-94.4-7.7c-17.7,0-69.5,16.3-118,42.9c-0.2,0.2-0.6,0.4-1.2,0.6c-1.8,0.8-5.1,2.4-8.7,5.3
			c-4.2,3.3-8.8,8.3-11.9,16C23,369.8-1.6,468.8,0.3,528.8c2.9,94.4,76.5,101.3,76.5,101.3c37-8.6,111.5-129.1,168.4-129.1
			c31.1,0,129.7,0,129.7,0s98.6,0,129.7,0c57,0,131.4,120.4,168.4,129.1c0,0,73.6-6.9,76.5-101.3
			C751.5,468.8,726.8,369.8,664.1,213.8L664.1,213.8z"/>
	</g>
	<g id="Dpad_1_">
		<g class="st3">
			<path class="st4" d="M277.8,462c-33.4,0-60.6-27.2-60.6-60.6s27.2-60.6,60.6-60.6s60.6,27.2,60.6,60.6S311.2,462,277.8,462z"/>
			<g class="st4">
				<path class="st5" d="M277.8,341.8c32.9,0,59.6,26.7,59.6,59.6S310.7,461,277.8,461s-59.6-26.7-59.6-59.6
					C218.2,368.7,245,341.8,277.8,341.8 M277.8,339.8c-34,0-61.6,27.6-61.6,61.6s27.6,61.6,61.6,61.6s61.6-27.6,61.6-61.6
					C339.4,367.5,311.8,339.8,277.8,339.8L277.8,339.8z"/>
			</g>
		</g>
		<g>
			<g>
				<path class="st6" d="M277.8,452.7c-7.1,0-12.7-1.3-13-3.1v-0.1c0-0.1,0-15.5,0-34.4c0-0.3-0.2-0.5-0.5-0.5h-34.4
					c-1.8,0-3.2-5.7-3.2-13s1.4-13,3.2-13h34.4c0.3,0,0.5-0.2,0.5-0.5v-34.4v-0.1l0.1-0.2l0.1-0.1c0.5-0.8,2.1-1.5,4.5-2
					c0.3-0.1,0.6-0.1,0.9-0.2c0.4-0.1,0.7-0.1,1-0.1c0,0,0.1,0,0.2,0c0.3,0,0.6-0.1,0.9-0.1s0.7-0.1,1-0.1c0.4,0,0.7-0.1,1-0.1
					l2.4-0.1c0.4,0,0.7,0,1,0c7.3,0,13.1,1.4,13.1,3.2c0,0.2,0,16,0,34.4c0,0.3,0.2,0.5,0.5,0.5h34.4c1.8,0,3.2,5.7,3.2,13
					s-1.4,13-3.2,13h-34.4c-0.3,0-0.5,0.2-0.5,0.5v34.4c0,0,0,0.1,0,0.2C290.6,451.3,285,452.7,277.8,452.7z"/>
				<path class="st7" d="M277.8,350.8c8.1,0,12.6,1.6,12.6,2.7l0,0V388c0,0.6,0.4,1,1,1h34.4c1.1,0,2.7,4.8,2.7,12.5
					c0,7.8-1.6,12.5-2.7,12.5h-34.4c-0.6,0-1,0.4-1,1v34.4c0,0,0,0,0,0.1c-0.2,1.1-4.7,2.7-12.6,2.7s-12.4-1.5-12.5-2.7v-0.1V415
					c0-0.6-0.4-1-1-1h-34.4c-1.1,0-2.7-4.8-2.7-12.5s1.6-12.6,2.7-12.6h34.4c0.6,0,1-0.4,1-1v-34.4l0,0l0,0l0,0l0,0v-0.1
					c0,0,0,0,0-0.1c0.2-0.2,0.9-1.1,4.2-1.8c0,0,0,0,0.1,0c0.3-0.1,0.6-0.1,0.8-0.2h0.1c0.3-0.1,0.6-0.1,0.8-0.1c0,0,0.1,0,0.2,0
					c0.3,0,0.6-0.1,0.9-0.1l0,0c0.3,0,0.7-0.1,1-0.1l0,0l0,0c0.3,0,0.6-0.1,1-0.1h0.1c0.2,0,0.4,0,0.6,0h0.4c0.1,0,0.1,0,0.2,0
					c0.3,0,0.7,0,1,0h0.1C277.1,350.8,277.5,350.8,277.8,350.8 M277.8,349.8c-0.3,0-0.7,0-1.1,0h-0.1c-0.3,0-0.7,0-1,0
					c-0.1,0-0.1,0-0.2,0c-0.3,0-0.7,0-1,0h-0.1c-0.3,0-0.7,0-1,0.1l0,0c-0.3,0-0.7,0.1-1,0.1l0,0c-0.3,0-0.7,0.1-1,0.1
					c0,0,0,0-0.1,0c-0.3,0-0.6,0.1-0.9,0.1c0,0,0,0-0.1,0c-0.3,0.1-0.6,0.1-0.9,0.2l0,0c-2.4,0.5-4.2,1.2-4.9,2.2
					c0,0-0.1,0.1-0.1,0.2l0,0c0,0.1,0,0.1,0,0.2l0,0v0.1c0,0.1,0,0.1,0,0.2c0,7.7,0,20.6,0,34.4c-19,0-34.4,0-34.4,0l0,0
					c-5,0-5,27.1,0,27.1c7.8,0,20.6,0,34.4,0c0,19,0,34.4,0,34.4l0,0c0,0.1,0,0.2,0,0.2c0.4,2.3,7,3.5,13.5,3.5
					c6.6,0,13.1-1.2,13.5-3.5c0-0.1,0-0.2,0-0.2c0-7.7,0-20.6,0-34.4c18.9,0,34.4,0,34.4,0l0,0c5,0,5-27.1,0-27.1
					c-7.8,0-20.6,0-34.4,0c0-19,0-34.4,0-34.4l0,0l0,0C291.4,351,284.6,349.8,277.8,349.8L277.8,349.8z"/>
			</g>
			<path class="st8" d="M264.3,388l-3.6-3.6h-30.8c-0.9,0-1.8,0.2-2.8,0.8l2.8,2.8C229.9,388,245.3,388,264.3,388z"/>
			<path class="st9" d="M229.9,388L229.9,388l-2.8-2.8c-1.4,0.9-2.7,2.7-3.5,6.1c-0.7,2.7-1,6.4-1,10.2s0.4,7.4,1,10.2
				c0.8,3.4,2.2,5,3.5,5.9l2.8-2.7C225,414.8,224.9,388,229.9,388z"/>
			<path class="st9" d="M269.1,350.5L269.1,350.5c0.3-0.1,0.6-0.1,0.9-0.2c0,0,0,0,0.1,0c0.3-0.1,0.6-0.1,0.9-0.1c0,0,0,0,0.1,0
				c0.3,0,0.7-0.1,1-0.1l0,0c0.3,0,0.7-0.1,1-0.1l0,0c0.3,0,0.7-0.1,1-0.1h0.1c0.3,0,0.6,0,1,0c0.1,0,0.1,0,0.2,0c0.3,0,0.7,0,1,0
				h0.1c0.3,0,0.7,0,1.1,0c6.8,0,13.6,1.2,13.6,3.7l2.8-2.8c-0.9-1.4-2.7-2.7-6.1-3.5c-2.7-0.7-6.4-1-10.2-1c-3.8,0-7.5,0.4-10.2,1
				c-2.9,0.7-4.7,1.8-5.7,3l2.6,2.6C264.8,351.8,266.6,351,269.1,350.5z"/>
			<path class="st8" d="M325.6,388l2.8-2.8c-0.9-0.6-1.9-0.8-2.8-0.8h-30.8l-3.6,3.6C305,388,317.7,388,325.6,388z"/>
			<path class="st7" d="M291.2,353.5L291.2,353.5c0,0,0,15.4,0,34.4l3.6-3.6l0,0v-30.8c0-0.9-0.2-1.8-0.8-2.8L291.2,353.5
				L291.2,353.5z"/>
			<path class="st10" d="M264.3,353.5c0-0.1,0-0.1,0-0.2v-0.1l0,0c0-0.1,0-0.1,0-0.2l0,0c0-0.1,0.1-0.1,0.1-0.2l-2.6-2.6
				c-1,1.1-1.3,2.3-1.3,3.3v30.8l3.8,3.6C264.5,374.2,264.3,361.3,264.3,353.5z"/>
			<path class="st7" d="M325.8,414.8L325.8,414.8c0,0-15.5,0-34.4,0l3.6,3.6h30.8h1.5l0.3-0.3c0.3-0.1,0.6-0.3,0.9-0.5L325.8,414.8
				L325.8,414.8z"/>
			<path class="st9" d="M291.3,449l2.8,2.8c0.6-0.9,0.8-1.9,0.8-2.8v-30.8l-3.6-3.6C291.3,428.5,291.3,441.3,291.3,449z"/>
			<path class="st9" d="M332,391.3c-0.8-3.4-2.2-5.2-3.6-6.1l-2.8,2.8c5,0,5,26.8,0.2,26.8l2.7,2.8c1.4-0.9,2.6-2.4,3.4-5.8
				c0.7-2.7,1-6.4,1-10.2C333,397.5,332.7,394,332,391.3z"/>
			<path class="st11" d="M291.2,449.3c-0.4,2.3-7,3.5-13.5,3.5s-13.1-1.2-13.5-3.5c0-0.1,0-0.2,0-0.2l-2.8,2.8
				c0.9,1.4,2.7,2.7,6.2,3.5c2.7,0.7,6.3,1,10.2,1c3.8,0,7.4-0.4,10.2-1c3.4-0.8,5.2-2.2,6.1-3.5l-2.8-2.8
				C291.2,449.2,291.2,449.2,291.2,449.3z"/>
			<path class="st10" d="M264.3,449.2L264.3,449.2c0,0,0-15.4,0-34.4l-3.6,3.6v30.8v0.8l0.1,0.2c0.1,0.5,0.3,1.1,0.7,1.7
				L264.3,449.2L264.3,449.2z"/>
			<path class="st11" d="M229.9,414.8l-2.8,2.8c1,0.6,1.9,0.8,2.8,0.8h30.8l3.6-3.6C250.5,414.8,237.7,414.8,229.9,414.8z"/>
		</g>
		<path class="st12" d="M278.5,452.5c-7.1,0-13.5-1.5-13.8-3.3v-0.1c0-0.1,0-15.5,0-34.4c0-0.3-0.2-0.5-0.5-0.5h-34.4
			c-1.8,0-3.2-5.7-3.2-13s1.4-13,3.2-13h34.4c0.3,0,0.5-0.2,0.5-0.5v-34.4v-0.1l0.1-0.2l0.1-0.1c0.5-0.8,1.4-1.7,8.5-1.9
			L278.5,452.5z"/>
		<path class="st12" d="M251.3,414.3l-21.5,0.1c-1.8,0-3.2-5.7-3.2-13s1.4-13,3.2-13l16.4-0.1L251.3,414.3z"/>
	</g>
	<g id="Menu_Key">
		<g>
			<path class="st13" d="M447.1,280.4c0,9.4-7.6,17-17,17s-17-7.6-17-17s7.6-17,17-17S447.1,271,447.1,280.4z"/>
		</g>
		<g>
			<path class="st14" d="M446.2,280.4c0,8.9-7.2,16.1-16.1,16.1s-16.1-7.2-16.1-16.1s7.2-16.1,16.1-16.1S446.2,271.5,446.2,280.4z"
				/>
			<g class="st15">
				<rect x="422.9" y="275.8" class="st16" width="14.4" height="1.6"/>
				<rect x="422.9" y="279.7" class="st16" width="14.4" height="1.6"/>
				<rect x="422.9" y="283.5" class="st16" width="14.4" height="1.5"/>
			</g>
		</g>
	</g>
	<g id="Switcher_Key">
		<g>
			<path class="st13" d="M339.1,280.4c0,9.4-7.6,17-17,17s-17-7.6-17-17s7.6-17,17-17C331.4,263.4,339.1,271,339.1,280.4z"/>
		</g>
		<g>
			<path class="st14" d="M338.2,280.4c0,8.9-7.2,16.1-16.1,16.1s-16.1-7.2-16.1-16.1s7.2-16.1,16.1-16.1S338.2,271.5,338.2,280.4z"
				/>
			<g class="st15">
				<polygon class="st16" points="319.6,280.3 316.6,280.3 316.6,276.5 322.1,276.5 322.1,277.8 323.9,277.8 323.9,274.8 315,274.8 
					315,282.2 319.6,282.2 				"/>
				<path class="st16" d="M320.4,278.4v7.6h9v-7.6H320.4z M327.5,284.2H322v-3.9h5.5V284.2z"/>
			</g>
		</g>
	</g>
	<g id="Left_Stick">
		<g>
			<path class="st17" d="M185.6,351.5c-37.3,0-67.7-30.3-67.7-67.6s30.3-67.6,67.7-67.6c37.3,0,67.7,30.3,67.7,67.6
				S222.9,351.5,185.6,351.5z"/>
		</g>
		<path class="st6" d="M241.7,279.9c0,31-25.1,56-56.1,56s-56.1-25.1-56.1-56c0-31,25.1-56.1,56.1-56.1
			C216.6,223.8,241.7,248.9,241.7,279.9z"/>
	</g>
	<g id="Right_Stick">
		<g>
			<path class="st17" d="M473,465.4c-37.3,0-67.6-30.3-67.6-67.6s30.3-67.7,67.6-67.7s67.7,30.4,67.7,67.7
				C540.6,435,510.3,465.4,473,465.4z"/>
		</g>
		<path class="st6" d="M529.1,393.8c0,31-25.1,56.1-56.1,56.1s-56-25.1-56-56.1s25.1-56.1,56-56.1
			C504,337.7,529.1,362.8,529.1,393.8z"/>
	</g>
	<g id="Button_Base">
		<g id="A">
			<path class="st14" d="M566.6,355.2c-13.9,0-25.2-11.3-25.2-25.2c0-13.9,11.3-25.2,25.2-25.2s25.2,11.3,25.2,25.2
				C591.8,343.9,580.5,355.2,566.6,355.2z"/>
			<path class="st13" d="M566.6,306.4c13.1,0,23.7,10.6,23.7,23.7s-10.6,23.7-23.7,23.7c-13.1,0-23.7-10.6-23.7-23.7
				C543,317,553.6,306.4,566.6,306.4 M566.6,303.4c-14.7,0-26.7,12-26.7,26.7s12,26.7,26.7,26.7s26.7-12,26.7-26.7
				S581.4,303.4,566.6,303.4L566.6,303.4z"/>
		</g>
		<g id="Y">
			<path class="st14" d="M566.6,254.2c-13.9,0-25.2-11.3-25.2-25.2s11.3-25.2,25.2-25.2s25.2,11.3,25.2,25.2
				S580.5,254.2,566.6,254.2z"/>
			<path class="st13" d="M566.6,205.4c13.1,0,23.7,10.6,23.7,23.7c0,13.1-10.6,23.7-23.7,23.7c-13.1,0-23.7-10.6-23.7-23.7
				C543,216,553.6,205.4,566.6,205.4 M566.6,202.4c-14.7,0-26.7,12-26.7,26.7s12,26.7,26.7,26.7s26.7-12,26.7-26.7
				C593.3,214.3,581.4,202.4,566.6,202.4L566.6,202.4z"/>
		</g>
		<g id="B">
			<path class="st14" d="M617.2,304.7c-13.9,0-25.2-11.3-25.2-25.2c0-13.9,11.3-25.2,25.2-25.2s25.2,11.3,25.2,25.2
				C642.3,293.4,631,304.7,617.2,304.7z"/>
			<path class="st13" d="M617.2,255.9c13.1,0,23.7,10.6,23.7,23.7s-10.6,23.7-23.7,23.7c-13.1,0-23.7-10.6-23.7-23.7
				S604.1,255.9,617.2,255.9 M617.2,252.9c-14.7,0-26.7,12-26.7,26.7s12,26.7,26.7,26.7s26.7-12,26.7-26.7
				C643.8,264.8,631.9,252.9,617.2,252.9L617.2,252.9z"/>
		</g>
		<g id="X">
			<path class="st14" d="M516.1,304.7c-13.9,0-25.2-11.3-25.2-25.2c0-13.9,11.3-25.2,25.2-25.2s25.2,11.3,25.2,25.2
				S530,304.7,516.1,304.7z"/>
			<path class="st13" d="M516.1,255.9c13.1,0,23.7,10.6,23.7,23.7s-10.6,23.7-23.7,23.7c-13.1,0-23.7-10.6-23.7-23.7
				C492.5,266.5,503.1,255.9,516.1,255.9 M516.1,252.9c-14.7,0-26.7,12-26.7,26.7s12,26.7,26.7,26.7s26.7-12,26.7-26.7
				C542.8,264.8,530.8,252.9,516.1,252.9L516.1,252.9z"/>
		</g>
	</g>
	<g id="Bumpers">
		<g class="st3">
			<path class="st18" d="M375.6,156.6c0,0-88.9-1.1-100.5-3l-16.4,30.5c20.2,23.3,41.6,53.3,56.4,53.3c15.1,0,60.5,0,60.5,0
				s45.4,0,60.5,0c14.9,0,36.2-30,56.4-53.3l-16.4-30.5C464.5,155.5,375.6,156.6,375.6,156.6z"/>
			<path class="st19" d="M476.1,153.6l-3.6-6.8c-1.9,0.5-3.7,0.7-5.4,0.7c-21.9,0-92.1,0-92.1,0s-70.3,0-92.1,0
				c-1.4,0-2.8-0.2-4.3-0.5l-3.5,6.5c11.6,1.9,100.5,3,100.5,3S464.5,155.5,476.1,153.6z"/>
		</g>
		<g id="RB_1_">
			<path class="st20" d="M642.4,192c-9-7.9-5.6-16.2-11.5-23.8c0.2,0.3,0.5,0.7,0.7,1c0,0-96.5-42-120.7-34.5
				c-15.6,4.9-27.2,15.3-32.8,18.2l1.6,2.8c27.2-0.9,23.8-6.6,42.7-6.6C560.2,152.1,608.9,174,642.4,192L642.4,192z"/>
			<path class="st21" d="M510.9,134.7c24.3-7.6,120.7,34.4,120.7,34.5c-0.2-0.3-0.5-0.7-0.7-1l-0.1-0.1c-0.1-0.1-0.2-0.2-0.3-0.4
				c0-0.1-0.1-0.1-0.1-0.2c-0.1-0.1-0.2-0.2-0.3-0.3s-0.1-0.1-0.2-0.2c-0.1-0.1-0.2-0.2-0.3-0.3s-0.1-0.1-0.2-0.2
				c-0.1-0.1-0.2-0.2-0.3-0.3s-0.1-0.1-0.2-0.2c-0.1-0.1-0.2-0.2-0.3-0.3s-0.2-0.1-0.2-0.2c-0.1-0.1-0.2-0.2-0.3-0.3
				s-0.1-0.1-0.2-0.2c-0.1-0.1-0.2-0.2-0.3-0.3s-0.2-0.1-0.3-0.2c-0.1-0.1-0.2-0.2-0.3-0.3s-0.2-0.1-0.3-0.2
				c-0.1-0.1-0.2-0.2-0.4-0.3c-0.1,0-0.2-0.1-0.3-0.2c-0.1-0.1-0.3-0.2-0.4-0.3c-0.1-0.1-0.2-0.1-0.3-0.2c-0.1-0.1-0.3-0.2-0.4-0.3
				c-0.1-0.1-0.2-0.1-0.3-0.2c-0.2-0.1-0.3-0.2-0.5-0.3c-0.1-0.1-0.2-0.1-0.3-0.2c-0.2-0.1-0.4-0.2-0.5-0.3s-0.2-0.1-0.3-0.2
				c-0.3-0.2-0.6-0.3-0.8-0.5c-18.3-9.9-71.9-37-114.2-31.4c-7.6,1-21.6,12.3-33.8,16.3l3.6,6.7C483.7,150,495.3,139.6,510.9,134.7z
				"/>
			<path d="M478.1,152.9l-3.6-6.7c-0.3,0.1-0.7,0.2-1,0.3s-0.7,0.2-1,0.3l3.6,6.8l1.2,2.2c1.1,0,0,0,1.1,0c1.1-0.1,0,0,1.1-0.1
				L478.1,152.9z"/>
		</g>
		<g id="LB">
			<path class="st20" d="M107.6,192.1c33.5-18,82.2-39.9,120-42.9c19,0,15.5,5.7,42.7,6.6l1.6-2.8c-5.6-2.9-17.3-13.3-32.8-18.2
				c-24.3-7.6-120.7,34.4-120.7,34.5c0.2-0.3,0.5-0.7,0.7-1C113.2,175.9,116.6,184.1,107.6,192.1L107.6,192.1z"/>
			<path class="st21" d="M271.9,153l3.6-6.7c-12.2-3.9-26.2-15.3-33.8-16.3c-42.2-5.6-95.9,21.4-114.2,31.4
				c-0.3,0.2-0.6,0.3-0.8,0.5c-0.1,0.1-0.2,0.1-0.3,0.2c-0.2,0.1-0.3,0.2-0.5,0.3c-0.1,0.1-0.2,0.1-0.3,0.2
				c-0.1,0.1-0.3,0.2-0.5,0.3c-0.1,0-0.2,0.1-0.3,0.2c-0.1,0.1-0.3,0.2-0.4,0.3s-0.2,0.1-0.3,0.2c-0.1,0.1-0.2,0.2-0.4,0.3
				c-0.1,0.1-0.2,0.1-0.3,0.2c-0.1,0.1-0.2,0.2-0.4,0.3c-0.1,0.1-0.2,0.1-0.3,0.2c-0.1,0.1-0.2,0.2-0.3,0.3
				c-0.1,0.1-0.2,0.1-0.3,0.2c-0.1,0.1-0.2,0.2-0.3,0.3c-0.1,0.1-0.1,0.1-0.2,0.2c-0.1,0.1-0.2,0.2-0.3,0.3
				c-0.1,0.1-0.2,0.1-0.2,0.2c-0.1,0.1-0.2,0.2-0.3,0.3c-0.1,0.1-0.1,0.1-0.2,0.2c-0.1,0.1-0.2,0.2-0.3,0.3
				c-0.1,0.1-0.1,0.1-0.2,0.2c-0.1,0.1-0.2,0.2-0.3,0.3c0,0.1-0.1,0.1-0.2,0.2c-0.1,0.1-0.2,0.2-0.3,0.3c0,0.1-0.1,0.1-0.1,0.2
				c-0.1,0.1-0.2,0.2-0.3,0.4l-0.1,0.1c-0.2,0.3-0.5,0.7-0.7,1c0,0,96.5-42,120.7-34.5C254.6,139.6,266.3,150.1,271.9,153z"/>
			<path d="M270.4,155.7c1.1,0.1,0,0,1.1,0.1c1.1,0,0,0,1.1,0l1.2-2.2l3.6-6.8c-0.3-0.1-0.7-0.2-1-0.3s-0.7-0.2-1-0.3l-3.6,6.7
				L270.4,155.7z"/>
		</g>
	</g>
	<g id="Shadeing">
		
			<linearGradient id="Right_2_" gradientUnits="userSpaceOnUse" x1="495.0638" y1="998.9692" x2="398.4011" y2="954.3047" gradientTransform="matrix(1 0 0 1 0 -784)">
			<stop  offset="0" style="stop-color:#000000"/>
			<stop  offset="0.3726" style="stop-color:#020202;stop-opacity:0.6274"/>
			<stop  offset="0.5069" style="stop-color:#090909;stop-opacity:0.4931"/>
			<stop  offset="0.6026" style="stop-color:#141414;stop-opacity:0.3974"/>
			<stop  offset="0.68" style="stop-color:#252525;stop-opacity:0.32"/>
			<stop  offset="0.7463" style="stop-color:#3B3B3B;stop-opacity:0.2537"/>
			<stop  offset="0.805" style="stop-color:#575757;stop-opacity:0.195"/>
			<stop  offset="0.8581" style="stop-color:#777777;stop-opacity:0.1419"/>
			<stop  offset="0.9069" style="stop-color:#9D9D9D;stop-opacity:9.308982e-02"/>
			<stop  offset="0.9523" style="stop-color:#C8C8C8;stop-opacity:4.767627e-02"/>
			<stop  offset="0.9926" style="stop-color:#F6F6F6;stop-opacity:7.380247e-03"/>
			<stop  offset="1" style="stop-color:#FFFFFF;stop-opacity:0"/>
		</linearGradient>
		<path id="Right_1_" class="st22" d="M437.3,237.4c-7,0.3-62.4,0.1-62.4,0.1v-80.8c0,0,99.8-0.7,102.4-0.7
			c29.3-0.6,25.1-6.5,45-6.5C522.3,149.3,456.1,236.7,437.3,237.4z"/>
		
			<linearGradient id="Left_1_" gradientUnits="userSpaceOnUse" x1="-471.4954" y1="998.3812" x2="-566.7056" y2="954.3879" gradientTransform="matrix(-1 0 0 1 -215.1111 -784)">
			<stop  offset="0" style="stop-color:#000000"/>
			<stop  offset="0.3726" style="stop-color:#020202;stop-opacity:0.6274"/>
			<stop  offset="0.5069" style="stop-color:#090909;stop-opacity:0.4931"/>
			<stop  offset="0.6026" style="stop-color:#141414;stop-opacity:0.3974"/>
			<stop  offset="0.68" style="stop-color:#252525;stop-opacity:0.32"/>
			<stop  offset="0.7463" style="stop-color:#3B3B3B;stop-opacity:0.2537"/>
			<stop  offset="0.805" style="stop-color:#575757;stop-opacity:0.195"/>
			<stop  offset="0.8581" style="stop-color:#777777;stop-opacity:0.1419"/>
			<stop  offset="0.9069" style="stop-color:#9D9D9D;stop-opacity:9.308982e-02"/>
			<stop  offset="0.9523" style="stop-color:#C8C8C8;stop-opacity:4.767627e-02"/>
			<stop  offset="0.9926" style="stop-color:#F6F6F6;stop-opacity:7.380247e-03"/>
			<stop  offset="1" style="stop-color:#FFFFFF;stop-opacity:0"/>
		</linearGradient>
		<path id="Left" class="st23" d="M314.6,237.4c7,0.2,59.9,0,59.9,0v-80.9c0,0-99.8-0.7-102.4-0.7c-29.3-0.6-25.6-6.2-42.8-6.5
			C229.3,149.2,291.8,236.7,314.6,237.4z"/>
		<g id="Shouldershades">
			
				<linearGradient id="shouldershades_left_1_" gradientUnits="userSpaceOnUse" x1="153.3471" y1="954.1146" x2="159.3843" y2="968.3375" gradientTransform="matrix(1 0 0 1 0 -784)">
				<stop  offset="0" style="stop-color:#FFFFFF;stop-opacity:0"/>
				<stop  offset="4.691958e-02" style="stop-color:#D0D0D0;stop-opacity:4.691958e-02"/>
				<stop  offset="9.815919e-02" style="stop-color:#A5A5A5;stop-opacity:9.815919e-02"/>
				<stop  offset="0.155" style="stop-color:#7D7D7D;stop-opacity:0.155"/>
				<stop  offset="0.2162" style="stop-color:#5B5B5B;stop-opacity:0.2162"/>
				<stop  offset="0.283" style="stop-color:#3F3F3F;stop-opacity:0.283"/>
				<stop  offset="0.3573" style="stop-color:#282828;stop-opacity:0.3573"/>
				<stop  offset="0.4422" style="stop-color:#161616;stop-opacity:0.4422"/>
				<stop  offset="0.5445" style="stop-color:#090909;stop-opacity:0.5445"/>
				<stop  offset="0.6816" style="stop-color:#020202;stop-opacity:0.6816"/>
				<stop  offset="1" style="stop-color:#000000"/>
			</linearGradient>
			<path id="shouldershades_left" class="st24" d="M148.6,178.8c6.9-2.8,28.3-12.1,42.4-16.3c9.2-2.7,29.5-7.6,41.3-9.2l-3-4.2
				c-24.4,0.9-55.6,12.3-81.9,23.4c-15.4,6.5-43.3,20.4-48.6,24.4c-5.7,4.4-10,9.4-13,16.9c0,0,11.5-12.4,18.8-15.7
				C125.6,189,140.2,182.3,148.6,178.8z"/>
			
				<linearGradient id="shouldershades_right_1_" gradientUnits="userSpaceOnUse" x1="-756.6027" y1="954.4649" x2="-750.5932" y2="968.6223" gradientTransform="matrix(-1 0 0 1 -159.4074 -784)">
				<stop  offset="0" style="stop-color:#FFFFFF;stop-opacity:0"/>
				<stop  offset="3.012544e-02" style="stop-color:#E7E7E7;stop-opacity:3.012544e-02"/>
				<stop  offset="9.693062e-02" style="stop-color:#B7B7B7;stop-opacity:9.693062e-02"/>
				<stop  offset="0.1693" style="stop-color:#8B8B8B;stop-opacity:0.1693"/>
				<stop  offset="0.2457" style="stop-color:#666666;stop-opacity:0.2457"/>
				<stop  offset="0.3271" style="stop-color:#464646;stop-opacity:0.3271"/>
				<stop  offset="0.415" style="stop-color:#2C2C2C;stop-opacity:0.415"/>
				<stop  offset="0.512" style="stop-color:#191919;stop-opacity:0.512"/>
				<stop  offset="0.623" style="stop-color:#0B0B0B;stop-opacity:0.623"/>
				<stop  offset="0.7598" style="stop-color:#020202;stop-opacity:0.7598"/>
				<stop  offset="1" style="stop-color:#000000"/>
			</linearGradient>
			<path id="shouldershades_right" class="st25" d="M601.3,178.9c-6.9-2.8-28.3-12.1-42.4-16.3c-9.2-2.7-28.3-7.2-40.1-8.7l3.5-4.6
				c21,1.2,53.9,12.3,80.2,23.5c15.4,6.5,43.3,20.4,48.6,24.4c5.7,4.4,10,9.4,13,16.9c0,0-11.4-8.6-19.3-13.4
				C625.1,188.9,609.7,182.3,601.3,178.9z"/>
		</g>
	</g>
	<g>
		<g>
			
				<image style="overflow:visible;opacity:0.75;enable-background:new    ;" width="102" height="103" xlink:href="7357216E.png"  transform="matrix(0.9903 0 0 0.9903 324.4951 145.411)">
			</image>
			<g>
				<path class="st26" d="M407.3,196.4c0,18-14.6,32.6-32.6,32.6s-32.6-14.6-32.6-32.6s14.6-32.6,32.6-32.6
					C392.8,163.8,407.3,178.4,407.3,196.4z"/>
			</g>
		</g>
		<path class="st27" d="M383.8,182c0,0,8.9-9.4,13.8-8.9l0,0c-0.7-0.7-1.5-1.4-2.3-2l0,0c-0.4-0.3-0.8-0.6-1.2-0.9c0,0,0,0-0.1-0.1
			c-0.4-0.3-0.8-0.5-1.2-0.8l0,0c-0.4-0.1-0.8-0.1-1.2-0.2c-5.3-0.5-16.9,4.5-16.9,4.5s-11.6-5-16.9-4.5c-0.4,0-0.8,0.1-1.2,0.2l0,0
			c-0.4,0.3-0.8,0.6-1.2,0.8c0,0,0,0-0.1,0c-0.4,0.3-0.8,0.6-1.2,0.9l0,0c-0.8,0.6-1.5,1.3-2.3,2l0,0c4.8-0.6,13.8,8.9,13.8,8.9
			s-17.7,20.9-17,34.1c1.1,1.4,2.3,2.8,3.6,4c-0.4-12,22.3-30.1,22.3-30.1s22.8,18.1,22.3,30.1c1.3-1.2,2.5-2.6,3.6-4l0,0
			C401.5,202.9,383.8,182,383.8,182z"/>
	</g>
	<g id="Triggers">
		<g>
			<path class="st20" d="M549,5.7c-0.4-0.3-0.8-0.6-1.2-0.9l-2.3,109.9l53.2,7.2C586.6,5.2,555.7,10.9,549,5.7z"/>
			<path class="st28" d="M522,0.3c-10.8,0.4-12.1,11.4-12.2,15.2v1.2c0,0,2.9,40.7,0,93c9.9,2.3,38.5,5.3,38.5,5.3s0-20.9,0.7-50.6
				c0.8-37.5-1.2-59.8-1.2-59.8C541.4,0.3,534.2-0.1,522,0.3z"/>
		</g>
		<g>
			<path class="st20" d="M201.1,5.7c0.4-0.3,0.8-0.6,1.2-0.9l2.3,109.9l-53.2,7.2C163.5,5.2,194.4,10.9,201.1,5.7z"/>
			<path class="st28" d="M228.1,0.3c10.8,0.4,12.1,11.4,12.2,15.2v1.2c0,0-2.9,40.7,0,93c-9.9,2.3-38.5,5.3-38.5,5.3
				s-0.1-20.9-0.7-50.6c-0.8-37.5,1.2-59.8,1.2-59.8C208.7,0.3,215.9-0.1,228.1,0.3z"/>
		</g>
	</g>
</g>
<g id="Layer_2_1_">
</g>
<g>
	<path class="st29" d="M366.1,478.7l2,0.5c-0.4,1.6-1.2,2.9-2.3,3.7c-1.1,0.9-2.4,1.3-4,1.3c-1.6,0-2.9-0.3-4-1
		c-1-0.7-1.8-1.6-2.3-2.9c-0.5-1.3-0.8-2.6-0.8-4c0-1.6,0.3-2.9,0.9-4.1c0.6-1.2,1.4-2.1,2.6-2.7c1.1-0.6,2.3-0.9,3.6-0.9
		c1.5,0,2.8,0.4,3.8,1.1c1,0.8,1.7,1.8,2.1,3.2l-2,0.5c-0.3-1.1-0.9-1.9-1.5-2.4s-1.5-0.7-2.5-0.7c-1.2,0-2.1,0.3-2.9,0.8
		c-0.8,0.6-1.3,1.3-1.6,2.2c-0.3,0.9-0.5,1.9-0.5,2.9c0,1.3,0.2,2.4,0.6,3.3c0.4,1,1,1.7,1.7,2.1s1.6,0.7,2.6,0.7
		c1.1,0,2.1-0.3,2.8-1C365.3,480.9,365.8,480,366.1,478.7z"/>
	<path class="st29" d="M370.3,484v-15h1.8v5.4c0.9-1,1.9-1.5,3.3-1.5c0.8,0,1.5,0.2,2.1,0.5c0.6,0.3,1,0.8,1.3,1.3
		c0.3,0.6,0.4,1.4,0.4,2.4v6.9h-1.8v-6.9c0-0.9-0.2-1.6-0.6-2c-0.4-0.4-1-0.6-1.7-0.6c-0.5,0-1.1,0.1-1.5,0.4
		c-0.5,0.3-0.8,0.7-1,1.2s-0.3,1.2-0.3,2v6H370.3z"/>
	<path class="st29" d="M382,471.1V469h1.8v2.1H382z M382,484v-10.9h1.8V484H382z"/>
	<path class="st29" d="M386.6,484v-15h1.8v15H386.6z"/>
	<path class="st29" d="M391.3,471.1V469h1.8v2.1H391.3z M391.3,484v-10.9h1.8V484H391.3z"/>
</g>
</svg>
