<svg xmlns="http://www.w3.org/2000/svg" xmlns:xlink="http://www.w3.org/1999/xlink" viewBox="0 0 160.06 164.47"><defs><style>.cls-1{fill:url(#linear-gradient);}.cls-2,.cls-4{fill:#ffce31;}.cls-2{stroke:#000;stroke-miterlimit:10;stroke-width:0.27px;}.cls-3{fill:#fff;}</style><linearGradient id="linear-gradient" x1="37.52" y1="12.09" x2="132.43" y2="107" gradientUnits="userSpaceOnUse"><stop offset="0" stop-color="#f8eb6b"/><stop offset="1" stop-color="#f9e838"/></linearGradient></defs><g id="Layer_2" data-name="Layer 2"><g id="Layer_1-2" data-name="Layer 1"><g id="Black-Yellow"><path class="cls-1" d="M49.14,14.86C4.12,17,8,76.09,25.86,97.06c4.52,8.26,42.22,45.74,57.62,58.83-3,3.3,55.14-55.32,63.64-70.08C179.34,29.89,121.48-27,80.25,37.11,82.61,33.08,62.32,14.24,49.14,14.86Z"/><path d="M114.16,129.4c-2.49,3.19-4.65,6.18-4.38,10.36.42,6.43.63,12.86,1,19.29,0,.58.22,1.15.2,1.72-.06,1.77-.24,4-2.49,3.67-1-.14-2.47-2.4-2.45-3.66.12-5.28.79-10.55,1.13-15.82.15-2.4,0-4.81,0-7.77-6.57,4.31-1.6,11.23-3.8,16.14l-1.2-.19V140.83L88.78,152.89l6.67,10.59-.3.34-5.9-4.66-.36.37,2,4.16-.52.6A43.87,43.87,0,0,1,85,160c-2.26-2.46-4.72-2.82-7.74-1.86-2.16.68-4.41,1.09-7,1.72L77,153.44c-7.93-6.29-15.3-12.13-22.95-18.21a21.26,21.26,0,0,1-1.8,4.16c-2,2.75-3.86,5.86-6.5,7.87-4.62,3.52-10.44,2.18-14.14-3.11a70,70,0,0,1-11.53-27.9c-1.16-6.31-2.89-12-8.73-15.62a8.8,8.8,0,0,1-1.54-1.39c-4.64-4.65-3.69-8.81,2.46-10.82.64-.21,1.3-.38,2.54-.74a60.37,60.37,0,0,0-1.5-6.54,74.32,74.32,0,0,1-4.44-24c-.12-19,9.24-31.76,25.2-40.53A36.47,36.47,0,0,1,57.55,12.7,23.71,23.71,0,0,1,71.3,19.39c3.09,3.09,6.08,6.28,9.25,9.57a8.07,8.07,0,0,0,1.21-1.17A37,37,0,0,1,98.7,12.49c10-4.55,19.78-6.62,30.49-4.81C143.09,10,157.4,23,159.14,36.84c1.36,10.76,1.83,22-3.16,32.29-3.15,6.5-3.8,13.27-4,20.37a33.48,33.48,0,0,1-3.4,12.83c-2.94,6.29-8.37,9.61-15.42,10.06-3.88.25-8.18,4.41-8.66,8.29-.18,1.48-.27,3-.52,4.45C122.79,132.09,120.47,133.16,114.16,129.4Zm-76-4-1,.23c-3.36-4.52-6.66-9.08-10.13-13.5-.67-.85-2.37-1.9-2.93-1.6-1,.51-1.5,2-2,3.11a3.69,3.69,0,0,0,.06,2A79.38,79.38,0,0,0,33,142.43c3.87,6,10.11,6,14.69.41a15.21,15.21,0,0,0,2.56-4.45c1.2-3.46,2.12-7,3.06-10.2l5.52-2c.63,2.75,1.13,5.45,1.89,8.06A6.06,6.06,0,0,0,66.78,139a5.52,5.52,0,0,0,5.81-4.46c.79-2.86,1.5-5.74,2.09-8,2.83-.5,5.75-.3,7.76-1.55s3.44-4,5.08-6.15c4.32,7.4,10.8,7.63,15.52.45,2.15-3.28,4.13-6.66,6.32-9.92,1.27-1.89,2.79-3.62,4.52-5.83.88,8,1.58,15.39,2.61,22.68.17,1.22,1.81,2.24,2.78,3.36.77-1.2,2.09-2.34,2.24-3.61.77-6.81,1.25-13.66,1.8-20.2,1.89,1.22,3.7,2.94,5.85,3.66a13.73,13.73,0,0,0,16.46-6.18c6.19-10.25,6.45-20.91.78-31.54-.75-1.39-2.18-2.39-3-3.75s-1.81-2.9-1.84-4.38c-.11-6.91.48-13.86.07-20.74A177.94,177.94,0,0,0,138.87,23c-.19-1.05-1.93-1.82-3-2.73-.85,1-2.19,1.81-2.46,2.92-.79,3.32-1.16,6.75-1.71,10.26-6.22-1.09-7.11,4.43-9.53,8.13-3.51-5.27-5.78-5.88-11.9-3.18-3.15-5.22-9.43-4.38-14.07-6.95-.74-.41-2.14.38-3.24.61a16.21,16.21,0,0,1-4,.72c-5.85-.4-12.11-2-17.13,1.7-3.22,2.34-6.55,3.22-10.14,4.21-1.15-3.27-3.41-4.36-6.74-3.39-1.88.54-3.47.63-5.24-1-2.43-2.25-4.39-1.31-4.85,2-.33,2.43-1.21,4.24-3.58,5.38a16.27,16.27,0,0,0-4.39,3.31,2.79,2.79,0,0,0-.38,2.66,3.09,3.09,0,0,0,2.54,1,20.93,20.93,0,0,0,4.08-1.33V59.53c-1.47,0-2.92-.44-3.6.09-1.77,1.39-3.47,1.1-5.41.82a10.72,10.72,0,0,0-9.7,3.4c-5.3,5.48-7.09,12.21-7.27,19.55-.06,2.47,0,4.94,0,7.57-1.64-.13-2.75-.5-3.67-.23-1.45.44-3.42,1-3.94,2.08s.33,3,1.15,4.18a13,13,0,0,0,3.93,3.32c2.66,1.62,4.69,3.47,5.23,6.8.45,2.81,2.25,3.12,4.59,1.73,1.83-1.09,12.82,3.29,13.49,5.29a2,2,0,0,1,.13.68Q38.11,120.11,38.11,125.41Zm2.38-73.94c-3,.44-5.43.06-6.62-2.79s-.06-5.23,2.45-6.94c.74-.51,1.51-1,2.29-1.45,2-1.18,3.55-2.25,3.75-5.09s2.21-5.72,5.48-4.46c4,1.52,7.91,1.74,12,2,.59,0,1.17.63,1.72,1,2.82,2,4.92,1.72,7.51-.7,1.61-1.5,1.7-2.51.13-4.23a25.5,25.5,0,0,0-16.44-8.7C43,19,39.58,22.05,41.43,30.29c.26,1.17-.4,2.53-.63,3.81l-1.28-.23c-2.82-3.54,1.7-7.23-.23-11.69-1.11,1.29-2.6,2.22-2.67,3.24-.26,3.66,0,7.36,0,11a17.47,17.47,0,0,1-.23,2.7,3.82,3.82,0,0,1-1.12,0,16.85,16.85,0,0,1-.08-2.75c.27-3.65.58-7.31.87-11l-1.66-.7c-2.15,2.6-4.71,5-6.34,7.86s-2.48,6.49-3.67,9.76l-.68-.13-.79-3.92L20.25,47l-.46-.1.88-8C16.38,45,15.25,60.38,18.44,67.06c3.88-5.72,8.38-10.24,16.05-9.48C39.83,58.1,40.93,56.91,40.49,51.47Zm54-23.64,15,6a8.94,8.94,0,0,0,2.53.83c3.34.24,6.69.34,9.44.47,1.56-1.18,3.16-3.33,5-3.59,3.37-.47,3-2.77,3.59-4.85.82-3,1.74-6,2.68-9.24L125,15.39l1.3,1.32-3.37,2.82-.87-1.1c.35,1.27.69,2.54,1.26,4.65C115.29,13.92,104.48,16.08,94.48,27.83Zm17,83.16c-2.42,3.68-4.87,7.17-7.08,10.81-2.41,4-5.8,5.82-10.34,4.91a51.1,51.1,0,0,1-6.92-2.5,11.37,11.37,0,0,1-9.3,4.73c-.59,0-1.47,1-1.7,1.73-1,3-1.74,6-2.64,9.2l9.37,7.28,10.45-9.29-.32-.41-9.15,4.14-.33-.8c1.8-.95,3.61-1.88,5.39-2.86s3.34-1.88,5-2.83l-.35-.71L90.5,135a4.53,4.53,0,0,1,1.81-1.31c3.88-2,7.86-3.91,11.56-6.22,1.3-.81,1.91-2.71,3.18-4.61C113.16,122.91,114,117.25,111.48,111Zm35.76-43.61c7.33-13.95,5.92-35.62-4.8-42.55,2.49,12.24,2.31,24.59,1.84,36.9C144.16,64.82,145.52,65.82,147.24,67.38Z"/><polygon class="cls-2" points="60.78 27.8 56.05 0.45 48.96 15.65 36.78 3.47 31.4 22.4 14.17 15.98 22.95 41.31 60.78 27.8"/><path d="M38.08,125.5l-1,.22c-3.37-4.51-6.67-9.07-10.14-13.5-.67-.85-2.37-1.89-2.93-1.59-1,.51-1.5,2-2,3.1a3.78,3.78,0,0,0,.06,2,79.51,79.51,0,0,0,10.86,26.74c3.88,6,10.11,6,14.69.41a14.78,14.78,0,0,0,2.56-4.45c1.21-3.46,2.13-7,3.07-10.2l5.51-2c.64,2.75,1.14,5.44,1.89,8.06A6,6,0,0,0,66.75,139a5.52,5.52,0,0,0,5.82-4.45c.78-2.86,1.49-5.74,2.08-8,2.84-.5,5.76-.3,7.77-1.55s3.43-4.06,5.08-6.15c4.31,7.4,10.8,7.63,15.51.44,2.15-3.27,4.14-6.66,6.32-9.91,1.27-1.89,2.79-3.62,4.52-5.83.89,8,1.58,15.39,2.61,22.67.18,1.23,1.82,2.25,2.78,3.37.78-1.2,2.1-2.34,2.24-3.61.77-6.82,1.25-13.66,1.81-20.2,1.89,1.21,3.7,2.94,5.84,3.65a13.71,13.71,0,0,0,16.46-6.17c6.2-10.25,6.46-20.91.78-31.54-.74-1.39-2.18-2.39-3-3.75s-1.81-2.9-1.83-4.38c-.11-6.91.47-13.86.06-20.75a175.76,175.76,0,0,0-2.75-19.72c-.18-1.05-1.92-1.83-2.94-2.73-.85,1-2.2,1.81-2.46,2.92-.79,3.32-1.16,6.75-1.72,10.26-6.22-1.09-7.1,4.43-9.53,8.13-3.51-5.27-5.77-5.88-11.9-3.19-3.15-5.21-9.42-4.38-14.06-6.94-.75-.41-2.14.38-3.24.6a15.86,15.86,0,0,1-4,.73c-5.85-.4-12.11-2-17.14,1.69C68.63,37,65.3,37.83,61.72,38.82c-1.16-3.28-3.42-4.36-6.74-3.4-1.89.55-3.48.64-5.24-1-2.44-2.26-4.39-1.31-4.86,2-.33,2.43-1.21,4.24-3.58,5.38a16.58,16.58,0,0,0-4.39,3.31,2.82,2.82,0,0,0-.38,2.65,3.08,3.08,0,0,0,2.55,1,20.83,20.83,0,0,0,4.07-1.33V59.62c-1.46,0-2.92-.45-3.6.09-1.76,1.38-3.47,1.1-5.41.82a10.68,10.68,0,0,0-9.69,3.4c-5.3,5.48-7.1,12.2-7.28,19.55-.06,2.47,0,4.94,0,7.57-1.63-.13-2.75-.5-3.67-.23-1.44.43-3.42,1-3.93,2.08s.32,3,1.15,4.18a13.28,13.28,0,0,0,3.92,3.32c2.66,1.61,4.69,3.47,5.23,6.8.45,2.81,2.25,3.12,4.6,1.72,1.82-1.08,12.82,3.3,13.49,5.3a2.56,2.56,0,0,1,.13.67ZM73,141.15a6.54,6.54,0,0,1-2.87,2.15c-3.11,1.16-4.54.3-6.33-.74a7.62,7.62,0,0,1-2-1.71c-4.49-5.33-4.72-9.31-5.21-10L54,135.32a21.26,21.26,0,0,1-1.8,4.16c-2,2.75-3.85,5.86-6.49,7.87-4.63,3.52-10.44,2.17-14.15-3.11a70.35,70.35,0,0,1-11.53-27.91c-1.16-6.3-2.88-12-8.73-15.61A9.18,9.18,0,0,1,9.8,99.33c-4.64-4.65-3.69-8.81,2.46-10.82.65-.21,1.31-.38,2.54-.74a61.1,61.1,0,0,0-1.5-6.55l5.11-14.07c3.88-5.72,8.38-10.24,16.05-9.49,5.34.53,6.45-.67,6-6.1-3,.44-5.42.06-6.62-2.79s-.06-5.23,2.45-7c.75-.51,1.52-1,2.29-1.45,2-1.17,3.55-2.24,3.75-5.08s2.21-5.72,5.48-4.46c4,1.52,7.92,1.74,12,2,.59,0,1.17.63,1.72,1,2.83,2,4.93,1.72,7.52-.7l25.43-5.24,15,6a8.87,8.87,0,0,0,2.52.83c3.35.24,6.69.34,9.44.47,1.56-1.18,3.16-3.33,5-3.59,3.37-.47,3-2.77,3.59-4.85.83-3,.73-8,2.68-9.24s8.27,1.89,8.86,4.27C144,31.59,145,54.89,145.3,64.59c.09,2.66,6.34,6,7.89,20.57-.12,4.32-2.77,13.29-4.62,17.26-2.94,6.29-8.37,9.61-15.43,10.06-3.87.25-8.18,4.41-8.66,8.29-.18,1.48-.26,3-.52,4.45-1.2,7-6.57,7.19-8.47,4.67a20.3,20.3,0,0,1-3.52-8.52l-.52-10.29c-2.42,3.68-4.87,7.17-7.08,10.81-2.41,4-5.79,5.82-10.33,4.9-2.26-.45-4.38-1.55-6.93-2.49A11.38,11.38,0,0,1,77.82,129c-1,0-1.35,1.23-1.71,1.73-1.86,2.66-1,4.82-2.64,9.2C73.27,140.48,73.09,140.89,73,141.15Z"/><path class="cls-3" d="M38.11,125.41q0-5.31,0-10.6a2,2,0,0,0-.13-.68c-.67-2-11.66-6.38-13.49-5.29-2.34,1.39-4.14,1.08-4.59-1.73-.54-3.33-2.57-5.18-5.23-6.8A13,13,0,0,1,10.73,97c-.82-1.15-1.63-3.16-1.15-4.18s2.49-1.64,3.94-2.08c.92-.27,2,.1,3.67.23,0-2.63-.05-5.1,0-7.57.18-7.34,2-14.07,7.27-19.55a10.72,10.72,0,0,1,9.7-3.4c1.94.28,3.64.57,5.41-.82.68-.53,2.13-.09,3.6-.09V47.41a20.93,20.93,0,0,1-4.08,1.33,3.09,3.09,0,0,1-2.54-1,2.79,2.79,0,0,1,.38-2.66,16.27,16.27,0,0,1,4.39-3.31c2.37-1.14,3.25-3,3.58-5.38.46-3.35,2.42-4.29,4.85-2,1.77,1.64,3.36,1.55,5.24,1,3.33-1,5.59.12,6.74,3.39,3.59-1,6.92-1.87,10.14-4.21,5-3.66,11.28-2.1,17.13-1.7a16.21,16.21,0,0,0,4-.72c1.1-.23,2.5-1,3.24-.61,4.64,2.57,10.92,1.73,14.07,7,6.12-2.7,8.39-2.09,11.9,3.18,2.42-3.7,3.31-9.22,9.53-8.13.55-3.51.92-6.94,1.71-10.26.27-1.11,1.61-1.95,2.46-2.92,1,.91,2.76,1.68,3,2.73a177.94,177.94,0,0,1,2.75,19.73c.41,6.88-.18,13.83-.07,20.74,0,1.48,1,3,1.84,4.38s2.26,2.36,3,3.75c5.67,10.63,5.41,21.29-.78,31.54a13.73,13.73,0,0,1-16.46,6.18c-2.15-.72-4-2.44-5.85-3.66-.55,6.54-1,13.39-1.8,20.2-.15,1.27-1.47,2.41-2.24,3.61-1-1.12-2.61-2.14-2.78-3.36-1-7.29-1.73-14.63-2.61-22.68-1.73,2.21-3.25,3.94-4.52,5.83-2.19,3.26-4.17,6.64-6.32,9.92-4.72,7.18-11.2,7-15.52-.45-1.64,2.1-2.93,4.81-5.08,6.15s-4.93,1-7.76,1.55c-.59,2.29-1.3,5.17-2.09,8A5.52,5.52,0,0,1,66.78,139a6.06,6.06,0,0,1-6.09-4.72c-.76-2.61-1.26-5.31-1.89-8.06l-5.52,2c-.94,3.18-1.86,6.74-3.06,10.2a15.21,15.21,0,0,1-2.56,4.45c-4.58,5.58-10.82,5.62-14.69-.41A79.38,79.38,0,0,1,22.11,115.7a3.69,3.69,0,0,1-.06-2c.49-1.15,1-2.6,2-3.11.56-.3,2.26.75,2.93,1.6,3.47,4.42,6.77,9,10.13,13.5ZM73,120c1.67,1.3,3.08,3.2,4.7,3.41s3.51-1.1,4.91-2.23c1.09-.88,1.63-2.47,2.37-3.77,1.24-2.18,2.44-4.38,4.1-7.35.5,3.4.53,5.74,1.23,7.87,1.36,4.15,6.65,5.4,9,2.06,5.13-7.27,10-14.76,14.93-22.15-6.18-.11-10.72,3.77-15.88,7.43.23-3.59.31-6.34.65-9.06a2.72,2.72,0,0,1,1.52-1.86c4.68-1.51,9.4-2.86,14.62-4.42,1.17,11.24,2.31,22.13,3.45,33a6.11,6.11,0,0,0,1.08-3.5c.51-9.54,1-19.09,1.55-28.64A15.38,15.38,0,0,1,122.42,87l1,.33c.35,4,.51,8,1.1,11.91,1.12,7.51,7.82,10.64,14.4,6.71a16.05,16.05,0,0,0,4.55-4.14c5.43-7.35,5.65-21.6.54-29.2-.88-1.31-2.32-2.25-3.23-3.54s-1.84-2.6-1.85-3.92c-.09-8.07.31-16.15.11-24.21-.15-5.73,0-11.61-2.47-17h-1.16q-.54,10.75-1.07,21.52A40.92,40.92,0,0,1,132,38.69c-.3-1-1.17-2.51-1.74-2.5a4,4,0,0,0-3,1.67,27.81,27.81,0,0,0-2.76,7c-.92,4-1.43,8-2.11,12a2.53,2.53,0,0,1-.7-1.57,124.15,124.15,0,0,0-2.15-12.53,5.54,5.54,0,0,0-3.9-3.14c-1.16-.15-2.62,1.6-3.86,2.61a10.78,10.78,0,0,0-1.44,2.13c-1.14-4.56-3.65-7.81-7.7-8-3.39-.18-6.88-4.89-10.41-.22-.22.3-1.46-.23-2.23-.26-4.68-.18-9.37-.6-14-.38A5.24,5.24,0,0,0,70.69,40c5.11,3.09,5.44,4.51,2.18,9.65-.28-1.12-.6-2.06-.75-3-.4-2.7-1-6-4-6.1-2.54-.09-6,1.09-7.51,3-2.69,3.43-4.48,7.67-6.09,11.79-1,2.71-1.14,5.79-1.66,8.71l-.4-.08c-.56-7.18-1.13-14.36-1.68-21.4l8-3.41-.45-1.47-7.84,1.2-2.42-2.75c.8,5.46-3,6.88-6.34,8.91,1.4-.35,4-1.21,5.21-1.51,0,8.84-1.19,18-1.19,26.71l-1.31.42q-2.22-4.22-4.45-8.41l-1.61,1.91c-8.61-2.43-12.61-.51-16.25,7.72-2.56,5.77-2.59,11.87-2.39,18,.05,1.42,0,2.84,0,4.18l-8.65-.7C14.52,99.13,22.45,99.6,22.4,107l3.29-2.15c4.22,1.88,8.36,3.61,12.37,5.6,1,.52,2.36,1.86,2.4,2.87.22,6.34.11,12.69.11,19l-1.23.16-7.14-9.13c-2.37-3-4.75-6.05-7.58-9.65,1,8.19,4.3,14.79,7.31,21.48a29.15,29.15,0,0,0,3.44,6c3.22,4.12,7.26,4.15,10.31-.07A20,20,0,0,0,48.9,134c1.08-5,1.62-10.1,2.45-15.52a13.62,13.62,0,0,0,1.53,3.13,5.77,5.77,0,0,0,2.87,2.08c1.81.33,2.89-.64,3.11-2.72a49.27,49.27,0,0,1,1.42-6.15,5.52,5.52,0,0,1,1,3.29c.33,4.12.52,8.27,1.08,12.36.37,2.7.85,6,4.55,5.89s3.56-3.49,4.13-5.95C71.92,126.75,72.43,123,73,120Zm28.76-21L113,94.52C106.9,94,101.87,96.29,101.73,98.9Z"/><path d="M73,120c-.54,3.06-1,6.8-1.9,10.45-.57,2.46-.58,5.85-4.13,5.95s-4.18-3.19-4.55-5.89c-.56-4.09-.75-8.24-1.08-12.36a5.52,5.52,0,0,0-1-3.29A49.27,49.27,0,0,0,58.86,121c-.22,2.08-1.3,3.05-3.11,2.72a5.77,5.77,0,0,1-2.87-2.08,13.62,13.62,0,0,1-1.53-3.13C50.52,123.89,50,129,48.9,134a20,20,0,0,1-3.22,7.16c-3,4.22-7.09,4.19-10.31.07a29.15,29.15,0,0,1-3.44-6c-3-6.69-6.3-13.29-7.31-21.48,2.83,3.6,5.21,6.62,7.58,9.65l7.14,9.13,1.23-.16c0-6.35.11-12.7-.11-19,0-1-1.35-2.35-2.4-2.87-4-2-8.15-3.72-12.37-5.6L22.4,107c.05-7.44-7.88-7.91-11.23-13.72l8.65.7c0-1.34,0-2.76,0-4.18-.2-6.13-.17-12.23,2.39-18,3.64-8.23,7.64-10.15,16.25-7.72l1.61-1.91q2.22,4.18,4.45,8.41l1.31-.42c0-8.68,1.19-17.87,1.19-26.71-1.22.3-3.81,1.16-5.21,1.51a54.74,54.74,0,0,0,5.59-4.37,29.74,29.74,0,0,0,.75-4.54l2.42,2.75,7.84-1.2.45,1.47-8,3.41c.55,7,1.12,14.22,1.68,21.4l.4.08c.52-2.92.61-6,1.66-8.71,1.61-4.12,3.4-8.36,6.09-11.79,1.47-1.87,5-3,7.51-3,3,.1,3.57,3.4,4,6.1.15,1,.47,1.91.75,3,3.26-5.14,2.93-6.56-2.18-9.65a5.24,5.24,0,0,1,5.25-4.54c4.66-.22,9.35.2,14,.38.77,0,2,.56,2.23.26,3.53-4.67,7,0,10.41.22,4,.22,6.56,3.47,7.7,8a10.78,10.78,0,0,1,1.44-2.13c1.24-1,2.7-2.76,3.86-2.61a5.54,5.54,0,0,1,3.9,3.14,124.15,124.15,0,0,1,2.15,12.53,2.53,2.53,0,0,0,.7,1.57c.68-4,1.19-8,2.11-12a27.81,27.81,0,0,1,2.76-7,4,4,0,0,1,3-1.67c.57,0,1.44,1.53,1.74,2.5a40.92,40.92,0,0,0,2.31,6.79q.52-10.75,1.07-21.52h1.16c2.42,5.4,2.32,11.28,2.47,17,.2,8.06-.2,16.14-.11,24.21,0,1.32,1,2.74,1.85,3.92s2.35,2.23,3.23,3.54c5.11,7.6,4.89,21.85-.54,29.2a16.05,16.05,0,0,1-4.55,4.14c-6.58,3.93-13.28.8-14.4-6.71-.59-3.94-.75-7.94-1.1-11.91l-1-.33a15.38,15.38,0,0,0-1.21,3.74c-.59,9.55-1,19.1-1.55,28.64a6.11,6.11,0,0,1-1.08,3.5c-1.14-10.9-2.28-21.79-3.45-33-5.22,1.56-9.94,2.91-14.62,4.42A2.72,2.72,0,0,0,99,96.16c-.34,2.72-.42,5.47-.65,9.06,5.16-3.66,9.7-7.54,15.88-7.43-5,7.39-9.8,14.88-14.93,22.15-2.36,3.34-7.65,2.09-9-2.06-.7-2.13-.73-4.47-1.23-7.87-1.66,3-2.86,5.17-4.1,7.35-.74,1.3-1.28,2.89-2.37,3.77-1.4,1.13-3.37,2.44-4.91,2.23S74.64,121.25,73,120ZM53.28,75.71c-2.17,13.2-1.63,25.85,1.38,31.79.21-.78.38-1.28.48-1.79.78-3.94,1.34-7.93,2.43-11.77.34-1.19,2.18-2.8,3.22-2.72A4.67,4.67,0,0,1,64,94.16a98,98,0,0,1,1.69,10.17c.33,2,.71,4.08,1.07,6.12l.69-.14c.62-10.43,1.48-22,2-30.88-2,2.92-3.08,8-8.48,7.13S55.31,80.42,53.28,75.71Zm-5.87,22c-7.35,1.59-10.71.25-12-6-1-4.94-.42-10.22-.26-15.34.05-1.5,1.08-3,1.64-4.41-3-1.31-4.29-.36-5.35,1.93C28.39,80.55,28,87.59,28.53,94.75a4,4,0,0,0,1.86,2.93c5.83,2.52,11.76,4.79,18,7.28ZM100,88.14l.52.75a88.2,88.2,0,0,1,9.56-2.1c3.47-.41,4.49-1.66,3.37-5.12s-1.3-7.1,2-10.16c1-.9.6-3.21.85-4.88L115.1,66a31.17,31.17,0,0,0-3.45,3.24c-.16.2.84,1.38,1.44,2.31-1.59,3-3.34,6.36-5.32,10.14L106,77.8C99.67,79.14,102,84.77,100,88.14Zm34.77-15c-.91,2.86-1.73,5.44-2.58,8.13l4.95.59c-1.85,1.6-4.28,2.7-4.66,4.28-.47,2,.67,4.44,1.19,6.67.21.89.65,1.72.93,2.59a3.31,3.31,0,0,1,0,1H131l2.75,6.18C141.78,94,142.4,79.88,134.8,73.14ZM64.19,80c.61-4.37,1.74-8.73,1.71-13.09s-1.19-9-1.86-13.5l3-.56-2.36-6.43C58.07,56,57.47,71.75,64.19,80Zm23.53-1.61c-.44-6.32-4.1-14.87-7.66-17.25V80.18ZM74.37,92.77l.58.07c.48-4.29,1.29-8.58,1.32-12.88s-.73-8.44-1.11-12.67-.72-8.27-1.08-12.4L73,55A59,59,0,0,1,73,62.85c-.81,6.06-1.77,11.88.59,18C74.92,84.43,74.17,88.78,74.37,92.77ZM96.31,62.13l1.7.38c2.27-4.16,4.74-8.24,6.69-12.56.57-1.24.19-4-.71-4.59-1.79-1.14-4.22-1.31-6.42-1.67-.32,0-1.19,1.12-1.2,1.74C96.27,51,96.31,56.56,96.31,62.13ZM45.79,84.92l-.54-.11-4,5.74-.82-.37c.38-5.48,2.39-11.22-2.29-16.32a33.62,33.62,0,0,0-.82,3.52c-.6,5.18-1.12,10.39,2.09,15,.58.84,1.91,1.86,2.67,1.71a4,4,0,0,0,2.57-2.33A48.28,48.28,0,0,0,45.79,84.92ZM91.27,67.74l.81-.13V47.22l-7.39,4.25Zm33.93,8.54c6.92-6.4,5.93-13.69,2.54-21.27Q126.47,65.66,125.2,76.28ZM90.93,81.92C85.27,83,83,86.48,84.24,91.86,91.71,90.56,91.76,90.49,90.93,81.92ZM88.26,96.73C80.82,99,82.19,97.93,82,108.05l6.25-5.7Zm13.67-27.27c2.12-3.55,5.94-5.93,4.74-10.72-3,4.53-5.86,8.85-9.21,13.89l8.84-2.44-.17-.73ZM114.8,54l-3.12,8.32C116.85,61.25,117,60.74,114.8,54Zm7.07,29.72c3.26-1.4,3.22-2.49,0-6.81Z"/><path d="M101.73,98.9c.14-2.61,5.17-4.87,11.24-4.38Z"/><path class="cls-3" d="M53.28,75.71c2,4.71,2.33,10.19,7.83,11.13s6.62-4.23,8.56-7.15c-.73,10-1.49,20.29-2.24,30.62l-.69.14c-.36-2-.74-4.07-1.07-6.12A98,98,0,0,0,64,94.16a4.67,4.67,0,0,0-3.19-2.94c-1-.08-2.88,1.53-3.22,2.72-1.09,3.84-1.65,7.83-2.43,11.77-.1.51-.27,1-.48,1.79C51.65,101.56,51.11,88.91,53.28,75.71ZM57.79,88.6,54.63,86l-.47,8Z"/><path class="cls-3" d="M47.41,97.73l1,7.23c-6.23-2.49-12.16-4.76-18-7.28a4,4,0,0,1-1.86-2.93c-.58-7.16-.14-14.2,2.95-20.89,1.06-2.29,2.38-3.24,5.35-1.93-.56,1.44-1.59,2.91-1.64,4.41-.16,5.12-.72,10.4.26,15.34C36.7,98,40.06,99.32,47.41,97.73ZM31.23,84.6c.8,3.79-2.37,8.68,2.87,12.29Z"/><path class="cls-3" d="M100,88.14c2-3.37-.36-9,6-10.34l1.76,3.88c2-3.78,3.73-7.12,5.32-10.14-.6-.93-1.6-2.11-1.44-2.31A31.17,31.17,0,0,1,115.1,66l1.19.64c-.25,1.67.11,4-.85,4.88-3.26,3.06-3.12,6.58-2,10.16s.1,4.71-3.37,5.12a88.2,88.2,0,0,0-9.56,2.1Z"/><path class="cls-3" d="M134.8,73.14c7.6,6.74,7,20.88-1.05,29.42L131,96.38h3.58a3.31,3.31,0,0,0,0-1c-.28-.87-.72-1.7-.93-2.59-.52-2.23-1.66-4.65-1.19-6.67.38-1.58,2.81-2.68,4.66-4.28l-4.95-.59C133.07,78.58,133.89,76,134.8,73.14ZM137,92.22c.23-2.09.46-4.18.7-6.41C134.58,86.7,134.52,87.08,137,92.22Z"/><path class="cls-3" d="M64.19,80c-6.72-8.22-6.12-23.94.47-33.58L67,52.82l-3,.56c.67,4.5,1.82,9,1.86,13.5S64.8,75.6,64.19,80Zm-2.1-8.38h.81V60.36h-.81Z"/><path class="cls-3" d="M87.72,78.36l-7.66,1.82V61.11C83.62,63.49,87.28,72,87.72,78.36Z"/><path class="cls-3" d="M74.37,92.77c-.2-4,.55-8.34-.81-11.89-2.36-6.15-1.4-12-.59-18A59,59,0,0,0,73,55l1-.09c.36,4.13.7,8.27,1.08,12.4S76.31,75.74,76.27,80,75.43,88.55,75,92.84Z"/><path class="cls-3" d="M96.31,62.13c0-5.57,0-11.13.06-16.7,0-.62.88-1.79,1.2-1.74,2.2.36,4.63.53,6.42,1.67.9.58,1.28,3.35.71,4.59-2,4.32-4.42,8.4-6.69,12.56Zm2.93-7.91,1.19.19a73.18,73.18,0,0,0,1.86-7.2c0-.27-2-.89-3.59-1.6C98.91,48.94,99.08,51.58,99.24,54.22Z"/><path class="cls-3" d="M45.79,84.92a48.28,48.28,0,0,1-1.1,6.84,4,4,0,0,1-2.57,2.33c-.76.15-2.09-.87-2.67-1.71-3.21-4.61-2.69-9.82-2.09-15a33.62,33.62,0,0,1,.82-3.52c4.68,5.1,2.67,10.84,2.29,16.32l.82.37,4-5.74Z"/><path class="cls-3" d="M91.27,67.74,84.69,51.47l7.39-4.25V67.61Z"/><path class="cls-3" d="M125.2,76.28q1.27-10.61,2.54-21.27C131.13,62.59,132.12,69.88,125.2,76.28Z"/><path class="cls-3" d="M90.93,81.92c.83,8.57.78,8.64-6.69,9.94C83,86.48,85.27,83,90.93,81.92Z"/><path class="cls-3" d="M88.26,96.73v5.62L82,108.05C82.19,97.93,80.82,99,88.26,96.73Z"/><path class="cls-3" d="M101.93,69.46h4.2l.17.73-8.84,2.44c3.35-5,6.21-9.36,9.21-13.89C107.87,63.53,104.05,65.91,101.93,69.46Z"/><path class="cls-3" d="M114.8,54c2.23,6.71,2,7.22-3.12,8.32Z"/><path class="cls-3" d="M121.87,83.75V76.94C125.09,81.26,125.13,82.35,121.87,83.75Z"/><path d="M57.79,88.6,54.16,94l.47-8Z"/><path d="M31.23,84.6,34.1,96.89C28.86,93.28,32,88.39,31.23,84.6Z"/><path d="M137,92.22c-2.43-5.14-2.37-5.52.7-6.41C137.41,88,137.18,90.13,137,92.22Z"/><path d="M62.09,71.59V60.37h.81V71.58Z"/><path d="M99.24,54.22c-.16-2.64-.33-5.28-.54-8.61,1.63.71,3.63,1.33,3.59,1.6a73.18,73.18,0,0,1-1.86,7.2Z"/><path class="cls-3" d="M69.47,79.43c0,.1-1.89,29.85-2,30.88l-.69.14C66,109,64.54,96.21,63.81,94c-.33-1-3.15-5.06-6-.51-1,1.67-1.42,14-3.13,14.06-1.2,0-2.93-11.36-2.9-15.15a152.44,152.44,0,0,1,1.52-16.64s0,0,0,0c.22.17,2.64,7.86,4,9,.35.29,5.9,4.19,9.15-.21A39.51,39.51,0,0,0,69.47,79.43Z"/><path class="cls-3" d="M79.42,41.94c7.49,0,4.79,2.43,1,3.5C80.27,44.84,80.42,42.37,79.42,41.94Z"/><path class="cls-4" d="M155.27,104.2,149.22,102,147,94.56a.68.68,0,0,0-1.3,0L143.4,102l-6.05,2.24a.69.69,0,0,0-.45.64.68.68,0,0,0,.45.64l6.05,2.24,2.26,7.63a.68.68,0,0,0,1.3,0l2.26-7.63,6.05-2.24a.68.68,0,0,0,.45-.64A.69.69,0,0,0,155.27,104.2Z"/><path class="cls-4" d="M139.51,125.53l-2.87-2.85.64-4.81a.42.42,0,0,0-.25-.44.41.41,0,0,0-.49.1l-3.22,3.64-4-.3a.43.43,0,0,0-.42.25.43.43,0,0,0,.08.48l2.87,2.85-.69,4.94a.42.42,0,0,0,.24.45.42.42,0,0,0,.5-.11l3.28-3.76,4,.29a.4.4,0,0,0,.42-.25A.43.43,0,0,0,139.51,125.53Z"/><path class="cls-4" d="M67.45,143.64l-6.37-1-3.68-6.82a.68.68,0,0,0-.73-.34.67.67,0,0,0-.54.6l-.76,7.7-5.5,3.39a.69.69,0,0,0-.31.71.68.68,0,0,0,.56.54l6.38,1,3.72,7a.68.68,0,0,0,1.28-.26l.71-7.93,5.49-3.38a.69.69,0,0,0-.25-1.26Z"/><path class="cls-4" d="M17.89,43.55l-5.23-3.78L12.48,32a.68.68,0,0,0-.5-.64.69.69,0,0,0-.76.29L7.06,38.2l-6.44.53a.67.67,0,0,0-.59.5A.67.67,0,0,0,.28,40l5.23,3.79.12,8a.68.68,0,0,0,1.26.35l4.23-6.75,6.43-.53a.68.68,0,0,0,.6-.5A.69.69,0,0,0,17.89,43.55Z"/><path class="cls-4" d="M80.14,16.29l-4.34-.8-2.38-4.73a.46.46,0,0,0-.5-.25.45.45,0,0,0-.38.4l-.66,5.25-3.82,2.22a.47.47,0,0,0-.23.48.46.46,0,0,0,.37.38l4.34.81L75,24.93a.46.46,0,0,0,.49.25.47.47,0,0,0,.39-.4l.63-5.41,3.82-2.22a.46.46,0,0,0,.23-.48A.48.48,0,0,0,80.14,16.29Z"/><path class="cls-4" d="M99.91,29.64,95,31l-4.87-3.68a.52.52,0,0,0-.63,0,.54.54,0,0,0-.2.61l2,5.77-2.83,4.23a.56.56,0,0,0,0,.62.55.55,0,0,0,.58.2L94,37.37l5,3.83a.54.54,0,0,0,.84-.6l-2.09-5.92,2.83-4.23a.53.53,0,0,0,0-.61A.54.54,0,0,0,99.91,29.64Z"/></g></g></g></svg>