<svg xmlns="http://www.w3.org/2000/svg" xmlns:xlink="http://www.w3.org/1999/xlink" viewBox="0 0 144.63 148.68"><defs><style>.cls-1{fill:url(#linear-gradient);}.cls-2{fill:#108f46;}.cls-3{fill:#fff;}</style><linearGradient id="linear-gradient" x1="28.9" y1="4.78" x2="118.54" y2="94.41" gradientUnits="userSpaceOnUse"><stop offset="0" stop-color="#5ebb47"/><stop offset="1" stop-color="#3cb54a"/></linearGradient></defs><g id="Layer_2" data-name="Layer 2"><g id="Layer_1-2" data-name="Layer 1"><g id="Green"><path class="cls-1" d="M39.88,7.39C-2.64,9.39,1,65.22,17.9,85c4.26,7.81,39.87,43.2,54.41,55.56-2.87,3.12,52.07-52.24,60.1-66.18,30.43-52.81-24.21-106.52-63.15-46C71.49,24.6,52.33,6.81,39.88,7.39Z"/><path class="cls-2" d="M101.28,115.57c-2.34,3-4.39,5.83-4.13,9.78.4,6.07.6,12.15.89,18.22,0,.54.21,1.08.2,1.62-.06,1.68-.23,3.76-2.36,3.46-.95-.13-2.33-2.26-2.31-3.45.11-5,.74-10,1.06-14.94.15-2.26,0-4.54,0-7.33-6.21,4.06-1.52,10.6-3.6,15.23L89.93,138V126.36L77.31,137.75c2.18,3.46,4.24,6.73,6.31,10l-.29.32-5.57-4.4-.34.35L79.29,148l-.49.56a40.64,40.64,0,0,1-5.1-4.07c-2.14-2.33-4.46-2.67-7.31-1.76-2,.64-4.16,1-6.66,1.62l6.48-6-21.67-17.2A19.78,19.78,0,0,1,42.83,125c-1.9,2.6-3.64,5.54-6.13,7.43-4.37,3.33-9.86,2.06-13.36-2.93a66.37,66.37,0,0,1-10.89-26.36c-1.09-6-2.72-11.36-8.24-14.75a8.15,8.15,0,0,1-1.46-1.3c-4.37-4.4-3.48-8.33,2.33-10.22.61-.2,1.23-.36,2.4-.7A59.07,59.07,0,0,0,6.06,70,70.25,70.25,0,0,1,1.87,47.33c-.11-17.9,8.72-30,23.8-38.28a34.54,34.54,0,0,1,22.15-3.7,22.42,22.42,0,0,1,13,6.33c2.91,2.91,5.74,5.93,8.73,9a8.17,8.17,0,0,0,1.14-1.1,35,35,0,0,1,16-14.45c9.4-4.3,18.68-6.25,28.78-4.55,13.14,2.21,26.65,14.47,28.3,27.55,1.28,10.16,1.72,20.75-3,30.49-3,6.14-3.59,12.53-3.77,19.24A31.42,31.42,0,0,1,133.8,90c-2.77,5.94-7.9,9.08-14.56,9.5-3.66.24-7.73,4.17-8.18,7.83-.17,1.4-.25,2.82-.49,4.21C109.43,118.1,107.25,119.12,101.28,115.57ZM29.46,111.8l-.95.21c-3.17-4.26-6.29-8.57-9.57-12.75-.63-.8-2.24-1.79-2.76-1.51-.91.48-1.42,1.85-1.89,2.94a3.54,3.54,0,0,0,.06,1.93,75,75,0,0,0,10.26,25.25c3.66,5.69,9.55,5.66,13.87.39a14.45,14.45,0,0,0,2.42-4.2c1.14-3.27,2-6.63,2.89-9.64l5.21-1.9c.6,2.61,1.07,5.15,1.78,7.62a5.73,5.73,0,0,0,5.76,4.45A5.22,5.22,0,0,0,62,120.38c.74-2.7,1.41-5.42,2-7.58,2.67-.47,5.43-.28,7.33-1.47s3.24-3.82,4.8-5.8c4.07,7,10.2,7.2,14.65.42,2-3.1,3.9-6.29,6-9.36,1.2-1.79,2.64-3.42,4.27-5.51.83,7.6,1.49,14.53,2.46,21.41.17,1.16,1.72,2.13,2.63,3.18.73-1.13,2-2.21,2.11-3.41.73-6.43,1.18-12.9,1.71-19.08,1.78,1.15,3.49,2.78,5.52,3.46A13,13,0,0,0,131,90.81c5.85-9.69,6.1-19.75.74-29.79-.7-1.31-2.06-2.26-2.84-3.54s-1.71-2.74-1.74-4.14c-.1-6.53.46-13.09.06-19.59a165.88,165.88,0,0,0-2.59-18.63c-.18-1-1.82-1.72-2.78-2.57-.81.91-2.08,1.71-2.32,2.75-.75,3.14-1.1,6.38-1.62,9.69-5.88-1-6.72,4.18-9,7.68-3.31-5-5.45-5.55-11.24-3-3-4.93-8.89-4.14-13.28-6.56-.7-.38-2,.36-3.06.57a14.86,14.86,0,0,1-3.77.69C72,24,66.1,22.5,61.35,26c-3,2.21-6.18,3.05-9.57,4-1.09-3.09-3.22-4.12-6.36-3.21-1.79.52-3.28.6-5-.94-2.3-2.14-4.15-1.24-4.58,1.92-.32,2.3-1.15,4-3.39,5.08a15.54,15.54,0,0,0-4.14,3.13,2.61,2.61,0,0,0-.36,2.5,2.87,2.87,0,0,0,2.4,1,19.49,19.49,0,0,0,3.85-1.26V49.59c-1.38,0-2.76-.43-3.4.08-1.67,1.3-3.28,1-5.11.77a10.09,10.09,0,0,0-9.15,3.21c-5,5.17-6.71,11.53-6.88,18.47-.05,2.33,0,4.66,0,7.15-1.54-.13-2.59-.48-3.46-.22C4.88,79.46,3,80,2.52,81S2.83,83.87,3.61,85A12.56,12.56,0,0,0,7.32,88.1c2.51,1.52,4.43,3.28,4.93,6.42.43,2.65,2.13,2.94,4.34,1.63,1.73-1,12.11,3.11,12.75,5a2.41,2.41,0,0,1,.12.64ZM31.71,42c-2.79.41-5.12.05-6.26-2.63s-.05-4.94,2.32-6.56c.71-.48,1.43-.93,2.17-1.37,1.84-1.11,3.35-2.12,3.53-4.81s2.09-5.39,5.18-4.21C42.39,23.83,46.13,24,50,24.29c.56,0,1.11.6,1.63,1,2.67,1.9,4.65,1.63,7.09-.65,1.52-1.42,1.61-2.38.13-4a24.09,24.09,0,0,0-15.53-8.22C34.12,11.32,30.86,14.19,32.6,22c.25,1.1-.38,2.39-.6,3.59l-1.21-.21c-2.66-3.35,1.61-6.83-.21-11-1,1.22-2.46,2.09-2.52,3.06-.25,3.46,0,7,0,10.43a15.71,15.71,0,0,1-.22,2.56,4.17,4.17,0,0,1-1.06,0,15.07,15.07,0,0,1-.07-2.6c.25-3.45.54-6.9.82-10.35L26,16.73c-2,2.45-4.45,4.69-6,7.42s-2.34,6.13-3.46,9.22l-.64-.13-.75-3.7L12.6,37.79l-.44-.1L13,30.1c-4.05,5.74-5.11,20.29-2.1,26.59C14.55,51.29,18.8,47,26,47.74,31.09,48.23,32.13,47.1,31.71,42Zm51-22.33q7.08,2.85,14.12,5.67a8.6,8.6,0,0,0,2.39.79c3.15.22,6.32.32,8.91.44,1.47-1.11,3-3.14,4.74-3.39,3.18-.44,2.86-2.61,3.39-4.58.78-2.86,1.65-5.69,2.53-8.73L111.5,7.9l1.23,1.24-3.18,2.67-.82-1.05c.32,1.2.65,2.4,1.19,4.39C102.35,6.51,92.14,8.55,82.7,19.64Zm16,78.54c-2.29,3.48-4.6,6.78-6.68,10.21-2.28,3.75-5.48,5.49-9.77,4.63a48.33,48.33,0,0,1-6.53-2.35A10.79,10.79,0,0,1,67,115.14c-.56,0-1.39,1-1.61,1.63-.91,2.79-1.64,5.64-2.5,8.68l8.86,6.88c3.45-3.08,6.66-5.92,9.86-8.77l-.3-.39-8.64,3.91-.31-.76c1.7-.9,3.4-1.78,5.09-2.7s3.15-1.77,4.73-2.67l-.33-.67-2.9.61a4.43,4.43,0,0,1,1.71-1.24c3.66-1.92,7.42-3.68,10.91-5.87,1.23-.76,1.81-2.55,3-4.36C100.34,109.43,101.17,104.09,98.75,98.18ZM132.53,57c6.92-13.17,5.58-33.63-4.54-40.18,2.36,11.56,2.18,23.23,1.74,34.85C129.62,54.58,130.9,55.53,132.53,57Z"/><path class="cls-3" d="M29.46,111.8v-10a2.41,2.41,0,0,0-.12-.64c-.64-1.88-11-6-12.75-5-2.21,1.31-3.91,1-4.34-1.63-.5-3.14-2.42-4.9-4.93-6.42A12.56,12.56,0,0,1,3.61,85C2.83,83.87,2.07,82,2.52,81s2.36-1.55,3.72-2c.87-.26,1.92.09,3.46.22,0-2.49,0-4.82,0-7.15.17-6.94,1.87-13.3,6.88-18.47a10.09,10.09,0,0,1,9.15-3.21c1.83.27,3.44.53,5.11-.77.64-.51,2-.08,3.4-.08V38.13a19.49,19.49,0,0,1-3.85,1.26,2.87,2.87,0,0,1-2.4-1,2.61,2.61,0,0,1,.36-2.5,15.54,15.54,0,0,1,4.14-3.13c2.24-1.08,3.07-2.78,3.39-5.08.43-3.16,2.28-4.06,4.58-1.92,1.67,1.54,3.16,1.46,5,.94,3.14-.91,5.27.12,6.36,3.21,3.39-.93,6.53-1.77,9.57-4C66.1,22.5,72,24,77.54,24.36a14.86,14.86,0,0,0,3.77-.69c1-.21,2.36-1,3.06-.57,4.39,2.42,10.31,1.63,13.28,6.56,5.79-2.54,7.93-2,11.24,3,2.29-3.5,3.13-8.71,9-7.68.52-3.31.87-6.55,1.62-9.69.24-1,1.51-1.84,2.32-2.75,1,.85,2.6,1.58,2.78,2.57a165.88,165.88,0,0,1,2.59,18.63c.4,6.5-.16,13.06-.06,19.59,0,1.4,1,2.87,1.74,4.14S131,59.71,131.73,61c5.36,10,5.11,20.1-.74,29.79a13,13,0,0,1-15.54,5.83c-2-.68-3.74-2.31-5.52-3.46-.53,6.18-1,12.65-1.71,19.08-.13,1.2-1.38,2.28-2.11,3.41-.91-1-2.46-2-2.63-3.18-1-6.88-1.63-13.81-2.46-21.41-1.63,2.09-3.07,3.72-4.27,5.51-2.07,3.07-3.94,6.26-6,9.36-4.45,6.78-10.58,6.57-14.65-.42-1.56,2-2.77,4.54-4.8,5.8s-4.66,1-7.33,1.47c-.56,2.16-1.23,4.88-2,7.58a5.22,5.22,0,0,1-5.49,4.21,5.73,5.73,0,0,1-5.76-4.45c-.71-2.47-1.18-5-1.78-7.62l-5.21,1.9c-.88,3-1.75,6.37-2.89,9.64a14.45,14.45,0,0,1-2.42,4.2c-4.32,5.27-10.21,5.3-13.87-.39a75,75,0,0,1-10.26-25.25,3.54,3.54,0,0,1-.06-1.93c.47-1.09,1-2.46,1.89-2.94.52-.28,2.13.71,2.76,1.51,3.28,4.18,6.4,8.49,9.57,12.75Zm32.92-5.16c1.59,1.23,2.91,3,4.45,3.22s3.31-1,4.63-2.1c1-.83,1.54-2.34,2.24-3.57,1.17-2,2.3-4.13,3.87-6.94.47,3.22.5,5.43,1.16,7.44,1.28,3.92,6.28,5.1,8.51,1.94,4.85-6.87,9.42-13.93,14.1-20.92-5.83-.1-10.12,3.56-15,7,.22-3.39.3-6,.62-8.56a2.55,2.55,0,0,1,1.43-1.75c4.42-1.43,8.88-2.71,13.81-4.18,1.11,10.62,2.18,20.91,3.25,31.19a5.71,5.71,0,0,0,1-3.29c.48-9,.91-18,1.46-27a14.89,14.89,0,0,1,1.14-3.54l.92.32c.33,3.75.48,7.52,1,11.24,1.06,7.1,7.39,10,13.6,6.34a15.29,15.29,0,0,0,4.3-3.91c5.12-7,5.33-20.4.5-27.58-.83-1.24-2.18-2.12-3-3.34s-1.74-2.45-1.76-3.7c-.07-7.62.3-15.25.11-22.87-.14-5.41,0-11-2.33-16.06h-1.1q-.51,10.16-1,20.33a38.24,38.24,0,0,1-2.17-6.42c-.29-.92-1.11-2.37-1.65-2.36a3.86,3.86,0,0,0-2.87,1.57,27,27,0,0,0-2.6,6.63c-.87,3.73-1.35,7.55-2,11.33a2.41,2.41,0,0,1-.66-1.49,116.88,116.88,0,0,0-2-11.83,5.24,5.24,0,0,0-3.69-3c-1.09-.15-2.48,1.51-3.64,2.47a10.1,10.1,0,0,0-1.37,2c-1.07-4.31-3.44-7.38-7.27-7.58-3.2-.18-6.49-4.63-9.82-.22-.22.29-1.38-.21-2.11-.24-4.42-.17-8.85-.57-13.25-.36a5,5,0,0,0-5,4.29c4.82,2.91,5.14,4.26,2.06,9.11a27.48,27.48,0,0,1-.7-2.86c-.39-2.55-.9-5.66-3.76-5.77-2.39-.08-5.7,1-7.09,2.81C48.2,37.68,46.51,41.69,45,45.58c-1,2.55-1.07,5.47-1.56,8.22L43,53.73,41.46,33.51l7.59-3.22-.42-1.38L41.22,30l-2.28-2.59c.75,5.16-2.83,6.49-6,8.41,1.32-.33,3.77-1.14,4.92-1.43,0,8.35-1.13,17-1.13,25.23l-1.23.39c-1.4-2.65-2.81-5.3-4.2-7.94l-1.53,1.81c-8.13-2.3-11.9-.48-15.35,7.29C12,66.65,12,72.41,12.18,78.2c0,1.34,0,2.69,0,4L4,81.49c3.17,5.49,10.65,5.93,10.61,13l3.1-2c4,1.78,7.9,3.41,11.68,5.29,1,.49,2.24,1.76,2.27,2.7.21,6,.11,12,.11,18l-1.17.15-6.74-8.63-7.15-9.11c.95,7.74,4.06,14,6.9,20.29a27.55,27.55,0,0,0,3.24,5.63c3.05,3.89,6.86,3.92,9.74-.07a18.78,18.78,0,0,0,3-6.76c1-4.71,1.54-9.53,2.31-14.65a13.51,13.51,0,0,0,1.45,3,5.46,5.46,0,0,0,2.72,2c1.7.31,2.73-.61,2.93-2.57a47.54,47.54,0,0,1,1.34-5.82,5.23,5.23,0,0,1,1,3.12c.32,3.89.49,7.8,1,11.67.35,2.55.81,5.65,4.3,5.56s3.36-3.3,3.9-5.62C61.39,113.06,61.87,109.53,62.38,106.64ZM89.54,86.76l10.62-4.13C94.43,82.16,89.68,84.3,89.54,86.76Z"/><path class="cls-2" d="M62.38,106.64c-.51,2.89-1,6.42-1.79,9.87-.54,2.32-.55,5.53-3.9,5.62s-3.95-3-4.3-5.56c-.53-3.87-.7-7.78-1-11.67a5.23,5.23,0,0,0-1-3.12,47.54,47.54,0,0,0-1.34,5.82c-.2,2-1.23,2.88-2.93,2.57a5.46,5.46,0,0,1-2.72-2,13.51,13.51,0,0,1-1.45-3c-.77,5.12-1.29,9.94-2.31,14.65a18.78,18.78,0,0,1-3,6.76c-2.88,4-6.69,4-9.74.07a27.55,27.55,0,0,1-3.24-5.63c-2.84-6.31-5.95-12.55-6.9-20.29l7.15,9.11,6.74,8.63,1.17-.15c0-6,.1-12-.11-18,0-.94-1.27-2.21-2.27-2.7-3.78-1.88-7.69-3.51-11.68-5.29l-3.1,2c0-7-7.44-7.47-10.61-13l8.17.66c0-1.26,0-2.61,0-4-.18-5.79-.16-11.55,2.25-17,3.45-7.77,7.22-9.59,15.35-7.29l1.53-1.81c1.39,2.64,2.8,5.29,4.2,7.94l1.23-.39c0-8.2,1.13-16.88,1.13-25.23-1.15.29-3.6,1.1-4.92,1.43a51,51,0,0,0,5.28-4.13,28.41,28.41,0,0,0,.71-4.28L41.22,30l7.41-1.13.42,1.38-7.59,3.22L43,53.73l.39.07c.49-2.75.56-5.67,1.56-8.22,1.52-3.89,3.21-7.9,5.75-11.13,1.39-1.77,4.7-2.89,7.09-2.81,2.86.11,3.37,3.22,3.76,5.77a27.48,27.48,0,0,0,.7,2.86c3.08-4.85,2.76-6.2-2.06-9.11a5,5,0,0,1,5-4.29c4.4-.21,8.83.19,13.25.36.73,0,1.89.53,2.11.24,3.33-4.41,6.62,0,9.82.22,3.83.2,6.2,3.27,7.27,7.58a10.1,10.1,0,0,1,1.37-2c1.16-1,2.55-2.62,3.64-2.47a5.24,5.24,0,0,1,3.69,3,116.88,116.88,0,0,1,2,11.83,2.41,2.41,0,0,0,.66,1.49c.64-3.78,1.12-7.6,2-11.33a27,27,0,0,1,2.6-6.63,3.86,3.86,0,0,1,2.87-1.57c.54,0,1.36,1.44,1.65,2.36a38.24,38.24,0,0,0,2.17,6.42q.51-10.17,1-20.33h1.1c2.28,5.1,2.19,10.65,2.33,16.06.19,7.62-.18,15.25-.11,22.87,0,1.25,1,2.59,1.76,3.7s2.21,2.1,3,3.34c4.83,7.18,4.62,20.63-.5,27.58a15.29,15.29,0,0,1-4.3,3.91c-6.21,3.71-12.54.76-13.6-6.34-.56-3.72-.71-7.49-1-11.24l-.92-.32a14.89,14.89,0,0,0-1.14,3.54c-.55,9-1,18-1.46,27.05a5.71,5.71,0,0,1-1,3.29c-1.07-10.28-2.14-20.57-3.25-31.19-4.93,1.47-9.39,2.75-13.81,4.18A2.55,2.55,0,0,0,87,84.17c-.32,2.57-.4,5.17-.62,8.56,4.88-3.46,9.17-7.12,15-7-4.68,7-9.25,14.05-14.1,20.92-2.23,3.16-7.23,2-8.51-1.94-.66-2-.69-4.22-1.16-7.44-1.57,2.81-2.7,4.89-3.87,6.94-.7,1.23-1.21,2.74-2.24,3.57-1.32,1.06-3.18,2.3-4.63,2.1S64,107.87,62.38,106.64ZM43.79,64.86c-2,12.47-1.54,24.41,1.3,30,.2-.73.36-1.2.45-1.69.74-3.71,1.27-7.49,2.31-11.12.32-1.12,2-2.64,3-2.56a4.43,4.43,0,0,1,3,2.77,95.78,95.78,0,0,1,1.59,9.61c.31,1.93.67,3.85,1,5.78l.65-.13c.59-9.85,1.4-20.76,1.93-29.17-1.84,2.76-2.91,7.61-8,6.73S45.71,69.31,43.79,64.86Zm-5.54,20.8c-6.94,1.5-10.12.23-11.3-5.71-.92-4.67-.39-9.66-.24-14.49,0-1.42,1-2.81,1.54-4.17-2.8-1.23-4.05-.33-5.05,1.83-2.92,6.31-3.33,13-2.79,19.72a3.84,3.84,0,0,0,1.76,2.77c5.5,2.38,11.11,4.52,17,6.87ZM87.94,76.6l.49.71a86.2,86.2,0,0,1,9-2c3.28-.38,4.24-1.56,3.18-4.83s-1.23-6.7,1.85-9.59c.91-.85.57-3,.81-4.62l-1.13-.6a30.44,30.44,0,0,0-3.25,3.06c-.16.19.79,1.3,1.35,2.18l-5,9.58-1.67-3.66C87.6,68.1,89.83,73.42,87.94,76.6Zm32.83-14.16c-.85,2.7-1.63,5.13-2.43,7.67l4.68.56c-1.75,1.51-4,2.55-4.4,4-.45,1.91.62,4.19,1.12,6.3.19.84.61,1.62.87,2.45a2.64,2.64,0,0,1,0,.92h-3.38c.94,2.1,1.73,3.89,2.6,5.84C127.37,82.16,128,68.8,120.77,62.44ZM54.09,68.88c.58-4.12,1.64-8.24,1.61-12.36S54.58,48,54,43.77l2.81-.52-2.23-6.08C48.32,46.28,47.75,61.12,54.09,68.88Zm22.22-1.52c-.41-6-3.87-14-7.23-16.29v18ZM63.71,81l.55.07c.44-4.05,1.21-8.11,1.24-12.16s-.69-8-1-12-.68-7.81-1-11.71l-1,.09a55.79,55.79,0,0,1,0,7.43c-.77,5.72-1.67,11.22.55,17C64.23,73.1,63.52,77.21,63.71,81ZM84.43,52,86,52.4c2.14-3.94,4.47-7.79,6.31-11.86.53-1.18.18-3.8-.67-4.34-1.69-1.07-4-1.24-6.07-1.58-.3,0-1.12,1.06-1.13,1.65C84.39,41.52,84.43,46.78,84.43,52ZM36.72,73.56l-.51-.1-3.75,5.42-.77-.35c.36-5.18,2.26-10.59-2.16-15.41a31.08,31.08,0,0,0-.77,3.32c-.57,4.89-1.06,9.81,2,14.17.55.79,1.8,1.75,2.52,1.61A3.75,3.75,0,0,0,35.68,80,46,46,0,0,0,36.72,73.56Zm43-16.22.76-.13V38l-7,4Zm32,8.06c6.54-6.05,5.6-12.93,2.4-20.08Q112.91,55.37,111.71,65.4ZM79.35,70.72C74,71.74,71.85,75,73,80.11,80.08,78.89,80.13,78.82,79.35,70.72Zm-2.53,14c-7,2.17-5.73,1.13-5.9,10.69,2.19-2,4.17-3.79,5.9-5.38ZM89.74,59c2-3.35,5.6-5.6,4.47-10.12-2.83,4.28-5.54,8.35-8.7,13.11l8.35-2.3L93.7,59Zm12.15-14.57L99,52.25C103.82,51.2,104,50.73,101.89,44.39Zm6.68,28.07c3.07-1.33,3-2.36,0-6.44Z"/><path class="cls-2" d="M89.54,86.76c.14-2.46,4.89-4.6,10.62-4.13Z"/><path class="cls-3" d="M43.79,64.86c1.92,4.45,2.2,9.62,7.39,10.51s6.25-4,8.09-6.75c-.69,9.41-1.4,19.17-2.12,28.92l-.65.13c-.34-1.93-.7-3.85-1-5.78a95.78,95.78,0,0,0-1.59-9.61,4.43,4.43,0,0,0-3-2.77c-1-.08-2.71,1.44-3,2.56-1,3.63-1.57,7.41-2.31,11.12-.09.49-.25,1-.45,1.69C42.25,89.27,41.74,77.33,43.79,64.86ZM48.05,77l-3-2.46-.45,7.52Z"/><path class="cls-3" d="M38.25,85.66l.91,6.82c-5.88-2.35-11.49-4.49-17-6.87a3.84,3.84,0,0,1-1.76-2.77c-.54-6.76-.13-13.41,2.79-19.72,1-2.16,2.25-3.06,5.05-1.83-.53,1.36-1.5,2.75-1.54,4.17C26.56,70.29,26,75.28,27,80,28.13,85.89,31.31,87.16,38.25,85.66ZM23,73.25c.75,3.59-2.24,8.2,2.71,11.61Z"/><path class="cls-3" d="M87.94,76.6c1.89-3.18-.34-8.5,5.64-9.76l1.67,3.66,5-9.58c-.56-.88-1.51-2-1.35-2.18a30.44,30.44,0,0,1,3.25-3.06l1.13.6c-.24,1.58.1,3.77-.81,4.62-3.08,2.89-2.94,6.21-1.85,9.59s.1,4.45-3.18,4.83a86.2,86.2,0,0,0-9,2Z"/><path class="cls-3" d="M120.77,62.44c7.18,6.36,6.6,19.72-1,27.78-.87-2-1.66-3.74-2.6-5.84h3.38a2.64,2.64,0,0,0,0-.92c-.26-.83-.68-1.61-.87-2.45-.5-2.11-1.57-4.39-1.12-6.3.35-1.49,2.65-2.53,4.4-4l-4.68-.56C119.14,67.57,119.92,65.14,120.77,62.44Zm2,18c.21-2,.43-4,.65-6C120.57,75.24,120.52,75.6,122.81,80.45Z"/><path class="cls-3" d="M54.09,68.88c-6.34-7.76-5.77-22.6.45-31.71l2.23,6.08L54,43.77c.62,4.26,1.71,8.5,1.74,12.75S54.67,64.76,54.09,68.88Zm-2-7.91h.76V50.37h-.76Z"/><path class="cls-3" d="M76.31,67.36l-7.23,1.72v-18C72.44,53.32,75.9,61.4,76.31,67.36Z"/><path class="cls-3" d="M63.71,81c-.19-3.76.52-7.87-.77-11.22-2.22-5.81-1.32-11.31-.55-17a55.79,55.79,0,0,0,0-7.43l1-.09c.34,3.9.66,7.81,1,11.71s1.09,8,1,12S64.7,77,64.26,81Z"/><path class="cls-3" d="M84.43,52c0-5.26,0-10.52,0-15.77,0-.59.83-1.69,1.13-1.65,2.08.34,4.38.51,6.07,1.58.85.54,1.2,3.16.67,4.34C90.51,44.61,88.18,48.46,86,52.4Zm2.77-7.48,1.11.18A65.12,65.12,0,0,0,90.07,38c.05-.26-1.85-.85-3.39-1.51C86.88,39.58,87,42.07,87.2,44.56Z"/><path class="cls-3" d="M36.72,73.56a46,46,0,0,1-1,6.46,3.75,3.75,0,0,1-2.43,2.2c-.72.14-2-.82-2.52-1.61-3-4.36-2.54-9.28-2-14.17a31.08,31.08,0,0,1,.77-3.32c4.42,4.82,2.52,10.23,2.16,15.41l.77.35,3.75-5.42Z"/><path class="cls-3" d="M79.67,57.34,73.45,42l7-4V57.21Z"/><path class="cls-3" d="M111.71,65.4q1.2-10,2.4-20.08C117.31,52.47,118.25,59.35,111.71,65.4Z"/><path class="cls-3" d="M79.35,70.72c.78,8.1.73,8.17-6.32,9.39C71.85,75,74,71.74,79.35,70.72Z"/><path class="cls-3" d="M76.82,84.71V90c-1.73,1.59-3.71,3.39-5.9,5.38C71.09,85.84,69.8,86.88,76.82,84.71Z"/><path class="cls-3" d="M89.74,59h4l.16.69L85.51,62c3.16-4.76,5.87-8.83,8.7-13.11C95.34,53.36,91.73,55.61,89.74,59Z"/><path class="cls-3" d="M101.89,44.39c2.11,6.34,1.93,6.81-2.94,7.86Z"/><path class="cls-3" d="M108.57,72.46V66C111.61,70.1,111.64,71.13,108.57,72.46Z"/><path class="cls-2" d="M48.05,77l-3.43,5.06.45-7.52Z"/><path class="cls-2" d="M23,73.25l2.71,11.61C20.73,81.45,23.72,76.84,23,73.25Z"/><path class="cls-2" d="M122.81,80.45c-2.29-4.85-2.24-5.21.65-6C123.24,76.5,123,78.48,122.81,80.45Z"/><path class="cls-2" d="M52.11,61V50.37h.76V61Z"/><path class="cls-2" d="M87.2,44.56c-.16-2.49-.32-5-.52-8.12,1.54.66,3.44,1.25,3.39,1.51a65.12,65.12,0,0,1-1.76,6.79Z"/><path class="cls-3" d="M59.08,68.37c0,.1-1.78,28.2-1.93,29.17l-.65.13c-.72-1.4-2.08-13.44-2.77-15.58-.31-1-3-4.78-5.68-.49-1,1.58-1.34,13.25-3,13.28-1.13,0-2.76-10.73-2.74-14.3a145.15,145.15,0,0,1,1.44-15.72s0,0,0,0c.21.17,2.49,7.42,3.81,8.51.34.28,5.58,4,8.64-.2A36.19,36.19,0,0,0,59.08,68.37Z"/><path class="cls-3" d="M68.48,33c7.07,0,4.52,2.3.94,3.3C69.28,35.71,69.42,33.37,68.48,33Z"/></g></g></g></svg>