<svg xmlns="http://www.w3.org/2000/svg" xmlns:xlink="http://www.w3.org/1999/xlink" viewBox="0 0 153.14 157.44"><defs><style>.cls-1{fill:url(#linear-gradient);}.cls-2{fill:#fff;}.cls-3{fill:#ffce31;}</style><linearGradient id="linear-gradient" x1="78.01" y1="1.71" x2="78.01" y2="149" gradientUnits="userSpaceOnUse"><stop offset="0.02" stop-color="#818282"/><stop offset="0.06" stop-color="#848585"/><stop offset="0.09" stop-color="#8d8e8e"/><stop offset="0.12" stop-color="#9c9d9e"/><stop offset="0.14" stop-color="#b1b3b4"/><stop offset="0.15" stop-color="#bcbec0"/><stop offset="0.22" stop-color="#bcbec0"/><stop offset="0.24" stop-color="#9fa0a2"/><stop offset="0.27" stop-color="#848587"/><stop offset="0.29" stop-color="#747576"/><stop offset="0.31" stop-color="#6e6f70"/><stop offset="0.34" stop-color="#707172"/><stop offset="0.35" stop-color="#77787a"/><stop offset="0.36" stop-color="#848586"/><stop offset="0.37" stop-color="#959798"/><stop offset="0.38" stop-color="#acaeb0"/><stop offset="0.38" stop-color="#bcbec0"/><stop offset="0.46" stop-color="#bcbec0"/><stop offset="0.46" stop-color="#b2b4b5"/><stop offset="0.48" stop-color="#949697"/><stop offset="0.51" stop-color="#7f8181"/><stop offset="0.53" stop-color="#727474"/><stop offset="0.54" stop-color="#6e7070"/><stop offset="0.57" stop-color="#8c8e8f"/><stop offset="0.6" stop-color="#a6a8aa"/><stop offset="0.62" stop-color="#b6b8ba"/><stop offset="0.64" stop-color="#bcbec0"/><stop offset="0.71" stop-color="#bcbec0"/><stop offset="0.73" stop-color="#a2a4a6"/><stop offset="0.75" stop-color="#8b8d8e"/><stop offset="0.77" stop-color="#7b7c7d"/><stop offset="0.79" stop-color="#717273"/><stop offset="0.82" stop-color="#6e6f70"/><stop offset="0.84" stop-color="#747576"/><stop offset="0.87" stop-color="#868788"/><stop offset="0.9" stop-color="#a2a4a6"/><stop offset="0.92" stop-color="#bcbec0"/></linearGradient></defs><g id="Layer_2" data-name="Layer 2"><g id="Layer_1-2" data-name="Layer 1"><g id="Silver"><path class="cls-1" d="M42.23,7.83C-2.79,9.94,1.08,69.07,19,90c4.52,8.27,42.22,45.74,57.62,58.83-3,3.3,55.14-55.32,63.64-70.08C172.43,22.86,114.57-34,73.34,30.08,75.7,26.05,55.41,7.21,42.23,7.83Z"/><path d="M107.25,122.37c-2.49,3.19-4.65,6.18-4.38,10.36.42,6.43.63,12.86.95,19.29,0,.58.22,1.15.2,1.72-.06,1.78-.24,4-2.49,3.67-1-.14-2.48-2.4-2.45-3.66.12-5.28.78-10.54,1.13-15.82.15-2.4,0-4.81,0-7.76-6.57,4.3-1.6,11.22-3.8,16.13l-1.2-.19V133.8L81.87,145.86l6.67,10.59-.3.34-5.9-4.66-.36.38,2,4.15-.52.6a43,43,0,0,1-5.4-4.32c-2.27-2.46-4.73-2.82-7.74-1.86-2.16.68-4.41,1.09-7,1.72l6.86-6.38-23-18.22a20.2,20.2,0,0,1-1.81,4.16c-2,2.75-3.85,5.86-6.49,7.87-4.62,3.52-10.44,2.18-14.15-3.1a70.25,70.25,0,0,1-11.52-27.91c-1.16-6.31-2.89-12-8.73-15.62a9.18,9.18,0,0,1-1.55-1.38C-1.72,87.56-.77,83.4,5.37,81.39c.65-.21,1.31-.38,2.55-.74a60.92,60.92,0,0,0-1.5-6.54A74.27,74.27,0,0,1,2,50.12c-.12-19,9.24-31.76,25.2-40.53A36.45,36.45,0,0,1,50.63,5.67a23.77,23.77,0,0,1,13.76,6.69c3.09,3.09,6.07,6.28,9.25,9.57a7.41,7.41,0,0,0,1.2-1.17,37.19,37.19,0,0,1,17-15.3c10-4.55,19.78-6.61,30.48-4.81C136.18,3,150.49,16,152.23,29.82c1.36,10.75,1.83,22-3.16,32.28-3.15,6.5-3.8,13.27-4,20.37a33.38,33.38,0,0,1-3.4,12.83c-2.94,6.29-8.37,9.61-15.42,10.06-3.88.25-8.18,4.41-8.66,8.29-.18,1.48-.27,3-.52,4.46C115.88,125.06,113.56,126.14,107.25,122.37Zm-76-4-1,.23c-3.36-4.52-6.66-9.07-10.14-13.5-.66-.85-2.36-1.9-2.92-1.6-1,.51-1.5,2-2,3.11a3.6,3.6,0,0,0,.06,2,79.51,79.51,0,0,0,10.86,26.74c3.87,6,10.11,6,14.69.4a15.21,15.21,0,0,0,2.56-4.45c1.2-3.46,2.12-7,3.06-10.2l5.52-2c.63,2.76,1.13,5.45,1.88,8.06a6.07,6.07,0,0,0,6.1,4.72,5.52,5.52,0,0,0,5.81-4.46c.79-2.86,1.5-5.74,2.09-8,2.83-.49,5.75-.29,7.76-1.55s3.43-4,5.08-6.15c4.32,7.41,10.8,7.63,15.51.45,2.15-3.28,4.14-6.66,6.33-9.91,1.27-1.9,2.79-3.63,4.51-5.84.89,8.06,1.59,15.39,2.62,22.68.17,1.22,1.81,2.24,2.78,3.36.77-1.2,2.09-2.34,2.24-3.61.77-6.81,1.25-13.66,1.8-20.2,1.89,1.22,3.7,2.94,5.85,3.66a13.73,13.73,0,0,0,16.46-6.17c6.19-10.26,6.45-20.91.77-31.55-.74-1.39-2.17-2.39-3-3.74s-1.81-2.91-1.84-4.39c-.11-6.91.48-13.85.07-20.74A178.27,178.27,0,0,0,132,16c-.19-1.05-1.93-1.82-3-2.72-.85,1-2.19,1.81-2.46,2.91-.79,3.33-1.16,6.75-1.71,10.26-6.22-1.09-7.11,4.43-9.53,8.13-3.51-5.27-5.78-5.87-11.9-3.18C100.26,26.19,94,27,89.34,24.46c-.74-.41-2.14.39-3.24.61a16.21,16.21,0,0,1-4,.72c-5.85-.4-12.11-2-17.14,1.7-3.21,2.34-6.54,3.22-10.13,4.21-1.15-3.27-3.41-4.36-6.74-3.39-1.89.55-3.47.63-5.24-1-2.43-2.25-4.39-1.31-4.85,2-.34,2.43-1.21,4.24-3.58,5.39A16,16,0,0,0,30,38a2.82,2.82,0,0,0-.39,2.66,3.12,3.12,0,0,0,2.55,1,20.93,20.93,0,0,0,4.08-1.33V52.51c-1.47,0-2.92-.45-3.6.08-1.77,1.39-3.47,1.1-5.41.82a10.71,10.71,0,0,0-9.7,3.4c-5.3,5.48-7.09,12.21-7.28,19.55-.06,2.47,0,4.94,0,7.57-1.64-.13-2.75-.5-3.67-.23-1.45.44-3.42,1-3.94,2.08S3,88.81,3.82,90a13,13,0,0,0,3.93,3.32c2.66,1.62,4.69,3.48,5.22,6.8.46,2.81,2.26,3.12,4.6,1.73,1.83-1.09,12.82,3.29,13.49,5.29a2,2,0,0,1,.13.68C31.2,111.31,31.2,114.85,31.2,118.38Zm2.38-73.94c-3,.44-5.43.06-6.63-2.78s-.05-5.24,2.46-6.95c.74-.51,1.51-1,2.29-1.45,1.95-1.17,3.55-2.25,3.74-5.09s2.21-5.71,5.49-4.46c4,1.52,7.91,1.74,12,2,.6,0,1.18.63,1.73,1,2.82,2,4.92,1.72,7.51-.7,1.6-1.49,1.7-2.51.13-4.22a25.51,25.51,0,0,0-16.45-8.71C36.13,12,32.67,15,34.52,23.27c.26,1.16-.4,2.52-.63,3.8l-1.29-.23c-2.82-3.54,1.71-7.23-.22-11.69-1.11,1.29-2.6,2.22-2.67,3.24-.26,3.67,0,7.36,0,11.05a17.47,17.47,0,0,1-.23,2.7,3.82,3.82,0,0,1-1.12,0,16.82,16.82,0,0,1-.08-2.75c.27-3.65.58-7.31.87-11l-1.66-.7c-2.16,2.6-4.71,5-6.35,7.86s-2.47,6.49-3.66,9.76l-.68-.13L16,31.28,13.34,40l-.46-.1.88-8C9.47,38,8.34,53.35,11.53,60c3.88-5.72,8.38-10.24,16-9.48C32.92,51.07,34,49.88,33.58,44.44Zm54-23.64c5,2,10,4,15,6a8.94,8.94,0,0,0,2.53.83c3.34.24,6.69.34,9.44.47,1.55-1.18,3.16-3.33,5-3.59,3.37-.46,3-2.77,3.59-4.84.82-3,1.74-6,2.68-9.25l-7.71-2.06,1.29,1.32L116,12.51l-.87-1.11c.35,1.27.69,2.54,1.26,4.65C108.37,6.89,97.57,9.05,87.57,20.8Zm17,83.17c-2.42,3.67-4.87,7.17-7.08,10.8-2.42,4-5.8,5.82-10.34,4.91a51.1,51.1,0,0,1-6.92-2.5,11.41,11.41,0,0,1-9.3,4.74c-.59,0-1.47,1-1.7,1.72-1,3-1.74,6-2.64,9.2L76,140.12l10.45-9.29-.32-.41-9.16,4.14-.32-.8c1.8-.95,3.6-1.88,5.39-2.86s3.34-1.88,5-2.82l-.36-.72-3.06.65a4.56,4.56,0,0,1,1.81-1.31c3.88-2,7.85-3.91,11.56-6.22,1.3-.81,1.91-2.7,3.18-4.61C106.25,115.88,107.13,110.22,104.57,104Zm35.76-43.62c7.33-14,5.91-35.62-4.8-42.55C138,30,137.84,42.39,137.37,54.7,137.25,57.79,138.6,58.8,140.33,60.35Z"/><path class="cls-2" d="M31.2,118.38c0-3.53,0-7.07,0-10.6a2,2,0,0,0-.13-.68c-.67-2-11.66-6.38-13.49-5.29-2.34,1.39-4.14,1.08-4.6-1.73-.53-3.32-2.56-5.18-5.22-6.8A13,13,0,0,1,3.82,90C3,88.81,2.19,86.8,2.67,85.78s2.49-1.64,3.94-2.08c.92-.27,2,.1,3.67.23,0-2.63-.06-5.1,0-7.57.19-7.34,2-14.07,7.28-19.55a10.71,10.71,0,0,1,9.7-3.4c1.94.28,3.64.57,5.41-.82.68-.53,2.13-.08,3.6-.08V40.38a20.93,20.93,0,0,1-4.08,1.33,3.12,3.12,0,0,1-2.55-1A2.82,2.82,0,0,1,30,38a16,16,0,0,1,4.39-3.3c2.37-1.15,3.24-3,3.58-5.39.46-3.35,2.42-4.29,4.85-2,1.77,1.64,3.35,1.56,5.24,1,3.33-1,5.59.12,6.74,3.39,3.59-1,6.92-1.87,10.13-4.21,5-3.66,11.29-2.1,17.14-1.7a16.21,16.21,0,0,0,4-.72c1.1-.22,2.5-1,3.24-.61,4.64,2.57,10.92,1.73,14.07,7,6.12-2.69,8.39-2.09,11.9,3.18,2.42-3.7,3.31-9.22,9.53-8.13.55-3.51.92-6.93,1.71-10.26.27-1.1,1.61-1.95,2.46-2.91,1,.9,2.76,1.67,3,2.72a178.27,178.27,0,0,1,2.75,19.73c.41,6.89-.18,13.83-.07,20.74,0,1.48,1,3,1.84,4.39s2.26,2.35,3,3.74c5.68,10.64,5.42,21.29-.77,31.55a13.73,13.73,0,0,1-16.46,6.17c-2.15-.72-4-2.44-5.85-3.66-.55,6.54-1,13.39-1.8,20.2-.15,1.27-1.47,2.41-2.24,3.61-1-1.12-2.61-2.14-2.78-3.36-1-7.29-1.73-14.62-2.62-22.68-1.72,2.21-3.24,3.94-4.51,5.84-2.19,3.25-4.18,6.63-6.33,9.91-4.71,7.18-11.19,7-15.51-.45-1.65,2.1-2.93,4.81-5.08,6.15s-4.93,1.06-7.76,1.55c-.59,2.29-1.3,5.17-2.09,8a5.52,5.52,0,0,1-5.81,4.46,6.07,6.07,0,0,1-6.1-4.72c-.75-2.61-1.25-5.3-1.88-8.06l-5.52,2c-.94,3.19-1.86,6.74-3.06,10.2a15.21,15.21,0,0,1-2.56,4.45c-4.58,5.58-10.82,5.62-14.69-.4A79.51,79.51,0,0,1,15.2,108.67a3.6,3.6,0,0,1-.06-2c.49-1.15,1-2.6,2-3.11.56-.3,2.26.75,2.92,1.6,3.48,4.43,6.78,9,10.14,13.5Zm34.85-5.46c1.68,1.3,3.09,3.2,4.71,3.41s3.51-1.1,4.91-2.23c1.09-.88,1.63-2.47,2.37-3.77,1.24-2.18,2.44-4.38,4.1-7.35.5,3.4.53,5.74,1.23,7.87,1.36,4.15,6.65,5.4,9,2.06,5.14-7.27,10-14.76,14.93-22.15-6.17-.11-10.71,3.77-15.88,7.43.24-3.59.32-6.34.66-9.06a2.7,2.7,0,0,1,1.52-1.86c4.67-1.51,9.4-2.86,14.62-4.42,1.17,11.24,2.31,22.13,3.44,33a6.12,6.12,0,0,0,1.09-3.49c.51-9.55,1-19.1,1.54-28.64A15.79,15.79,0,0,1,115.51,80l1,.33c.35,4,.51,8,1.1,11.91,1.12,7.51,7.82,10.64,14.4,6.71a15.91,15.91,0,0,0,4.55-4.14c5.43-7.35,5.65-21.6.54-29.2-.89-1.31-2.32-2.24-3.23-3.54S132,59.47,132,58.15c-.08-8.07.32-16.15.11-24.21-.14-5.73,0-11.61-2.46-17h-1.17q-.52,10.76-1.07,21.52a41.8,41.8,0,0,1-2.3-6.79c-.3-1-1.17-2.51-1.74-2.49a4,4,0,0,0-3,1.66,28.16,28.16,0,0,0-2.75,7c-.92,3.95-1.43,8-2.11,12a2.5,2.5,0,0,1-.7-1.57,124.15,124.15,0,0,0-2.15-12.53,5.54,5.54,0,0,0-3.9-3.14c-1.16-.15-2.63,1.6-3.86,2.61a10.74,10.74,0,0,0-1.45,2.13c-1.13-4.56-3.65-7.8-7.69-8-3.39-.19-6.88-4.9-10.41-.23-.23.3-1.46-.22-2.23-.25-4.68-.19-9.37-.61-14-.39A5.27,5.27,0,0,0,63.77,33c5.12,3.09,5.45,4.51,2.19,9.66-.28-1.13-.6-2.07-.75-3-.4-2.71-.95-6-4-6.11-2.53-.09-6,1.09-7.5,3C51,39.9,49.25,44.14,47.64,48.26,46.59,51,46.5,54.06,46,57l-.4-.07C45,49.71,44.45,42.53,43.9,35.49l8-3.41-.45-1.47-7.84,1.2-2.42-2.75c.8,5.47-3,6.88-6.34,8.91,1.4-.35,4-1.21,5.21-1.51,0,8.84-1.2,18-1.2,26.71l-1.3.42-4.45-8.41-1.61,1.91c-8.61-2.43-12.61-.5-16.26,7.72-2.55,5.77-2.58,11.87-2.38,18,0,1.42,0,2.84,0,4.18l-8.65-.7C7.61,92.1,15.54,92.57,15.49,100l3.29-2.15c4.22,1.88,8.36,3.61,12.36,5.6,1.06.53,2.37,1.86,2.41,2.87.22,6.34.11,12.69.11,19l-1.24.16-7.13-9.13c-2.37-3-4.75-6.05-7.58-9.65,1,8.19,4.3,14.8,7.31,21.48a28.89,28.89,0,0,0,3.44,6c3.22,4.12,7.26,4.16,10.3-.07A19.64,19.64,0,0,0,42,127c1.09-5,1.63-10.1,2.46-15.52A13.62,13.62,0,0,0,46,114.57a5.85,5.85,0,0,0,2.87,2.09c1.81.32,2.89-.65,3.11-2.73a49.27,49.27,0,0,1,1.42-6.15,5.46,5.46,0,0,1,1,3.29c.34,4.13.53,8.27,1.09,12.36.36,2.7.85,6,4.55,5.89,3.55-.09,3.56-3.49,4.13-5.94C65,119.72,65.51,116,66.05,112.92Zm28.77-21,11.24-4.37C100,87,95,89.26,94.82,91.87Z"/><path d="M66.05,112.92c-.54,3.06-1,6.8-1.89,10.46-.57,2.45-.58,5.85-4.13,5.94-3.7.1-4.19-3.19-4.55-5.89-.56-4.09-.75-8.23-1.09-12.36a5.46,5.46,0,0,0-1-3.29A49.27,49.27,0,0,0,52,113.93c-.22,2.08-1.3,3-3.11,2.73A5.85,5.85,0,0,1,46,114.57a13.62,13.62,0,0,1-1.53-3.13C43.61,116.86,43.07,122,42,127a19.64,19.64,0,0,1-3.22,7.16c-3,4.23-7.08,4.19-10.3.07a28.89,28.89,0,0,1-3.44-6c-3-6.68-6.3-13.29-7.31-21.48,2.83,3.6,5.21,6.62,7.58,9.65l7.13,9.13,1.24-.16c0-6.35.11-12.7-.11-19,0-1-1.35-2.34-2.41-2.87-4-2-8.14-3.72-12.36-5.6L15.49,100c0-7.44-7.88-7.91-11.23-13.72l8.65.7c0-1.34,0-2.76,0-4.18-.2-6.13-.17-12.23,2.38-18,3.65-8.22,7.65-10.15,16.26-7.72l1.61-1.91,4.45,8.41,1.3-.42c0-8.68,1.2-17.87,1.2-26.71-1.22.3-3.81,1.16-5.21,1.51a54.74,54.74,0,0,0,5.59-4.37,29.74,29.74,0,0,0,.75-4.54l2.42,2.75,7.84-1.2.45,1.47-8,3.41c.55,7,1.11,14.22,1.68,21.41L46,57c.52-2.91.61-6,1.66-8.71,1.61-4.12,3.4-8.36,6.09-11.78,1.47-1.88,5-3.06,7.5-3,3,.11,3.58,3.4,4,6.11.15,1,.47,1.9.75,3,3.26-5.15,2.93-6.57-2.19-9.66A5.27,5.27,0,0,1,69,28.45c4.66-.22,9.35.2,14,.39.77,0,2,.55,2.23.25,3.53-4.67,7,0,10.41.23,4,.22,6.56,3.46,7.69,8a10.74,10.74,0,0,1,1.45-2.13c1.23-1,2.7-2.76,3.86-2.61a5.54,5.54,0,0,1,3.9,3.14,124.15,124.15,0,0,1,2.15,12.53,2.5,2.5,0,0,0,.7,1.57c.68-4,1.19-8.05,2.11-12a28.16,28.16,0,0,1,2.75-7,4,4,0,0,1,3-1.66c.57,0,1.44,1.52,1.74,2.49a41.8,41.8,0,0,0,2.3,6.79q.54-10.76,1.07-21.52h1.17c2.42,5.4,2.32,11.28,2.46,17,.21,8.06-.19,16.14-.11,24.21,0,1.32,1,2.75,1.86,3.92s2.34,2.23,3.23,3.54c5.11,7.6,4.89,21.85-.54,29.2A15.91,15.91,0,0,1,132,99c-6.58,3.93-13.28.8-14.4-6.71-.59-3.94-.75-7.94-1.1-11.91l-1-.33a15.79,15.79,0,0,0-1.22,3.75c-.58,9.54-1,19.09-1.54,28.64a6.12,6.12,0,0,1-1.09,3.49c-1.13-10.9-2.27-21.79-3.44-33-5.22,1.56-10,2.91-14.62,4.42a2.7,2.7,0,0,0-1.52,1.86c-.34,2.72-.42,5.47-.66,9.06,5.17-3.66,9.71-7.54,15.88-7.43-5,7.39-9.79,14.88-14.93,22.15-2.35,3.34-7.64,2.09-9-2.06-.7-2.13-.73-4.47-1.23-7.87-1.66,3-2.86,5.17-4.1,7.35-.74,1.3-1.28,2.89-2.37,3.77-1.4,1.13-3.37,2.44-4.91,2.23S67.73,114.22,66.05,112.92ZM46.36,68.68c-2.16,13.2-1.62,25.85,1.39,31.79.21-.78.38-1.28.48-1.79.78-3.94,1.34-7.93,2.43-11.77.34-1.19,2.18-2.8,3.22-2.72a4.67,4.67,0,0,1,3.19,2.94A98,98,0,0,1,58.76,97.3c.32,2,.71,4.08,1.07,6.12l.69-.14c.62-10.43,1.48-22,2-30.88-2,2.92-3.09,8-8.48,7.13S48.4,73.39,46.36,68.68Zm-5.86,22c-7.35,1.6-10.71.25-12-6-1-4.94-.42-10.22-.26-15.34,0-1.5,1.08-3,1.64-4.41-3-1.31-4.3-.36-5.35,1.93-3.1,6.69-3.53,13.73-2.95,20.89a4,4,0,0,0,1.86,2.93c5.82,2.52,11.76,4.79,18,7.28Zm52.62-9.59.52.75a88.55,88.55,0,0,1,9.55-2.1c3.48-.41,4.5-1.66,3.38-5.12s-1.31-7.09,2-10.15c1-.91.61-3.22.86-4.89L108.19,59a33.19,33.19,0,0,0-3.45,3.24c-.16.2.84,1.38,1.44,2.31-1.59,3-3.34,6.36-5.32,10.14l-1.77-3.88C92.75,72.11,95.12,77.74,93.12,81.11Zm34.77-15c-.91,2.85-1.73,5.43-2.58,8.12l4.95.59c-1.85,1.6-4.28,2.7-4.66,4.28-.48,2,.67,4.44,1.19,6.67.2.89.65,1.72.92,2.6a2.94,2.94,0,0,1,0,1h-3.58l2.75,6.18C134.87,87,135.49,72.85,127.89,66.12ZM57.28,72.94c.61-4.36,1.73-8.73,1.7-13.09s-1.18-9-1.85-13.5l3-.56-2.36-6.43C51.16,49,50.56,64.72,57.28,72.94ZM80.8,71.33c-.43-6.31-4.09-14.87-7.65-17.25V73.15ZM67.46,85.74l.58.07c.47-4.29,1.28-8.58,1.32-12.88s-.73-8.44-1.11-12.67-.72-8.27-1.08-12.4l-1,.09a59,59,0,0,1-.06,7.87c-.81,6.06-1.77,11.88.59,18C68,77.4,67.26,81.75,67.46,85.74ZM89.4,55.1l1.7.39c2.27-4.17,4.74-8.25,6.69-12.57.56-1.24.19-4-.71-4.59-1.79-1.14-4.22-1.31-6.42-1.67-.32,0-1.19,1.13-1.2,1.74C89.36,44,89.4,49.53,89.4,55.1ZM38.88,77.89l-.54-.11-4,5.75-.82-.38c.38-5.48,2.39-11.21-2.29-16.32a34.22,34.22,0,0,0-.82,3.52c-.6,5.18-1.12,10.39,2.09,15,.58.84,1.91,1.85,2.67,1.7a4,4,0,0,0,2.57-2.33A48.28,48.28,0,0,0,38.88,77.89ZM84.36,60.71l.81-.13V40.19l-7.4,4.25Zm33.93,8.54c6.92-6.4,5.93-13.69,2.54-21.27Q119.56,58.63,118.29,69.25ZM84,74.89c-5.66,1.07-7.94,4.56-6.69,9.94C84.8,83.53,84.85,83.47,84,74.89ZM81.35,89.7C73.91,92,75.28,90.9,75.1,101l6.25-5.69ZM95,62.43c2.11-3.55,5.94-5.93,4.74-10.72L90.55,65.6l8.84-2.44-.17-.73ZM107.89,47l-3.12,8.32C109.94,54.22,110.12,53.71,107.89,47ZM115,76.72c3.26-1.4,3.22-2.49,0-6.81Z"/><path d="M94.82,91.87C95,89.26,100,87,106.06,87.5Z"/><path class="cls-2" d="M46.36,68.68c2,4.71,2.34,10.19,7.84,11.13s6.61-4.23,8.56-7.15c-.73,10-1.49,20.3-2.24,30.62l-.69.14c-.36-2-.75-4.07-1.07-6.12a98,98,0,0,0-1.69-10.17,4.67,4.67,0,0,0-3.19-2.94c-1-.08-2.88,1.53-3.22,2.72-1.09,3.84-1.65,7.83-2.43,11.77-.1.51-.27,1-.48,1.79C44.74,94.53,44.2,81.88,46.36,68.68Zm4.52,12.89L47.72,79l-.47,8Z"/><path class="cls-2" d="M40.5,90.7l1,7.23c-6.23-2.49-12.17-4.76-18-7.28a4,4,0,0,1-1.86-2.93c-.58-7.16-.15-14.2,2.95-20.89,1.05-2.29,2.38-3.24,5.35-1.93-.56,1.44-1.59,2.91-1.64,4.41-.16,5.12-.72,10.4.26,15.34C29.79,91,33.15,92.3,40.5,90.7ZM24.32,77.57c.79,3.79-2.37,8.68,2.87,12.29Z"/><path class="cls-2" d="M93.12,81.11c2-3.37-.37-9,6-10.34l1.77,3.88c2-3.78,3.73-7.12,5.32-10.14-.6-.93-1.6-2.11-1.44-2.31A33.19,33.19,0,0,1,108.19,59l1.19.64c-.25,1.67.11,4-.86,4.89-3.26,3.06-3.11,6.57-2,10.15s.1,4.71-3.38,5.12a88.55,88.55,0,0,0-9.55,2.1Z"/><path class="cls-2" d="M127.89,66.12c7.6,6.73,7,20.87-1,29.41l-2.75-6.18h3.58a2.94,2.94,0,0,0,0-1c-.27-.88-.72-1.71-.92-2.6-.52-2.23-1.67-4.65-1.19-6.67.38-1.58,2.81-2.68,4.66-4.28l-4.95-.59C126.16,71.55,127,69,127.89,66.12ZM130,85.19c.23-2.09.45-4.18.69-6.41C127.67,79.67,127.61,80.05,130,85.19Z"/><path class="cls-2" d="M57.28,72.94c-6.72-8.22-6.12-23.94.47-33.58l2.36,6.43-3,.56c.67,4.5,1.82,9,1.85,13.5S57.89,68.58,57.28,72.94Zm-2.1-8.38H56V53.33h-.81Z"/><path class="cls-2" d="M80.8,71.33l-7.65,1.82V54.08C76.71,56.46,80.37,65,80.8,71.33Z"/><path class="cls-2" d="M67.46,85.74c-.2-4,.55-8.34-.81-11.89-2.36-6.15-1.4-12-.59-18A59,59,0,0,0,66.12,48l1-.09c.36,4.13.7,8.27,1.08,12.4s1.15,8.45,1.11,12.67S68.51,81.52,68,85.81Z"/><path class="cls-2" d="M89.4,55.1c0-5.57,0-11.13.06-16.7,0-.61.88-1.79,1.2-1.74,2.2.36,4.63.53,6.42,1.67.9.58,1.27,3.35.71,4.59-2,4.32-4.42,8.4-6.69,12.57Zm2.93-7.91,1.18.19a73.24,73.24,0,0,0,1.87-7.2c0-.27-2-.89-3.59-1.6C92,41.91,92.16,44.55,92.33,47.19Z"/><path class="cls-2" d="M38.88,77.89a48.28,48.28,0,0,1-1.1,6.84,4,4,0,0,1-2.57,2.33c-.76.15-2.09-.86-2.67-1.7-3.21-4.62-2.69-9.83-2.09-15a34.22,34.22,0,0,1,.82-3.52c4.68,5.11,2.67,10.84,2.29,16.32l.82.38,4-5.75Z"/><path class="cls-2" d="M84.36,60.71,77.77,44.44l7.4-4.25V60.58Z"/><path class="cls-2" d="M118.29,69.25q1.27-10.61,2.54-21.27C124.22,55.56,125.21,62.85,118.29,69.25Z"/><path class="cls-2" d="M84,74.89c.83,8.58.78,8.64-6.69,9.94C76.08,79.45,78.36,76,84,74.89Z"/><path class="cls-2" d="M81.35,89.7v5.63L75.1,101C75.28,90.9,73.91,92,81.35,89.7Z"/><path class="cls-2" d="M95,62.43h4.2l.17.73L90.55,65.6l9.21-13.89C101,56.5,97.13,58.88,95,62.43Z"/><path class="cls-2" d="M107.89,47c2.23,6.71,2,7.22-3.12,8.32Z"/><path class="cls-2" d="M115,76.72V69.91C118.18,74.23,118.22,75.32,115,76.72Z"/><path d="M50.88,81.57l-3.63,5.35.47-8Z"/><path d="M24.32,77.57l2.87,12.29C22,86.25,25.11,81.36,24.32,77.57Z"/><path d="M130,85.19c-2.43-5.14-2.37-5.52.69-6.41C130.49,81,130.27,83.1,130,85.19Z"/><path d="M55.18,64.56V53.34H56V64.55Z"/><path d="M92.33,47.19c-.17-2.64-.33-5.28-.54-8.61,1.62.71,3.63,1.33,3.59,1.6a73.24,73.24,0,0,1-1.87,7.2Z"/><path class="cls-2" d="M62.56,72.4c0,.1-1.89,29.85-2,30.88l-.69.14c-.77-1.48-2.2-14.23-2.93-16.5-.33-1-3.15-5.06-6-.51-1.06,1.67-1.42,14-3.13,14.06-1.2,0-2.93-11.36-2.9-15.15a153.18,153.18,0,0,1,1.51-16.64s0,0,0,0c.23.18,2.65,7.86,4,9,.36.29,5.91,4.19,9.15-.21A38.25,38.25,0,0,0,62.56,72.4Z"/><path class="cls-2" d="M72.51,34.91c7.49,0,4.79,2.44,1,3.5C73.36,37.81,73.51,35.34,72.51,34.91Z"/><path class="cls-3" d="M149.52,98.9l-6.05-2.24-2.26-7.41a.69.69,0,0,0-.65-.48.68.68,0,0,0-.65.48l-2.26,7.41-6.06,2.24a.68.68,0,0,0-.44.64.7.7,0,0,0,.44.64l6,2.24,2.27,7.63a.68.68,0,0,0,.65.49.68.68,0,0,0,.65-.49l2.26-7.63,6.05-2.24a.69.69,0,0,0,.45-.64A.68.68,0,0,0,149.52,98.9Z"/><path class="cls-3" d="M133.76,120.23l-2.87-2.85.64-4.82a.44.44,0,0,0-.25-.44.43.43,0,0,0-.5.11l-3.21,3.63-4-.29a.43.43,0,0,0-.42.25.43.43,0,0,0,.09.48l2.87,2.85-.69,4.94a.42.42,0,0,0,.24.45.43.43,0,0,0,.5-.11l3.27-3.77,4,.3a.44.44,0,0,0,.42-.25A.43.43,0,0,0,133.76,120.23Z"/><path class="cls-3" d="M61.7,137.34l-6.38-1-3.67-6.81a.67.67,0,0,0-1.27.25l-.76,7.71-5.5,3.39a.68.68,0,0,0,.25,1.25l6.38,1,3.71,7a.68.68,0,0,0,.74.35.67.67,0,0,0,.54-.6l.72-7.93L62,138.59a.67.67,0,0,0,.31-.71A.69.69,0,0,0,61.7,137.34Z"/><path class="cls-3" d="M18.13,23.83,12.9,20l-.19-7.74a.67.67,0,0,0-.49-.64.69.69,0,0,0-.76.29L7.29,18.48.86,19a.68.68,0,0,0-.6.5.69.69,0,0,0,.26.73L5.74,24l.13,8a.7.7,0,0,0,.5.65.68.68,0,0,0,.76-.3l4.23-6.74,6.43-.53a.7.7,0,0,0,.6-.5A.69.69,0,0,0,18.13,23.83Z"/><path class="cls-3" d="M74.39,11l-4.34-.81L67.66,5.45a.46.46,0,0,0-.87.15l-.66,5.26L62.3,13.08a.47.47,0,0,0-.22.48.47.47,0,0,0,.37.38l4.34.8,2.42,4.89a.47.47,0,0,0,.49.25.48.48,0,0,0,.39-.41l.63-5.41,3.82-2.21a.47.47,0,0,0,.23-.48A.48.48,0,0,0,74.39,11Z"/><path class="cls-3" d="M94.16,24.33l-4.9,1.37L84.39,22a.54.54,0,0,0-.64,0,.53.53,0,0,0-.19.61l2,5.77-2.83,4.23a.53.53,0,0,0,.59.81l4.9-1.36,5,3.83a.54.54,0,0,0,.64,0,.55.55,0,0,0,.2-.62l-2.09-5.92,2.83-4.22a.54.54,0,0,0,0-.61A.53.53,0,0,0,94.16,24.33Z"/></g></g></g></svg>