<svg xmlns="http://www.w3.org/2000/svg" xmlns:xlink="http://www.w3.org/1999/xlink" viewBox="0 0 148.47 148.65"><defs><style>.cls-1{fill:url(#linear-gradient);}.cls-2{fill:#ca2027;}.cls-3{fill:#fff;}.cls-4{fill:#ffce31;}</style><linearGradient id="linear-gradient" x1="28.9" y1="4.78" x2="118.51" y2="94.39" gradientUnits="userSpaceOnUse"><stop offset="0" stop-color="#f1636a"/><stop offset="1" stop-color="#d22026"/></linearGradient></defs><g id="Layer_2" data-name="Layer 2"><g id="Layer_1-2" data-name="Layer 1"><g id="Red"><path class="cls-1" d="M39.87,7.39C-2.64,9.38,1,65.21,17.89,85c4.27,7.81,39.86,43.19,54.41,55.55-2.88,3.11,52.05-52.23,60.08-66.17,30.42-52.79-24.21-106.49-63.14-46C71.47,24.59,52.31,6.81,39.87,7.39Z"/><path class="cls-2" d="M101.26,115.54c-2.35,3-4.39,5.83-4.13,9.78.39,6.07.59,12.14.89,18.22,0,.54.21,1.08.19,1.61,0,1.68-.22,3.76-2.35,3.47-1-.13-2.34-2.26-2.31-3.46.11-5,.74-9.95,1.06-14.93.15-2.26,0-4.54,0-7.33-6.21,4.06-1.52,10.6-3.6,15.23L89.91,138V126.33L77.3,137.72l6.3,10-.29.32-5.57-4.4-.34.35,1.87,3.93-.49.56a40.61,40.61,0,0,1-5.09-4.08c-2.15-2.32-4.47-2.66-7.32-1.76-2,.65-4.16,1-6.65,1.63l6.47-6L44.52,121.05a19.36,19.36,0,0,1-1.7,3.92c-1.9,2.6-3.64,5.54-6.13,7.43-4.36,3.33-9.86,2.06-13.36-2.93a66.37,66.37,0,0,1-10.88-26.35c-1.09-6-2.72-11.37-8.24-14.75a8.15,8.15,0,0,1-1.46-1.3c-4.37-4.4-3.48-8.32,2.32-10.22.61-.2,1.24-.36,2.41-.7A59.07,59.07,0,0,0,6.06,70,70.19,70.19,0,0,1,1.87,47.32c-.11-17.9,8.72-30,23.79-38.27a34.48,34.48,0,0,1,22.15-3.7,22.47,22.47,0,0,1,13,6.32c2.91,2.92,5.73,5.93,8.73,9a7.56,7.56,0,0,0,1.14-1.11,35,35,0,0,1,16-14.44c9.4-4.3,18.67-6.25,28.78-4.55,13.13,2.21,26.64,14.46,28.28,27.54,1.28,10.16,1.73,20.75-3,30.48-3,6.14-3.59,12.53-3.77,19.24A31.78,31.78,0,0,1,133.77,90c-2.77,5.94-7.9,9.07-14.56,9.5-3.66.23-7.73,4.16-8.18,7.82-.17,1.41-.25,2.82-.49,4.21C109.41,118.08,107.22,119.09,101.26,115.54Zm-71.81-3.77-.95.22c-3.17-4.27-6.29-8.57-9.56-12.75-.63-.8-2.24-1.79-2.77-1.51-.9.48-1.42,1.85-1.88,2.93a3.48,3.48,0,0,0,.06,1.94A75.16,75.16,0,0,0,24.6,127.84c3.66,5.69,9.55,5.65,13.87.39a14.23,14.23,0,0,0,2.42-4.2c1.14-3.27,2-6.63,2.89-9.64L49,112.5c.6,2.6,1.07,5.14,1.78,7.61a5.72,5.72,0,0,0,5.75,4.45A5.21,5.21,0,0,0,62,120.35c.75-2.7,1.42-5.42,2-7.58,2.68-.47,5.44-.28,7.33-1.46s3.25-3.83,4.8-5.81c4.07,7,10.2,7.21,14.65.42,2-3.09,3.9-6.28,6-9.35,1.2-1.79,2.63-3.43,4.26-5.51.84,7.6,1.5,14.53,2.47,21.41.16,1.16,1.71,2.12,2.62,3.17.74-1.13,2-2.21,2.12-3.41.73-6.43,1.18-12.89,1.7-19.07,1.79,1.15,3.5,2.78,5.52,3.45A13,13,0,0,0,131,90.79c5.85-9.69,6.1-19.75.74-29.79-.7-1.31-2.06-2.25-2.84-3.53s-1.71-2.74-1.73-4.14c-.11-6.53.45-13.08.06-19.59a167.74,167.74,0,0,0-2.6-18.62c-.18-1-1.82-1.73-2.78-2.58-.8.91-2.07,1.71-2.32,2.76-.75,3.14-1.1,6.37-1.62,9.69-5.88-1-6.71,4.17-9,7.67-3.31-5-5.45-5.55-11.24-3-3-4.92-8.89-4.13-13.28-6.55-.7-.39-2,.36-3.06.57a14.76,14.76,0,0,1-3.77.68C72,24,66.08,22.5,61.34,26c-3,2.21-6.19,3.05-9.57,4-1.09-3.09-3.22-4.11-6.36-3.2-1.79.51-3.28.6-4.95-.95-2.3-2.13-4.15-1.24-4.58,1.93-.32,2.29-1.15,4-3.38,5.08a15.19,15.19,0,0,0-4.15,3.12A2.68,2.68,0,0,0,28,38.42a2.9,2.9,0,0,0,2.41,1,20,20,0,0,0,3.84-1.25V49.57c-1.38,0-2.75-.42-3.4.09-1.66,1.3-3.27,1-5.11.77a10.09,10.09,0,0,0-9.15,3.21c-5,5.17-6.7,11.52-6.87,18.46-.06,2.33,0,4.66,0,7.15-1.54-.13-2.59-.48-3.46-.22C4.87,79.44,3,80,2.52,81s.31,2.86,1.09,4a12.56,12.56,0,0,0,3.71,3.14c2.51,1.52,4.42,3.27,4.93,6.41.43,2.66,2.13,3,4.34,1.63,1.72-1,12.1,3.11,12.74,5a2,2,0,0,1,.12.64C29.46,105.1,29.45,108.43,29.45,111.77ZM31.7,42c-2.79.41-5.12,0-6.25-2.63s-.05-4.94,2.31-6.56c.71-.48,1.44-.93,2.17-1.37,1.84-1.11,3.35-2.12,3.53-4.8s2.09-5.4,5.18-4.21C42.38,23.82,46.12,24,50,24.29c.56,0,1.11.59,1.63,1,2.66,1.89,4.65,1.62,7.09-.66,1.52-1.41,1.61-2.37.12-4a24.08,24.08,0,0,0-15.52-8.23c-9.16-1-12.42,1.81-10.68,9.6.25,1.09-.37,2.38-.59,3.59l-1.22-.22c-2.66-3.34,1.61-6.83-.2-11-1.06,1.22-2.46,2.1-2.53,3.07-.24,3.45,0,7,0,10.42a15.61,15.61,0,0,1-.22,2.56,4.18,4.18,0,0,1-1.06,0,17.34,17.34,0,0,1-.07-2.6c.25-3.45.55-6.9.82-10.35l-1.57-.66c-2,2.46-4.44,4.7-6,7.43s-2.34,6.12-3.45,9.21l-.65-.13-.75-3.7-2.51,8.25-.43-.1L13,30.09c-4.05,5.74-5.11,20.28-2.11,26.59,3.67-5.4,7.92-9.67,15.16-9C31.08,48.22,32.12,47.09,31.7,42Zm51-22.32c4.72,1.9,9.41,3.79,14.12,5.67a8.51,8.51,0,0,0,2.38.78c3.16.22,6.32.32,8.92.44,1.47-1.11,3-3.14,4.74-3.38,3.18-.45,2.85-2.62,3.38-4.58.78-2.86,1.65-5.7,2.53-8.73L111.48,7.9l1.22,1.24-3.18,2.67-.82-1.05c.33,1.2.65,2.4,1.19,4.39C102.32,6.5,92.12,8.55,82.68,19.64Zm16,78.52c-2.29,3.47-4.6,6.77-6.69,10.2-2.27,3.75-5.47,5.5-9.76,4.63a46.18,46.18,0,0,1-6.53-2.35A10.78,10.78,0,0,1,67,115.11c-.55,0-1.39,1-1.61,1.63-.91,2.79-1.64,5.64-2.49,8.68l8.85,6.87,9.86-8.76-.3-.39-8.64,3.91-.31-.76c1.7-.9,3.41-1.77,5.09-2.69s3.15-1.78,4.73-2.68l-.33-.67-2.9.61a4.43,4.43,0,0,1,1.71-1.24c3.66-1.91,7.42-3.68,10.91-5.86,1.23-.77,1.81-2.56,3-4.36C100.32,109.41,101.15,104.06,98.73,98.16ZM132.49,57c6.93-13.17,5.59-33.63-4.53-40.18,2.36,11.56,2.18,23.23,1.74,34.84C129.59,54.57,130.87,55.51,132.49,57Z"/><path class="cls-3" d="M29.45,111.77c0-3.34,0-6.67,0-10a2,2,0,0,0-.12-.64c-.64-1.89-11-6-12.74-5-2.21,1.32-3.91,1-4.34-1.63-.51-3.14-2.42-4.89-4.93-6.41a12.56,12.56,0,0,1-3.71-3.14c-.78-1.09-1.54-3-1.09-4s2.35-1.55,3.72-2c.87-.26,1.92.09,3.46.22,0-2.49,0-4.82,0-7.15.17-6.94,1.87-13.29,6.87-18.46a10.09,10.09,0,0,1,9.15-3.21c1.84.27,3.45.53,5.11-.77.65-.51,2-.09,3.4-.09V38.13a20,20,0,0,1-3.84,1.25,2.9,2.9,0,0,1-2.41-1,2.68,2.68,0,0,1,.36-2.51,15.19,15.19,0,0,1,4.15-3.12c2.23-1.08,3.06-2.79,3.38-5.08.43-3.17,2.28-4.06,4.58-1.93,1.67,1.55,3.16,1.46,4.95.95,3.14-.91,5.27.11,6.36,3.2,3.38-.93,6.53-1.77,9.57-4,4.74-3.45,10.65-2,16.18-1.6a14.76,14.76,0,0,0,3.77-.68c1-.21,2.36-1,3.06-.57,4.39,2.42,10.31,1.63,13.28,6.55,5.79-2.54,7.93-2,11.24,3,2.29-3.5,3.12-8.7,9-7.67.52-3.32.87-6.55,1.62-9.69.25-1.05,1.52-1.85,2.32-2.76,1,.85,2.6,1.59,2.78,2.58a167.74,167.74,0,0,1,2.6,18.62c.39,6.51-.17,13.06-.06,19.59,0,1.4,1,2.87,1.73,4.14S131,59.69,131.7,61c5.36,10,5.11,20.1-.74,29.79a13,13,0,0,1-15.54,5.82c-2-.67-3.73-2.3-5.52-3.45-.52,6.18-1,12.64-1.7,19.07-.14,1.2-1.38,2.28-2.12,3.41-.91-1-2.46-2-2.62-3.17-1-6.88-1.63-13.81-2.47-21.41-1.63,2.08-3.06,3.72-4.26,5.51-2.07,3.07-3.94,6.26-6,9.35-4.45,6.79-10.58,6.57-14.65-.42-1.55,2-2.77,4.54-4.8,5.81s-4.65,1-7.33,1.46c-.55,2.16-1.22,4.88-2,7.58a5.21,5.21,0,0,1-5.49,4.21,5.72,5.72,0,0,1-5.75-4.45c-.71-2.47-1.18-5-1.78-7.61l-5.21,1.89c-.88,3-1.75,6.37-2.89,9.64a14.23,14.23,0,0,1-2.42,4.2c-4.32,5.26-10.21,5.3-13.87-.39A75.16,75.16,0,0,1,14.35,102.6a3.48,3.48,0,0,1-.06-1.94c.46-1.08,1-2.45,1.88-2.93.53-.28,2.14.71,2.77,1.51,3.27,4.18,6.39,8.48,9.56,12.75Zm32.92-5.16c1.58,1.23,2.91,3,4.44,3.23s3.31-1,4.63-2.11c1-.83,1.54-2.33,2.24-3.56,1.17-2.06,2.31-4.13,3.87-6.94.48,3.21.5,5.42,1.16,7.43,1.29,3.92,6.28,5.1,8.51,2,4.85-6.87,9.41-13.94,14.09-20.92-5.82-.1-10.12,3.56-15,7,.22-3.39.3-6,.62-8.56a2.55,2.55,0,0,1,1.43-1.75c4.42-1.43,8.88-2.71,13.81-4.17,1.1,10.61,2.18,20.89,3.25,31.18a5.75,5.75,0,0,0,1-3.3c.48-9,.91-18,1.46-27a14.93,14.93,0,0,1,1.15-3.54l.92.32c.33,3.75.48,7.52,1,11.24,1.06,7.09,7.39,10,13.6,6.34a15.15,15.15,0,0,0,4.3-3.91c5.12-7,5.33-20.4.5-27.57-.83-1.24-2.18-2.12-3-3.34s-1.74-2.46-1.76-3.71c-.07-7.62.3-15.24.11-22.85-.14-5.42,0-11-2.33-16.07h-1.1q-.5,10.16-1,20.32a39.37,39.37,0,0,1-2.17-6.41c-.29-.92-1.11-2.38-1.65-2.36a3.76,3.76,0,0,0-2.86,1.57A26.39,26.39,0,0,0,111,35.73c-.86,3.73-1.34,7.55-2,11.33a2.47,2.47,0,0,1-.66-1.49,116.88,116.88,0,0,0-2-11.83,5.23,5.23,0,0,0-3.68-3c-1.09-.14-2.48,1.51-3.64,2.47a9.69,9.69,0,0,0-1.37,2c-1.07-4.31-3.45-7.37-7.27-7.58-3.2-.18-6.49-4.62-9.82-.21-.22.28-1.38-.22-2.11-.24-4.42-.18-8.85-.57-13.25-.37a5,5,0,0,0-5,4.29c4.83,2.91,5.14,4.26,2.07,9.11-.27-1-.57-1.94-.71-2.86-.38-2.55-.9-5.66-3.76-5.76-2.39-.09-5.69,1-7.08,2.8C48.19,37.67,46.5,41.68,45,45.57c-1,2.55-1.07,5.47-1.56,8.22L43,53.72C42.5,46.94,42,40.15,41.45,33.51L49,30.29l-.43-1.39L41.21,30l-2.28-2.59c.75,5.16-2.83,6.49-6,8.41,1.32-.33,3.77-1.14,4.92-1.43,0,8.35-1.13,17-1.13,25.22L35.5,60,31.3,52.1l-1.52,1.8c-8.13-2.29-11.9-.47-15.35,7.3C12,66.64,12,72.4,12.18,78.18c0,1.34,0,2.69,0,3.95L4,81.47c3.17,5.49,10.65,5.93,10.6,13l3.11-2c4,1.78,7.89,3.4,11.68,5.29,1,.49,2.23,1.75,2.26,2.7.21,6,.11,12,.11,18l-1.17.15q-3.36-4.3-6.73-8.62l-7.16-9.11c1,7.73,4.06,14,6.9,20.28a27.59,27.59,0,0,0,3.25,5.63c3,3.89,6.85,3.92,9.73-.07a18.61,18.61,0,0,0,3-6.76c1-4.71,1.54-9.53,2.31-14.65a13.29,13.29,0,0,0,1.45,3,5.48,5.48,0,0,0,2.71,2c1.71.31,2.73-.6,2.94-2.57a46,46,0,0,1,1.34-5.81,5.27,5.27,0,0,1,1,3.11c.32,3.89.49,7.81,1,11.67.35,2.55.81,5.65,4.3,5.56s3.36-3.29,3.9-5.61C61.38,113,61.86,109.51,62.37,106.61ZM89.52,86.74l10.62-4.13C94.41,82.14,89.65,84.28,89.52,86.74Z"/><path class="cls-2" d="M62.37,106.61c-.51,2.9-1,6.42-1.79,9.88-.54,2.32-.55,5.52-3.9,5.61s-4-3-4.3-5.56c-.53-3.86-.7-7.78-1-11.67a5.27,5.27,0,0,0-1-3.11,46,46,0,0,0-1.34,5.81c-.21,2-1.23,2.88-2.94,2.57a5.48,5.48,0,0,1-2.71-2,13.29,13.29,0,0,1-1.45-3c-.77,5.12-1.29,9.94-2.31,14.65a18.61,18.61,0,0,1-3,6.76c-2.88,4-6.69,4-9.73.07a27.59,27.59,0,0,1-3.25-5.63c-2.84-6.31-5.94-12.55-6.9-20.28l7.16,9.11q3.38,4.3,6.73,8.62l1.17-.15c0-6,.1-12-.11-18,0-1-1.27-2.21-2.26-2.7-3.79-1.89-7.7-3.51-11.68-5.29l-3.11,2c.05-7-7.43-7.47-10.6-13l8.16.66c0-1.26,0-2.61,0-3.95C12,72.4,12,66.64,14.43,61.2c3.45-7.77,7.22-9.59,15.35-7.3l1.52-1.8L35.5,60l1.23-.4c0-8.19,1.13-16.87,1.13-25.22-1.15.29-3.6,1.1-4.92,1.43a51,51,0,0,0,5.28-4.13,28.16,28.16,0,0,0,.71-4.28L41.21,30l7.4-1.13L49,30.29l-7.59,3.22c.52,6.64,1,13.43,1.58,20.21l.39.07C43.91,51,44,48.12,45,45.57c1.52-3.89,3.21-7.9,5.75-11.13,1.39-1.77,4.69-2.89,7.08-2.8,2.86.1,3.38,3.21,3.76,5.76.14.92.44,1.81.71,2.86,3.07-4.85,2.76-6.2-2.07-9.11a5,5,0,0,1,5-4.29c4.4-.2,8.83.19,13.25.37.73,0,1.89.52,2.11.24,3.33-4.41,6.62,0,9.82.21,3.82.21,6.2,3.27,7.27,7.58a9.69,9.69,0,0,1,1.37-2c1.16-1,2.55-2.61,3.64-2.47a5.23,5.23,0,0,1,3.68,3,116.88,116.88,0,0,1,2,11.83,2.47,2.47,0,0,0,.66,1.49c.65-3.78,1.13-7.6,2-11.33a26.39,26.39,0,0,1,2.61-6.62,3.76,3.76,0,0,1,2.86-1.57c.54,0,1.36,1.44,1.65,2.36a39.37,39.37,0,0,0,2.17,6.41q.51-10.17,1-20.32h1.1c2.28,5.11,2.19,10.65,2.33,16.07.19,7.61-.18,15.23-.11,22.85,0,1.25,1,2.6,1.76,3.71s2.21,2.1,3,3.34c4.83,7.17,4.62,20.62-.5,27.57a15.15,15.15,0,0,1-4.3,3.91c-6.21,3.71-12.54.75-13.6-6.34-.55-3.72-.7-7.49-1-11.24l-.92-.32a14.93,14.93,0,0,0-1.15,3.54c-.55,9-1,18-1.46,27a5.75,5.75,0,0,1-1,3.3c-1.07-10.29-2.15-20.57-3.25-31.18C97.25,79.69,92.79,81,88.37,82.4a2.55,2.55,0,0,0-1.43,1.75c-.32,2.57-.4,5.17-.62,8.56,4.87-3.46,9.17-7.12,15-7-4.68,7-9.24,14-14.09,20.92-2.23,3.15-7.22,2-8.51-2-.66-2-.68-4.22-1.16-7.43-1.56,2.81-2.7,4.88-3.87,6.94-.7,1.23-1.2,2.73-2.24,3.56-1.32,1.06-3.18,2.3-4.63,2.11S64,107.84,62.37,106.61ZM43.78,64.84c-2.05,12.47-1.54,24.41,1.3,30,.2-.73.36-1.21.45-1.69.74-3.72,1.27-7.49,2.3-11.11.32-1.13,2.06-2.64,3-2.57a4.43,4.43,0,0,1,3,2.77,95.78,95.78,0,0,1,1.59,9.61c.31,1.93.67,3.85,1,5.78l.65-.14c.58-9.84,1.4-20.75,1.93-29.16-1.84,2.77-2.92,7.61-8,6.74S45.69,69.29,43.78,64.84Zm-5.54,20.8c-6.94,1.5-10.11.23-11.29-5.71-.93-4.67-.4-9.65-.25-14.49.05-1.41,1-2.8,1.55-4.16-2.8-1.24-4.06-.34-5.06,1.82-2.91,6.32-3.33,13-2.78,19.72a3.84,3.84,0,0,0,1.76,2.77c5.5,2.38,11.1,4.52,17,6.87Zm49.68-9.06.49.71a86,86,0,0,1,9-2c3.29-.38,4.25-1.56,3.19-4.83s-1.23-6.7,1.85-9.58c.91-.86.57-3,.81-4.62l-1.13-.6a29.46,29.46,0,0,0-3.25,3.06c-.16.19.78,1.3,1.35,2.18l-5,9.57-1.67-3.66C87.58,68.09,89.81,73.4,87.92,76.58Zm32.82-14.16c-.85,2.7-1.62,5.14-2.43,7.68l4.68.55c-1.75,1.51-4,2.55-4.4,4-.45,1.91.63,4.2,1.12,6.3.19.84.61,1.62.87,2.45a2.64,2.64,0,0,1,0,.92h-3.38c.94,2.1,1.73,3.89,2.6,5.83C127.34,82.14,127.92,68.79,120.74,62.42ZM54.08,68.87c.58-4.12,1.64-8.25,1.61-12.36S54.57,48,53.94,43.76l2.81-.52-2.22-6.08C48.31,46.26,47.74,61.11,54.08,68.87Zm22.21-1.52c-.41-6-3.87-14-7.23-16.29v18ZM63.69,81l.55.07a121.9,121.9,0,0,0,1.25-12.16c0-4-.69-8-1-12s-.68-7.81-1-11.71l-1,.09a55.62,55.62,0,0,1-.06,7.42c-.76,5.72-1.67,11.22.56,17C64.21,73.08,63.5,77.19,63.69,81ZM84.41,52l1.61.37c2.14-3.94,4.47-7.79,6.31-11.86.53-1.18.18-3.79-.67-4.34-1.69-1.07-4-1.24-6.07-1.57-.3,0-1.12,1.06-1.13,1.64C84.37,41.51,84.41,46.77,84.41,52ZM36.71,73.54l-.51-.1-3.74,5.42-.77-.35c.35-5.18,2.25-10.59-2.17-15.41a31.65,31.65,0,0,0-.77,3.32c-.57,4.89-1.06,9.81,2,14.17.55.79,1.8,1.75,2.53,1.61A3.73,3.73,0,0,0,35.67,80,46,46,0,0,0,36.71,73.54ZM79.65,57.32l.76-.12V37.94l-7,4Zm32,8.06c6.53-6,5.59-12.92,2.39-20.07Q112.88,55.36,111.69,65.38ZM79.33,70.71C74,71.72,71.84,75,73,80.1,80.06,78.87,80.11,78.81,79.33,70.71Zm-2.52,14c-7,2.17-5.73,1.13-5.9,10.69L76.81,90ZM89.72,58.94c2-3.34,5.6-5.59,4.47-10.11l-8.7,13.11,8.35-2.31-.16-.69Zm12.15-14.56-3,7.86C103.8,51.19,104,50.71,101.87,44.38Zm6.67,28.06c3.08-1.32,3-2.35,0-6.44Z"/><path class="cls-2" d="M89.52,86.74c.13-2.46,4.89-4.6,10.62-4.13Z"/><path class="cls-3" d="M43.78,64.84c1.91,4.45,2.2,9.63,7.39,10.52s6.25-4,8.09-6.76c-.69,9.42-1.41,19.17-2.12,28.91l-.65.14c-.34-1.93-.7-3.85-1-5.78a95.78,95.78,0,0,0-1.59-9.61,4.43,4.43,0,0,0-3-2.77c-1-.07-2.72,1.44-3,2.57-1,3.62-1.56,7.39-2.3,11.11-.09.48-.25,1-.45,1.69C42.24,89.25,41.73,77.31,43.78,64.84ZM48,77l-3-2.46-.45,7.51Z"/><path class="cls-3" d="M38.24,85.64l.91,6.82c-5.88-2.35-11.48-4.49-17-6.87a3.84,3.84,0,0,1-1.76-2.77c-.55-6.76-.13-13.4,2.78-19.72,1-2.16,2.26-3.06,5.06-1.82-.53,1.36-1.5,2.75-1.55,4.16-.15,4.84-.68,9.82.25,14.49C28.13,85.87,31.3,87.14,38.24,85.64ZM23,73.24c.75,3.58-2.23,8.19,2.71,11.6Z"/><path class="cls-3" d="M87.92,76.58c1.89-3.18-.34-8.49,5.64-9.76l1.67,3.66,5-9.57c-.57-.88-1.51-2-1.35-2.18a29.46,29.46,0,0,1,3.25-3.06l1.13.6c-.24,1.58.1,3.76-.81,4.62-3.08,2.88-2.94,6.2-1.85,9.58s.1,4.45-3.19,4.83a86,86,0,0,0-9,2Z"/><path class="cls-3" d="M120.74,62.42c7.18,6.37,6.6,19.72-1,27.77-.87-1.94-1.66-3.73-2.6-5.83h3.38a2.64,2.64,0,0,0,0-.92c-.26-.83-.68-1.61-.87-2.45-.49-2.1-1.57-4.39-1.12-6.3.35-1.49,2.65-2.53,4.4-4l-4.68-.55C119.12,67.56,119.89,65.12,120.74,62.42Zm2,18c.21-2,.43-3.94.66-6.05C120.54,75.22,120.49,75.58,122.78,80.43Z"/><path class="cls-3" d="M54.08,68.87c-6.34-7.76-5.77-22.61.45-31.71l2.22,6.08-2.81.52c.63,4.26,1.72,8.5,1.75,12.75S54.66,64.75,54.08,68.87ZM52.1,61h.76V50.36H52.1Z"/><path class="cls-3" d="M76.29,67.35l-7.23,1.72v-18C72.42,53.31,75.88,61.39,76.29,67.35Z"/><path class="cls-3" d="M63.69,81c-.19-3.76.52-7.87-.76-11.22-2.23-5.81-1.32-11.31-.56-17a55.62,55.62,0,0,0,.06-7.42l1-.09c.34,3.9.66,7.81,1,11.71s1.08,8,1,12A121.9,121.9,0,0,1,64.24,81Z"/><path class="cls-3" d="M84.41,52c0-5.25,0-10.51,0-15.76,0-.58.83-1.69,1.13-1.64,2.08.33,4.38.5,6.07,1.57.85.55,1.2,3.16.67,4.34C90.49,44.6,88.16,48.45,86,52.39Zm2.77-7.47,1.11.18a64.48,64.48,0,0,0,1.76-6.79c0-.26-1.85-.84-3.39-1.51C86.86,39.57,87,42.06,87.18,44.55Z"/><path class="cls-3" d="M36.71,73.54a46,46,0,0,1-1,6.46,3.73,3.73,0,0,1-2.42,2.2c-.73.14-2-.82-2.53-1.61-3-4.36-2.54-9.28-2-14.17a31.65,31.65,0,0,1,.77-3.32c4.42,4.82,2.52,10.23,2.17,15.41l.77.35,3.74-5.42Z"/><path class="cls-3" d="M79.65,57.32,73.43,42l7-4V57.2Z"/><path class="cls-3" d="M111.69,65.38q1.19-10,2.39-20.07C117.28,52.46,118.22,59.34,111.69,65.38Z"/><path class="cls-3" d="M79.33,70.71c.78,8.1.73,8.16-6.31,9.39C71.84,75,74,71.72,79.33,70.71Z"/><path class="cls-3" d="M76.81,84.69V90l-5.9,5.38C71.08,85.82,69.78,86.86,76.81,84.69Z"/><path class="cls-3" d="M89.72,58.94h4l.16.69-8.35,2.31,8.7-13.11C95.32,53.35,91.71,55.6,89.72,58.94Z"/><path class="cls-3" d="M101.87,44.38c2.1,6.33,1.93,6.81-3,7.86Z"/><path class="cls-3" d="M108.54,72.44V66C111.58,70.09,111.62,71.12,108.54,72.44Z"/><path class="cls-2" d="M48,77l-3.43,5,.45-7.51Z"/><path class="cls-2" d="M23,73.24l2.71,11.6C20.73,81.43,23.71,76.82,23,73.24Z"/><path class="cls-2" d="M122.78,80.43c-2.29-4.85-2.24-5.21.66-6.05C123.21,76.49,123,78.46,122.78,80.43Z"/><path class="cls-2" d="M52.1,61V50.36h.76V61Z"/><path class="cls-2" d="M87.18,44.55c-.16-2.49-.32-5-.52-8.12,1.54.67,3.43,1.25,3.39,1.51a64.48,64.48,0,0,1-1.76,6.79Z"/><path class="cls-3" d="M59.07,68.35c0,.1-1.79,28.19-1.93,29.16l-.65.14c-.73-1.4-2.08-13.44-2.77-15.58-.31-1-3-4.78-5.68-.49-1,1.58-1.34,13.24-3,13.28-1.13,0-2.76-10.73-2.74-14.3a145.15,145.15,0,0,1,1.44-15.72s0,0,0,0c.21.17,2.49,7.43,3.81,8.51.34.28,5.58,4,8.64-.2A36.19,36.19,0,0,0,59.07,68.35Z"/><path class="cls-3" d="M68.46,33c7.07,0,4.53,2.3.94,3.3C69.26,35.7,69.41,33.36,68.46,33Z"/><path class="cls-4" d="M147.9,44.23,141,42.53l-3.41-7.86a.77.77,0,0,0-.78-.45.75.75,0,0,0-.65.61l-1.55,8.43-6.37,3.23a.73.73,0,0,0-.41.75.74.74,0,0,0,.57.65l6.93,1.7,3.45,8.1a.75.75,0,0,0,.77.46.76.76,0,0,0,.66-.62l1.52-8.68,6.37-3.22a.75.75,0,0,0-.16-1.4Z"/><path class="cls-4" d="M56.33,127.23l-6.11-1-3.51-6.52a.65.65,0,0,0-.7-.33.66.66,0,0,0-.52.57l-.73,7.38-5.25,3.24a.65.65,0,0,0,.24,1.2l6.09,1,3.56,6.74a.66.66,0,0,0,.71.33.65.65,0,0,0,.52-.58l.68-7.59,5.26-3.24a.63.63,0,0,0,.29-.68A.65.65,0,0,0,56.33,127.23Z"/><path class="cls-4" d="M22.44,17.72l-5.38-3.9-.2-8a.68.68,0,0,0-.51-.65.69.69,0,0,0-.78.29l-4.28,6.72-6.62.55A.7.7,0,0,0,4.31,14l5.38,3.9.13,8.19a.7.7,0,0,0,.51.66.69.69,0,0,0,.78-.3l4.36-6.94L22.08,19a.7.7,0,0,0,.36-1.26Z"/><path class="cls-4" d="M145.18,17.78l-4.81,1.34-4.78-3.62a.52.52,0,0,0-.81.59l1.94,5.67-2.78,4.15a.54.54,0,0,0,0,.6.53.53,0,0,0,.57.2l4.81-1.34,4.88,3.76a.53.53,0,0,0,.82-.59l-2-5.81,2.77-4.15a.53.53,0,0,0-.58-.8Z"/></g></g></g></svg>