<?xml version="1.0" encoding="utf-8"?>
<!-- Generator: Adobe Illustrator 23.0.3, SVG Export Plug-In . SVG Version: 6.00 Build 0)  -->
<svg version="1.1" id="Layer_1" xmlns="http://www.w3.org/2000/svg" xmlns:xlink="http://www.w3.org/1999/xlink" x="0px" y="0px"
	 viewBox="0 0 256 256" style="enable-background:new 0 0 256 256;" xml:space="preserve">
<style type="text/css">
	.st0{fill:#FFFFFF;}
	.st1{fill:#323C32;}
	.st2{fill:#232D21;}
	.st3{fill:#30492C;}
	.st4{fill:#253E21;}
	.st5{fill:#2B6C33;}
	.st6{fill:#273527;}
	.st7{fill:#A3AC9F;}
	.st8{fill:#BDC4BD;}
	.st9{fill:#52A35B;}
	.st10{fill:#435847;}
	.st11{fill:#3F5844;}
	.st12{fill:#2B412E;}
	.st13{fill:#7B9B81;}
	.st14{fill:#275A2D;}
	.st15{fill:#1F251E;}
</style>
<rect class="st0" width="256" height="256"/>
<g>
	<path class="st1" d="M124.4,89.7c0.9-0.1,1,0.8,1.3,1.2c8.1,13.7,16.3,27.5,24.4,41.2c0.4,0.6,0.7,1.3,1.1,1.9
		c0.1,0.2,0.1,0.5-0.1,0.7l0,0c-1,0.6-2.1,0.8-3.2,0.9c-10.9,1.8-21.9,3.4-32.8,5.1c-0.4,0.1-0.9,0.1-1.3,0
		c-0.3-0.1-0.5-0.2-0.7-0.4c-0.2-0.3-0.3-0.7-0.3-1.1c2.1-10.7,4.8-21.3,7.2-32c1-4.6,2.1-9.3,3.1-13.9
		C123.3,92.2,123.5,90.8,124.4,89.7z"/>
	<path class="st2" d="M144.4,166.2c-12.2,0-24.4,0.1-36.5,0.1c-8.6,0-17.3-0.1-25.9-0.1c-0.1-0.1-0.2-0.2-0.2-0.4c0-0.1,0-0.2,0-0.2
		c0.2-0.3,0.4-0.5,0.6-0.7c6.3-5.1,12.6-10.2,18.8-15.4c3.7-3.1,7.3-6.3,11.1-9.2c0.2-0.1,0.4-0.1,0.6,0l0.1,0.1
		c3.4,1.8,6.1,4.4,9,6.8c6.9,5.6,13.9,11,20.7,16.7C143.5,164.5,144.6,165,144.4,166.2z"/>
	<path class="st3" d="M144.4,166.2c-3.5-3.5-7.5-6.4-11.3-9.5c-6.5-5.2-13-10.5-19.5-15.7c-0.2-0.1-0.3-0.4-0.4-0.6
		c6.5-1,13.1-2,19.6-3c6.1-1,12.2-1.9,18.3-2.9c0.2,0.2,0.3,0.4,0.3,0.7c-0.6,5.6-2.1,11-3,16.5c-0.7,4.2-1.6,8.4-2.4,12.7
		c-0.1,0.7-0.2,1.3-0.7,1.9L144.4,166.2z"/>
	<path class="st4" d="M145.3,166.2c0.4-4.8,1.6-9.4,2.4-14.1c1-5.5,2.1-11,3.1-16.5c0-0.2,0.2-0.4,0.4-0.5c1.7,0.1,2.3,1.6,3.3,2.7
		c0.5,0.6,1.1,1.2,1.6,1.8c0.3,0.3,0.6,0.6,0.9,0.8c4.4,4.4,8.4,9,12.7,13.5c0.9,0.9,1.8,1.8,2.7,2.7c3.9,2.8,7.9,5.5,11.8,8.2
		c0.6,0.4,1.5,0.5,1.4,1.5L145.3,166.2L145.3,166.2z"/>
	<path class="st5" d="M81.9,165.8c0,0.1,0,0.3,0,0.4c-6.5,0-12.9-0.1-19.4,0c-12.3,0-24.6,0.1-36.8,0.1c-0.8,0-1.6,0-2.4-0.4
		c5-2.4,10.1-4.9,15.1-7.3c6.1-3,12.2-5.9,18.3-8.9c0.8-0.4,1.6-0.9,2.2-1.5c0.2-0.1,0.4-0.2,0.6,0c0.5,1.5,1.7,2.2,2.9,3
		c6,4.3,12,8.7,18,13.1C80.9,164.7,81.5,165.1,81.9,165.8z"/>
	<path class="st6" d="M185.5,166.2c-4.1-2.8-8.3-5.6-12.4-8.4c-0.4-0.3-0.9-0.5-1.1-1c-0.1-0.5,0.2-0.7,0.6-0.9
		c6.8-1.2,13.6-2.3,20.4-3.4c0.7-0.1,1.5-0.2,2.2,0.2c5.4,1.5,10.5,3.6,15.8,5.5c7.3,2.6,14.6,5.2,21.9,7.8
		c-0.1,0.2-0.2,0.4-0.2,0.4C216.9,166.2,201.2,166.2,185.5,166.2z"/>
	<path class="st7" d="M113.1,140.3c-0.1,0-0.2,0-0.3,0c-2.4-0.6-4-2.6-5.9-4c-5.1-3.9-10.1-7.8-15.1-11.7c-0.4-0.3-0.9-0.4-1.4-0.4
		c-0.5-0.1-1.1-0.1-1.1-0.9c1.7,0.1,2.7-0.6,3.6-2c4.9-7.6,9.9-15,14.9-22.6c1.5,0.3,1.4,1.6,1.5,2.7c1.1,9.8,2.2,19.6,3.3,29.4
		c0.3,2.9,0.5,5.8,0.6,8.7L113.1,140.3z"/>
	<path class="st8" d="M113.1,139.5c-1.2-2.6-0.9-5.4-1.2-8.1c-0.9-6.4-1.6-12.8-2.2-19.2c-0.4-4.1-0.8-8.2-1.4-12.3
		c-0.1-0.5-0.1-0.9-0.5-1.2c0.5-1.7,2.2-1.6,3.4-2.3c4.4-2.3,8.9-4.5,13.4-6.7c-2.3,10.3-4.6,20.6-7,30.8
		C116,126.9,114.5,133.2,113.1,139.5z"/>
	<path class="st9" d="M89.1,123.3l1.4,0.5c0,1-0.7,1.5-1.3,2c-9.4,7.1-18.6,14.3-28,21.4c-0.6,0.5-1.1,1-2,1h-0.5
		c4.4-6.8,8.9-13.5,13-20.5c2.2-3.9,4.6-5.9,9.3-4.8C83.7,123.3,86.4,123.1,89.1,123.3z"/>
	<path class="st10" d="M156.5,140.4c-0.4,0-0.7-0.1-0.8-0.5c1.7-4.2,3.2-8.4,4.7-12.6c0.5-1.5,0.8-3.2,2.4-4l16.3,17.6
		c-0.8,0.8-1.9,0.9-2.9,0.8c-5.8,0-11.5-0.6-17.3-0.6C158.1,141.1,157.3,140.9,156.5,140.4z"/>
	<path class="st11" d="M156.5,140.4c6.6-0.1,13.2,0.4,19.7,0.7c1,0,1.9-0.2,2.9-0.3l0.5,0.4c-2.3,4.2-4,8.7-6.1,13.1
		c-0.3,0.7-0.6,1.4-1.2,1.9c-0.2,0.2-0.3,0.3-0.5,0.5c-4.3-3.6-7.7-8.2-11.7-12.1C159,143.3,157.8,141.8,156.5,140.4z"/>
	<path class="st12" d="M172.4,156.3c1.7-4.9,4-9.5,6.2-14.2c0.2-0.4,0.6-0.7,1-0.7c5.2,3.7,10.4,7.3,15.5,11.3
		C187.6,154,180.1,155.4,172.4,156.3z"/>
	<path class="st13" d="M162.9,123.3c-2.4,4.7-3.7,9.8-5.7,14.7c-0.3,0.8-0.2,1.9-1.4,2c-1.5-1.7-2.7-3.6-4.6-4.9v-0.5
		c0-0.1,0-0.3,0-0.4c3.8-3.2,7.2-7,10.7-10.5C162.2,123.3,162.2,122.4,162.9,123.3z"/>
	<path class="st14" d="M59.3,148.1c7.9-6.1,15.8-12.1,23.6-18.2c2.6-2,5.4-3.8,7.8-6.2c0.5-0.1,0.9-0.2,1.2,0.3
		c-2.2,10.4-4.5,20.7-6.7,31c-0.5,2.5-1.1,5-1.7,7.5c-0.2,1-0.3,1.9-1.1,2.7l-0.5,0.5c-2.1-0.8-3.6-2.4-5.3-3.6
		C71,158.1,65.5,154,60,150C59.2,149.5,58.6,149.1,59.3,148.1z"/>
	<path class="st15" d="M82.4,165.3c0.7-5.4,2.3-10.7,3.3-16c1.6-8,3.5-15.9,5.2-23.9c0.1-0.6,0.1-1.2,0.9-1.3l20.9,16.2
		c-2.9,3.1-6.3,5.5-9.5,8.2c-4.6,3.9-9.2,7.9-13.9,11.6C87,161.9,85.1,164.2,82.4,165.3z"/>
</g>
</svg>
