<?xml version="1.0" encoding="utf-8"?>
<!-- Generator: Adobe Illustrator 23.0.3, SVG Export Plug-In . SVG Version: 6.00 Build 0)  -->
<svg version="1.1" id="Layer_1" xmlns="http://www.w3.org/2000/svg" xmlns:xlink="http://www.w3.org/1999/xlink" x="0px" y="0px"
	 viewBox="0 0 256 256" style="enable-background:new 0 0 256 256;" xml:space="preserve">
<style type="text/css">
	.st0{fill:#FFFFFF;}
	.st1{fill-rule:evenodd;clip-rule:evenodd;fill:url(#SVGID_1_);}
</style>
<rect class="st0" width="256" height="256"/>
<linearGradient id="SVGID_1_" gradientUnits="userSpaceOnUse" x1="34.9" y1="950.9792" x2="220.8" y2="950.9792" gradientTransform="matrix(1 0 0 1 0 -823)">
	<stop  offset="0" style="stop-color:#23BFFE"/>
	<stop  offset="1" style="stop-color:#029AEB"/>
</linearGradient>
<path class="st1" d="M168.3,75c6.7,0,14.4,1.7,14.4,6.9c0,4.8-4.9,7.3-13.2,11.5l0,0l0,0l0,0c-0.6,0.3-1.2,0.6-1.9,0.9l0,0l0,0
	c-2.5,1.3-4.8,2.5-6.8,4.4c-4.1,4-4.1,10.5,0,14.5s10.7,4,14.8,0c2-1.9,3.2-4.2,4.5-6.7l0,0l0,0l0.2-0.4
	c3.5-6.6,10.1-18.9,18.1-15.8c3.5,1.3,5.4,3.2,6.8,6.6c3.2,7.8-9.4,14.2-16.1,17.7l-0.5,0.2l0,0c-2.5,1.3-4.8,2.5-6.8,4.4
	c-4.1,4-4.1,10.5,0,14.5s10.7,4,14.8,0c2-1.9,3.2-3.9,4.9-7.3c4.4-8.6,7-13.3,12.3-13.3s7,6.8,7,13.3c0,28.4-21.8,64.9-52.6,51.5
	c-30.8-13.4-50.8-14-80.7,0s-52.6-23-52.6-51.5S58.6,75,87.7,75H168.3z M158.4,127.1c0,5.8-4.7,10.4-10.4,10.4
	c-5.8,0-10.4-4.7-10.4-10.4s4.7-10.4,10.4-10.4S158.4,121.4,158.4,127.1z M168.8,158.4c5.8,0,10.4-4.7,10.4-10.4
	s-4.7-10.4-10.4-10.4c-5.8,0-10.4,4.7-10.4,10.4S163.1,158.4,168.8,158.4z M76.7,106.3c0-5.8,4.7-10.4,10.4-10.4s10.4,4.7,10.4,10.4
	v7c0,1.9,1.6,3.5,3.5,3.5h7c5.8,0,10.4,4.7,10.4,10.4s-4.7,10.4-10.4,10.4h-7c-1.9,0-3.5,1.6-3.5,3.5v7c0,5.8-4.7,10.4-10.4,10.4
	s-10.4-4.7-10.4-10.4v-7c0-1.9-1.6-3.5-3.5-3.5h-7c-5.8,0-10.4-4.7-10.4-10.4s4.7-10.4,10.4-10.4h7c1.9,0,3.5-1.6,3.5-3.5V106.3z"/>
</svg>
