<svg xmlns="http://www.w3.org/2000/svg" viewBox="0 0 501.08 412.59"><defs><style>.cls-1{fill:#f8f9fa;}.cls-2{fill:#252c45;}.cls-3{fill:#fff;}.cls-4{fill:#e1e1e1;}.cls-5{fill:#f9f9fa;}.cls-6{fill:#1b1d27;}.cls-7{fill:#55545d;}.cls-8{fill:#7d7c81;}.cls-9{fill:#474d52;}.cls-10{fill:#5f5d62;}.cls-11{fill:#61422e;}.cls-12{fill:#9adbf8;}.cls-13{fill:#252b45;}.cls-14{fill:#4696cd;}.cls-15{fill:#382016;}.cls-16{fill:#605e66;}.cls-17{fill:#fafafa;}.cls-18{fill:#2b1f1c;}.cls-19{fill:#1a1d27;}.cls-20{fill:#392114;}.cls-21{fill:#241d1c;}.cls-22{fill:#335469;}.cls-23{fill:#716f76;}.cls-24{fill:#395573;}.cls-25{fill:#2b455e;}.cls-26{fill:#273543;}.cls-27{fill:#626165;}.cls-28{fill:#466272;}.cls-29{fill:#514b48;}.cls-30{fill:#3a5061;}.cls-31{fill:#345265;}.cls-32{fill:#edebec;}.cls-33{fill:#53535a;}.cls-34{fill:#2d4c63;}.cls-35{fill:#1b2a3e;}.cls-36{fill:#656972;}.cls-37{fill:#2e496a;}.cls-38{fill:#4a6575;}.cls-39{fill:#657c8e;}.cls-40{fill:#658192;}.cls-41{fill:#55555a;}.cls-42{fill:#404146;}.cls-43{fill:#3c3f43;}.cls-44{fill:#e6e4e8;}.cls-45{fill:#375c7a;}.cls-46{fill:#737175;}.cls-47{fill:#757577;}.cls-48{fill:#8c8d96;}.cls-49{fill:#607480;}.cls-50{fill:#858288;}.cls-51{fill:#628196;}.cls-52{fill:#89878d;}.cls-53{fill:#546e7f;}.cls-54{fill:#62656b;}.cls-55{fill:#7c7571;}.cls-56{fill:#7a787d;}.cls-57{fill:#2f4656;}.cls-58{fill:#606169;}.cls-59{fill:#394a5c;}.cls-60{fill:#6f6e72;}.cls-61{fill:#76747a;}.cls-62{fill:#363a45;}.cls-63{fill:#838287;}.cls-64{fill:#587b9a;}.cls-65{fill:#646268;}.cls-66{fill:#6e6d6f;}.cls-67{fill:#6f6e75;}.cls-68{fill:#45161c;}.cls-69{fill:#dadcde;}.cls-70{fill:#817f89;}.cls-71{fill:#f9e1ce;}.cls-72{fill:#392215;}.cls-73{fill:#2b1b15;}.cls-74{fill:#c2807a;}.cls-75{fill:#2e1b15;}.cls-76{fill:#332520;}.cls-77{fill:#302523;}.cls-78{fill:#ba8882;}.cls-79{fill:#291812;}.cls-80{fill:#4a95cb;}.cls-81{fill:#2b4c6d;}.cls-82{fill:#3a5062;}.cls-83{fill:#2d4657;}.cls-84{fill:#29394a;}.cls-85{fill:#215075;}.cls-86{fill:#2e698f;}.cls-87{fill:#304754;}.cls-88{fill:#4d6375;}.cls-89{fill:#24557e;}.cls-90{fill:#506876;}.cls-91{fill:#415e70;}.cls-92{fill:#2f4555;}.cls-93{fill:#4e8bad;}.cls-94{fill:#e3dee5;}.cls-95{fill:#3b7398;}.cls-96{fill:#4c6f84;}.cls-97{fill:#55768f;}.cls-98{fill:#991d1f;}.cls-99{fill:#fbfbfb;}.cls-100{fill:#fbfcfc;}.cls-101{fill:#5e1519;}.cls-102{fill:#371e28;}.cls-103{fill:#331928;}.cls-104{fill:#5b1f25;}.cls-105{fill:#f6f3f4;}.cls-106{fill:#7a7a7e;}.cls-107{fill:#e8e3e9;}.cls-108{fill:#888990;}.cls-109{fill:#474a4f;}.cls-110{fill:#7d7f83;}.cls-111{fill:#7f8184;}.cls-112{fill:#e1e1e2;}.cls-113{fill:#a3d7f0;}.cls-114{fill:#656e6f;}.cls-115{fill:#4a97ca;}.cls-116{fill:#4797cb;}.cls-117{fill:#557085;}.cls-118{fill:#6c171d;}.cls-119{fill:#4b96ca;}.cls-120{fill:#99d1ec;}.cls-121{fill:#4995cb;}.cls-122{fill:#fcfcfc;}.cls-123{fill:#f4f5f5;}.cls-124{fill:#5192c1;}.cls-125{fill:#5299c6;}.cls-126{fill:#2a3548;}.cls-127{fill:#5e6168;}.cls-128{fill:#f3f4f6;}.cls-129{fill:#a0cfe6;}.cls-130{fill:#ededf0;}.cls-131{fill:#721213;}.cls-132{fill:#12121f;}.cls-133{fill:#f6ada9;}.cls-134{fill:#2b2e40;}.cls-135{fill:#4e2e2a;}.cls-136{fill:#b38682;}.cls-137{fill:#b78682;}.cls-138{fill:#3e393b;}.cls-139{fill:#5d5756;}.cls-140{fill:#60564d;}.cls-141{fill:#9c8b84;}.cls-142{fill:#4e95c6;}.cls-143{fill:#d9dde1;}.cls-144{fill:#c9dcec;}.cls-145{fill:#dadee0;}.cls-146{fill:#e8eaec;}.cls-147{fill:#11131f;}.cls-148{fill:#9ddaf5;}.cls-149{fill:#e1e1e3;}.cls-150{fill:#556d7d;}.cls-151{fill:#771314;}.cls-152{fill:#bf284c;}.cls-153{fill:#be294b;}.cls-154{fill:#b92b4e;}.cls-155{fill:#f6f5f5;}.cls-156{fill:#561723;}.cls-157{fill:#727073;}.cls-158{fill:#bf274b;}.cls-159{fill:#a03654;}.cls-160{fill:#e2d8dd;}.cls-161{fill:#323439;}.cls-162{fill:#f8cfd3;}.cls-163{fill:#3c3033;}.cls-164{fill:#e8b2b5;}.cls-165{fill:#797376;}.cls-166{fill:#f6f6f6;}.cls-167{fill:#686768;}.cls-168{fill:#be6061;}</style></defs><g id="Layer_2" data-name="Layer 2"><g id="Layer_1-2" data-name="Layer 1"><path class="cls-1" d="M84.23,306.48a8,8,0,0,1,2.12,2.82c1.65,1.59,3.26,3.24,4.83,4.92a58.75,58.75,0,0,0,9.23,9.42l0,0c2,1.2,3.09,3.44,5.27,4.4l2.1,1.81c2.22,1.81,4.63,3.35,7,5h0c1.66,1.09,3.34,2.12,5,3.15l0,0a111.64,111.64,0,0,0,18.53,8.59c1.05.37,2.61.27,2.89,1.92a4.25,4.25,0,0,1-1.62,2.94,3.09,3.09,0,0,1-1.79.41c-3.07-.35-5.44.66-6.95,3.44a29.83,29.83,0,0,1-12.61,2.89c-14,.25-27.94.06-41.83-1.86a109.79,109.79,0,0,1-32.35-9.44c-.76-.36-15.23-7.44-15.83-8-36-32.3-39.86-130.43,13.8-176.3,3.55-2.27,7.61-2.94,11.64-3.7,3.57-.2,7.15-.65,10.94.3-6.15,2.63-12.15,5.38-16.64,11.18a12,12,0,0,0,5.18-.9c22.77-7,42.7-1.7,59.92,14.24a36.29,36.29,0,0,1,10.19,15.2c-1.3.77-1.73-.2-2.31-.66a19.62,19.62,0,0,0-11.34-4.52c-.84-.05-2.07-.52-2.46.62-.34,1,.87,1.26,1.46,1.76,6.33,5.48,13,10.6,18,17.47,7.58,10.46,12.39,22.19,15.56,34.62.69,2.7,1.89,5.38,1.22,8.72-2.34-2.26-3.05-5.05-4.62-7.3-8.6-12.43-20.92-18-35.49-19.5-9.72-1-19,.58-27.38,5.91-8.53,5.43-10.75,13.83-10.16,23.2.91,14.56,5.81,27.84,13.72,40a1.78,1.78,0,0,0,.87.84l.88,1.62C82,303.34,83.34,304.75,84.23,306.48Z"/><path class="cls-2" d="M305.71,412.59H143.31c-4.42-5-6.61-11.28-9.61-17.09-.71-1.36-1.36-2.76-2-4.17a2.52,2.52,0,0,1,.13-1.46c1.34-2.05,3.61-2.35,5.68-2.77,9.07-1.87,17.53-5.46,26.06-8.89,4.94-2,9.69-4.43,14.68-6.3-6.17,2.29-12.06,5.27-18.16,7.74-5.85,2.37-11.88,4.22-17.79,6.43-2,.73-3.31.42-3.47-1.9-.39-5.66-1.63-11.21-1.43-17A65.39,65.39,0,0,1,140,351.05c.53-1.82,1.34-2.72,3.29-2.15,9.1,2.65,18.24,1,27.39.35s18.37-2.74,27.67-2.94a1.49,1.49,0,0,0,.83-.39,10,10,0,0,0,4.07-1.1,4.55,4.55,0,0,1,2.93.81c4.19,2.5,8.59,4.59,13,6.66a76.79,76.79,0,0,1,15.55,10.16c4.24,3.45,9,6.2,12.73,10.36,1.93,2.16,3.59,4.56,5.9,6.58a27.29,27.29,0,0,0-3.63-7.71,17.55,17.55,0,0,1-1.28-2.12c-.25-.57-.5-1.22.13-1.68s1,0,1.42.3a12.58,12.58,0,0,1,3.11,3c2.64,3.82,6.53,6.29,10.21,10-2.89-5.24-5.42-9.87-8.95-13.84a24,24,0,0,1-1.53-2c-.52-.73-1.48-1.65-.55-2.41s1.74.29,2.32.94a51.87,51.87,0,0,1,7,9.11,52.79,52.79,0,0,0,3.89,6.33c.56-3.14-.89-5.43-1.35-7.88a26.14,26.14,0,0,0-4.49-9.11,8,8,0,0,1-1-1.54c-.34-.73-.88-1.57-.08-2.25.63-.55,1.38-.09,2,.27a13.62,13.62,0,0,1,4.89,5.05c1.49,2.55,2.93,5.17,5.55,7.36.67-1.94-.4-3.56.06-5.11-.35-4.68-2.83-8.56-4.75-12.63-1.63-3.46-1.4-4.06,2.36-5a188.23,188.23,0,0,1,28.27-5.09c2.22-.21,4.6-.59,6.31,1.54a3.38,3.38,0,0,1,.55,2.67c-.48,3,.2,6,.45,8.92,1.22,14.4,1.73,28.81,1.86,43.26,0,3.06.58,6.15.51,9.25C306.54,410.31,306.64,411.58,305.71,412.59Z"/><path class="cls-3" d="M388.46,412.59H311.31a2.17,2.17,0,0,1-.7-1.36c.46-7.2-1.5-14.35,0-21.65.94-4.63,0-9.46-.76-14.16-.19-1.25-.65-2.5.08-3.62,3-4.64,1.48-9.39.44-14.13-.2-.91-.68-1.75-.82-2.67-.45-3.08,1.65-5.41,4.56-4.47,5.17,1.67,10.48.83,15.7,1.44a36.43,36.43,0,0,1,11.69,2.9c5.1,2.44,10.43,2.55,15.21-.31a19.24,19.24,0,0,1,10.91-2.78c2.67.1,3.83-1,4.11-3.5,0-.41.13-.82.19-1.23.57-4.46.57-4.46,5.13-5.09,3.11-.43,4.52-2.37,4.11-6.46-.33-3.25.39-6.41.29-9.62,0-1,.06-2.34,1.39-2.42s1.62,1.2,1.77,2.2c.37,2.44.92,4.87.19,7.39a13.93,13.93,0,0,0-.1,8.26c.54,1.69.27,3.5.31,5.27,0,2.06-.55,3.63-2.8,4.23a2.85,2.85,0,0,0-2.13,3.36c.95,9.59-1,19.23.59,28.81a20.81,20.81,0,0,1-.45,6.8c-.35,2.18.42,3.76,1.79,5.6a72.86,72.86,0,0,0,6.49,8.1C390.46,405.49,390,409.52,388.46,412.59Z"/><path class="cls-3" d="M388.46,412.59c0-1.55-.09-3.11,0-4.66.21-3,.22-5.7-3.79-6.06a1.85,1.85,0,0,1-1.36-1.12c-.59-4.91-6.08-8.24-3.79-14.35,1.46-3.91-.81-8.47-.45-12.82a144.66,144.66,0,0,0,0-19.42c-.14-2.6.59-4.27,3.42-4.4,1.21-.05,1.63-.68,1.59-1.79-.11-2.77.4-5.59-.72-8.28-1-2.39,0-4.69.57-6.91.8-3.14-.13-5.92-.65-8.83l-.87,0a102.64,102.64,0,0,0-.41,10.36c.32,5.6-.8,9.54-6.63,8.63-1.87-.29-2.73.54-2.49,2.45a5.78,5.78,0,0,1,0,.93c-.21,5.48-.56,5.8-5.93,6.18a22.62,22.62,0,0,0-10.09,3c-5.13,3-10.68,2.9-16.08.06a27.36,27.36,0,0,0-10.7-2.62c-4.25-.34-8.53-.41-12.8-.68a9.19,9.19,0,0,1-2.64-.79c-1.2-.47-2.48-.85-3.47.18a3.27,3.27,0,0,0-.7,4c1.63,3.32,1.93,6.91,2.07,10.53.09,2.14-.1,4.14-1.81,5.7a1.89,1.89,0,0,0-.53,2.28c2.17,4.46.83,9.32,1.56,14,.43,2.71-1.72,5.49-1.09,8.45,1.14,5.33.4,10.73.62,16.08H307c-1.18-4.2-1-8.58-1.13-12.84-.39-17.33-.83-34.65-2.85-51.89a1.36,1.36,0,0,1,.19-.58,2,2,0,0,0-.46-2c-1-1.66.05-2.39,1.42-2.44,6.07-.27,12.11-1,18.2-.84a3.81,3.81,0,0,1,2.48,1.14c4.1,3.82,9.08,5.61,14.52,6.21s10.63,1.56,16,.2a15.75,15.75,0,0,0,5.89-2.6,23,23,0,0,0,6.85-6.66c5.63-8.42,10-17.38,11.32-27.59.43-3.31-.14-6.63.42-9.92.91-1.85,1.48-.72,1.94.27,1.88,4,3.82,8,4.6,12.38a153.71,153.71,0,0,1,1.83,16.18c0,10.5.1,21-.64,31.48-.54,4.62-.63,9.29-.81,13.92-.23,5.82-.84,11.66-.4,16.34a91.26,91.26,0,0,1,.38-10c1.9,2.39,1.53,5.34,2.53,7.89,1.4,6.37,2.91,12.73,4.38,19.09.19.82.51,1.57-.14,2.3Z"/><path class="cls-4" d="M28.1,338.78c3.17.3,19.63,8.62,22.42,9.85a89,89,0,0,0,22.2,6.05c4.86.75,9.75,1.37,14.64,1.89,6.57.71,13.17.61,19.76.69,8,.09,16.07.16,23.81-2.54,2.28.95,1.88,2.81,1.53,4.61-.17.89-.93,1.77-.36,2.65,1.68,2.61.72,4.84-.84,7-.33.51-.55,1.17-1.24,1.29a70.44,70.44,0,0,1-24.91.36c-3.55-.64-7.16-1-10.72-1.64-17.11-3.18-33.8-7.8-49.75-14.88a5.07,5.07,0,0,1-2.74-1.91C38.83,351.14,28.1,341.06,28.1,338.78Z"/><path class="cls-5" d="M129.8,392.65c.67-.38,1.34-.76,2-1.15a1.77,1.77,0,0,1,1.41,1.09c2.88,6.92,6.71,13.35,10.1,20h-7.46a5.72,5.72,0,0,1-.37-.49c-1.51-1.93.81-5-.95-6.11-2-1.29-2.82-3.12-4.09-4.78-.32-.41-.72-.93-.61-1.38.56-2.25.86-4.41-.84-6.38C128.8,393.23,129.46,392.87,129.8,392.65Z"/><path class="cls-6" d="M303.16,347.28c1.39,6.19,1.64,12.5,1.93,18.79.71,15.5,1.25,31,1.86,46.52h-1.24c0-9.81-.46-19.63-.79-29.43-.38-11.09-.71-22.23-2.28-33.26C302.52,349,302.32,348,303.16,347.28Z"/><path class="cls-7" d="M41.9,352.24c15.41,7.6,31.84,12,48.55,15.55,1.21.25,2.43.47,3.65.71.05,1.19-.67.79-1.27.62-17.43-3-47.36-12.3-52-16.41-.18-.09-.09-.93-.28-1C40.56,351.28,41.9,352.66,41.9,352.24Z"/><path class="cls-8" d="M129.8,392.65c.38,2.58.7,5.17,1,7.73.16,1.6,1.35,4.81,4.41,5.21.51.07,1.11.71.8,1.09-1.57,2,0,4-.13,5.91H134.6c.65-1.85-1.35-3.75.1-5.64.3-.39-.36-.72-.68-.8-2.85-.76-2.9-3.78-4.51-5.53a1.93,1.93,0,0,1-.06-2.32,2.54,2.54,0,0,0-.53-3.47C128,393.88,128,392.76,129.8,392.65Z"/><path class="cls-9" d="M393.44,412.59c-1.36-6.12-2.73-12.25-4.07-18.38-.2-.9-.33-1.82-.49-2.74a.54.54,0,0,1,.76,0l5,21.13Z"/><path class="cls-10" d="M53.71,159.3c-4.12.41-7.9,2-11.81,3.18v-1.24c3.48-.66,6.63-2.65,10.3-2.57C52.83,158.57,53.64,158.05,53.71,159.3Z"/><path class="cls-11" d="M438.28,122.62c4,.09,7.93-.33,11.85.55-.88.85-2,.2-2.72.38,8.55.17,17.15,1.77,25.77,3.15,8.24,1.31,16.47,2.73,24.71,4,1.77.28,2.88.53,1.56,2.65-6.08,9.84-11,20.37-17.77,29.81s-13.25,19-21.15,27.53a44.33,44.33,0,0,1-4.24,4.08c2.8-1.48,4.9-3.82,7.49-5.49,1.28-.82,2.47-2,4.23-1.38a2,2,0,0,1,1,.95c.07.19.06.5.18.56,3,1.65,4.91,4.76,8,6.34a2.19,2.19,0,0,1,1.3,1.21c1.15,4-.5,7.95-.41,11.93.18,8.47,1.5,16.62,6.89,23.57a6.14,6.14,0,0,1,.42.47c.54.92,1.88,1.78,1.18,2.9s-2.06.26-3.12.06c-4.87-1-9.61-2.41-14.41-3.58-3-.73-4.75-3.2-7.5-4.79-.31,3.82-.17,7.51-1.07,11.06-1.56,6.25-5.83,10.82-9.75,15.6-2.8,3.43-6,6.51-8.41,10.28a14.72,14.72,0,0,0-3.4,5.05c-.82,2-1.64,1.26-2.6.21-3.12-5.47-4.57-11.49-5.65-17.62-.75-4.26-1.36-8.55-1.88-13.2a45.49,45.49,0,0,0-6.39,4.29c-5.09,3.54-9.83,7.62-15.63,10.07a19.52,19.52,0,0,1-2,.88c-1.1.32-2.3.75-3.19-.28s-.18-2,.3-2.89c4.13-7.69,5.94-16.09,7.46-24.56a57.78,57.78,0,0,1,2-7.15,49,49,0,0,1-4,9.21,152.19,152.19,0,0,1-28.76,33.73l.08-.1c-2.25.79-3.56,2.78-5.32,4.19a24.52,24.52,0,0,1-3.8,2.63c-.65.35-1.37,1.41-2.12.47-.61-.77.22-1.56.69-2.19,1.17-1.58,2.11-3.31,3.21-4.94,5.2-7.67,8.84-16.09,12.17-25.38-4.81,6.48-10.54,11.21-15.62,16.54-.78.82-1.74,1.49-2.06,2.66-.58,1.58-2,2.33-3.26,3.2-3.45,2.41-6.56,5.32-10.31,7.32-1.32-.06-2.2.81-3.13,1.54-6.19,4-12,8.46-18.05,12.65-.6.41-1.16.87-1.77,1.27s-1.48,1.2-2.2.44.1-1.56.6-2.13c6.26-7.07,11.59-14.84,17.16-22.43,9-12.32,17.11-25.16,22.51-39.54a4.13,4.13,0,0,1,.63-1.07c-4.66,6.49-10.06,12.35-15.32,18.33a4.83,4.83,0,0,1-.92.83c-.59.38-1.21,1.05-1.92.41-.5-.46-.27-1.16,0-1.75a16.42,16.42,0,0,1,1.53-3.05,7.38,7.38,0,0,0,1.31-4.08c1.71-5.11,4.84-9.53,7-14.42,2.92-6.6,5.61-13.28,8.19-20,.36-.94.52-2,1.48-2.63,1.5-.68,2.57-.19,3.63,1,1.54,1.76,3.31,3.32,4.92,5,6,3.25,7.43,9.9,11,14.94,1.35,1.89,2.37,4,4.41,6.55-4.13-25.78-2.68-51-2-70.92,0,7-.78,19.32-.87,31.62s1.1,24.48,1.75,36.79c-11.63-17-19.65-35.33-23.49-53.14,1.28,7.12,4.29,16,7.94,24.7,1.2,2.86,2.38,5.73,3.77,8.51.38.74.85,1.7.06,2.27s-1.42-.44-2-.9c-3-2.57-5.14-6.15-8.89-7.89a2.93,2.93,0,0,1-1.94-2.16c-.56-2.33-2.38-3.82-3.73-5.61a162.51,162.51,0,0,1-11.94-18.72c-1.66-3.44-3.07-7-4.41-10.56-1.09-2.94-.28-4,2.74-3.69,12.22,1.15,23,5.37,31.47,14.69.18.2.41.4.41.48-7.17-8.25-16.42-12.86-27.26-14.61-3.15-.51-6.34-.64-9.47-1.26-1-1.92-1-4.14-1.87-6.09a.76.76,0,0,1,.09-.6c.24-.24.09-.35,0-.17-1.57,4.07-4.3,7.52-6,11.52a138.91,138.91,0,0,0-8.12,23.75,12.07,12.07,0,0,0-.11,5.82c-.16,2.46-.33,4.92-.43,7.38,0,.89-.13,2-1.3,2.14s-1.43-1-1.7-1.85a74.71,74.71,0,0,1-2.32-8.31,6.84,6.84,0,0,1,.11-2.55c-4.92-17.76-4.91-35.75-2.35-53.82,1.66-11.66,7.95-17.47,20.34-19.42.31-.05.62-.07.92-.12,2.56-.44,5.34,0,7.68-.72,2.52-.8,1.52-4.43,3.17-6.31.66-.76,1-1.8,2-2.3,3.71-3.25,7.78-5.83,12.86-6.14a54.4,54.4,0,0,1,19.59,2.27c8.72,2.68,17,6.43,25.47,9.75a70.8,70.8,0,0,0,21.19,5.22,20.49,20.49,0,0,0,10.23-2c.53-.25,1.13-.7,1.66,0,.38.48.1,1-.08,1.47-2.29,6-5.25,11.64-9.53,16.12A3.07,3.07,0,0,1,438.28,122.62Z"/><path class="cls-12" d="M302.07,46.11l1.74,1.28c6,4.56,8.79,11,10.65,18.07,2.61,9.8,1.43,19.64.63,29.55-1.08,13.34-6.93,25-12.08,36.92-.11.26-.21.6-1.06.71-2.42-4.66-2.26-10.16-4-15.11a91.09,91.09,0,0,1-2.35-11.84,89.35,89.35,0,0,0-.32,9.77c0,1.27.33,2.73-1.1,3.61-2.07-1.06-2.18-3.42-3.38-5a85.8,85.8,0,0,1-9.19-26.56,4.38,4.38,0,0,1-.06-1.53,1.82,1.82,0,0,1,.44-.79c3.22-1,5.67,1.15,8.3,1.94a22.81,22.81,0,0,0-7.47-2.39c-1.84,0-1.79-1.37-1.84-2.65.2,1,.29,1.79-1.15,1.17-.8-2.69-.74-5.47-.91-8.22a25.54,25.54,0,0,1,1.25-4.22c-1.41,3.42-1.82,7-2.91,10.43-.66,2.07-1.83,3.11-4,3.09-2,0-3.91,0-5.87,0-2.41,0-3.67-1-3.6-3.5a47,47,0,0,1,.17-6.16c.94-3.92.86-8,2.37-11.86-.45.95-1.21,1.68-1.73,2.57-8.16,13.91-15.31,28.27-19.4,44a48.9,48.9,0,0,0-1.54,13.41,9.58,9.58,0,0,1-.07,1.85c-.11.72-.22,1.6-1,1.77s-1.3-.61-1.56-1.25c-1.23-3-2.89-5.9-4.07-9-3.31-8.28-4.28-17-4.71-25.8,0-12.71,1.19-20.63,3.17-25.13-2.06,5.35-3.25,13-3.17,20.94-.2,11.12,1.83,22,3.77,32.86.59,3-.6,6-.29,8.91.41,4,.16,8.05.59,12,.46,4.29.49,8.64,1.46,12.87a207.15,207.15,0,0,0,4.19,26,4.41,4.41,0,0,1,.19,1.53c0,.52-.09,1.1-.61,1.35-.74.35-1.17-.25-1.48-.74a43.55,43.55,0,0,1-3.49-6.92,141.58,141.58,0,0,1-7.16-24.37c-.78-3.71-2-7.34-2.21-11.68A150.44,150.44,0,0,0,229.06,194a11.61,11.61,0,0,1,.52,4c-1.61,1.65-2.3-.07-2.91-1-2.24-3.29-4.77-6.42-6.27-10.16a33.77,33.77,0,0,0-2-3.08A115.9,115.9,0,0,1,207,152.71a115.17,115.17,0,0,0,1.23,20.75c.48,3,1.36,5.84,2.1,8.75.24.9.47,2.1-.53,2.49s-1.47-.82-1.94-1.56a31.09,31.09,0,0,1-1.56-3,115.07,115.07,0,0,1-10.9-37.93c.4-2.7-.9-5.32-.26-8-.58,2.33-2.89,3-4.32,4.44-5.36,2.74-8.26,1.77-11.08-3.61a24.14,24.14,0,0,1-2.81-8.5c-.19-1.69,0-3,2.54-2.41,4.48,1.08,9.95-2.6,10.76-7.14a32.55,32.55,0,0,0,.82-6.76c.52-11,.29-22.09,2.27-33a63.57,63.57,0,0,1,11-25.77,84.41,84.41,0,0,1,25.58-24.09c2.76-1.65,5.71-2.93,8.55-4.42a6.87,6.87,0,0,1,.88-.38,68.25,68.25,0,0,1,8.5-2.82,63,63,0,0,1,7.61-1.17,65.29,65.29,0,0,1,13.26.12c8,1.16,14.6,5.34,21.05,9.88C296,32.94,299.74,39,302.07,46.11Z"/><path class="cls-13" d="M172.53,245.31c.1-1.56,1.26-2.45,2.19-3.5.72-.81,1.63-1.54,1.55-2.81a1.38,1.38,0,0,1,.79-.39c13.68,3.67,26.37,9.4,37.58,18.15a3.2,3.2,0,0,0,3.65.59,3.43,3.43,0,0,1,1,0,15.72,15.72,0,0,0,13.54-11.79c1.58-6.78,2-13.66,2.43-20.57a109.07,109.07,0,0,0,.38-16.06c1.48-1.77,1.46-1.76.44-5.06a20.33,20.33,0,0,1-1.31-6,2.79,2.79,0,0,1,1.07-2,1.72,1.72,0,0,1,2.14.22c1.43,1.51,2.48,3.37,4.15,4.68,1.57.95,2.16,2.59,2.92,4.11.32,3.45,1.38,6.54,4.3,8.7,2,1.31,3.09,3.33,4,5.48a3.74,3.74,0,0,0,1.9,2.72c4.77,2.63,5,7.24,5.26,11.81.09,1.34,0,2.69,0,4s.59,2,1.94,1.26c4.72-2.65,9.32-1.79,14,.19,2.83,1.2,2.86,1.06,2.34-2.13-.61-3.69-2.22-7.11-2.81-10.8-.19-1.23-1.36-2.74.39-3.57,1.46-.69,2.13.85,3,1.67a8.64,8.64,0,0,1,1,1.16c1.4,2.16,2.15,4.61,3.24,6.91.25.54.6,1.2,1.29,1.14s.76-.86.88-1.43c.3-1.5.51-3,.72-4.53.13-.91.2-1.91,1.53-1.84,5.66,5.8,9.29,12.36,7.46,20.8a38.27,38.27,0,0,1-5.41,12.45,16.14,16.14,0,0,1-2,2.33,5,5,0,0,0-1.24,5.66c.92,2.74,1.46,5.6,2.52,8.31-.84,3.64,0,7.16,1.21,10.51.88,2.45.47,3.84-1.82,5-6.55,3.24-13.09,6.5-19.56,9.88a43.91,43.91,0,0,1-12.8,5.1c-9.58,2.43-19.47,3.52-28.9,6.61a8.4,8.4,0,0,1-3.34.53c-2.47-3.54-4-7.59-6.16-11.32a91.49,91.49,0,0,1-9.68-22.79c-.1-.39-.19-.81-.83-1-2.81,3.46-4.18,8-7.45,11.18a.87.87,0,0,1-1-.72c.16-2.61,1.84-4.53,3.08-6.63,3-5.06,5.7-10.25,8.51-15.4.48-.58.91-1.24,1.79-1.24,2.44.52,1.34-.81.68-1.51a26.12,26.12,0,0,0-6.71-5.44A198.27,198.27,0,0,0,178,245.58C176.08,245,174.34,245.28,172.53,245.31Z"/><path class="cls-5" d="M199.82,288.68l7.83-13c1.29.61.95,1.83,1.19,2.71,2.61,9.42,7,18,11.74,26.5,1.29,2.34,3.38,4.47,2.93,7.53a6.19,6.19,0,0,1-3.67,3c-2,.05-2.72-1.69-3.71-2.91-4.31-5.26-8.54-10.57-13.63-15.13,5.64,5,10.17,11,15,16.82a3,3,0,0,1,.81,2.55c-.13.85.67-.13.92.25a35.27,35.27,0,0,1,6.27,6.3,55.4,55.4,0,0,0,7.89,7.8q.36.24.69.51c2.48,2,4.18,5,7.35,6.25a11.44,11.44,0,0,1,2,1c5.22,2.68,10.53,5.15,15.74,7.85,5.49,2.84,8.21,7.55,10.32,12.81.9,2.24,2.18,4.46,2.06,7,0,2,1.13,4,.31,6.32-6.06-3.24-6.45-11.7-14-14.47,2.91,4.57,6.16,8.25,6.83,13.14-.31,2.87-.85,3.15-3.62,1.89a50.63,50.63,0,0,0-8.83-10.56c4.61,6,9,12,11.77,19.14-5.84-3.9-10.49-9.06-15.37-14.08,2.19,4.35,5.35,8.23,5.91,13.29-1,.15-1.39-.59-1.74-1.09-5.38-7.65-13-12.79-20.13-18.54C225,355.4,216,352,207.71,347.26c-1.25-.7-2.56-1.32-3.84-2-4.41-1.39-8.12-4.07-11.65-6.86-6.79-5.36-14.05-10.08-20.88-15.38-1.3-1-2.32-2.37-3.79-3.18l0,.05c-2.46-1.82-4.32-4.26-6.59-6.27-.81-1.44-1.61-2.88-2.42-4.31-3.52-3.84-3.66-8.54-3.42-13.33,3.41-11.06,7-22,12.8-32.15a76.24,76.24,0,0,0,5.14-9.54c.87-2.2,2.13-3,4.47-2.5,1.39.31,2.91,0,4.21.81a8.91,8.91,0,0,1,1.08.84,2.74,2.74,0,0,0,2.77.67,2.63,2.63,0,0,1,2.73.81c1.26,2.58,2.8,4.57,6.14,3.18.46-.19,1,.19,1.41.48,1.82,1.58,3.3,3.82,6.31,3,.59-.16,1.16.39,1.53.89,1.77,2.43,3.66,4.52,7.12,3.2.35-.14-.16.05.23.17.16.05.12.3,0,.5-3.18,7.66-8.09,14.39-11.83,21.75-.25.62-.17,1.39-.79,1.79-.34.33.33.44,0,.25A6,6,0,0,1,199.82,288.68Z"/><path class="cls-1" d="M226.68,17.51l2-.56c4.18,1.14,8.63.91,12.72,2.47.72.36,1.44.73,1.6,1.63-1.07,1.14-2.62,1.39-3.94,2.07l.08-.05a79.21,79.21,0,0,0-31.34,24,70.49,70.49,0,0,0-13.77,27.14,3.64,3.64,0,0,1-.87,2c-3,.56-5.61-.9-8.25-1.92-7.42-2.86-14.17-7-20.91-11.16a5.63,5.63,0,0,0-1.94-.9c-2.27-1.4-3.71-3.58-5.29-5.64a7.44,7.44,0,0,1-.52-.73c-2-2.62-2.85-5.72-3.64-8.85-3.68-12.51-6.22-25.29-9.19-38-.46-1.93-1.16-3.76-1.7-5.65-.68-2.41-.49-2.63,1.89-2.1q22.41,5,44.89,9.54,3,.63,6.09,1.14c9.66,1.92,19.4,3.34,29.16,4.63A7.42,7.42,0,0,1,226.68,17.51Z"/><path class="cls-12" d="M144.62,70.37c.17-1.85,1.84-2.58,2.9-3.71,2.59-2.76,5.35-5.36,8-8,2.07.65,2.09,2.7,2.68,4.23,4.53,11.69,11.67,21.63,20.24,30.64.56.52,1.18,1,1.25,1.84a4.35,4.35,0,0,1-3.34,3c3,.3,3.23.64,2.51,4a22.78,22.78,0,0,0-.54,2.42c-.39,2-.87,4-1.19,6.06a.79.79,0,0,0,.18.61c1,.21,1.7-1.23,2.81-.58.45,3.22-1.95,5.24-3.24,7.72-1.14,1-.41,2.55-1.06,3.7A100.78,100.78,0,0,0,169.63,149c-1,9.31-.11,18.51.59,27.75a5.34,5.34,0,0,1-.31,2.74c-.8,1.09-1.37.4-1.85-.3a35.11,35.11,0,0,1-3-5c-5.4-12.18-6.93-25-6.26-38.34a9.39,9.39,0,0,0-1.43,2.82,27.5,27.5,0,0,0-1.06,2.92A75.86,75.86,0,0,0,154,172c.11,1,.5,2-.25,3-.94.43-1.25-.28-1.64-.89-4.29-6.88-9.13-13.43-12.56-20.82-2.24-4.85-4.44-9.73-5.54-15-2-8.9-2.51-17.81-.38-26.78a28.88,28.88,0,0,1,1-3.2l0,.05c.52-.53-.1-1.15.15-1.72a4.13,4.13,0,0,0-1.36,1.12l0,0a53.13,53.13,0,0,0-7.68,26.79c0,1,.12,1.87-1,2.34-2.29-1.37-2.6-3.79-3.19-6.06.27-3.42-.69-6.8-.31-10.23,1.15-13.06,6.12-24.77,12.72-35.9l0,0A116.56,116.56,0,0,1,144.62,70.37Z"/><path class="cls-14" d="M169.49,180c-.41-7.11-1.1-14.21-1.18-21.32A98.26,98.26,0,0,1,173.8,125a8.9,8.9,0,0,1,1.77-3.56c1.24.9,1.22,2.25,1.35,3.59a25.94,25.94,0,0,0,3,10c2.91,5.33,5.15,6.08,10.67,3.52a21.09,21.09,0,0,1,1.61-1.41c1.88-1.1,3.1-.47,3.34,1.74s-.35,4.29.39,6.39A103.31,103.31,0,0,0,202.18,170a138.16,138.16,0,0,1,4.45,13.44c.31,1.13,1.15,2.32-.08,3.43-2.47-.49-3.62-2.59-5.07-4.26-3.67-4.22-5.43-9.41-7.16-14.6.68,7.74,1.54,15.42,5.65,22.29a2.08,2.08,0,0,1,0,2.6c-.83.92-1.68.3-2.52-.11a28.15,28.15,0,0,1-8-5.68C183,182,178.68,175.35,175.34,168c-.52-1.15-.5-2.58-1.65-3.43l-1,1.17c-2.27,4.17-1.62,8.71-1.66,13.17,0,.41.2.8.19,1.22,0,.71,0,1.68-.95,1.59S169.33,180.74,169.49,180Z"/><path class="cls-15" d="M437,269.5c.4.59.75,1.43,1.32.11a11.12,11.12,0,0,1,3.68-5.15.44.44,0,0,1,.05.76c-2.66,4.09-5,8.28-3.86,13.63-6.91-5.75-9.52-13.66-12.17-22.2-3.76,6.12-9.9,8.05-15.46,10.86s-11.6,5.36-16.61,9.44c-.49.39-1,.88-1.63.5s-.52-1.09-.46-1.68a42.36,42.36,0,0,1,.72-6.23,49.24,49.24,0,0,0-12.72,13.35,21.83,21.83,0,0,1-1.08-7.49,56,56,0,0,1,.31-10.82c.12-.68.95-1.83-.45-2.34.59-1.71,1.94-2.75,3.22-4a149,149,0,0,0,24.71-29.84c1.42,0,1.3,1.18,1.29,2,0,3.38-.46,6.56-3.79,8.62-2.4,1.48-3.79,4.09-5.48,6.23-4.08,5.19-8.59,10-13.05,14.8a10.3,10.3,0,0,0-2.93,8.24c.27,2.17.57,4.29-.19,6.48a3.56,3.56,0,0,0,1.66-2c1.16-3.53,4.58-4.11,7.21-5.62,1.63-.93,3.46-.87,4.36,1.34.62,1.53,1.62,1.54,3,1A146.52,146.52,0,0,0,422.66,257c.92-.6,1.23-1.63,1.8-2.48,1.51-2.27,3.11-2.17,4.4.25.1.18.26.37.25.56-.13,4.59,3.48,7.82,4.37,12C433.93,269.47,435.05,270,437,269.5Z"/><path class="cls-16" d="M53.71,159.3c-.37-.54-.94-.56-1.51-.63,5.7-1.21,11.38-.77,17.18.28-7.91,1.61-14.91,4.62-21,11.29,24.88-8.71,46.45-4.41,65.13,13.21,6.4,6,12.53,17.44,11.92,22.22-3.51-7.77-9.56-11.22-17.81-11.37,10.91,9,20.91,18.59,27.06,31.69,7.31,15.56,12.06,35.58,8.55,40,.81-8.86-3.81-15.22-9.09-21.12-6.34-7.09-14.53-11.18-23.76-13.18-11.25-2.44-22.22-2-32.59,3.57-7.66,4.08-11.32,10.67-11.61,19.18-.54,15.87,4.73,30.05,12.81,43.4.42.7.78,1.45,1.17,2.17a.8.8,0,0,1-1.06-.32c-8.38-12.92-13.84-26.94-14-42.45C65,243,70.93,235.08,84.61,231.4c19.34-5.21,36.67-1.17,51,13.43a36,36,0,0,1,4.1,5.45c1.19,1.8,2.15,3.74,3.67,6.42a126.83,126.83,0,0,0-8.56-27.89c-5.63-13.3-15.13-23.32-26.27-32.07-1.16-.91-3.47-2-2.87-3.19.76-1.49,3.19-.78,4.8-.51a20.69,20.69,0,0,1,11.9,5.91c-1.78-7-8.85-15.47-18.88-22.26A56.83,56.83,0,0,0,76,167c-10-.84-19.61,1.79-29.3,4.79,1.53-4.47,7.52-8.76,17.08-12.47Z"/><path class="cls-15" d="M365.37,255.82c-.37-.3-.52-.69-.16-1,6.25-6,12.91-11.64,18-18.83.19-.28.67-.36,1.43-.74-1.69,6.6-4.56,12.24-7.18,18s-6.38,10.65-9.87,16.28a21.3,21.3,0,0,0,7-5c1.09-1.22,2.25-2.49,4.15-2.34a35.77,35.77,0,0,1-9.06,7.32c-2.05,1.07-2.8,2-1.4,4.54,4.81,8.82,10.37,17.31,13,27.17-.72.44-1.54.83-.95,1.92.87,12.15-2.55,23.12-8.92,33.36-2.61,4.21-5,8.54-9.54,11a1.14,1.14,0,0,1-.44-.85c1.4-2.53,3.51-4.51,5.24-6.78,9.18-12.05,13.18-25.53,11.2-40.63-.45-3.44-2.23-6.42-4.08-9.27a13,13,0,0,1-2-4.45,8.09,8.09,0,0,0-2-4.12,8.36,8.36,0,0,1-1.81-3.57c-.25-1.24-.32-2.59-2.23-1.24-1.08.76-2.09-.36-3-1-4.24-2.76-8.18-6-13.08-7.65-.1-.11-.19-.23-.28-.34.72-.69.91-2.42,2.55-1.3a57.89,57.89,0,0,1,7.46,3.66c3.78,2.09,5.84.93,5.95-3.45C365.29,263,365.24,259.38,365.37,255.82Z"/><path class="cls-17" d="M182.17,253.93a2.23,2.23,0,0,0-.26-.27,2,2,0,0,0-2.58-1.53c-1.9.26-3.65.32-4.49-2-.32-.84-1.36-.75-2.1-1-1-.41-2.22-.83-1.42-2.38l1.21-1.44c1.11-1.25,2.28-1.45,4-.91a185.16,185.16,0,0,1,30.24,13,36.47,36.47,0,0,1,6.38,4.84,3.74,3.74,0,0,1,1.15,4.67c-1.24.06-1.34-1.12-2-1.66-.19-.12-.41-.21-.57-.11-4.26,2.42-4.91,1.25-8-2.21-.46-.52-.72-1.61-1.52-1.29-3.41,1.34-4.81-1.41-6.74-3.11a1.22,1.22,0,0,0-.84-.36c-4.42.84-4.42.85-6.51-3.26a1.67,1.67,0,0,0-2.2-.53C184.47,255.24,183.37,254.45,182.17,253.93Z"/><path class="cls-18" d="M468.19,188.61c-3.33-.65-5,2.14-7,3.76-2.15,1.75-4.78,2.77-6.93,5.32a3.87,3.87,0,0,1,1.56-3.29c11.4-11.42,20.85-24.4,29.61-37.86,5-7.68,9.26-15.83,13.86-23.76.79-1.36-.22-1.25-1.06-1.39-8.51-1.43-17-3-25.53-4.29-8.73-1.34-17.43-2.9-26.3-3.62l3.74-.31c12.6.82,25,3.4,37.41,5.29,3.77.58,7.52,1.33,11.31,1.77,2.38.27,2.8.91,1.52,3.05-8.8,14.69-16.91,29.82-27.63,43.29a3.09,3.09,0,0,0-.3.84C471,181.11,470,185,468.19,188.61Z"/><path class="cls-19" d="M132.25,390.18c-1.72-2.47,1.1-1.69,1.75-2.46.41-.6.38-1.65,1.53-1.51,2.56,0,2.43-1.65,2.1-3.43a66.61,66.61,0,0,1-1.36-15.68c.26-4.72.53-9.47,2-14a10.13,10.13,0,0,1,1.18-2.2l1.24-2.44c.56-.6,1.14-1.13,2-.57,9.09,3.29,18.34,1.58,27.55.9,9.45-.7,18.76-2.77,28.27-2.84.39-.25.63-.15.71.31-5.38.73-10.77,1.35-16.13,2.2-9.57,1.53-19.23,2-28.88,2.54-3.91.21-7.77-.7-11.61-1.38-1.18-.2-1.66-.15-1.95,1.06-2.35,9.78-3.6,19.59-1.21,29.56,0,.1,0,.21.05.31.47,1.82-1,4.57,1,5.35,1.44.56,3.69-.79,5.51-1.46,9.37-3.48,18.73-7,27.78-11.29a37.68,37.68,0,0,1,6.41-2.24c-2.37,2.21-5.54,2.92-8.36,4.29-10.14,4.91-20.85,8.39-31.46,12.1C137.68,388.23,134.52,388,132.25,390.18Z"/><path class="cls-20" d="M442,265.22c0-.25,0-.5-.05-.76,1.93-4.09,5.5-6.89,8.21-10.36,3.64-4.67,7.93-9,9.43-14.95a24.87,24.87,0,0,0,.64-11.54c-.31-1.41.16-1.77,1.43-1.12a4.19,4.19,0,0,1,1,.65c1.88,1.76,3.66,3.71,6.19,4.49A128.92,128.92,0,0,0,486.74,236c-2.35-3.67-5.07-6.49-6.39-10.25-2.83-8.09-3.86-16.33-2.06-24.71.36-1.67-.93-2.86-.28-4.31l.38-.17c.77.2,1.27.6,1,1.49-.05,6.29-1,12.56-.14,18.87a32,32,0,0,0,9,18.58c.48.49,1.45.79.91,1.67s-1.38.49-2.21.29c-8.28-2-16.61-3.87-25.08-6.58.8,10.53-5.5,17.57-11.64,24.7C447.47,258.77,444.74,262,442,265.22Z"/><path class="cls-21" d="M438.28,122.62c-1.28.84-2.11,2.5-4.9,2.34,7.23-5,9.86-12.12,13.09-19.5-9.1,4.19-17.65,2.6-26.18-.12-9.91-3.15-19.26-7.74-29.06-11.14-8.57-3-17.34-4.46-26.41-2.65a15.38,15.38,0,0,0-7.53,4c-.48.45-.76,1.64-1.87.89,3.36-4.41,8.08-6.27,13.36-6.79,8.53-.84,16.56,1.41,24.5,4.15,9.25,3.2,18.05,7.58,27.42,10.43,6.06,1.84,12.17,3.21,18.59,2.24a13.76,13.76,0,0,0,8.91-4.63c-.25,3.93-2.17,7.33-3.7,10.85S440.26,119.26,438.28,122.62Z"/><path class="cls-22" d="M298.73,117.09c1.16,5,2.31,10,3.49,15.18,5.59-12.47,11.82-24.66,12.22-38.78.18-6.09,1.48-12.14,1-18.25-.79-10.55-3.62-20.31-11.65-27.85,3,1.15,4.67,3.64,6.29,6.15,5,7.76,6.55,16.52,6.65,25.5.16,15.59-2.39,30.66-9.65,44.71-3.54,6.87-6,14.06-5.25,22-.45.45-.89.92-1.63.63-.59-.55-.44-1.17-.19-1.81,1.24-6.26-.07-12.38-1.06-18.52-.22-1.41-.73-2.77-.92-4.19,0-1.5-.79-3-.16-4.5A.58.58,0,0,1,298.73,117.09Z"/><path class="cls-23" d="M194.39,12.41c-17.64-3.15-35.07-7.33-52.56-11,4.44,15.25,6.93,30.86,11.41,46-.47.36,0,1.19-.75,1.42-3.56-12.62-6.34-25.42-9.24-38.2a34.65,34.65,0,0,0-2.82-8.82c-.64-1.2-.56-2.12,1.13-1.71,17.95,4.41,36.13,7.75,54.17,11.71C195.46,12.41,194.78,12.09,194.39,12.41Z"/><path class="cls-24" d="M296.26,164.48,294.64,161c-.28,6,0,11.34-1.27,16.5a3.16,3.16,0,0,1-1.24-2.06,102.19,102.19,0,0,1,.88-12.21c.2,1.6-.87,2.64-2.49,3.71a69.08,69.08,0,0,1-6.94,4.55,3.91,3.91,0,0,0-2,5.22,11.82,11.82,0,0,1,.88,5.46,1.64,1.64,0,0,1-1,1c-1.94-.51-.81-2.18-1.42-2.95-.18,1.38,1,3.41-.9,4.79a1.19,1.19,0,0,1-.87,0c-1.16-1.69.06-3.41-.06-5.11-.1-1.31.43-2.64-.13-4-2.52.93-3.32,2.46-2.48,5.07a12.63,12.63,0,0,1,.68,5.8,2.16,2.16,0,0,1-1.19,1.4c-1.42-.5-1.15-1.8-1.29-2.87a23.88,23.88,0,0,0-1.8-6.86,1.81,1.81,0,0,1-.12-.92c.36-1.06,1.26-1.56,2.13-2.13,5.29-3.48,10.25-7.41,15.46-11,1-.7,1.21-1.85,1.7-2.86,1.16-2.42,2.39-4.8,5.3-5.57a1.07,1.07,0,0,1,.7.47c-.75,1.91-1.22,3.79-.07,5.77a2.07,2.07,0,0,1,0,2.31A.79.79,0,0,1,296.26,164.48Z"/><path class="cls-25" d="M189.42,186.69a45.6,45.6,0,0,0,7.8,5.58c.68.36,1.44,1.14,2.26.47,1.08-.89,0-1.78-.37-2.44-4.13-7-5.25-14.7-5.44-22.63a1.74,1.74,0,0,1,1-2,40.69,40.69,0,0,0,11.52,21.08c.12.59-.2.79-.73.8a27.85,27.85,0,0,1-10.17-14.43c-.23-.6-.62,0-.29-.27.11-.07.19,0,.26.18,1.31,3.8,1.65,7.87,3.2,11.61.39,1,.73,1.93,1.13,2.89.69,1.66,1.53,2.47,3.1.82a2.15,2.15,0,0,1,1.67-.69,1.12,1.12,0,0,1,.71.47,2.71,2.71,0,0,1-1.11,2.12c-1.19,1.1-1.75,2.22-.69,3.77.44.63,1,1.5.12,2.22s-1.58.25-2.34-.06a13.44,13.44,0,0,1-2.26-1c-.49-.37-.24-1.1-.73-1.46a32.92,32.92,0,0,1-9.66-6.83A.7.7,0,0,1,189.42,186.69Z"/><path class="cls-26" d="M296.26,164.48l.66-.09c2.14,1.44,1.33,3.92,2,5.87.36,1,.15,2.23.49,3.31a8.07,8.07,0,0,1-.25,3.63c.72-1,.4-2.51.46-3.85.24-5.15,1.16-10.27.86-15.44-.05-.75.7-1.9-.74-2.23-.86.45-1.59,1.28-2.72.88a.49.49,0,0,0-.22-.48c0-.2,0-.47.09-.59,2.68-2.53,3.26-5.93,3.85-9.33l1.11-.42a10,10,0,0,0,1.47,1.95c1.17,1,1.18,1.93.13,2.82C302,151.75,302,153.32,302,155c-.08,7.23.56,14.52-1.23,21.66a15.29,15.29,0,0,1-2.8,6.64C298.21,176.4,297.18,170.44,296.26,164.48Z"/><path class="cls-27" d="M171.32,246.75a2.88,2.88,0,0,0,.18.59c.58,1.07,6.36,4.37,7.5,4.25,1.6-.17,2.93,0,2.91,2.07-1.88-2-4.57-.35-6.68-1.5-.52-.28-.67.61-.92,1A203.07,203.07,0,0,0,156,294.07c-.15.49-.22,1-.33,1.51-.58.13-.88,0-.64-.67,3.46-11.94,7.63-23.58,14.15-34.27,1.62-2.64,3-5.43,4.43-8.17.76-1.42,1.21-2.61-1.18-3C171.08,249.27,169.73,248.46,171.32,246.75Z"/><path class="cls-28" d="M302.07,46.11c-.79,0-1.07-.67-1.2-1.22-2.44-10-10.2-15.35-18.18-20.49C274.28,19,265,18.2,255.32,18.77c-.14-.12-.19-.24-.13-.35s.11-.16.16-.16c16.17-2.62,29,4,40.25,14.74C299.37,36.59,300.74,41.33,302.07,46.11Z"/><path class="cls-29" d="M294,214.54c1.37.36,2.39,1.65,4,1.53a43.34,43.34,0,0,0,0-5.47c-.53-4.12.55-7.89,1.74-11.77,1-3.11,1.1-6.46,1.72-9.68,1.23-6.32,1.26-6.32,7.86-6.31.62,0,1.23,0,1.85,0,.78-.14.95.2.72.88-1.27,1-2.77.77-4.19.72-2.21-.09-3.57.75-3.89,3-1.4,10-5.26,19.54-4.11,29.87a22.6,22.6,0,0,1-2,12.39c-.67,1.43-.46,3.06-1,4.51-1.69.89-1.9-.44-2.07-1.51a7.45,7.45,0,0,1,.58-3.34c.42-1.38.95-2.74,1.45-4.1,1.48-4,1.07-7.44-2.83-9.9A.79.79,0,0,1,294,214.54Z"/><path class="cls-30" d="M152.49,48.83c.18-.51.11-1.15.75-1.42A29.47,29.47,0,0,0,157,56.12c1.55,6.63,4.8,12.53,8,18.42s7.82,11.2,12.13,16.5c.76.93,1.87,1.78,1.15,3.25a91.8,91.8,0,0,1-21.52-32.83c-.36-1-.83-1.89-1.25-2.82Q154,53.74,152.49,48.83Z"/><path class="cls-31" d="M134.53,138.89c3.13,12.22,9.87,22.62,16.67,33,.67,1,1.39,2,2.09,3,2.59,1.2,3,4.14,4.8,6.06.12-.55,0-1,.06-1.52a2,2,0,0,1,.8-1.58l1.61,5.8c-.39,1-1.08,1.13-2,.7-9.58-14.2-20.29-27.79-24.66-44.85C133.65,138.86,134,138.76,134.53,138.89Z"/><path class="cls-32" d="M468.19,188.61c.7-4,1.35-8,4.25-11.2l2.51,1.84c-.18,1.44,1.27,2.73.41,4.24a35.46,35.46,0,0,1-3,4.47,5.28,5.28,0,0,1-2,1.91c-.71.34-1.6.77-1.76-.62Z"/><path class="cls-33" d="M199.26,346.23l-.71-.31,2.82-.67c-.25-.75-1-.86-1.5-1.19-10.61-6.68-20.48-14.4-30.45-22-.75-.56-1.83-1-1.87-2.21,2.48.86,4.09,3,6.18,4.37,9.33,6.28,17.84,13.71,27.53,19.48.87.51,1.74,1,2.61,1.57Z"/><path class="cls-34" d="M169.49,180l1,1.67c.34-4.67-.46-9,.78-13.2.29-1,.6-1.93.92-2.88,0,0,.19-.05.28,0a1.05,1.05,0,0,1,.25.18,44.81,44.81,0,0,0-.25,20.38c-4.78-7.36-11-13.76-13.3-22.42a15.83,15.83,0,0,1-.28-1.81.82.82,0,0,1,.85-.09c1.87,1.85,1.9,4.52,3,6.73.95,1.94,1.91,3.89,2.85,5.85C166.75,176.3,167.69,178.44,169.49,180Z"/><path class="cls-35" d="M292.76,175.61c.2.64.41,1.28.61,1.92a136.44,136.44,0,0,1-7.61,27.5,1.43,1.43,0,0,0,.1,1.54.75.75,0,0,1,.08.88c-.46.48-.95.88-1.63.36a3.44,3.44,0,0,1-.64-3.16c3.5-8.08,5.52-16.61,7.54-25.13C291.53,178.15,291.48,176.61,292.76,175.61Z"/><path class="cls-36" d="M389.64,391.46h-.76q-.87-3.68-1.75-7.35l-.49,0V395a71.17,71.17,0,0,1-.51-18.14c.46-4.51-.11-9.08,1-13.53.92,1.16,0,2.62.63,3.82,0,5.31-1.16,10.63.08,15.94C388.47,385.86,389,388.66,389.64,391.46Z"/><path class="cls-37" d="M159.47,161.85h-.6c-1.41.77-.77,2.13-.73,3.15.16,4.29.52,8.58.81,12.87l-.23,2.28c-1.17-.45-1.26-1.54-1.47-2.53-1.5-7-1.37-14.11-1-21.21a3.47,3.47,0,0,1,.15-.91c.44-1.4.32-3.72,2.22-3.47,1.39.18,1.24,2.43,1.12,3.8C159.57,157.85,160.8,159.91,159.47,161.85Z"/><path class="cls-38" d="M134,84.67c-1.22,4.17-3.85,7.66-5.6,11.59a87.12,87.12,0,0,0-6.75,24c-.39-.08-.42-.45-.6-.7.19-7.85,2.85-15,5.88-22.13C128.82,93,130.65,88.4,134,84.67Z"/><path class="cls-39" d="M124.75,136.86c1-3,.65-6.06,1-9.09a49.14,49.14,0,0,1,6.88-19.59c.14-.22.49-.3.75-.45-.61,3.07-2.55,5.56-3.61,8.45a51.43,51.43,0,0,0-3.31,22.94Z"/><path class="cls-40" d="M134.53,138.89l-.6.64a53.32,53.32,0,0,1-.19-30.07c.13-.48.22-1,.86-1.14-.95,5.67-2,11.31-1.82,17.13C133,130,134,134.41,134.53,138.89Z"/><path class="cls-41" d="M194.39,12.41l1.34-.6q14.86,2.26,29.72,4.55c.6.1,1.22.34,1.23,1.15C215.87,16.05,205.09,14.51,194.39,12.41Z"/><path class="cls-42" d="M380.26,303.09c-.64-1.11-1.37-2.27.95-1.92,5.75,9.17,6.73,19.48,7.14,29.92-.18.27-.36.27-.53,0-.85-4.47-.94-9-1.67-13.52-.87-5.32-3.09-10-5.14-14.84-.08-.18.06-.78-.45-.46C380.37,302.39,380.35,302.81,380.26,303.09Z"/><path class="cls-43" d="M387.82,331.09c.17,0,.35,0,.53,0,.81,12,.13,24-.6,36-.92-1.16-.16-2.59-.63-3.82C387.58,352.57,387.87,341.83,387.82,331.09Z"/><path class="cls-44" d="M478,196.72l-1.12-.75a4.67,4.67,0,0,1-1.18-4.16c.52-1.52,1.17-3,1.61-4.55.27-.94.57-2,2-1.71l.59,1.11c.73,3.57,1.83,7.22-1.92,9.92Z"/><path class="cls-45" d="M189.42,186.69l-1,.18a48.49,48.49,0,0,1-14.71-22.33c1,.58,1,.59,1.46,1.8A53.26,53.26,0,0,0,189.42,186.69Z"/><path class="cls-46" d="M142.73,347.86l-2,.57c-3.41-2.53-7.72-3-11.37-5-3.27-1.77-7-2.75-9.68-5.53,3.28.66,5.8,2.92,8.82,4.14C133.24,344,138,345.92,142.73,347.86Z"/><path class="cls-47" d="M176.93,239h-.66a54.26,54.26,0,0,1-2.47-5.91c-1.72-5.85-.1-9.77,5.38-13.58a.64.64,0,0,1,.39.77,4.1,4.1,0,0,1-1.34,2c-3.95,3.64-3.56,7.93-1.93,12.44C176.79,236.11,178.1,237.38,176.93,239Z"/><path class="cls-48" d="M478,196.58a14.91,14.91,0,0,0,1.92-9.92c2.63,4.16,2.42,9.26-.48,11.38A1.88,1.88,0,0,0,478,196.58Z"/><path class="cls-49" d="M241.64,20.11c-3.83-.66-7.65-1.33-11.48-2C229.43,18,228.7,18,228.7,17a14.18,14.18,0,0,1,4.88-1.21c.39.38,1.32,0,1.31.93-.28.51-.76.53-1.26.51.33.14.66,0,1,0a33.39,33.39,0,0,1,7.21,1.44c.54.19,1.23.55.89,1.32C242.54,20.39,242,20.31,241.64,20.11Z"/><path class="cls-50" d="M479.32,185.55c-2,1.61-1.36,4.49-3,6.27a1.2,1.2,0,0,1-1-.79c-.09-1.57,1-2.84,1.15-4.34.13-1.13.72-2.52-1.23-2.76a.67.67,0,0,1-.56-.51c1.08-1.33-.95-2.84.24-4.17C476.5,181.29,478.42,183.07,479.32,185.55Z"/><path class="cls-51" d="M255.35,18.26a1.75,1.75,0,0,1,0,.51c-2.4,1.18-5.08,1.09-7.6,1.71-.45-.21-.76-.5-.53-1.06,1.33-1.15,2.91-1.09,5.13-.87-3-.56-5.54-.32-7.67-1.78-.17-.6.23-.82.67-1C248.84,15.86,252,17.6,255.35,18.26Z"/><path class="cls-52" d="M155,294.91l.64.67a22.23,22.23,0,0,0,2.91,13.76c-2.39-1.14-2.93-3.48-3.49-5.69C154.38,300.77,154,297.83,155,294.91Z"/><path class="cls-53" d="M144.62,70.37c-3.38,4.91-6.88,9.72-10.68,14.32A43.12,43.12,0,0,1,144.62,70.37Z"/><path class="cls-54" d="M198.06,193.7c.67.21.67.77.7,1.33-1.58,5.26-3.56,10.28-8.24,13.68a.75.75,0,0,1-.75-.36A56.88,56.88,0,0,0,198.06,193.7Z"/><path class="cls-55" d="M311.9,183.56l-.73-.67c4.19-1.17,8.72-1.2,12.5-3.72.22.69.44,1.38.65,2.08a69.17,69.17,0,0,1-9,2.68C314.14,184.17,312.92,184.69,311.9,183.56Z"/><path class="cls-56" d="M100.41,323.64c-3.79-2.31-6.57-5.67-9.39-9a.87.87,0,0,1,0-.94C94.07,317.1,97.8,319.84,100.41,323.64Z"/><path class="cls-57" d="M245.32,15.75l-.61.56a12.47,12.47,0,0,1-9.81.11l-1.32-.68C237.49,15.19,241.4,14.77,245.32,15.75Z"/><path class="cls-58" d="M285.78,207.42l.08-.85,8.16,8a.46.46,0,0,1-.32.34,1.53,1.53,0,0,1-1.93-.44C289.7,212.15,286.7,210.67,285.78,207.42Z"/><path class="cls-59" d="M121,119.58l.6.7a66.94,66.94,0,0,0,.42,7.87c.12.81.84,2-.48,2.65C120.63,127.1,120.86,123.34,121,119.58Z"/><path class="cls-60" d="M179.18,219.51a79.48,79.48,0,0,0,7.46-7.45.81.81,0,0,1,.57.6c-1.62,3.4-3.87,6.14-7.62,7.31A5.87,5.87,0,0,0,179.18,219.51Z"/><path class="cls-33" d="M161,313.65a22,22,0,0,1,6.59,6.27C164.64,318.63,162.87,316.1,161,313.65Z"/><path class="cls-61" d="M114.7,334.81a14.71,14.71,0,0,1-7-5C110.31,331.13,112.85,332.5,114.7,334.81Z"/><path class="cls-62" d="M158.59,184.38l2-.7c.37,1.41,1.46,2.61,1.32,4.36A8.52,8.52,0,0,1,158.59,184.38Z"/><path class="cls-16" d="M91,313.71c0,.31,0,.63,0,.94a29.74,29.74,0,0,1-4.67-5.35C88.68,310,89.5,312.21,91,313.71Z"/><path class="cls-63" d="M105.64,328c-2.42-.67-3.94-2.43-5.27-4.4C102.69,324.4,104.08,326.31,105.64,328Z"/><path class="cls-64" d="M133.36,107.77c.21-1.44,1.28-2.21,2.67-3.53-.45,1.82-.55,3.1-1.46,4.13Z"/><path class="cls-65" d="M119.7,338a8.27,8.27,0,0,1-5-3.15A8.26,8.26,0,0,1,119.7,338Z"/><path class="cls-16" d="M84.23,306.48c-1.39-1.4-2.86-2.75-3.16-4.86A8,8,0,0,1,84.23,306.48Z"/><path class="cls-66" d="M186.64,212.06a13,13,0,0,1,3.13-3.71,2,2,0,0,1,.4.37c.12,2.18-1.31,3.1-3.08,3.74Z"/><path class="cls-67" d="M139.47,350.87c0,.7.18,1.46-.44,2a9,9,0,0,0-3.36-.38c-1.95.3-3.16,1.1-2.38,3.31a5.26,5.26,0,0,1,0,3.92c-.2.48-.45,1.1-.22,1.5,2.52,4.48-1,8.18-1.61,12.22-.38,2.32-.4,4.22,1.27,6,1.81,2,2.15,4.48,2.34,7-.52.26-.34,1.16-1.1,1.2-1.15-2.71-1.08-5.82-3.36-8.21-2.46-2.59-1.33-5.58.1-8.36a4,4,0,0,1,.09-2.81c1.23-2,2.32-4,.38-6.26a1.7,1.7,0,0,1,.11-2c1.28-1.91.65-3.62-.39-5.33,0-2.66,1.58-3.55,3.92-3.67Z"/><path class="cls-68" d="M361.7,346.63c0,.28.07.57.1.85a16.21,16.21,0,0,1-9.42,3.51,63,63,0,0,1-19.65-2.17,13.75,13.75,0,0,1-7-3.85c-1.82-2-3.82-2.37-6.32-2.17-4.85.38-9.72.55-14.58.81-1.08.06-2.45-.21-2.14,1.67-1.59-1.63-3.66-1.25-5.53-1.06a203.19,203.19,0,0,0-29.65,5.44c-2.27.58-2,1-.94,2.78A71.38,71.38,0,0,1,272,364.56a1.46,1.46,0,0,1-.45,1.94c-1.83-3.69-2.46-7.82-4.59-11.42a20.83,20.83,0,0,0-7.59-7.33c-5.38-3.23-11.23-5.51-16.71-8.53,3.48-1.39,6.11.91,8.91,2.17,3.85,1.72,7.41,4.06,11.38,5.56a8.81,8.81,0,0,0,5.47.14,181.71,181.71,0,0,1,41.37-5.72c3.92-.07,7.82-.79,11.75-.57,2.25.13,4.52-.12,6.75.18,1.55.21,3.44.56,1.61,2.84-.86,1.07,0,1.42.77,1.77a18.9,18.9,0,0,0,5.42,2.08c4.58.79,9.21,1.09,13.81,1.72,2.92.4,5.64-1,8.35-1.95C359.34,347,360.36,346.15,361.7,346.63Z"/><path class="cls-69" d="M261,373.38c1.71.32,3.18.2,3.62-1.89a18,18,0,0,1,1.8,7.66c0,.66-.23,1.37-.8,1.52-.74.2-.91-.62-1.2-1.15C263.33,377.47,262.19,375.43,261,373.38Z"/><path class="cls-70" d="M130.83,368.34l-.09,2.81a6.68,6.68,0,0,0-4.58,0c-3.91,1.64-8,1.31-11.93,1-7.18-.59-14.38-1.21-21.4-3l1.27-.62c7,.88,14,2.05,21.12,2.63A27.92,27.92,0,0,0,126.16,370C127.71,369.45,130,371,130.83,368.34Z"/><path class="cls-3" d="M306.38,367.36a.86.86,0,0,1,1.12.83c.07.65-.05,1.29-.86,1.33a.76.76,0,0,1-.83-.72C305.72,368.17,305.7,367.56,306.38,367.36Z"/><path class="cls-71" d="M311.9,183.56a31.44,31.44,0,0,0,9.74-2.27c.86-.34,1.77-1.32,2.68,0l2.79,10.37h.51l1-9.9c-.32-2.81.88-5.35,1.45-8,2.57-6,4.87-12.19,7.76-18.08a26,26,0,0,1,4-6.54c3.86-.9,4.46-.49,5.69,3a88.46,88.46,0,0,0,4.87,11.33,129,129,0,0,0,15.48,23,1,1,0,0,1,.2.87l1.69,1.91a1,1,0,0,1-.08,1.69,290.54,290.54,0,0,1-16.55,37.49c-3.09,6.8-5.61,13.91-10.8,19.51-.38-.1.2.12-.2.2s-.26.24.05.16c2-.54,3.6-2,5.47-2.8.54-.24,1.15-.64,1.68,0a1.22,1.22,0,0,1,0,1.45,96.66,96.66,0,0,1-11.88,17.57,2.54,2.54,0,0,1-1.08.6,98.54,98.54,0,0,0-9.73,2.09c-2.29.27-2.07-1.1-2-2.74.13-5.77.66-11.57-.33-17.32a2.16,2.16,0,0,0-2.15-2.39,92.89,92.89,0,0,1-10.77-2.39c-1.65-.4-3.24-1-4.85-1.52-3.57-1.47-7.28-2.7-10-5.69,0-.14-.07-.29-.11-.43-.16-1.61-.42-3.26.35-4.77,2.87-5.61,2.58-11.63,2.19-17.6a35.85,35.85,0,0,1,2-13.84A61,61,0,0,0,303,186.63c.31-2.6,1.56-3.21,3.9-3A41.15,41.15,0,0,0,311.9,183.56Z"/><path class="cls-20" d="M437,269.5c-2.67,2-3.09,1.95-4-1.29-.79-2.8-1.56-5.58-4-7.46a.85.85,0,0,1-.16-1.33c.84-1.22.2-2.44-.21-3.52s-.5-2.46-2-2.44c-1.27,0-1.61,1.28-1.87,2.22-.84,3.12-4.1,3.46-6.14,4.67-4,2.33-7.72,5.2-12.43,6.5-2.68.74-5.26,2.6-8,3.78-1.55.66-2.31.71-3-1.15-1-2.75-2.6-2.91-4.56-.76-.27.3-.65.78-.93.75-4.34-.49-4.13,3.9-6.25,5.77-.45.4-.26,1.73-1.4,1.09a1.39,1.39,0,0,1-.57-2.11c1-1.74.56-3.49.37-5.38a11,11,0,0,1,4.27-10.29,21.71,21.71,0,0,0,4.44-5c2.13-3.14,5.06-5.55,7.27-8.62,1.84-2.56,3.52-6,7.08-7.48,2.14-.89,2.75-5.93,1.65-9.06,1.8-3.69,3.82-7.29,4.94-11.42a1.27,1.27,0,0,1,.56,1.73c-2.09,6.38-2.59,13.12-4.38,19.56a62.88,62.88,0,0,1-5,12.92c-.4.73-1.4,1.61-.55,2.44s1.77,0,2.61-.3c5.45-2.1,10.1-5.53,14.71-9,2.8-2.1,5.88-3.84,8.36-6.36,1.22-1.23,1.61-.64,1.8.84.79,6.42,1.48,12.86,3.12,19.14A44.72,44.72,0,0,0,437,269.5Z"/><path class="cls-72" d="M341.8,247.75c4.32-5.05,6.72-11.22,10-16.9.46-.79.89-1.6,1.34-2.41.86,2.12-1,3.33-1.66,4.93a16,16,0,0,0-1.22,3.27A226.71,226.71,0,0,0,369.29,215c-2.4,6.1-4.8,12.13-7.78,18a157.55,157.55,0,0,1-10.25,17.22c-3.74,5.53-7.94,10.77-11.73,16.28s-8,10.54-12,15.92q8.34-6,16.68-11.95a20.63,20.63,0,0,1,5.05-2.9l0,0c.21,2-1.44,2.54-2.62,3.41-5,3.64-10,7.08-15,10.74-1.73,2.68-4.56,3.79-7.26,5.08-.65.32-1.37.65-2-.06s-.23-1.37.07-2a11.21,11.21,0,0,1,2.25-3c4.17-4.3,7.45-9.35,11.45-13.79a15.62,15.62,0,0,0,2.69-3.82c5.07-8,10.29-15.92,13.45-24-.55,1-2.08,2.16-3.39,3.57a33.11,33.11,0,0,1-4.67,4C343.24,248.6,342.87,248.51,341.8,247.75Z"/><path class="cls-73" d="M377.9,196.69l2.94,2.13c-5.73-13.27-11.28-25.66-12.8-39.31a170,170,0,0,0,23.87,55.83c-.39-8.19-1.43-16.33-1.74-24.52-.33-8.38-.23-16.7,0-25.06s.6-16.69,1.05-25c.9,13.42-.33,26.83-.23,40.24a304.66,304.66,0,0,0,2.82,39.65c-6.08-7.67-8.78-17.56-16.61-23.91A.39.39,0,0,1,377.9,196.69Z"/><path class="cls-74" d="M365.37,255.82c1.45.56.66,1.76.67,2.66.06,2.9-.07,5.8,0,8.7.06,4.28-2.79,6.13-6.49,3.89-2.58-1.57-5.81-2.11-7.73-4.76C356.34,262.85,361.34,260,365.37,255.82Z"/><path class="cls-75" d="M330.68,173.72l-2.07,8c-.91-1.1-.65-2.42-.38-3.56,3.12-13.29,7.69-26,15.24-37.52.31-.47.72-.89,1.12-1.39.89,1.46-.47,1.9-.93,2.7.47,2.28-1.74,3.49-2.18,5.45,1.33.23,2.81-.35,4,.69,2.32-1.1,4.7-.11,6.91.19,11.09,1.56,21.12,5.51,28.85,14.07a12.32,12.32,0,0,1,2.91,4.54c-2.64-1.3-3.36-3.7-5-5.22a44.59,44.59,0,0,0-25.39-11.63c-.71-.09-1.42-.21-2.13-.35-1.31-.27-3.05-.9-3.77.18-.61.92.21,2.53.73,3.77,1.31,3.12,2.56,6.26,3.83,9.4a.47.47,0,0,1-.09.8A39.41,39.41,0,0,1,347,152.3c-.84-3.08-2.52-3.53-5.14-2.8a7.34,7.34,0,0,0-3.7,4.32C335.62,160.45,332.77,166.94,330.68,173.72Z"/><path class="cls-76" d="M352.32,163.85l.09-.8c1.88,1.47,2.34,3.82,3.49,5.74a172.81,172.81,0,0,0,11.59,16.55c.45.59,1.5,1,.56,2A101.34,101.34,0,0,1,352.32,163.85Z"/><path class="cls-77" d="M475.6,191.14c.24.23.48.46.73.68.18,1.38.37,2.77.56,4.15-.16.12-.4.39-.46.35-2.93-1.83-4.95-4.83-8.18-6.28l.36-.79c2.13,1.23,2.1-1.36,3.26-1.83,1.7.19,1.11,1.77,1.63,2.68C473.75,191.36,474.65,191.31,475.6,191.14Z"/><path class="cls-78" d="M345.47,148.1h-5.4l3.59-6.14C345.45,143.66,345.45,145.88,345.47,148.1Z"/><path class="cls-79" d="M377.9,196.69l-.68,0c-1.65-1.55-3.39-3-4.9-4.69a3.07,3.07,0,0,0-2.66-1.07c0-.56,0-1.13.08-1.69,1.47-.59,1.81.86,2.48,1.5C374.19,192.66,376,194.71,377.9,196.69Z"/><path class="cls-80" d="M235.32,198q1.52,5.61,3,11.2c-1.14.58-1.05-2.63-2.54-.75-1.12.13-1.6-.59-2-1.47-.42-2.39-2.6-3.58-3.72-5.49-.54-.91-1.79-1.53-1-2.89-5.88-22.75-5.62-50.39-1.6-64.59a76.82,76.82,0,0,0,3,15.35c-.58,3.68.31,7.33.23,11a122,122,0,0,0,3.65,31A27.33,27.33,0,0,1,235.32,198Z"/><path class="cls-81" d="M205.42,187.34l.77-.6a58.38,58.38,0,0,0-3.51-14,105.22,105.22,0,0,1-7.23-27.64c0-1.08-1-2.39.68-3.12a111.61,111.61,0,0,0,13.57,42.32c-3.25-11.06-4-22.35-3.06-33.93a173,173,0,0,0,12.42,33.28c-.24.68-.65.92-1.32.56-1.87-2.25-2.28-5.41-4.6-7.39-.87-4.69-3.41-8.82-4.47-13.47a55.42,55.42,0,0,1-1.28-5.85c.48,2.87.86,6.85,1.19,10.83a46.5,46.5,0,0,0,2.44,11.9c1-.92.84-2.69,2.41-3,1.43,1.22.67,2.63.22,3.91a7.11,7.11,0,0,0-.47,4.14,3.4,3.4,0,0,0-.68,2.29c.52,2.53-.19,3-2.19,1.27-.19-.17-.69-.88-.75,0-.24,3.45-1.75,1-2.7.57a5.18,5.18,0,0,1-2-1.49l0,.06C204.65,187.47,205,187.35,205.42,187.34Z"/><path class="cls-82" d="M235.32,198c-2.25-6.21-3.26-12.71-4.3-19.19-1.42-8.85-1.36-17.8-1.28-26.73,0-.92-.57-2.11.74-2.72,2,11.25,5.3,22,11,32a207.9,207.9,0,0,1-4.35-28c-.14-.71-.46-1.51.76-1.56a5,5,0,0,1,1.16,3.14c1.16,8.09,2.35,16.17,4,24.17a7.09,7.09,0,0,0,.29,1.89,28.71,28.71,0,0,1,1,4,1.42,1.42,0,0,1-1.1,1.31c-1.92-.73-2.6-2.59-3.49-4.14-1.51-2.65-3.77-3.88-6.77-4.41.1,6.39,2.48,12.22,3,18.35Z"/><path class="cls-83" d="M193,76c4.34-18.42,14.84-32.73,29.68-44,5-3.8,10.28-7.24,16.47-8.89-2.33,2.07-5.39,2.83-8,4.43-17.82,11-30.81,25.79-36.34,46.36-2.93,10.9-2.31,22.17-2.9,33.3-.06,1-.12,2.06-.19,3.09-.42.75,0,1.91-1.07,2.35-2.82.23-3.14-.23-2.57-3.79,2.25-.9,2.28-.9,2.25-3.72A155.91,155.91,0,0,1,191.58,80C191.8,78.56,191.93,77.11,193,76Z"/><path class="cls-84" d="M280.22,83.48c1.17-.31.06-1.52,1-2.09.26,1.24.12,2.87,2.06,2.79.33,1.19-.89.61-1.21,1.06l0,.06a2.67,2.67,0,0,1-1.67.22c-2.31-.62-3.46,1-4.68,2.45-.7-.12-1-.69-1.26-1.21-2.43-2.22-5.28-1.21-7.93-.83-1.21.17-.86,1.69-.7,2.7a97.71,97.71,0,0,0,3.54,15.75c.35,1.06,1,2.09.49,3.28a1.15,1.15,0,0,1-.89.35c-1.67-.7-1.91-2.34-2.37-3.76a69.84,69.84,0,0,1-3.33-15.92c-.13-1.66-.53-2.82-2.46-2.74a6.67,6.67,0,0,1-1.54-.17c-.57-.17-1.35-.26-1.3-1s.81-1,1.38-1c3,.07,3.35-2,3.66-4.29.21-1.61-.08-3.33.83-4.84a.69.69,0,0,1,.93-.14c0,.1,0,.2,0,.3.12,3-1.4,7,.49,8.53s5.69.27,8.65.47c1.62.11,2.14-.63,2.49-2,.62-2.38,1.3-4.75,2-7.1a49.1,49.1,0,0,1,2.37-6.6,14,14,0,0,1-1.18,6.92c-.63,2.87-.61,5.91-2.35,8.54A2.37,2.37,0,0,1,280.22,83.48Z"/><path class="cls-85" d="M190.56,112.12c.4-.62.79-1.25,1.18-1.87-.18,6-.72,11.81-7.62,14.34-2.25.82-4.31,1.36-6.31-.53-.47,4.14,2,11.14,4.77,13.82,2.37,2.28,4.21,2.26,8-.06a.75.75,0,0,1,0,1c-4.83,3.47-7.62,1.48-10.27-2.31-3.16-4.52-3.65-9.92-4.73-15.11,1.21-.78-2.07-2.48.61-3,1.35.67,1.48,2.16,2.17,3.27,1.08,1.76,2.49,2.31,4.44,1.47,3.67-1.58,6.72-3.62,6.89-8.17A4.14,4.14,0,0,1,190.56,112.12Z"/><path class="cls-86" d="M232.79,90.33a81.93,81.93,0,0,0,5,25.49.86.86,0,0,1-.72.27c-.4-.16-.67-.39-.47-.87a.86.86,0,0,0-.06.82,3.16,3.16,0,0,1-.18,2.3,1.41,1.41,0,0,1-1,.71,149.55,149.55,0,0,1-3.57-33C233.58,87.12,232,89,232.79,90.33Z"/><path class="cls-87" d="M244.64,108.87c1.19-6.41,3.63-12.39,6.23-18.31,3.88-8.84,7.8-17.67,13.18-25.75a.48.48,0,0,1,.78.08c.5,1.53-.61,2.55-1.25,3.67a231.05,231.05,0,0,0-12.1,25.12,127.4,127.4,0,0,0-4.54,12.72,6.61,6.61,0,0,1-1.55,3.29C244.81,109.72,244.43,109.57,244.64,108.87Z"/><path class="cls-88" d="M235.33,119.05l.6-.78a2.83,2.83,0,0,1,1,2.08A235,235,0,0,0,238.46,149c.1,1,.25,2.07-.64,2.88-.57.33-.53.94-.68,1.46-1.24-4.63-1.25-9.42-1.65-14.14A143.06,143.06,0,0,1,235.33,119.05Z"/><path class="cls-89" d="M298.73,117.09l-.53,0c-2.78-1.29-1.24-4.13-2.15-5.61.52,2.27,0,5.05.4,7.81.17,1.12.27,2.85-1.41,2.86-1.48,0-1.75-1.45-1.63-2.78a1.39,1.39,0,0,1,.58-.8,111.28,111.28,0,0,0,.68-14c0-.56-.41-1.22.83-1.74Z"/><path class="cls-90" d="M244.64,108.87l.56.69c1.18,2.48-.1,4.88-.37,7.28a36.34,36.34,0,0,0-.06,10.82,6.11,6.11,0,0,1,.07,1.86c-.09.73-.17,1.6-.94,1.82s-1.4-.46-1.64-1.13c-1.66-4.56-4.4-8.68-5.47-13.48a1.9,1.9,0,0,1,.5-.91,3.68,3.68,0,0,0,.47,0l4.45,9.81C242.84,120,242.67,114.27,244.64,108.87Z"/><path class="cls-91" d="M280.7,84.82l1.3.48a97.55,97.55,0,0,0,9.55,28.53c.14.67-.22.89-.82.89a3.3,3.3,0,0,1-1.64-1.77,90.41,90.41,0,0,1-8.66-26.65A2,2,0,0,1,280.7,84.82Z"/><path class="cls-92" d="M218,184.25l1.06-.58c2.87,4.23,5.05,8.89,8.26,12.9.57.71,1.19,1.37,1.79,2.06,1.48,1.92,3,3.83,4.43,5.79.51.69,1.83,1.17.81,2.4-1.77-.43-2.64-1.92-3.68-3.17a93.66,93.66,0,0,1-10.2-14.44c-1.33-2.41-2.93-3.92-5.78-3.73-.71-.39-1.84-.79-.43-1.6A3.18,3.18,0,0,1,218,184.25Z"/><path class="cls-93" d="M232.79,90.33c-1.19-1.23.09-3-1-4.29a51.73,51.73,0,0,1,4.72-23.35C233.22,71.65,232.7,81,232.79,90.33Z"/><path class="cls-94" d="M280.22,83.48h-3.55c1.08-3.12,1.45-6.11,2.87-8.78A47.84,47.84,0,0,1,280.22,83.48Z"/><path class="cls-95" d="M190.57,138.81l0-1,4.92-4.26c.22,2.94.41,5.69.61,8.44-1,.86-.35,2.1-.68,3.12-1-1.7-.24-3.6-.62-5.36-.18-.8.6-1.85-.59-2.41s-1.91,0-2.67.8A5,5,0,0,1,190.57,138.81Z"/><path class="cls-96" d="M264.73,64.86l-.68,0c1.08-1.5,2.17-3,3.26-4.49-1.44,4.62-1.23,9.39-2.61,13.82l-.61,0c-1.37-1.37-.41-2.87-.28-4.34C264,68.14,265.21,66.66,264.73,64.86Z"/><path class="cls-91" d="M282,85.24l1.21-1.06c3.37.62,6.58,1.59,9.19,4C289,87.2,285.75,85.34,282,85.24Z"/><path class="cls-83" d="M247.14,19.9l.58.58-8.64,2.64c1-1.22,2.48-1.41,3.77-2C244,19.58,245.3,18.87,247.14,19.9Z"/><path class="cls-97" d="M290.94,114.56l.61-.73q1.23,2.36,2.44,4.72c0,.36-.07.71-.1,1.07a1.21,1.21,0,0,1-1.34.07C291.89,118,290.57,116.55,290.94,114.56Z"/><path class="cls-98" d="M336.88,268.28l-14.54,17.89.68.61c2.89-1.57,6.16-2.53,8.22-5.42,6.12-3.07,11.25-7.58,16.78-11.51,1.84-1.31,3.22-1.61,5.52-.3,4.39,2.51,8.29,5.71,12.67,8.21,2.86,1.63,4.43,4.54,6,7.33.41,3.2,2.91,5.34,4.33,8,3.16,6,2.84,12.21,2.34,18.41a50.82,50.82,0,0,1-6.42,21.1c-2.89,5.1-6.22,10.09-10.78,14A23.55,23.55,0,0,1,343,349.34c-2.35-.62-5-.18-7.35-.93-1.6-1-.35-1.92.08-2.83,1.06-2.27.78-3.1-1.56-3.46-4.06-.62-8.14-1.27-12.27-.51-17.22.43-34.49,1.15-51.12,5.91-6.73,1.93-11.09-1.31-16.23-3.68-3.87-1.78-7.4-4.46-11.91-4.62l-1.65-.8c-2.82-1.86-4.6-4.91-7.57-6.59l0,0c-3.69-3.59-7-7.57-10.52-11.29-2.41-2.52-2.45-4.63.47-6.6,2.66-1.79,5.78-2.57,8.84-3.44,8-2.28,16.44-2.79,24.36-5.55a64.72,64.72,0,0,0,12.4-5c3.91-1,7.22-3.37,10.82-5.07,2.78-1.32,5.4-3.3,8.28-4,2.63-.68,4.08-2.36,6.09-3.62,7.87-4.94,14.68-11.61,23.22-15.31,5.24-2.27,10.33-5.22,16.13-6.09C336.28,265.4,337,265.9,336.88,268.28Z"/><path class="cls-3" d="M215.48,185c2.29-.61,3.59.41,4.69,2.39a106.18,106.18,0,0,0,14.18,19.48,2.85,2.85,0,0,0,1.47,1.67c.87.93.72,2.1.72,3.22a192.84,192.84,0,0,1-2.86,34.51c-1,5.47-8.42,11.87-13.92,12.11a1,1,0,0,1-1-.51,5.15,5.15,0,0,1,1.63-2.22,10.07,10.07,0,0,0,2.86-7.26,30.64,30.64,0,0,1,1-8.19,21.59,21.59,0,0,0-.9,6.26,12.64,12.64,0,0,1-4.84,11.13c-.56.72-1.12,1.43-1.66,2.14-7.15-7.49-16.24-10.88-24.81-15.13a107.24,107.24,0,0,0-15-5.54,7,7,0,0,0-.81-3c-3.31-7.44-2.77-9.93,3.47-16.08a26.3,26.3,0,0,0,7.5-7.51c1-1.25,2-2.5,3.08-3.74,4.11-3.78,6.05-8.93,8.59-13.69,1.8-.87,2.8,1.58,4.53,1.05.06-.12.25-.39.22-.42-3.61-3.3-.45-5.38,1.39-7.7,2.07-.47,2.57,1.78,4,2.38a1.69,1.69,0,0,0,.19-.56c-.07-1.06-1.8-2.16-.69-2.95s1.61,1.17,2.55,1.67a4.79,4.79,0,0,1,1,.93c1.75-1-3.62-3.5.92-4C213.67,184.79,214.72,185.56,215.48,185Z"/><path class="cls-99" d="M285.78,207.42c2.36,2.78,4.68,5.61,7.92,7.46.3.27.6.55.92.8,1.09.88,3.17.82,3.46,2.16a11.49,11.49,0,0,1-.21,5.84c-.83,2.54-1.6,5.11-2.46,7.65-.48,1.4-.42,2.56,1,3.37l-.06,0c2.55,3,6.17,4.18,9.6,5.68.62,1,.17,2-.24,3a138.77,138.77,0,0,1-7.81,16.15,4.41,4.41,0,0,1-8.32-.52c.24-2.23,1.81-3.85,2.75-5.74,4.06-8.18,4-16-1.71-23.38-1-1.28-1.58-2.86-2.92-3.88-2-2-.18-3.17,1.16-3.7,2.77-1.11,2-2.42.81-4.15a42.81,42.81,0,0,0-4.88-5.52c-1.38-1.46-1.85-2.95-.16-4.52Z"/><path class="cls-100" d="M289.56,258.93a6.36,6.36,0,0,1,2.49,2.55,3.79,3.79,0,0,0,4.57-.75c1.8-1.67,3.42-1.32,5.59-.76,4.63,1.17,8.75,3.56,13.26,5,1.28.41,3.66,1.09,1.33,3.3-8.72,2.15-17.42,4.35-26,6.95a2.59,2.59,0,0,1-1.82,0c-2.37-3.42-2.79-7.56-3.58-11.41C285.08,262.32,287.68,260.2,289.56,258.93Z"/><path class="cls-101" d="M289,275.19c3.89-2,8.16-2.8,12.32-3.9,5.15-1.36,10.23-3.05,15.56-3.66,1.67.33,3.14-.87,4.8-.62,1.81.36,3.64.9,5.25-.57,3.14-1.46,6.53-1.64,9.89-2,.88-.38,1.75-.73,2.53.19a7,7,0,0,1-2.43,3.65c-.07-2.6-1.87-1.92-3.34-1.72-3.84.52-7,2.9-10.6,3.95-9.35,2.74-16.12,9.46-23.93,14.6a16.26,16.26,0,0,1-2.7,1.44,5.54,5.54,0,0,0-3.66,4.19c-.22,1-.62,2.73-2,.64-.7-1.07-1.63-.77-2.45-.34-2.79,1.47-5.41,3.36-8.33,4.44-3.7,1.37-6.61,4.65-10.91,4.47,6.57-3.38,13.12-6.82,19.75-10.11,1.82-.9,1.86-1.68,1.24-3.56C288.8,282.73,287.18,279.07,289,275.19Z"/><path class="cls-102" d="M284.61,208c-.82,2.2,0,3.69,1.78,5.09,2.17,1.76,3.49,4.28,5.18,6.47,1.18,1.53.51,2.08-.94,2.59-1.74.6-3.67,1.16-2.95,3.74-.42,2.24-.86,4.48-1.25,6.73-.16.92-.22,2-1.21,2.28s-1.61-1-2-1.67c-1.18-2.36-2.09-4.85-3.1-7.3a.44.44,0,0,1-.16-.49c.05-.17.11-.25.17-.25,2.55.5,2.48,3.33,4.25,4.73a4.72,4.72,0,0,0,.61-2.87,5.81,5.81,0,0,1,2.21-4.92c2.56-1.75,1.57-3.39.32-5.14-2-2.74-4.86-4.51-7.56-6.31A64.71,64.71,0,0,0,265.59,203c-.91-.46-1.77.45-2.67.11-2.12-2.74-1.93-4.33.76-6.4,2.22-1.72,2.24-2.12-.23-3.12-3.82-1.56-7.93-2.06-11.88-3.17a1.93,1.93,0,0,0-2,.55,2.16,2.16,0,0,1-1.21.47c-3.08-1.22-3.56-.85-3.24,2.35.49,4.91.68,9.87,2.33,14.6.38,1.09.6,2.37,2.2,1.21a1,1,0,0,1,1,.69,4.13,4.13,0,0,1-1.47,3.76c-.4,0-.88.12-1.19-.06-1.6-.89-3.93-7.39-3.4-9.32a11.48,11.48,0,0,1-1.47-7.83c-.55,1.24-.11,3-1.46,4-.25.44-.81.61-.9.17-.41-1.81-2.7-2.41-2.77-4.39,2.59.4,3.4-1.11,4-3.31.63-2.38.51-4.88,1.4-7.2l.67-1.09c1.3-.69,1.62,1.48,2.92,1,.12-2.89-2.84-3.17-4.13-4.85a1.36,1.36,0,0,1-.52-1.47c1.2-.47,2.2.19,3.16.69,3,1.57,6.42,1.88,9.23,3.8a1,1,0,0,1-.6,1.13c-1.44.59-2.79-.44-4.26-.3-.16,1.94,1.11,2.49,2.59,2.87,3,.78,6,1.54,9,2.25a22.38,22.38,0,0,1,6.49,2.83c1.14.69,2.35,1.52,1.45,3.21-.65.9-1.71,1.17-2.6,1.71-.68.56-1.93.75-1.76,1.89.14.92,1.23,1,2,1.21a63.42,63.42,0,0,1,12.17,5.93c2.67,1.58,2.68,1.56,3.33-1.57a5.67,5.67,0,0,1,.24-1.24,1.77,1.77,0,0,1,.47-.68,1,1,0,0,1,.78.08,1,1,0,0,1,0,1.14Z"/><path class="cls-17" d="M243.44,186.12c.82,3.93-.53,7.56-2,11-.93,2.2-2.16-.83-3.42-.49a1.6,1.6,0,0,0-2-.53c-2.51-6.23-3.05-12.87-4.25-19.61,4.38,1,8.09,2.45,9.78,6.91A13.51,13.51,0,0,0,243.44,186.12Z"/><path class="cls-103" d="M280.21,225.29c0,.23,0,.45,0,.68-1.61-.52-2.35-3.53-3.55-2.77-1.47.93.3,3.1.6,4.69.66,3.52,2.12,6.88,2.68,10.46.13.82.59,1.7-.22,2.27s-1.57.1-2.35-.24c-1-.46-2.16-.74-3.16-1.26-4-2-7.85-1.35-11.54.63-2.49,1.33-3.05.49-3-1.95a36.92,36.92,0,0,0-.61-9.55c-.49-2.05-1.17-3.71-3.17-4.95-1.41-.86-3.65-1.66-3.12-4.19,1.87.37,2.67,2.17,4.15,3-.43-1.91-1.33-3.8-.91-5.89.26-.59.49-1.25,1.37-.88,2.5,4.42,3,9.38,3.7,14.25.26,1.73.58,3.46.67,5.21.11,1.91,1,2.76,2.82,2,4.09-1.79,7.87-.41,11.69.88a12.53,12.53,0,0,0,2,.72c-1.65-5.33-2.8-10.75-5-15.84-1.33-3-3.31-5.67-5-8.46a7,7,0,0,1-1.47-3,2.83,2.83,0,0,1,.9-2.13,2.11,2.11,0,0,1,2.72.85c3.54,4.45,7.17,8.85,9.81,13.94A1.6,1.6,0,0,1,280.21,225.29Z"/><path class="cls-104" d="M256.57,305c-4.12,2.76-9,2.69-13.61,3.63-5.85,1.21-11.68,2.4-17.21,4.68-4.61,1.89-5,4.14-1.46,7.67,3,3,5.06,6.76,8.6,9.21a1.57,1.57,0,0,1,.53,1.69c-5.44-4.17-9.68-9.49-14.17-14.59-1.9-1.32-.8-1.81.62-2.2,1.17-1,2.08-2.26,3.64-2.66,10.31-3.3,21.06-4.72,31.51-7.43A6.69,6.69,0,0,1,256.57,305Z"/><path class="cls-105" d="M256.51,216.64c.44,2.15.87,4.31,1.34,6.65-2.45-.7-3.56-2.71-5.11-4.18a24.1,24.1,0,0,0-3.5-5.05c-.33-1.43,1.18-2.25,1.18-3.56.19-1,.35-2.14,1.72-2.18a3.18,3.18,0,0,1,3.05,1.76C256.31,212.13,256.27,214.41,256.51,216.64Z"/><path class="cls-106" d="M195.65,258c1.82,1.75,3.06,4.68,6.52,3.05.74-.35,1.28.44,1.67,1.06,1.88,2.94,4,5.11,7.67,2.43.35-.25.73.18.79.65l-1.23,1.15a12,12,0,0,1-3.23.58c-3-.28-3.62-4.75-5.89-4.53-3.39.32-4.83-1.27-6.39-3.45A.63.63,0,0,1,195.65,258Z"/><path class="cls-107" d="M241.72,200.85c-.27-1.83,1.27-3.12,1.65-4.85q.65,4.35,1.28,8.68C243,203.91,243,201.88,241.72,200.85Z"/><path class="cls-108" d="M199.82,288.68c-.8,1.25-1.22,2.92-3.16,2.94.23-1.63,1.86-2.23,2.58-3.51Z"/><path class="cls-109" d="M219.87,315.07c-.68.6-1.55,1.15-.62,2.2l-2.12.62c1.19-1.54.53-2.58-.4-3.75A211.31,211.31,0,0,0,202.3,297.5a8.54,8.54,0,0,1-1.69-2.36,92.07,92.07,0,0,1,12,12.27q2.78,3.33,5.56,6.67C218.61,314.62,218.93,315.38,219.87,315.07Z"/><path class="cls-110" d="M195.65,258l-.09.94c-.38-.08-.8-.3-1.13-.2-4,1.14-4.94.64-6.35-3.48a.79.79,0,0,1,.15-1.08c1.41,1.93,1.7,5.48,5.57,3.82C194.43,257.75,195,257.19,195.65,258Z"/><path class="cls-104" d="M233.39,331.83c3.43,1.15,5.26,4.15,7.57,6.59C237.65,337.12,236.05,333.87,233.39,331.83Z"/><path class="cls-111" d="M188.23,254.2l-.15,1.08c-.78-.85-1.62-.47-2.52-.21-1.34.37-2.66.42-3.39-1.14C184.15,255,186.26,253.06,188.23,254.2Z"/><path class="cls-112" d="M193,76c-1.85,10.29-1.89,20.69-1.94,31.09,0,1.48.2,3.08-1.36,4.06-1.05-.82,1.12-2-.31-2.61-.56-.24-1,.5-1.35,1-.06.13-.11.27-.17.4-.69.78-1.53,1.83-2.51,1.49-1.57-.55-.06-2.27-.91-3.39-1.93.6-3.54,1.92-5.36,2.8-.61.3-1.09,1.2-1.85.75-1-.59-.09-1.47-.09-2.22,0-1.56.83-3,.72-4.54.53-1.32.65-2.76,1.17-4.08.11-.28.3-.79.2-.85-2.85-1.67-.14-3.14.13-4.69l-1-.94c-1.5-3.47-4.34-6-6.63-8.85A92.35,92.35,0,0,1,156.28,57c-.36-1.07-.63-1.49.73-.92l0-.07c1.85,3.31,4.65,5.87,6.92,8.85a159,159,0,0,0,12,12.06c.73.67,2,1.08,1.95,2.24-.09,1.58-.91,3.37,2,2.19.74-.3.85.6.79,1.26A36.87,36.87,0,0,0,181,87.9c0,.51-.08,1.08.45,1.38s.74-.16,1-.46c-.3,0-.49.37-.8.3-.67-.16-.63-.72-.64-1.23,0-1.34-.18-2.67-.32-4s1.19-3.63-2-2.31c-.74.3-1-.66-.8-1.24.6-1.59-.51-2.21-1.45-3a146.86,146.86,0,0,1-12.51-12.44c-.39-1.21-2.11-1.62-1.89-3.19.91-.58,1.42.09,2.13.55,7.49,4.76,15.12,9.28,23.53,12.27C189.4,75.11,191.22,75.5,193,76Z"/><path class="cls-113" d="M247.14,19.9a13.94,13.94,0,0,0-4.29,1.21l-1.21-1,.29-.11.27-.13c-.37-.85-1.27-.75-1.92-.9-2.81-.63-5.64-1.12-8.53-1.68l3.15-.87,9.81-.11c2.39,1.17,5.23.73,7.55,2.12C250.68,19.35,248.68,18.81,247.14,19.9Z"/><path class="cls-114" d="M162,61.68c.44,1.15,1.74,1.8,1.85,3.15l0,0A19.08,19.08,0,0,1,157,56.05Z"/><path class="cls-115" d="M159.47,161.85a37.52,37.52,0,0,1-.53-9.72c-2.67,2.48-2.64,19.88-.22,28v3.11l-5.43-8.35a100.73,100.73,0,0,1-.66-16.56,60.84,60.84,0,0,1,4.73-22,6.35,6.35,0,0,1,.92-1.6c.37-.44.5-1.17,1.43-1.21,1,2-.17,4-.2,6-.16,11.69,1.5,23,6,33.88a2.79,2.79,0,0,1,.05.92C162.55,170.66,161,166.26,159.47,161.85Z"/><path class="cls-116" d="M190.56,112.12c.29,5.29-1.49,9.28-6.67,11.5-3.43,1.48-5.44.88-6.8-2.58-.34-.85-.61-1.73-.91-2.6,1.44-2.53,3.23-4.89,3.86-7.82.54-1.18,1.68-1.64,2.73-2.19,1.5-.8,2.06-.11,2.07,1.37,0,.63-.75,1.47.35,1.79.66.2,1.07-.47,1.5-.87s1-.73,1.41-1.17h0C189.06,110.24,187.61,113.34,190.56,112.12Z"/><path class="cls-83" d="M188.1,109.55c.16.77-.5,1-.92,1.42-.74.67-1.56,1.69-2.56,1.33-1.43-.51-.17-1.76-.33-2.67a8.72,8.72,0,0,1-.08-1.12,11.67,11.67,0,0,0-4.17,2.12l-3.6,2.88c-.43-3.29.91-6,1.17-8.86a.37.37,0,0,1,.62,0c-.29,2.14-.59,4.27-.94,6.86a45,45,0,0,1,8.06-5c.88,1.67-.23,3.08-.18,4.55Z"/><path class="cls-117" d="M178.23,104.67l-.62,0c.16-.8.29-1.6.48-2.39.77-3.31.77-3.31-2.65-3.1.58-2.1,3.24-2.06,3.94-3.93.76.22,1.36.59.51,1.32a13.66,13.66,0,0,1-2.19,1.25C181.89,100,178.53,102.38,178.23,104.67Z"/><path class="cls-118" d="M372.23,285.09c-2.45-1.17-2.8-4.06-5-5.67-4.93-3.58-10.09-6.79-15.15-10.14-1.41-.93-2.64.31-3.63,1-3.77,2.67-7.4,5.55-11.12,8.29a15,15,0,0,1-6.08,2.78c5.05-3.67,10.07-7.38,15.14-11a9.07,9.07,0,0,0,2.9-2.71c2.67-.18,4.68,1.36,6.75,2.67,2.34,1.49,4.62,3.08,7,4.57,1,.63,2.1,3.08,3.11-.16.2-.65,1.78-.2,1.87.72.33,3.47,2.92,5.77,4.25,8.72A2.58,2.58,0,0,1,372.23,285.09Z"/><path class="cls-17" d="M135.1,386.52c-1.61-2.65-1.39-6.24-4.25-8.31a2.2,2.2,0,0,1-.53-2c1.21-3.32.13-7.39,3.21-10.08.73-.63.67-1.15.06-1.81s-1.27-1.15-1.25-1.71c.14-3.12.66-6.18-.12-9.37-.33-1.37,1.71-1.22,2.7-1.32,1.4-.14,3.25-1.38,4.11,1a69.82,69.82,0,0,0-.37,30.88c.2,1,.91,2.5-.57,2.91C137.27,386.93,135.92,388.55,135.1,386.52Z"/><path class="cls-1" d="M254.64,184.34a57.51,57.51,0,0,1-12.26-4.67c-2.16-9.15-3.19-18.48-4.56-27.76-.8-9.35-2-18.67-1.81-28.09,0-1.23.09-2.47.14-3.71.85-1.06-.83-2.8,1-3.6l6.45,14.61a74.28,74.28,0,0,1,1.62-21.56c1.68-5.47,3.1-11,5.73-16.15a16,16,0,0,0,2.55-4.22c1.47-3.27,3.79-4.88,7.42-4.35,2.29-.61,2.88.35,3.06,2.6a59.81,59.81,0,0,0,4.93,20.41c1.28,2.37,1.12,2.58-1.15,2.83-3.51.38-6.32-.5-7.95-3.87-.82.54-.55,1.22-.58,1.77-.24,4.12-1.53,4.87-5.25,3a9,9,0,0,1-3-2.66,15.25,15.25,0,0,0,2.93,5.77c2.08,2.81,4.33,4.22,8.34,3.78,6.91-.76,12.61,2.49,17.21,7.62.59.66.79,1.75,2.18,1.78.19-2.13-.52-4.64,2.16-5.77-5.05-3.13-7.73-8.39-12.2-11.81a127.48,127.48,0,0,1,2.89-20.49,2.91,2.91,0,0,1,1.29-2c-.06-3.9,2.7-3,5-2.91,1.89,7.74,3.31,15.62,6.85,22.87,1.12,2.3,2.26,4.58,3.39,6.87.52,1.67,2.24,3,1.47,5a3.83,3.83,0,0,1,.28.93c-.66,4.22-2,8.42-.32,12.7,1.24,4.67,4.73,7.83,7.61,11.4l.06.43c-.2.64.3.83.7,1.09,1,4.24-.49,7.47-3.94,9.92a10.36,10.36,0,0,0-5.47,7.35c-.1.52-.06,1.21-.58,1.32-2,.43-2.87,2.6-4.34,3.23-5.39,2.31-9.2,6.85-14.3,9.47a42.2,42.2,0,0,1-8.57,7.31A7.55,7.55,0,0,1,254.64,184.34Z"/><path class="cls-119" d="M292.15,120.1l.26-.49h1.48a2.73,2.73,0,0,0,1.74,2.56c0-4.38-.57-8.55.49-13.15a22.89,22.89,0,0,0,2.08,8l.57,4.47c0,4.42,1.29,8.69,1.48,13.09.13,2.87.74,5.72.35,8.61-.82,1.47-1.51.38-2.12-.17a22,22,0,0,1-6.4-9.92,18,18,0,0,1-.22-9.45C292.12,122.54,292.8,121.36,292.15,120.1Z"/><path class="cls-120" d="M300,143.86c.22-6.11-1.12-12.1-1.49-18.16-.08-1.4-.74-2.83.25-4.16a76,76,0,0,1,2.57,21.07c0,1,.5,2.37-1.3,2.46l0,0A1,1,0,0,1,300,143.86Z"/><path class="cls-121" d="M284,204.62l-.13-1.07a3.16,3.16,0,0,1-.8-2.26,84.94,84.94,0,0,0-1.31-16.47,3.47,3.47,0,0,1,.21-2.39c-.25-1.32-.43-2.65-.77-3.94-1.49-5.63-.56-6.5,4.77-9.31,2.67-1.41,6.33-2.75,7.14-7.46a90.35,90.35,0,0,1-.39,13.89,160.53,160.53,0,0,1-7.7,27.89C284.88,204,285,204.86,284,204.62Z"/><path class="cls-122" d="M269,196.05c.73-2.26-1.36-2.47-2.49-3.1-4-2.25-8.47-3.11-12.89-3.95-3-.58-5.19-1.55-4.82-5.25l5.2,1.17c1.2.22,2.43.18,3.64.36,3.07.46,5.66.19,8-2.59a15.52,15.52,0,0,1,6.52-4.55c1.92.3,1.36,2.06,1.68,3.15.65,2.24.91,4.6,1.34,6.91a13.21,13.21,0,0,1,.15,10.32C272.87,198.51,270.53,198.29,269,196.05Z"/><path class="cls-123" d="M278.94,184.93c1-1.81.36-3.84.77-5.81,1.37,1,.66,2.9,1.62,4,1.37,2.74,1.48,5.79,1.7,8.69.29,3.84,1.19,7.73.17,11.6l0-.05c-4.83-.27-7.68-3.87-6.62-8.4C277.39,191.66,277.42,188.12,278.94,184.93Z"/><path class="cls-124" d="M275.72,186.88c-.23-1.73-.35-3.49-.71-5.19-1-4.74-1-4.73,3.71-7.11,1.14,3.52-.34,6.91-.31,10.33.33,3-.77,5.77-1.62,8.67C275.4,191.52,275.39,189.23,275.72,186.88Z"/><path class="cls-125" d="M297,156.56l2.37-1.66c1.86,2.27.84,4.95,1,7.44.18,3.19-.8,6.32-.7,9.53a2,2,0,0,1-1,1.84c-.6-3.1-1.19-6.21-1.79-9.32a9.85,9.85,0,0,0-.81-2.9C294.7,159.44,295.41,158,297,156.56Z"/><path class="cls-126" d="M275.72,186.88q.33,3,.64,6.11l.46,0,1.59-8.12a3.17,3.17,0,0,1,.53,0c0,4.23-1.15,8.28-2,12.36-.2.89-.72,1.69.41,2.38,2,1.2,3.94,2.49,5.91,3.74,0,.52,0,1,0,1.57-3.46-1.09-5.93-3.69-8.77-5.71a1,1,0,0,1,.14-.85c1.31-3.35.29-6.82.54-10.22Z"/><path class="cls-35" d="M283.2,203.46a146.74,146.74,0,0,0-1.87-20.29c.22-.25.45-.49.68-.74a68.88,68.88,0,0,1,1.9,21.12Z"/><path class="cls-127" d="M272.12,178.14c-2.65,2.27-5.45,4.37-8.12,6.61-3,2.5-6.64,1.24-10,.17l.65-.58c1.21.16,2.42.34,3.64.49,2.8.37,5.12-.16,7.13-2.54a19.42,19.42,0,0,1,6.7-4.84C272.11,177.68,272.12,177.91,272.12,178.14Z"/><path class="cls-128" d="M205.42,187.34c-.34.09-.59.25-.48.67-2,.17-2.52,2.3-4.32,3.11-3.49-5.94-5-12.45-5.51-19.3C197.05,178,201.29,182.64,205.42,187.34Z"/><path class="cls-129" d="M298.71,173.71c.23-6.27,1.2-12.51.68-18.81a2.84,2.84,0,0,1,1.81-1.44c.13,8.32.15,16.53-2.23,24.56C298.88,176.58,298.8,175.15,298.71,173.71Z"/><path class="cls-50" d="M473.05,190.49c-.93-.82,0-2.36-1.18-3.07l2.84-4,.49.42C475.09,186.26,474,188.35,473.05,190.49Z"/><path class="cls-130" d="M473.05,190.49c-.53-2.62,1-4.57,2.15-6.64.49-.33.48-1.31,1.23-1.19s.86.8,1,1.42c.5,2.63-1,4.76-1.81,7.06-.37.71-.88,1.74-1.57,1.6C473.1,192.54,473.23,191.33,473.05,190.49Z"/><path class="cls-131" d="M321.87,341.61a33.3,33.3,0,0,1,13.34-.11c2.57.45,3,2.23,1.4,4.41-.55.74-1.89,1.18-1,2.5-2.29-.29-4.17-1.65-6.25-2.46-.64-.25-1.55-.36-1.6-1.24s.85-1,1.44-1.42c.33-.21.65-.44,1.54-1C327.48,341.2,324.62,341.93,321.87,341.61Z"/><path class="cls-132" d="M340.57,170.59c5.27-.67,9.68,1.09,13.72,4.45,4.27,3.57,8.63,7,11.83,12.12a20.24,20.24,0,0,0-4.08.55c-3.84,1.35-6.28.61-9.3-2.75-4.73-5.25-11.48-6.63-18.94-5.28,2.24-1.76,5.05-3.39.78-6.07l3.44-1.22C338.65,171.48,339.81,171.32,340.57,170.59Z"/><path class="cls-133" d="M310.68,221.51c-1.44-2.33-4.51-1.2-6.24-2.91a1.88,1.88,0,0,0-.22-.57c-1.64-2.37-3.76-4.61-1.45-7.75s6.76-5,10-4.05c2.68.78,5.36,1.54,8,2.45,1.76.6,2.44,1.54,1.73,3.51-1.8,5-4.88,8.31-10.43,8.79A2.53,2.53,0,0,0,310.68,221.51Z"/><path class="cls-134" d="M321.89,267.57c-1.68-.15-3.34,1.57-5.05.06,1-.57.91-1-.17-1.3-4.8-1.47-9.2-3.94-14-5.46-2.69-.85-4.67-.85-6.84.82a2.63,2.63,0,0,1-3.77-.21c2.66.26,4.29-.89,5.61-3.26a160.56,160.56,0,0,0,7.2-15c.38-.87,1.13-1.8.56-2.91a.69.69,0,0,1,1-.16l4.84,1.39a.68.68,0,0,1,.06.8c-3,5-5.2,10.46-8.46,15.33-.71,1.06.31,1.13.93,1.39a11.14,11.14,0,0,1,1.24.51c4.67,2.61,9.93,3.72,14.77,5.89.74.34,1.58.48,2.1,1.19A.78.78,0,0,1,321.89,267.57Z"/><path class="cls-135" d="M310.68,221.51c-.06-1.58,1.18-1.1,2-1.2a11.7,11.7,0,0,0,9.65-8.85c.29-1.28-.16-1.66-1.19-2-3.07-.94-6.06-2.33-9.19-2.79-3.93-.57-6.84,1.7-8.95,4.88-1.72,2.6.18,4.37,1.62,6.21.11.14.28.34.25.46s-.27.25-.41.36c-3.73-3.47-4.29-8-4.3-12.74,0-1.62.52-2.77,2.87-2.38a139.24,139.24,0,0,1,17.92,4.58c2.78.84,3.07,2.11,2.16,4.61A12.77,12.77,0,0,1,310.68,221.51Z"/><path class="cls-136" d="M339.31,264.63l-2.53-.19a137.6,137.6,0,0,0,12.54-19c-3.29,1.63-6,3.64-9.29,4.34.18-1.1,1-1.56,1.77-2.06,1.36,1.28,2-.24,2.71-.81a61.25,61.25,0,0,0,9.51-9.6A112.55,112.55,0,0,1,339.31,264.63Z"/><path class="cls-137" d="M330.68,173.72c1.41-8,4.77-15.32,7.86-22.74.66-1.59,1.84-1.76,3.29-1.48C337.54,157.32,334.42,165.67,330.68,173.72Z"/><path class="cls-138" d="M321.89,267.57l0-.71c2.38-3.62,2.42-7.67,2-11.75-.27-2.74-.53-5.49-.67-8.25.39-1,.87-1.64,1.76-.38a52.83,52.83,0,0,1,.23,18.64c-.3,2.18.72,1.44,1.71,1.32C325.61,268.49,323.91,268.76,321.89,267.57Z"/><path class="cls-139" d="M325,246.48c-.42-.15-.85-.78-1.23,0-.92.2-1.5-.56-2.24-.85-5.46-2.12-8-.24-7.71,5.69.07,1.59,1,3.66-1.69,4.23a1.13,1.13,0,0,1-.95-.82c.27-3.08-.56-6.26,1.13-9.22.68-1.2-1-2.14-1-3.37,0-.2,0-.4,0-.6,4,.84,8,1.76,12.07,2.48C325,244.34,325,245.29,325,246.48Z"/><path class="cls-140" d="M306.43,240.19l-1,.16c-3.49-1.16-7.16-2-9.09-5.69A53.56,53.56,0,0,0,306.43,240.19Z"/><path class="cls-141" d="M340.57,170.59c-.3,1.38-1.34,1.71-2.55,1.8l-1.78-1.32A6,6,0,0,1,340.57,170.59Z"/><path class="cls-142" d="M213.7,177.42c-2,1.14-1,3.87-2.83,5.21-3.34-9.17-3.73-18.69-3.89-28.26,1.84,6.89,3.65,13.79,6.55,20.33a8,8,0,0,1,.15,2.75Z"/><path class="cls-143" d="M215.48,185c-.71.87-1.67.55-2.56.51-1-.6-1.59-1.27-.84-2.55a11,11,0,0,0,1.62-5.49l0,0c.43.2.83-1,1.18-.12,1,2.34,2.67,4.36,3.14,6.92h-4.46c.28.11.52.78.78.58S215.09,184.89,215.48,185Z"/><path class="cls-144" d="M206.33,181c1,1.45,2.37,2.81,2.31,4.77,0,.12-.62.38-.69.31C206.58,184.73,206.92,182.77,206.33,181Z"/><path class="cls-145" d="M230.52,157.64A198.67,198.67,0,0,0,238,177a2.77,2.77,0,0,1-.69.15c-5.27-.77-6.45-4.24-6.26-9C231.14,164.65,230.7,161.14,230.52,157.64Z"/><path class="cls-146" d="M242.9,181.14c3.22.7,5.3,2.45,5.42,6.1-2.15.82-2.87-1.34-4.21-2.21A6,6,0,0,1,242.9,181.14Z"/><path class="cls-147" d="M272.18,110.78a14.55,14.55,0,0,1,7.49,7.09c1.15,2.46,3.65,2.73,5.93,3.26-.25,1.38-1.27,1.64-2,2-1.4.64-1.84,1.43-1.17,2.9a2,2,0,0,1-.95,3c-.94.55-.86.52-1.35-.32-4.08-6.87-10.36-10.12-18.14-9.48-3.64.3-5.85-.44-8-3.29s-3.81-5.34-4.12-9.38c2.06,2.59,3.93,4.62,6.92,5.13,1.36.24,1.88.16,1.73-1.42a8.52,8.52,0,0,1,1.17-6.16c1.2,5.55,5,6.3,9.57,5.75l-.36-2a2.48,2.48,0,0,0,.61-.07c.92.34,1.1,1.32,1.69,1.94A4.17,4.17,0,0,0,272.18,110.78Z"/><path class="cls-148" d="M270.82,110.31l-1.32-2.53c-1.86-6.21-3.76-12.39-4.53-18.86-.52-4.34-.63-4.33,3.85-4.38,1.65,0,3.3,0,4.95-.05s1.52.92,1.37,2c-1.13,7.44-2.59,14.82-3.34,22.31C271.74,109.44,272,110.37,270.82,110.31Z"/><path class="cls-149" d="M260.9,84.84c-4.22,0-5.95,3-7.56,6.24a5.1,5.1,0,0,1-2.41,2.33,184.43,184.43,0,0,1,11.61-24.48c.74-1.35,1.46-2.71,2.19-4.07.34,0,1.18-1,.83.5-.68,2.9-1.54,5.78-1.47,8.8-.09,1.54-.16,3.09-.28,4.64-.41,5.07-.41,5.07-5.51,5.48C259,85.13,260.07,84.51,260.9,84.84Z"/><path class="cls-150" d="M270.82,110.31c1.22-3.71,1-7.64,1.75-11.44.79-4.14,1.09-8.38,2.57-12.38.19.42.38.83.58,1.24a183,183,0,0,0-3.54,23C271.7,110.7,271.1,111,270.82,110.31Z"/><path class="cls-12" d="M237.13,116.51c-1.09,1,.05,2.59-1,3.6-.07-.61-.15-1.23-.22-1.84a20.84,20.84,0,0,1,.13-2.38c.28-1.63.82,0,1.23-.07Z"/><path class="cls-13" d="M218.45,257.54c6-5,3.23-12.74,6.11-18.71-1.79,6.38,1.08,14.17-5.82,19A3.83,3.83,0,0,0,218.45,257.54Z"/><path class="cls-151" d="M301.42,273.25c3.05,1.2,5.26-1.11,7.8-1.87,2.08-.61,4.17-1.08,6.28-1.51.51-.1,1-.34,1.24.38s-.31.85-.8,1.1c-3.18,1.64-6.64,2.92-9.44,5.06-3.46,2.63-7.06,5-10.62,7.49a16.05,16.05,0,0,1-2.44,1.34c-1.71.81-2.83.1-2.53-1.65a4.4,4.4,0,0,0-1-3.91,1.83,1.83,0,0,1,1.09-3c3.46-.43,6.27-2.47,9.53-3.33C300.84,273.31,301.15,273.29,301.42,273.25Z"/><path class="cls-152" d="M280.21,225.29a86.75,86.75,0,0,0-9.81-14.21c-.7-.84-1.3-1.93-2.65-1.91-2.75-1.13-4.08-4.72-2.57-6.92a67.57,67.57,0,0,1,21.9,13c1.46,1.26,1.85,3.21,3,4.66.45.57.27.91-.3,1.16-3.5,1.53-4.15,4.54-4.22,7.93a14.19,14.19,0,0,1-.68,2.83C282.71,230,282.05,227.19,280.21,225.29Z"/><path class="cls-153" d="M249.85,209.81l-1.71,2.55a46.65,46.65,0,0,1-3.2-23.67c1.9.51,2.29,1.95,3.41,2.5a15.08,15.08,0,0,1,6.77,5.67,64.67,64.67,0,0,1,5.79,10.91c.35.89.78,1.77,0,2.6a2.44,2.44,0,0,1-2.6.43,14.32,14.32,0,0,1-4-1.7C252.72,208.12,251.11,208,249.85,209.81Z"/><path class="cls-154" d="M249.1,190.51a1.35,1.35,0,0,1,1.88-1.08c4.48,1.5,9.32,1.78,13.61,3.94.86.43,2.3.46,2.25,1.73s-1.36,1.45-2.22,2c-3.08,1.85-3.26,2.65-1.18,5.84a3.19,3.19,0,0,1,1.31,1.29c.37.75.73,1.61,0,2.29s-1.6.19-2.26-.28a16.6,16.6,0,0,1-5-5.45,27.84,27.84,0,0,0-6.93-8.24A4.24,4.24,0,0,1,249.1,190.51Z"/><path class="cls-155" d="M274.65,199.09a39,39,0,0,1,8.58,5.89c-.15,1.52-.31,3-.49,4.86-3.28-1.91-6.31-3.7-9.38-5.44a37.17,37.17,0,0,0-7.33-3.08c-.9-.28-2.3,0-2.48-1.38-.2-1.54,1.4-1.5,2.22-2.15a7.66,7.66,0,0,1,.76-.5A8.86,8.86,0,0,1,274.65,199.09Z"/><path class="cls-156" d="M249.1,190.51c3.31,2.77,6.44,5.64,8.7,9.44a18.09,18.09,0,0,0,6.42,6.44c.95-1.58-.25-2.45-.78-3.49.63-.07.66-1.76,1.74-.65.05,2.6.25,5.15,2.57,6.92l-.69,1.94c-3.05-.61-4.33-3.37-6.33-5.26-.36-.22-.31.46-.13.09,2.12,1.75,2.47,3.95,1.68,6.46-1.6,1.14-3.14-.24-4.62-.25-1,1,.6,2.37-.61,3.22l-.54,1.27c-.57-1.84-1.24-3.66-1.69-5.53-.32-1.31-1.17-1.71-2.29-2.14-1.68-.67-1.31,1.17-2.11,1.53l-.57-.69c.41-1.89,1.36-2.63,3.3-1.75,1.68.76,3.43,1.36,5.16,2,.77.29,1.66.67,2.28-.08s-.14-1.29-.41-1.95c-2.68-6.51-6.13-12.47-11.83-16.86Z"/><path class="cls-157" d="M274.65,199.09c-2.61-1-5.19-2.19-8.12-1.8l2.46-1.24c1.7,1.2,4.09.75,5.61,2.37Z"/><path class="cls-158" d="M257.05,215.37C256,211,256,211,260.52,212.18a6.24,6.24,0,0,0,1.5,0c1.59-2.73,2.43-2.91,4.45-.55a46.08,46.08,0,0,1,9.77,18.69c.52,2,1.13,4,1.69,6,.35,1.25.52,2.64-1.61,2.2-.79-.22-1.6-.39-2.37-.67-3.41-1.24-6.81-1.51-10.18.1-1.78.84-2.77.4-2.85-1.67A82.48,82.48,0,0,0,257.05,215.37Z"/><path class="cls-159" d="M276.32,238.5c1.61-.34,1.56-1.39,1.07-2.59-1.81-4.44-2.28-9.3-4.61-13.63a65.55,65.55,0,0,0-6.51-10c-1.51-1.88-2.8-2-4.25-.06.38-2.43-.89-4.53-1.55-7.22l6.59,6.12a64.3,64.3,0,0,1,11.5,25.71c.17.78.76,1.77,0,2.27C278,239.49,277,239.1,276.32,238.5Z"/><path class="cls-160" d="M269.63,212.65c2.55,1.87,4,4.66,6,7.12a1,1,0,0,1-.24,1.6c-.88.6-1-.39-1.22-.78C272.59,218,271.12,215.3,269.63,212.65Z"/><path class="cls-161" d="M163.85,64.83c5,4.13,9,9.33,14.25,13.17,1.41,1-.1,2.06.2,3.06,3-1.19,3-1.19,3,2.11,0,1.72,0,3.43,0,5.2,1.34-.2,1.14-1.73,2.48-1.78a11.44,11.44,0,0,1-2.55,4.55c-1.32-3.22-.79-6.32-1.06-9.45-1.87.73-4.58,2.72-2.79-1.75.5-1.24-.84-1.79-1.56-2.42A112.62,112.62,0,0,1,165.5,67.27c-.65-.73-1.68-1.26-1.62-2.47Z"/><path class="cls-162" d="M278.31,170.71c-1.34,1.61-2.78,3-5.12,2.87-7.89-.45-11-5.26-8.24-12.86.14-.39.31-.76.47-1.15,2.37-5.7,2.38-5.7,7.67-2.67a9.48,9.48,0,0,0,1.38.71c5.89,2.06,6.28,7,4.3,11.95A6,6,0,0,0,278.31,170.71Z"/><path class="cls-163" d="M278.31,170.71c-.26-2.16.9-4.15.71-6.35-.24-2.69-1.08-4.67-3.76-5.8a31.65,31.65,0,0,1-5.6-3.25c-.83-.58-1.1-.51-1.56.28-1.8,3-3.47,6.1-3.49,9.77,0,4.72,2.31,7.27,7,7.6.61,0,1.26-.15,1.56.62-6.09,1.12-10.63-3.31-9.71-9.62a24.33,24.33,0,0,1,4.24-9.87c.39-.59.76-1.41,1.63-.6,4.3,4,10.2,5.35,14.86,8.78.56.41,1.35.57,1.49,1.42-2.34.9-3.66-1.11-5.48-1.86a9,9,0,0,1,0,6.81Z"/><path class="cls-164" d="M280.2,168.64c-.69-2.54.45-5.27-1.2-7.92,2.72.66,4.34,2.65,6.7,3C284,165.43,282.36,167.35,280.2,168.64Z"/><path class="cls-97" d="M292.15,120.1c1.14.59.77,1.51.52,2.39a22.18,22.18,0,0,0-.15,10.86c-.19.24-.22.64-.63.69C289.61,129.35,291,124.73,292.15,120.1Z"/><path class="cls-22" d="M291.89,134l.63-.69A23.9,23.9,0,0,0,300,143.86c0,.41.05.83.07,1.24A22.72,22.72,0,0,1,291.89,134Z"/><path class="cls-165" d="M281,116.22c.09-2.45-1.74-3.63-3.28-5.09C280.86,111.93,282.05,113.71,281,116.22Z"/><path class="cls-149" d="M312,255.22A1.45,1.45,0,0,0,313.2,253c-1.93-3.33,1.83-5.9,1-9-.12-.46.31-.55.52-.47,3,1.13,6.68,0,9,3.06,1.3,5.86,1.14,11.77.81,17.72-.12,2-1.41,2.15-2.68,2.62-5.8-2.22-11.85-3.77-17.37-6.71-.73-3-.16-4,2.66-4.57A15.84,15.84,0,0,1,312,255.22Z"/><path class="cls-166" d="M311.28,242.18c2.41,1.06,2.68,3.14,1.46,4.9a5.22,5.22,0,0,0-.47,5.5c.4,1,.27,1.79-.93,2.09-.74,1.15-2,1-3,1-2.57.08-4.12,1.08-4.49,3.69a3.4,3.4,0,0,1-2.84,0c3.21-5.33,6.74-10.51,8.82-16.45C310.06,242.09,310.66,242.16,311.28,242.18Z"/><path class="cls-167" d="M303.8,259.36c-.46-2.85.76-4.09,3.63-4.06a23.07,23.07,0,0,0,3.91-.63l.65.55a5.55,5.55,0,0,1-4.05,1c-3-.1-3.58,1.47-3.46,3.9Z"/><path class="cls-168" d="M307.76,205.81c-2.13,2-4.53,2.94-5.78,5.87-.79-2.59-1.59-5-.19-6.43S305.4,205.2,307.76,205.81Z"/><path class="cls-7" d="M41.9,161.24c-53.54,44.65-58.14,149.79,0,192.25-.14,0,0-.51,0-1.25-8.43-6.5-17.62-17-23.83-27.47C6.71,305.54,2,282.3,1.66,263.18c-.32-18.57,5.46-44.38,11.55-60a104.45,104.45,0,0,1,29.39-41C43.62,161.34,42.5,160.76,41.9,161.24Z"/></g></g></svg>