<?xml version="1.0" encoding="utf-8"?>
<!-- Generator: Adobe Illustrator 24.0.0, SVG Export Plug-In . SVG Version: 6.00 Build 0)  -->
<svg version="1.1" id="Layer_1" xmlns="http://www.w3.org/2000/svg" xmlns:xlink="http://www.w3.org/1999/xlink" x="0px" y="0px"
	 viewBox="0 0 750 630.5" style="enable-background:new 0 0 750 630.5;" xml:space="preserve">
<style type="text/css">
	.st0{display:none;fill:none;}
	.st1{display:none;fill:url(#SVGID_1_);}
	.st2{display:none;fill:url(#SVGID_2_);}
	.st3{fill:url(#SVGID_3_);}
	.st4{display:none;}
	.st5{display:inline;}
	.st6{fill:#0D0808;}
	.st7{fill:#141414;}
	.st8{fill:#FF0000;}
	.st9{display:inline;fill:none;}
	.st10{fill:#120B0B;}
	.st11{fill:#242424;}
	.st12{fill:#292929;}
	.st13{fill:#191919;}
	.st14{fill:#1C1C1C;}
	.st15{fill:#171717;}
	.st16{fill:#0F0F0F;}
	.st17{fill:#1A1A1A;}
	.st18{display:inline;fill:#242424;}
	.st19{display:inline;fill:#1C1C1C;}
	.st20{fill:#EBEBEB;}
	.st21{fill:#EDF4F4;}
	.st22{fill:#DBDBDB;}
	.st23{fill:#E3E3E3;}
	.st24{fill:#D6D6D6;}
	.st25{display:inline;fill:#0F0F0F;}
	.st26{fill:#E6E6E6;}
	.st27{fill:#E8E8E8;}
	.st28{fill:#F0F0F0;}
	.st29{fill:#E5E5E5;}
	.st30{fill:#1A1615;}
	.st31{fill:#0A0A0A;stroke:#000000;stroke-width:0.9994;stroke-miterlimit:9.9939;}
	.st32{fill:#25C85E;}
	.st33{fill:#080808;stroke:#140C0C;stroke-width:1.9988;stroke-miterlimit:9.9939;}
	.st34{stroke:#120B0B;stroke-width:1.9988;stroke-miterlimit:9.9939;}
	.st35{fill:#0A0A0A;}
	.st36{display:inline;fill:#1A1A1A;}
	.st37{display:inline;fill:#0D0D0D;}
	.st38{fill:#0D0D0D;}
	.st39{opacity:0.15;fill:url(#SVGID_4_);}
	.st40{opacity:0.15;fill:url(#SVGID_5_);}
	.st41{opacity:0.7;fill-rule:evenodd;clip-rule:evenodd;fill:url(#SVGID_6_);}
	.st42{opacity:0.3;fill:url(#SVGID_7_);}
	.st43{opacity:0.3;fill:url(#SVGID_8_);}
	.st44{display:none;opacity:0.9;fill-rule:evenodd;clip-rule:evenodd;fill:url(#SVGID_9_);}
	.st45{display:none;opacity:0.9;fill:#F5F4FC;}
</style>
<rect id="svgEditorBackground" x="0.2" y="0.2" class="st0" width="749.5" height="630.1"/>
<g id="Layer_1_1_">
	<path d="M664.2,214c-6.7-16.7-20.5-20.9-21.8-22c-11.7-10.3-2.5-21.2-19.9-30.7c-18.3-9.9-71.9-37-114.2-31.4
		c-9.2,1.2-27.8,17.6-41.2,17.6c-21.9,0-92.1,0-92.1,0s-70.3,0-92.1,0c-13.4,0-32-16.4-41.2-17.6c-42.2-5.6-95.9,21.4-114.2,31.4
		c-17.5,9.5-8.2,20.3-19.9,30.7c-1.3,1.1-15.1,5.3-21.8,22C23.1,370-1.5,469,0.3,529c2.9,94.4,76.5,101.3,76.5,101.3
		c37-8.6,111.5-129.1,168.4-129.1c31.1,0,129.7,0,129.7,0s98.6,0,129.7,0c57,0,131.4,120.4,168.4,129.1c0,0,73.6-6.9,76.5-101.3
		C751.5,469,726.9,370,664.2,214z"/>
	<g>
		<linearGradient id="SVGID_1_" gradientUnits="userSpaceOnUse" x1="106.4134" y1="192.3923" x2="107.5677" y2="192.3923">
			<stop  offset="0" style="stop-color:#029AEB"/>
			<stop  offset="1" style="stop-color:#161D45"/>
		</linearGradient>
		<path class="st1" d="M106.4,192.7c0.5-0.3,0.9-0.5,1.2-0.6C107.2,192.3,106.8,192.5,106.4,192.7z"/>
		<linearGradient id="SVGID_2_" gradientUnits="userSpaceOnUse" x1="642.3953" y1="192.4507" x2="643.9213" y2="192.4507">
			<stop  offset="0" style="stop-color:#029AEB"/>
			<stop  offset="1" style="stop-color:#161D45"/>
		</linearGradient>
		<path class="st2" d="M642.4,192c0.2,0.2,0.8,0.4,1.5,0.8C643.4,192.6,642.9,192.3,642.4,192z"/>
		<linearGradient id="SVGID_3_" gradientUnits="userSpaceOnUse" x1="0.1553" y1="389.5094" x2="749.6971" y2="389.5094">
			<stop  offset="0" style="stop-color:#029AEB"/>
			<stop  offset="1" style="stop-color:#161D45"/>
		</linearGradient>
		<path class="st3" d="M664.1,213.8c-3.3-8.3-8.4-13.5-12.9-16.8c-3-2.2-5.7-3.6-7.4-4.4c-0.8-0.4-1.3-0.6-1.5-0.8
			c-33.5-18-86.8-41.6-120-42.9c-26.8,0,0.3,7.4-82.1,7.4c-15.1,0-66.9-0.1-66.9-0.1s-38.4,0.3-53.4,0.3
			c-95.5,0.4-64.2-8.3-94.4-7.7c-17.7,0-69.5,16.3-118,42.9c-0.2,0.2-0.6,0.4-1.2,0.6c-1.8,0.8-5.1,2.4-8.7,5.3
			c-4.2,3.3-8.8,8.3-11.9,16C23,369.8-1.6,468.8,0.3,528.8c2.9,94.4,76.5,101.3,76.5,101.3c37-8.6,111.5-129.1,168.4-129.1
			c31.1,0,129.7,0,129.7,0s98.6,0,129.7,0c57,0,131.4,120.4,168.4,129.1c0,0,73.6-6.9,76.5-101.3
			C751.5,468.8,726.8,369.8,664.1,213.8L664.1,213.8z"/>
	</g>
	<g id="Dpad">
		<g class="st4">
			<path class="st5" d="M277.7,462c-33.4,0-60.6-27.2-60.6-60.6c0-33.4,27.2-60.6,60.6-60.6c33.4,0,60.6,27.2,60.6,60.6
				C338.3,434.8,311.1,462,277.7,462z"/>
			<g class="st5">
				<path class="st6" d="M277.7,341.8c32.9,0,59.6,26.7,59.6,59.6c0,32.9-26.7,59.6-59.6,59.6c-32.9,0-59.6-26.7-59.6-59.6
					C218.1,368.6,244.9,341.8,277.7,341.8 M277.7,339.8c-34,0-61.6,27.6-61.6,61.6c0,34,27.6,61.6,61.6,61.6
					c34,0,61.6-27.6,61.6-61.6C339.3,367.4,311.7,339.8,277.7,339.8L277.7,339.8z"/>
			</g>
		</g>
		<g class="st4">
			<g class="st5">
				<path class="st7" d="M291.3,353.5L291.3,353.5c0-5-27.1-5-27.1,0c0,23.8,0,95.9,0,95.9l0,0l0,0c0,5,27.1,5,27.1,0
					C291.3,425.6,291.3,353.5,291.3,353.5L291.3,353.5z"/>
			</g>
			<g class="st5">
				<path class="st7" d="M229.8,387.9L229.8,387.9c-5,0-5,27.1,0,27.1c23.9,0,95.9,0,95.9,0l0,0l0,0c5,0,5-27.1,0-27.1
					C301.8,387.9,229.8,387.9,229.8,387.9L229.8,387.9z"/>
			</g>
		</g>
		<g class="st4">
			<g class="st5">
				<path class="st8" d="M277.7,349.8c6.8,0,13.6,1.2,13.6,3.7v0h0c0,0,0,15.4,0,34.4c13.8,0,26.6,0,34.4,0c5,0,5,27.1,0,27.1l0,0
					l0,0c0,0-15.5,0-34.4,0c0,13.8,0,26.7,0,34.4c0,2.5-6.8,3.7-13.6,3.7c-6.8,0-13.6-1.2-13.6-3.7l0,0l0,0c0,0,0-15.4,0-34.4
					c-13.8,0-26.6,0-34.4,0c-5,0-5-27.1,0-27.1h0c0,0,15.4,0,34.4,0c0-13.8,0-26.7,0-34.4C264.2,351,270.9,349.8,277.7,349.8
					 M277.7,346.2c-3.8,0-7.5,0.4-10.2,1c-5.8,1.4-7,4.2-7,6.3v30.8h-30.8c-2.1,0-4.9,1.2-6.3,7c-0.7,2.7-1,6.4-1,10.2
					c0,3.8,0.4,7.4,1,10.2c1.4,5.8,4.2,7,6.3,7h30.8v30.8v0.8l0.1,0.2c0.4,1.9,2.1,4,6.9,5.2c2.7,0.7,6.3,1,10.2,1
					c3.8,0,7.4-0.4,10.2-1c5.8-1.4,7-4.2,7-6.3v-30.8h30.8h1.5l0.3-0.3c1.7-0.7,3.4-2.5,4.5-6.6c0.7-2.7,1-6.4,1-10.2
					c0-3.8-0.4-7.4-1-10.2c-1.4-5.8-4.2-7-6.3-7h-30.8v-30.8c0-2.1-1.2-4.9-7-6.3C285.2,346.5,281.5,346.2,277.7,346.2L277.7,346.2z
					"/>
			</g>
			<line class="st9" x1="287.7" y1="357.1" x2="294.9" y2="349.9"/>
			<line class="st9" x1="267.8" y1="356.1" x2="261" y2="349.3"/>
			<line class="st9" x1="322.3" y1="391.2" x2="329" y2="384.5"/>
			<line class="st9" x1="322.8" y1="412.1" x2="328.5" y2="417.8"/>
			<line class="st9" x1="286.7" y1="392.4" x2="295.8" y2="383.3"/>
			<line class="st9" x1="286.2" y1="409.9" x2="296.4" y2="420.1"/>
			<line class="st9" x1="287.6" y1="445.7" x2="295" y2="453.1"/>
			<line class="st9" x1="268.6" y1="445" x2="259.8" y2="453.8"/>
			<line class="st9" x1="269.6" y1="409.5" x2="258.7" y2="420.5"/>
			<line class="st9" x1="270.4" y1="394.1" x2="258" y2="381.7"/>
			<line class="st9" x1="233.8" y1="410.9" x2="225.7" y2="419.1"/>
			<line class="st9" x1="233.5" y1="391.6" x2="226.1" y2="384.2"/>
		</g>
		<g>
			<g>
				<path class="st7" d="M277.7,452.6c-7.1,0-12.7-1.3-13-3.1c0,0,0-0.1,0-0.1c0-0.1,0-15.5,0-34.4c0-0.3-0.2-0.5-0.5-0.5h-34.4
					c-1.8,0-3.2-5.7-3.2-13s1.4-13,3.2-13h34.4c0.3,0,0.5-0.2,0.5-0.5v-34.4c0,0,0-0.1,0-0.1l0.1-0.2c0,0,0.1-0.1,0.1-0.1
					c0.5-0.8,2.1-1.5,4.5-2c0.3-0.1,0.6-0.1,0.9-0.2c0.4-0.1,0.7-0.1,1-0.1c0,0,0.1,0,0.2,0c0.3,0,0.6-0.1,0.9-0.1
					c0.3,0,0.7-0.1,1-0.1c0.4,0,0.7-0.1,1-0.1l2.4-0.1c0.4,0,0.7,0,1,0c7.3,0,13.1,1.4,13.1,3.2c0,0.2,0,16,0,34.4
					c0,0.3,0.2,0.5,0.5,0.5h34.4c1.8,0,3.2,5.7,3.2,13s-1.4,13-3.2,13h-34.4c-0.3,0-0.5,0.2-0.5,0.5v34.4c0,0,0,0.1,0,0.2
					C290.5,451.3,284.9,452.6,277.7,452.6z"/>
				<path class="st10" d="M277.7,350.8c8.1,0,12.6,1.6,12.6,2.7c0,0,0,0,0,0v34.4c0,0.6,0.4,1,1,1h34.4c1.1,0,2.7,4.8,2.7,12.5
					c0,7.8-1.6,12.5-2.7,12.5h-34.4c-0.6,0-1,0.4-1,1v34.4c0,0,0,0,0,0.1c-0.2,1.1-4.7,2.7-12.6,2.7c-7.9,0-12.4-1.5-12.5-2.7
					c0,0,0-0.1,0-0.1V415c0-0.6-0.4-1-1-1h-34.4c-1.1,0-2.7-4.8-2.7-12.5s1.6-12.6,2.7-12.6h34.4c0.6,0,1-0.4,1-1v-34.4c0,0,0,0,0,0
					l0,0c0,0,0,0,0,0l0,0c0,0,0-0.1,0-0.1c0,0,0,0,0-0.1c0.2-0.2,0.9-1.1,4.2-1.8c0,0,0,0,0.1,0c0.3-0.1,0.6-0.1,0.8-0.2l0.1,0
					c0.3-0.1,0.6-0.1,0.8-0.1c0,0,0.1,0,0.2,0c0.3,0,0.6-0.1,0.9-0.1c0,0,0,0,0,0c0.3,0,0.7-0.1,1-0.1l0,0c0,0,0,0,0,0
					c0.3,0,0.6-0.1,1-0.1l0.1,0c0.2,0,0.4,0,0.6,0l0.4,0c0.1,0,0.1,0,0.2,0c0.3,0,0.7,0,1,0l0.1,0
					C277,350.8,277.4,350.8,277.7,350.8 M277.7,349.8c-0.3,0-0.7,0-1.1,0c0,0-0.1,0-0.1,0c-0.3,0-0.7,0-1,0c-0.1,0-0.1,0-0.2,0
					c-0.3,0-0.7,0-1,0c0,0-0.1,0-0.1,0c-0.3,0-0.7,0-1,0.1c0,0,0,0,0,0c-0.3,0-0.7,0.1-1,0.1h0c-0.3,0-0.7,0.1-1,0.1c0,0,0,0-0.1,0
					c-0.3,0-0.6,0.1-0.9,0.1c0,0,0,0-0.1,0c-0.3,0.1-0.6,0.1-0.9,0.2c0,0,0,0,0,0c-2.4,0.5-4.2,1.2-4.9,2.2c0,0-0.1,0.1-0.1,0.2
					c0,0,0,0,0,0c0,0.1,0,0.1,0,0.2c0,0,0,0,0,0c0,0,0,0.1,0,0.1c0,0.1,0,0.1,0,0.2c0,7.7,0,20.6,0,34.4c-19,0-34.4,0-34.4,0h0
					c-5,0-5,27.1,0,27.1c7.8,0,20.6,0,34.4,0c0,19,0,34.4,0,34.4l0,0c0,0.1,0,0.2,0,0.2c0.4,2.3,7,3.5,13.5,3.5
					c6.6,0,13.1-1.2,13.5-3.5c0-0.1,0-0.2,0-0.2c0-7.7,0-20.6,0-34.4c18.9,0,34.4,0,34.4,0l0,0c5,0,5-27.1,0-27.1
					c-7.8,0-20.6,0-34.4,0c0-19,0-34.4,0-34.4h0v0C291.3,351,284.5,349.8,277.7,349.8L277.7,349.8z"/>
			</g>
			<path class="st11" d="M264.2,387.9l-3.6-3.6h-30.8c-0.9,0-1.8,0.2-2.8,0.8l2.8,2.8C229.8,387.9,245.2,387.9,264.2,387.9z"/>
			<path class="st12" d="M229.8,387.9L229.8,387.9l-2.8-2.8c-1.4,0.9-2.7,2.7-3.5,6.1c-0.7,2.7-1,6.4-1,10.2c0,3.8,0.4,7.4,1,10.2
				c0.8,3.4,2.2,5.2,3.5,6.1l2.8-2.8C224.8,415,224.8,387.9,229.8,387.9z"/>
			<path class="st11" d="M269.3,350.5C269.3,350.5,269.3,350.5,269.3,350.5c0.3-0.1,0.6-0.1,0.9-0.2c0,0,0,0,0.1,0
				c0.3-0.1,0.6-0.1,0.9-0.1c0,0,0,0,0.1,0c0.3,0,0.7-0.1,1-0.1h0c0.3,0,0.7-0.1,1-0.1c0,0,0,0,0,0c0.3,0,0.7-0.1,1-0.1
				c0,0,0.1,0,0.1,0c0.3,0,0.6,0,1,0c0.1,0,0.1,0,0.2,0c0.3,0,0.7,0,1,0c0,0,0.1,0,0.1,0c0.3,0,0.7,0,1.1,0c6.8,0,13.6,1.2,13.6,3.7
				l2.8-2.8c-0.9-1.4-2.7-2.7-6.1-3.5c-2.7-0.7-6.4-1-10.2-1c-3.8,0-7.5,0.4-10.2,1c-2.9,0.7-4.7,1.8-5.7,3l2.6,2.6
				C265,351.7,266.8,351,269.3,350.5z"/>
			<path class="st13" d="M325.7,387.9l2.8-2.8c-0.9-0.6-1.9-0.8-2.8-0.8h-30.8l-3.6,3.6C305.1,387.9,317.9,387.9,325.7,387.9z"/>
			<path class="st14" d="M291.3,353.5L291.3,353.5c0,0,0,15.4,0,34.4l3.6-3.6l0,0v-30.8c0-0.9-0.2-1.8-0.8-2.8L291.3,353.5
				L291.3,353.5z"/>
			<path class="st12" d="M264.2,353.5c0-0.1,0-0.1,0-0.2c0,0,0-0.1,0-0.1c0,0,0,0,0,0c0-0.1,0-0.1,0-0.2c0,0,0,0,0,0
				c0-0.1,0.1-0.1,0.1-0.2l-2.6-2.6c-1,1.1-1.3,2.3-1.3,3.3v30.8l3.6,3.6C264.2,374.1,264.2,361.2,264.2,353.5z"/>
			<path class="st15" d="M325.7,415L325.7,415c0,0-15.5,0-34.4,0l3.6,3.6h30.8h1.5l0.3-0.3c0.3-0.1,0.6-0.3,0.9-0.5L325.7,415
				L325.7,415z"/>
			<path class="st16" d="M291.3,449.4l2.8,2.8c0.6-0.9,0.8-1.9,0.8-2.8v-30.8l-3.6-3.6C291.3,428.8,291.3,441.7,291.3,449.4z"/>
			<path class="st16" d="M332,391.3c-0.8-3.4-2.2-5.2-3.6-6.1l-2.8,2.8c5,0,5,27.1,0,27.1l2.8,2.8c1.4-0.9,2.7-2.7,3.5-6.1
				c0.7-2.7,1-6.4,1-10.2C333,397.6,332.7,394,332,391.3z"/>
			<path class="st15" d="M291.3,449.6c-0.4,2.3-7,3.5-13.5,3.5s-13.1-1.2-13.5-3.5c0-0.1,0-0.2,0-0.2l-2.8,2.8
				c0.9,1.4,2.7,2.7,6.2,3.5c2.7,0.7,6.3,1,10.2,1c3.8,0,7.4-0.4,10.2-1c3.4-0.8,5.2-2.2,6.1-3.5l-2.8-2.8
				C291.3,449.5,291.3,449.5,291.3,449.6z"/>
			<path class="st14" d="M264.2,449.4L264.2,449.4c0,0,0-15.4,0-34.4l-3.6,3.6v30.8v0.8l0.1,0.2c0.1,0.5,0.3,1.1,0.7,1.7
				L264.2,449.4L264.2,449.4z"/>
			<path class="st17" d="M229.8,415l-2.8,2.8c1,0.6,1.9,0.8,2.8,0.8h30.8l3.6-3.6C250.4,415,237.5,415,229.8,415z"/>
		</g>
		<g class="st4">
			<path class="st18" d="M264.2,387.9l-3.6-3.6L264.2,387.9z"/>
			<polygon class="st19" points="291.3,387.9 294.9,384.3 294.9,384.3 294.9,384.3 			"/>
			<g id="Up" class="st5">
				<g>
					<path class="st20" d="M264.7,387.7v-34.2c0,0,0-0.1,0-0.1l0.1-0.2c0,0,0.1-0.1,0.1-0.1c0.5-0.8,2.1-1.5,4.5-2
						c0.3-0.1,0.6-0.1,0.9-0.2c0.4-0.1,0.7-0.1,1-0.1c0,0,0.1,0,0.2,0c0.3,0,0.6-0.1,0.9-0.1c0.3,0,0.7-0.1,1-0.1
						c0.4,0,0.7-0.1,1-0.1l2.4-0.1c0.4,0,0.7,0,1,0c7.3,0,13.1,1.4,13.1,3.2c0,0.2,0,15.9,0,34.2l-13.1,13L264.7,387.7z"/>
					<path class="st21" d="M277.7,350.8c8.1,0,12.6,1.6,12.6,2.7c0,0,0,0,0,0v33.9L277.7,400l-12.6-12.5v-34c0,0,0,0,0,0l0,0
						c0,0,0,0,0,0l0,0c0,0,0-0.1,0-0.1c0,0,0,0,0-0.1c0.2-0.2,0.9-1.1,4.2-1.8c0,0,0,0,0.1,0c0.3-0.1,0.6-0.1,0.8-0.2l0.1,0
						c0.3-0.1,0.6-0.1,0.8-0.1c0,0,0.1,0,0.2,0c0.3,0,0.6-0.1,0.9-0.1c0,0,0,0,0,0c0.3,0,0.7-0.1,1-0.1l0,0c0,0,0,0,0,0
						c0.3,0,0.6-0.1,1-0.1l0.1,0c0.2,0,0.4,0,0.6,0l0.4,0c0.1,0,0.1,0,0.2,0c0.3,0,0.7,0,1,0l0.1,0
						C277,350.8,277.4,350.8,277.7,350.8 M277.7,349.8c-0.3,0-0.7,0-1.1,0c0,0-0.1,0-0.1,0c-0.3,0-0.7,0-1,0c-0.1,0-0.1,0-0.2,0
						c-0.3,0-0.7,0-1,0c0,0-0.1,0-0.1,0c-0.3,0-0.7,0-1,0.1c0,0,0,0,0,0c-0.3,0-0.7,0.1-1,0.1h0c-0.3,0-0.7,0.1-1,0.1c0,0,0,0-0.1,0
						c-0.3,0-0.6,0.1-0.9,0.1c0,0,0,0-0.1,0c-0.3,0.1-0.6,0.1-0.9,0.2c0,0,0,0,0,0c-2.4,0.5-4.2,1.2-4.9,2.2c0,0-0.1,0.1-0.1,0.2
						c0,0,0,0,0,0c0,0.1,0,0.1,0,0.2c0,0,0,0,0,0c0,0,0,0.1,0,0.1c0,0.1,0,0.1,0,0.2c0,7.7,0,20.6,0,34.4l13.6,13.5l13.6-13.5
						c0-19,0-34.4,0-34.4h0v0C291.3,351,284.5,349.8,277.7,349.8L277.7,349.8z"/>
				</g>
				<path class="st22" d="M269.3,350.5C269.3,350.5,269.3,350.5,269.3,350.5c0.3-0.1,0.6-0.1,0.9-0.2c0,0,0,0,0.1,0
					c0.3-0.1,0.6-0.1,0.9-0.1c0,0,0,0,0.1,0c0.3,0,0.7-0.1,1-0.1h0c0.3,0,0.7-0.1,1-0.1c0,0,0,0,0,0c0.3,0,0.7-0.1,1-0.1
					c0,0,0.1,0,0.1,0c0.3,0,0.6,0,1,0c0.1,0,0.1,0,0.2,0c0.3,0,0.7,0,1,0c0,0,0.1,0,0.1,0c0.3,0,0.7,0,1.1,0
					c6.8,0,13.6,1.2,13.6,3.7l2.8-2.8c-0.9-1.4-2.7-2.7-6.1-3.5c-2.7-0.7-6.4-1-10.2-1c-3.8,0-7.5,0.4-10.2,1
					c-2.9,0.7-4.7,1.8-5.7,3l2.6,2.6C265,351.7,266.8,351,269.3,350.5z"/>
				<path class="st23" d="M291.3,353.5L291.3,353.5c0,0,0,15.4,0,34.4l3.6-3.6v-30.8c0-0.9-0.2-1.8-0.8-2.8L291.3,353.5L291.3,353.5
					z"/>
				<path class="st24" d="M264.2,353.5c0-0.1,0-0.1,0-0.2c0,0,0-0.1,0-0.1c0,0,0,0,0,0c0-0.1,0-0.1,0-0.2c0,0,0,0,0,0
					c0-0.1,0.1-0.1,0.1-0.2l-2.6-2.6c-1,1.1-1.3,2.3-1.3,3.3v30.8l3.6,3.6C264.2,374.1,264.2,361.2,264.2,353.5z"/>
			</g>
			<polygon class="st25" points="294.9,418.6 291.3,415 291.3,415 			"/>
			<g id="Right" class="st5">
				<g>
					<path class="st20" d="M291.5,414.5l-13.1-13.1l13.1-13h34.2c1.8,0,3.2,5.7,3.2,13s-1.4,13-3.2,13H291.5z"/>
					<path class="st21" d="M325.7,388.9c1.1,0,2.7,4.8,2.7,12.5c0,7.8-1.6,12.5-2.7,12.5h-34l-12.6-12.6l12.6-12.5H325.7
						 M325.7,387.9c-7.8,0-20.6,0-34.4,0l-13.6,13.5l13.6,13.6c18.9,0,34.4,0,34.4,0l0,0C330.6,415,330.6,387.9,325.7,387.9
						L325.7,387.9z"/>
				</g>
				<path class="st26" d="M325.7,387.9l2.8-2.8c-0.9-0.6-1.9-0.8-2.8-0.8h-30.8l-3.6,3.6C305.1,387.9,317.9,387.9,325.7,387.9z"/>
				<path class="st27" d="M325.7,415L325.7,415c0,0-15.5,0-34.4,0l3.6,3.6h30.8h1.5l0.3-0.3c0.3-0.1,0.6-0.3,0.9-0.5L325.7,415
					L325.7,415z"/>
				<path class="st28" d="M328.4,385.1l-2.8,2.8c5,0,5,27.1,0,27.1l2.8,2.8c1.4-0.9,2.7-2.7,3.5-6.1c0.7-2.7,1-6.4,1-10.2
					c0-3.8-0.4-7.4-1-10.2C331.1,387.9,329.8,386,328.4,385.1z"/>
			</g>
			<g id="Down" class="st5">
				<g>
					<path class="st20" d="M277.7,452.6c-7.1,0-12.7-1.3-13-3.1c0,0,0-0.1,0-0.1c0-0.1,0-15.4,0-34.2l13.1-13.1l13.1,13.1v34.2
						c0,0,0,0.1,0,0.2C290.5,451.3,284.9,452.6,277.7,452.6z"/>
					<path class="st21" d="M277.7,402.8l12.6,12.6v34c0,0,0,0,0,0.1c-0.2,1.1-4.7,2.7-12.6,2.7c-7.9,0-12.4-1.5-12.5-2.7
						c0,0,0-0.1,0-0.1v-34L277.7,402.8 M277.7,401.4L264.2,415c0,19,0,34.4,0,34.4l0,0c0,0.1,0,0.2,0,0.2c0.4,2.3,7,3.5,13.5,3.5
						c6.6,0,13.1-1.2,13.5-3.5c0-0.1,0-0.2,0-0.2c0-7.7,0-20.6,0-34.4L277.7,401.4L277.7,401.4z"/>
				</g>
				<path class="st28" d="M291.3,449.4l2.8,2.8c0.6-0.9,0.8-1.9,0.8-2.8v-30.8l-3.6-3.6C291.3,428.8,291.3,441.7,291.3,449.4z"/>
				<path class="st27" d="M291.3,449.6c-0.4,2.3-7,3.5-13.5,3.5s-13.1-1.2-13.5-3.5c0-0.1,0-0.2,0-0.2l-2.8,2.8
					c0.9,1.4,2.7,2.7,6.2,3.5c2.7,0.7,6.3,1,10.2,1c3.8,0,7.4-0.4,10.2-1c3.4-0.8,5.2-2.2,6.1-3.5l-2.8-2.8
					C291.3,449.5,291.3,449.5,291.3,449.6z"/>
				<path class="st23" d="M264.2,449.4L264.2,449.4c0,0,0-15.4,0-34.4l-3.6,3.6v30.8v0.8l0.1,0.2c0.1,0.5,0.3,1.1,0.7,1.7
					L264.2,449.4L264.2,449.4z"/>
			</g>
			<g id="left" class="st5">
				<g>
					<path class="st20" d="M229.8,414.5c-1.8,0-3.2-5.7-3.2-13s1.4-13,3.2-13H264l13.1,13L264,414.5H229.8z"/>
					<path class="st21" d="M263.8,388.9l12.6,12.5L263.8,414h-34c-1.1,0-2.7-4.8-2.7-12.5s1.6-12.6,2.7-12.6L263.8,388.9
						 M264.2,387.9c-19,0-34.4,0-34.4,0h0c-5,0-5,27.1,0,27.1c7.8,0,20.6,0,34.4,0l13.6-13.6L264.2,387.9L264.2,387.9z"/>
				</g>
				<path class="st22" d="M264.2,387.9l-3.6-3.6h-30.8c-0.9,0-1.8,0.2-2.8,0.8l2.8,2.8C229.8,387.9,245.2,387.9,264.2,387.9z"/>
				<path class="st24" d="M229.8,387.9L229.8,387.9l-2.8-2.8c-1.4,0.9-2.7,2.7-3.5,6.1c-0.7,2.7-1,6.4-1,10.2c0,3.8,0.4,7.4,1,10.2
					c0.8,3.4,2.2,5.2,3.5,6.1l2.8-2.8C224.8,415,224.8,387.9,229.8,387.9z"/>
				<path class="st29" d="M229.8,415l-2.8,2.8c1,0.6,1.9,0.8,2.8,0.8h30.8l3.6-3.6C250.4,415,237.5,415,229.8,415z"/>
			</g>
		</g>
	</g>
	<g id="Menu_Key">
		<g>
			<path class="st30" d="M448.9,280.4c0,10.4-8.4,18.8-18.8,18.8c-10.4,0-18.8-8.4-18.8-18.8c0-10.4,8.4-18.8,18.8-18.8
				C440.5,261.6,448.9,270,448.9,280.4z"/>
		</g>
		<g>
			<path class="st31" d="M446.2,280.4c0,8.9-7.2,16.1-16.1,16.1c-8.9,0-16.1-7.2-16.1-16.1c0-8.9,7.2-16.1,16.1-16.1
				C439,264.3,446.2,271.5,446.2,280.4z"/>
			<g>
				<rect x="422.9" y="275.8" class="st32" width="14.4" height="1.6"/>
				<rect x="422.9" y="279.7" class="st32" width="14.4" height="1.6"/>
				<rect x="422.9" y="283.5" class="st32" width="14.4" height="1.5"/>
			</g>
		</g>
	</g>
	<g id="Switcher_Key">
		<g>
			<path class="st30" d="M341,280.4c0,10.4-8.4,18.8-18.8,18.8c-10.4,0-18.8-8.4-18.8-18.8c0-10.4,8.4-18.8,18.8-18.8
				C332.5,261.6,341,270,341,280.4z"/>
		</g>
		<g>
			<path class="st31" d="M338.2,280.4c0,8.9-7.2,16.1-16.1,16.1c-8.9,0-16.1-7.2-16.1-16.1c0-8.9,7.2-16.1,16.1-16.1
				C331,264.3,338.2,271.5,338.2,280.4z"/>
			<g>
				<polygon class="st32" points="319.6,280.3 316.6,280.3 316.6,276.5 322.1,276.5 322.1,277.8 323.9,277.8 323.9,274.8 315,274.8 
					315,282.2 319.6,282.2 				"/>
				<path class="st32" d="M320.4,278.4v7.6h9v-7.6H320.4z M327.5,284.2h-5.5v-3.9h5.5V284.2z"/>
			</g>
		</g>
	</g>
	<g id="Left_Stick">
		<g>
			<path class="st33" d="M185.6,351.5c-37.3,0-67.7-30.3-67.7-67.6s30.3-67.6,67.7-67.6c37.3,0,67.7,30.3,67.7,67.6
				S222.9,351.5,185.6,351.5z"/>
		</g>
		<path class="st34" d="M241.7,279.9c0,31-25.1,56-56.1,56c-31,0-56.1-25.1-56.1-56c0-31,25.1-56.1,56.1-56.1
			C216.6,223.8,241.7,248.9,241.7,279.9z"/>
	</g>
	<g id="Right_Stick">
		<g>
			<path class="st33" d="M473,465.4c-37.3,0-67.6-30.3-67.6-67.6c0-37.3,30.3-67.7,67.6-67.7c37.3,0,67.7,30.4,67.7,67.7
				C540.6,435,510.3,465.4,473,465.4z"/>
		</g>
		<path class="st34" d="M529.1,393.8c0,31-25.1,56.1-56.1,56.1c-31,0-56-25.1-56-56.1c0-31,25.1-56.1,56-56.1
			C504,337.7,529.1,362.8,529.1,393.8z"/>
	</g>
	<g id="Button_Base">
		<g id="A">
			<path class="st35" d="M566.6,355.2c-13.9,0-25.2-11.3-25.2-25.2c0-13.9,11.3-25.2,25.2-25.2c13.9,0,25.2,11.3,25.2,25.2
				C591.8,343.9,580.5,355.2,566.6,355.2z"/>
			<path class="st30" d="M566.6,306.4c13.1,0,23.7,10.6,23.7,23.7c0,13.1-10.6,23.7-23.7,23.7c-13.1,0-23.7-10.6-23.7-23.7
				C543,317,553.6,306.4,566.6,306.4 M566.6,303.4c-14.7,0-26.7,12-26.7,26.7c0,14.7,12,26.7,26.7,26.7c14.7,0,26.7-12,26.7-26.7
				C593.3,315.4,581.4,303.4,566.6,303.4L566.6,303.4z"/>
		</g>
		<g id="Y">
			<path class="st35" d="M566.6,254.2c-13.9,0-25.2-11.3-25.2-25.2c0-13.9,11.3-25.2,25.2-25.2c13.9,0,25.2,11.3,25.2,25.2
				C591.8,242.9,580.5,254.2,566.6,254.2z"/>
			<path class="st30" d="M566.6,205.4c13.1,0,23.7,10.6,23.7,23.7c0,13.1-10.6,23.7-23.7,23.7c-13.1,0-23.7-10.6-23.7-23.7
				C543,216,553.6,205.4,566.6,205.4 M566.6,202.4c-14.7,0-26.7,12-26.7,26.7c0,14.7,12,26.7,26.7,26.7c14.7,0,26.7-12,26.7-26.7
				C593.3,214.3,581.4,202.4,566.6,202.4L566.6,202.4z"/>
		</g>
		<g id="B">
			<path class="st35" d="M617.2,304.7c-13.9,0-25.2-11.3-25.2-25.2c0-13.9,11.3-25.2,25.2-25.2c13.9,0,25.2,11.3,25.2,25.2
				C642.3,293.4,631,304.7,617.2,304.7z"/>
			<path class="st30" d="M617.2,255.9c13.1,0,23.7,10.6,23.7,23.7c0,13.1-10.6,23.7-23.7,23.7c-13.1,0-23.7-10.6-23.7-23.7
				C593.5,266.5,604.1,255.9,617.2,255.9 M617.2,252.9c-14.7,0-26.7,12-26.7,26.7c0,14.7,12,26.7,26.7,26.7
				c14.7,0,26.7-12,26.7-26.7C643.8,264.8,631.9,252.9,617.2,252.9L617.2,252.9z"/>
		</g>
		<g id="X">
			<path class="st35" d="M516.1,304.7c-13.9,0-25.2-11.3-25.2-25.2c0-13.9,11.3-25.2,25.2-25.2c13.9,0,25.2,11.3,25.2,25.2
				C541.3,293.4,530,304.7,516.1,304.7z"/>
			<path class="st30" d="M516.1,255.9c13.1,0,23.7,10.6,23.7,23.7c0,13.1-10.6,23.7-23.7,23.7c-13.1,0-23.7-10.6-23.7-23.7
				C492.5,266.5,503.1,255.9,516.1,255.9 M516.1,252.9c-14.7,0-26.7,12-26.7,26.7c0,14.7,12,26.7,26.7,26.7
				c14.7,0,26.7-12,26.7-26.7C542.8,264.8,530.8,252.9,516.1,252.9L516.1,252.9z"/>
		</g>
	</g>
	<g>
		<g class="st4">
			<path class="st36" d="M375.6,156.6c0,0-88.9-1.1-100.5-3l-16.4,30.5c20.2,23.3,41.6,53.3,56.4,53.3c15.1,0,60.5,0,60.5,0
				s45.4,0,60.5,0c14.9,0,36.2-30,56.4-53.3l-16.4-30.5C464.5,155.5,375.6,156.6,375.6,156.6z"/>
			<path class="st37" d="M476.1,153.6l-3.6-6.8c-1.9,0.5-3.7,0.7-5.4,0.7c-21.9,0-92.1,0-92.1,0s-70.3,0-92.1,0
				c-1.4,0-2.8-0.2-4.3-0.5l-3.5,6.5c11.6,1.9,100.5,3,100.5,3S464.5,155.5,476.1,153.6z"/>
		</g>
		<g id="RB_1_">
			<path class="st17" d="M642.4,192c-9-7.9-5.6-16.2-11.5-23.8c0.2,0.3,0.5,0.7,0.7,1c0,0-96.5-42-120.7-34.5
				c-15.6,4.9-27.2,15.3-32.8,18.2l1.6,2.8c27.2-0.9,23.8-6.6,42.7-6.6C560.2,152.1,608.9,174,642.4,192
				C642.4,192,642.4,192,642.4,192z"/>
			<path class="st38" d="M510.9,134.7c24.3-7.6,120.7,34.4,120.7,34.5c-0.2-0.3-0.5-0.7-0.7-1c0,0-0.1-0.1-0.1-0.1
				c-0.1-0.1-0.2-0.2-0.3-0.4c0-0.1-0.1-0.1-0.1-0.2c-0.1-0.1-0.2-0.2-0.3-0.3c-0.1-0.1-0.1-0.1-0.2-0.2c-0.1-0.1-0.2-0.2-0.3-0.3
				c-0.1-0.1-0.1-0.1-0.2-0.2c-0.1-0.1-0.2-0.2-0.3-0.3c-0.1-0.1-0.1-0.1-0.2-0.2c-0.1-0.1-0.2-0.2-0.3-0.3
				c-0.1-0.1-0.2-0.1-0.2-0.2c-0.1-0.1-0.2-0.2-0.3-0.3c-0.1-0.1-0.1-0.1-0.2-0.2c-0.1-0.1-0.2-0.2-0.3-0.3
				c-0.1-0.1-0.2-0.1-0.3-0.2c-0.1-0.1-0.2-0.2-0.3-0.3c-0.1-0.1-0.2-0.1-0.3-0.2c-0.1-0.1-0.2-0.2-0.4-0.3c-0.1,0-0.2-0.1-0.3-0.2
				c-0.1-0.1-0.3-0.2-0.4-0.3c-0.1-0.1-0.2-0.1-0.3-0.2c-0.1-0.1-0.3-0.2-0.4-0.3c-0.1-0.1-0.2-0.1-0.3-0.2
				c-0.2-0.1-0.3-0.2-0.5-0.3c-0.1-0.1-0.2-0.1-0.3-0.2c-0.2-0.1-0.4-0.2-0.5-0.3c-0.1-0.1-0.2-0.1-0.3-0.2
				c-0.3-0.2-0.6-0.3-0.8-0.5c-18.3-9.9-71.9-37-114.2-31.4c-7.6,1-21.6,12.3-33.8,16.3l3.6,6.7C483.7,150,495.3,139.6,510.9,134.7z
				"/>
			<path d="M478.1,152.9l-3.6-6.7c-0.3,0.1-0.7,0.2-1,0.3c-0.3,0.1-0.7,0.2-1,0.3l3.6,6.8l1.2,2.2c1.1,0,0,0,1.1,0
				c1.1-0.1,0,0,1.1-0.1L478.1,152.9z"/>
		</g>
		<g id="LB">
			<path class="st17" d="M107.6,192.1c33.5-18,82.2-39.9,120-42.9c19,0,15.5,5.7,42.7,6.6l1.6-2.8c-5.6-2.9-17.3-13.3-32.8-18.2
				c-24.3-7.6-120.7,34.4-120.7,34.5c0.2-0.3,0.5-0.7,0.7-1C113.2,175.9,116.6,184.1,107.6,192.1
				C107.6,192.1,107.6,192.1,107.6,192.1z"/>
			<path class="st38" d="M271.9,153l3.6-6.7c-12.2-3.9-26.2-15.3-33.8-16.3c-42.2-5.6-95.9,21.4-114.2,31.4
				c-0.3,0.2-0.6,0.3-0.8,0.5c-0.1,0.1-0.2,0.1-0.3,0.2c-0.2,0.1-0.3,0.2-0.5,0.3c-0.1,0.1-0.2,0.1-0.3,0.2
				c-0.1,0.1-0.3,0.2-0.5,0.3c-0.1,0-0.2,0.1-0.3,0.2c-0.1,0.1-0.3,0.2-0.4,0.3c-0.1,0.1-0.2,0.1-0.3,0.2c-0.1,0.1-0.2,0.2-0.4,0.3
				c-0.1,0.1-0.2,0.1-0.3,0.2c-0.1,0.1-0.2,0.2-0.4,0.3c-0.1,0.1-0.2,0.1-0.3,0.2c-0.1,0.1-0.2,0.2-0.3,0.3
				c-0.1,0.1-0.2,0.1-0.3,0.2c-0.1,0.1-0.2,0.2-0.3,0.3c-0.1,0.1-0.1,0.1-0.2,0.2c-0.1,0.1-0.2,0.2-0.3,0.3
				c-0.1,0.1-0.2,0.1-0.2,0.2c-0.1,0.1-0.2,0.2-0.3,0.3c-0.1,0.1-0.1,0.1-0.2,0.2c-0.1,0.1-0.2,0.2-0.3,0.3
				c-0.1,0.1-0.1,0.1-0.2,0.2c-0.1,0.1-0.2,0.2-0.3,0.3c0,0.1-0.1,0.1-0.2,0.2c-0.1,0.1-0.2,0.2-0.3,0.3c0,0.1-0.1,0.1-0.1,0.2
				c-0.1,0.1-0.2,0.2-0.3,0.4c0,0-0.1,0.1-0.1,0.1c-0.2,0.3-0.5,0.7-0.7,1c0,0,96.5-42,120.7-34.5
				C254.6,139.6,266.3,150.1,271.9,153z"/>
			<path d="M270.4,155.7c1.1,0.1,0,0,1.1,0.1c1.1,0,0,0,1.1,0l1.2-2.2l3.6-6.8c-0.3-0.1-0.7-0.2-1-0.3c-0.3-0.1-0.7-0.2-1-0.3
				l-3.6,6.7L270.4,155.7z"/>
		</g>
	</g>
	<g>
		<linearGradient id="SVGID_4_" gradientUnits="userSpaceOnUse" x1="495.111" y1="214.867" x2="398.4483" y2="170.2025">
			<stop  offset="0" style="stop-color:#000000"/>
			<stop  offset="0.3726" style="stop-color:#020202;stop-opacity:0.6274"/>
			<stop  offset="0.5069" style="stop-color:#090909;stop-opacity:0.4931"/>
			<stop  offset="0.6026" style="stop-color:#141414;stop-opacity:0.3974"/>
			<stop  offset="0.68" style="stop-color:#252525;stop-opacity:0.32"/>
			<stop  offset="0.7463" style="stop-color:#3B3B3B;stop-opacity:0.2537"/>
			<stop  offset="0.805" style="stop-color:#575757;stop-opacity:0.195"/>
			<stop  offset="0.8581" style="stop-color:#777777;stop-opacity:0.1419"/>
			<stop  offset="0.9069" style="stop-color:#9D9D9D;stop-opacity:9.308982e-02"/>
			<stop  offset="0.9523" style="stop-color:#C8C8C8;stop-opacity:4.767627e-02"/>
			<stop  offset="0.9926" style="stop-color:#F6F6F6;stop-opacity:7.380247e-03"/>
			<stop  offset="1" style="stop-color:#FFFFFF;stop-opacity:0"/>
		</linearGradient>
		<path class="st39" d="M437.3,237.4c-7,0.3-62.4,0.1-62.4,0.1v-80.8c0,0,99.8-0.7,102.4-0.7c29.3-0.6,25.1-6.5,45-6.5
			C522.3,149.3,456.1,236.7,437.3,237.4z"/>
		
			<linearGradient id="SVGID_5_" gradientUnits="userSpaceOnUse" x1="616.5118" y1="214.3657" x2="521.3015" y2="170.3724" gradientTransform="matrix(-1 0 0 1 872.8889 0)">
			<stop  offset="0" style="stop-color:#000000"/>
			<stop  offset="0.3726" style="stop-color:#020202;stop-opacity:0.6274"/>
			<stop  offset="0.5069" style="stop-color:#090909;stop-opacity:0.4931"/>
			<stop  offset="0.6026" style="stop-color:#141414;stop-opacity:0.3974"/>
			<stop  offset="0.68" style="stop-color:#252525;stop-opacity:0.32"/>
			<stop  offset="0.7463" style="stop-color:#3B3B3B;stop-opacity:0.2537"/>
			<stop  offset="0.805" style="stop-color:#575757;stop-opacity:0.195"/>
			<stop  offset="0.8581" style="stop-color:#777777;stop-opacity:0.1419"/>
			<stop  offset="0.9069" style="stop-color:#9D9D9D;stop-opacity:9.308982e-02"/>
			<stop  offset="0.9523" style="stop-color:#C8C8C8;stop-opacity:4.767627e-02"/>
			<stop  offset="0.9926" style="stop-color:#F6F6F6;stop-opacity:7.380247e-03"/>
			<stop  offset="1" style="stop-color:#FFFFFF;stop-opacity:0"/>
		</linearGradient>
		<path class="st40" d="M314.6,237.4c7,0.2,59.9,0,59.9,0v-80.9c0,0-99.8-0.7-102.4-0.7c-29.3-0.6-25.6-6.2-42.8-6.5
			C229.3,149.2,291.8,236.7,314.6,237.4z"/>
	</g>
	<g>
		<g>
			<path class="st17" d="M549,5.7c-0.4-0.3-0.8-0.6-1.2-0.9l-2.3,109.9l53.2,7.2C586.6,5.2,555.7,10.9,549,5.7z"/>
			<path class="st7" d="M522,0.3c-10.8,0.4-12.1,11.4-12.2,15.2v1.2c0,0,2.9,40.7,0,93c9.9,2.3,38.5,5.3,38.5,5.3s0-20.9,0.7-50.6
				c0.8-37.5-1.2-59.8-1.2-59.8C541.4,0.3,534.2-0.1,522,0.3z"/>
		</g>
		<g>
			<path class="st17" d="M201.1,5.7c0.4-0.3,0.8-0.6,1.2-0.9l2.3,109.9l-53.2,7.2C163.5,5.2,194.4,10.9,201.1,5.7z"/>
			<path class="st7" d="M228.1,0.3c10.8,0.4,12.1,11.4,12.2,15.2v1.2c0,0-2.9,40.7,0,93c-9.9,2.3-38.5,5.3-38.5,5.3
				s-0.1-20.9-0.7-50.6c-0.8-37.5,1.2-59.8,1.2-59.8C208.7,0.3,215.9-0.1,228.1,0.3z"/>
		</g>
	</g>
</g>
<g id="Layer_2_1_">
</g>
<radialGradient id="SVGID_6_" cx="373.3333" cy="197.037" r="57.3754" gradientUnits="userSpaceOnUse">
	<stop  offset="0" style="stop-color:#FFFFFF"/>
	<stop  offset="1" style="stop-color:#FFFFFF;stop-opacity:0"/>
	<stop  offset="1" style="stop-color:#F6F6F6;stop-opacity:0"/>
	<stop  offset="1" style="stop-color:#C8C8C8;stop-opacity:0"/>
	<stop  offset="1" style="stop-color:#9D9D9D;stop-opacity:0"/>
	<stop  offset="1" style="stop-color:#777777;stop-opacity:0"/>
	<stop  offset="1" style="stop-color:#575757;stop-opacity:0"/>
	<stop  offset="1" style="stop-color:#3B3B3B;stop-opacity:0"/>
	<stop  offset="1" style="stop-color:#252525;stop-opacity:0"/>
	<stop  offset="1" style="stop-color:#141414;stop-opacity:0"/>
	<stop  offset="1" style="stop-color:#090909;stop-opacity:0"/>
	<stop  offset="1" style="stop-color:#020202;stop-opacity:0"/>
	<stop  offset="1" style="stop-color:#000000;stop-opacity:0"/>
</radialGradient>
<path class="st41" d="M398.2,165.7c3.9,0,8.3,1,8.3,3.9c0,2.8-2.8,4.2-7.6,6.6l0,0l0,0l0,0c-0.3,0.2-0.7,0.4-1.1,0.5l0,0v0
	c-1.4,0.7-2.8,1.4-3.9,2.5c-2.4,2.3-2.4,6,0,8.3c2.4,2.3,6.2,2.3,8.5,0c1.1-1.1,1.8-2.4,2.6-3.8v0l0,0l0.1-0.2
	c2-3.8,5.8-10.9,10.4-9.1c2,0.8,3.1,1.8,3.9,3.8c1.8,4.5-5.4,8.2-9.3,10.2l-0.3,0.1l0,0c-1.4,0.7-2.8,1.4-3.9,2.5
	c-2.4,2.3-2.4,6,0,8.3c2.4,2.3,6.2,2.3,8.5,0c1.1-1.1,1.8-2.2,2.8-4.2c2.5-4.9,4-7.6,7.1-7.6c3,0,4,3.9,4,7.6
	c0,16.4-12.6,37.3-30.3,29.6c-17.7-7.7-29.2-8.1-46.4,0c-17.2,8.1-30.3-13.3-30.3-29.6s13.6-29.6,30.3-29.6H398.2z M392.5,195.7
	c0,3.3-2.7,6-6,6s-6-2.7-6-6c0-3.3,2.7-6,6-6S392.5,192.4,392.5,195.7z M398.5,213.7c3.3,0,6-2.7,6-6s-2.7-6-6-6s-6,2.7-6,6
	S395.2,213.7,398.5,213.7z M345.5,183.7c0-3.3,2.7-6,6-6s6,2.7,6,6v4c0,1.1,0.9,2,2,2h4c3.3,0,6,2.7,6,6c0,3.3-2.7,6-6,6h-4
	c-1.1,0-2,0.9-2,2v4c0,3.3-2.7,6-6,6s-6-2.7-6-6v-4c0-1.1-0.9-2-2-2h-4c-3.3,0-6-2.7-6-6c0-3.3,2.7-6,6-6h4c1.1,0,2-0.9,2-2V183.7z"
	/>
<linearGradient id="SVGID_7_" gradientUnits="userSpaceOnUse" x1="153.3183" y1="170.1268" x2="159.3555" y2="184.3497">
	<stop  offset="0" style="stop-color:#FFFFFF;stop-opacity:0"/>
	<stop  offset="4.691958e-02" style="stop-color:#D0D0D0;stop-opacity:4.691958e-02"/>
	<stop  offset="9.815919e-02" style="stop-color:#A5A5A5;stop-opacity:9.815919e-02"/>
	<stop  offset="0.155" style="stop-color:#7D7D7D;stop-opacity:0.155"/>
	<stop  offset="0.2162" style="stop-color:#5B5B5B;stop-opacity:0.2162"/>
	<stop  offset="0.283" style="stop-color:#3F3F3F;stop-opacity:0.283"/>
	<stop  offset="0.3573" style="stop-color:#282828;stop-opacity:0.3573"/>
	<stop  offset="0.4422" style="stop-color:#161616;stop-opacity:0.4422"/>
	<stop  offset="0.5445" style="stop-color:#090909;stop-opacity:0.5445"/>
	<stop  offset="0.6816" style="stop-color:#020202;stop-opacity:0.6816"/>
	<stop  offset="1" style="stop-color:#000000"/>
</linearGradient>
<path class="st42" d="M148.6,178.8c6.9-2.8,28.3-12.1,42.4-16.3c9.2-2.7,29.5-7.6,41.3-9.2l-3-4.2c-24.4,0.9-55.6,12.3-81.9,23.4
	c-15.4,6.5-43.3,20.4-48.6,24.4c-5.7,4.4-10,9.4-13,16.9c0,0,11.5-12.4,18.8-15.7C125.6,189,140.2,182.3,148.6,178.8z"/>
<linearGradient id="SVGID_8_" gradientUnits="userSpaceOnUse" x1="331.4087" y1="170.4601" x2="337.4182" y2="184.6175" gradientTransform="matrix(-1 0 0 1 928.5926 0)">
	<stop  offset="0" style="stop-color:#FFFFFF;stop-opacity:0"/>
	<stop  offset="3.012544e-02" style="stop-color:#E7E7E7;stop-opacity:3.012544e-02"/>
	<stop  offset="9.693062e-02" style="stop-color:#B7B7B7;stop-opacity:9.693062e-02"/>
	<stop  offset="0.1693" style="stop-color:#8B8B8B;stop-opacity:0.1693"/>
	<stop  offset="0.2457" style="stop-color:#666666;stop-opacity:0.2457"/>
	<stop  offset="0.3271" style="stop-color:#464646;stop-opacity:0.3271"/>
	<stop  offset="0.415" style="stop-color:#2C2C2C;stop-opacity:0.415"/>
	<stop  offset="0.512" style="stop-color:#191919;stop-opacity:0.512"/>
	<stop  offset="0.623" style="stop-color:#0B0B0B;stop-opacity:0.623"/>
	<stop  offset="0.7598" style="stop-color:#020202;stop-opacity:0.7598"/>
	<stop  offset="1" style="stop-color:#000000"/>
</linearGradient>
<path class="st43" d="M601.3,178.9c-6.9-2.8-28.3-12.1-42.4-16.3c-9.2-2.7-28.3-7.2-40.1-8.7l3.5-4.6c21,1.2,53.9,12.3,80.2,23.5
	c15.4,6.5,43.3,20.4,48.6,24.4c5.7,4.4,10,9.4,13,16.9c0,0-11.4-8.6-19.3-13.4C625.1,188.9,609.7,182.3,601.3,178.9z"/>
<linearGradient id="SVGID_9_" gradientUnits="userSpaceOnUse" x1="626.8566" y1="277.8769" x2="673.0714" y2="277.8769" gradientTransform="matrix(0.7003 0.7138 -0.7138 0.7003 327.3275 -141.7445)">
	<stop  offset="0" style="stop-color:#23BFFE"/>
	<stop  offset="1" style="stop-color:#029AEB"/>
</linearGradient>
<path class="st44" d="M600.5,514.8c1.2,1.2,2.2,2.9,1.3,3.7c-0.8,0.8-2.1,0.4-4.3-0.3c-0.2-0.1-0.3-0.1-0.5-0.2l0,0
	c-0.7-0.2-1.3-0.4-2-0.4c-1.4,0-2.6,1.1-2.6,2.5c0,1.4,1.2,2.6,2.6,2.6c0.7,0,1.3-0.2,2-0.4h0l0,0l0.1,0c1.8-0.5,5.1-1.5,5.9,0.5
	c0.4,0.8,0.4,1.5,0,2.4c-0.8,1.9-4.1,0.8-5.9,0.2l-0.1,0l0,0h0c-0.7-0.2-1.3-0.4-2-0.4c-1.4,0-2.6,1.1-2.6,2.5
	c0,1.4,1.2,2.6,2.6,2.6c0.7,0,1.2-0.1,2.1-0.4c2.3-0.7,3.6-1.1,4.5-0.1c0.9,0.9,0,2.4-1.1,3.6c-5,4.9-15.3,7.4-18.3-0.4
	c-3-7.8-6.4-11.4-14-14.3c-7.7-2.9-5.1-13.3-0.1-18.3c5-4.9,13.2-4.7,18.3,0.4L600.5,514.8z M589.3,522.1c-1,1-2.7,1-3.7,0
	c-1-1-1-2.7,0-3.7c1-1,2.7-1,3.7,0C590.3,519.4,590.3,521.1,589.3,522.1z M585.5,529.5c1,1,2.7,1.1,3.7,0c1-1,1.1-2.7,0-3.7
	c-1-1-2.7-1.1-3.7,0S584.5,528.4,585.5,529.5z M579.1,504.2c1-1,2.7-1,3.7,0c1,1,1,2.7,0,3.7l-1.3,1.2c-0.3,0.3-0.3,0.9,0,1.2
	l1.2,1.3c1,1,1,2.7,0,3.7c-1,1-2.7,1-3.7,0l-1.2-1.3c-0.3-0.3-0.9-0.3-1.2,0l-1.3,1.2c-1,1-2.7,1-3.7,0c-1-1-1-2.7,0-3.7l1.3-1.2
	c0.3-0.3,0.3-0.9,0-1.2l-1.2-1.3c-1-1-1-2.7,0-3.7c1-1,2.7-1,3.7,0l1.2,1.3c0.3,0.3,0.9,0.3,1.2,0L579.1,504.2z"/>
<path class="st45" d="M612.3,544.2l1.2,1.2c0.6,0.6,1.1,0.9,1.7,0.9c0.6,0.1,1.1-0.1,1.6-0.6c0.5-0.5,0.7-1,0.6-1.6
	s-0.3-1.1-0.9-1.7l-1.2-1.2L612.3,544.2z M610.1,546.3l-4,3.9l-2.7-2.8l11.5-11.3l4.1,4.2c1.4,1.4,2.2,2.9,2.2,4.3
	c0.1,1.4-0.5,2.7-1.6,3.9c-0.8,0.8-1.7,1.3-2.7,1.5c-1,0.2-2,0-3-0.4l-1.4,7.3l-3.2-3.3l1.6-6.4L610.1,546.3z M617.8,557.6
	c-0.5,0.5-0.5,1.2,0.3,1.9c1.1,1.1,2.1,1.2,3.2,0.2c-0.2-0.6-0.6-1.2-1.1-1.7c-0.4-0.4-0.8-0.7-1.2-0.7
	C618.5,557.2,618.1,557.3,617.8,557.6z M619.9,553.7l0.8-2.5c1.8,0.7,3.2,1.6,4.3,2.6c1,1.1,1.7,2.1,1.9,3.2c0.2,1.1-0.1,2-0.9,2.8
	l-5.3,5.2l-2.3-2.4l1.1-1.1c-0.6,0.2-1.2,0.1-1.9-0.1c-0.7-0.2-1.3-0.7-1.9-1.2c-0.8-0.8-1.3-1.7-1.4-2.6c-0.1-0.9,0.2-1.7,0.9-2.4
	c0.8-0.7,1.7-1,2.7-0.9c1,0.2,2,0.7,3,1.7c0.7,0.7,1.2,1.6,1.5,2.4l0.7-0.7c0.3-0.3,0.4-0.7,0.4-1.1c0-0.4-0.3-0.9-0.7-1.3
	C622,554.6,621,554,619.9,553.7z M632.2,557.9c0-0.5,0.2-1,0.6-1.4c0.4-0.4,0.9-0.6,1.4-0.5c0.5,0,1,0.3,1.4,0.7s0.6,0.9,0.6,1.4
	s-0.2,1-0.6,1.4s-0.9,0.6-1.4,0.5c-0.5,0-1-0.3-1.4-0.7C632.4,558.9,632.2,558.4,632.2,557.9z M630.1,559.5l2.4,2.4l-7.6,7.4
	l-2.4-2.4L630.1,559.5z M636.4,571.8c0.5-0.4,0.7-0.9,0.8-1.3c0.1-0.4-0.1-0.8-0.5-1.2c-0.4-0.4-0.8-0.6-1.3-0.6
	c-0.5,0-0.9,0.2-1.4,0.7l-4.6,4.5l-2.5-2.5l7.6-7.4l2.5,2.5l-1.1,1.1c1.3-0.4,2.5,0,3.6,1c1.8,1.8,1.7,3.6-0.2,5.5l-4.9,4.8
	l-2.6-2.6L636.4,571.8z M642.7,572.3l2.6,2.6l-2.3,5.3l6.6-2.2l-2.3,6.6l5.4-2.3l2.6,2.6l-11.9,4l2-7l-6.9,2L642.7,572.3z
	 M652.6,593.1c-0.5,0.5-0.5,1.2,0.3,1.9c1.1,1.1,2.1,1.2,3.2,0.2c-0.2-0.6-0.6-1.2-1.1-1.7c-0.4-0.4-0.8-0.7-1.2-0.7
	C653.3,592.7,652.9,592.8,652.6,593.1z M654.7,589.2l0.8-2.5c1.8,0.7,3.2,1.6,4.3,2.6c1,1.1,1.7,2.1,1.9,3.2c0.2,1.1-0.1,2-0.9,2.8
	l-5.3,5.2l-2.3-2.4l1.1-1.1c-0.6,0.2-1.2,0.1-1.9-0.1c-0.7-0.2-1.3-0.7-1.9-1.2c-0.8-0.8-1.3-1.7-1.4-2.6c-0.1-0.9,0.2-1.7,0.9-2.4
	c0.8-0.7,1.7-1,2.7-0.9c1,0.2,2,0.7,3,1.7c0.7,0.7,1.2,1.6,1.5,2.4l0.7-0.7c0.3-0.3,0.4-0.7,0.4-1.1c0-0.4-0.3-0.9-0.7-1.3
	C656.8,590.1,655.8,589.5,654.7,589.2z M672.4,602.6l-16.1,6.1l-2.5-2.5l6.1-2.3l3.7-10.1l2.7,2.8l-2.7,6.2l6.2-2.6L672.4,602.6z"/>
</svg>
