<svg id="Layer_1" data-name="Layer 1" xmlns="http://www.w3.org/2000/svg" viewBox="0 0 1920.78 719.27"><defs><style>.cls-1{fill:#fefefe;}.cls-2{fill:#323c32;}.cls-3{fill:#232d21;}.cls-4{fill:#30492c;}.cls-5{fill:#253e21;}.cls-6{fill:#2b6c33;}.cls-7{fill:#273527;}.cls-8{fill:#a3ac9f;}.cls-9{fill:#bdc4bd;}.cls-10{fill:#52a35b;}.cls-11{fill:#435847;}.cls-12{fill:#3f5844;}.cls-13{fill:#2b412e;}.cls-14{fill:#7b9b81;}.cls-15{fill:#275a2d;}.cls-16{fill:#1f251e;}</style></defs><title>LMD_logo-mountain</title><path class="cls-1" d="M964,1084q-472,0-944,.39c-13.67,0-16.39-2.68-16.36-16.36q.83-343.28,0-686.56c0-13.68,2.69-16.36,16.36-16.35q944,.66,1888.06,0c13.67,0,16.39,2.67,16.36,16.35q-.81,343.27,0,686.56c0,13.68-2.69,16.38-16.36,16.36Q1436,1083.63,964,1084Z" transform="translate(-3.6 -365.11)"/><path class="cls-2" d="M929.91,389.36c8.16-1,8.72,6.67,11.26,10.95q107.75,181.56,214.95,363.44c3.3,5.6,6.22,11.42,9.31,17.14a4.22,4.22,0,0,1-1.21,5.9c-8.68,5.49-18.71,6.69-28.46,8.33-96.2,16.15-192.74,30.16-289.15,45a31.24,31.24,0,0,1-11.88,0,13.38,13.38,0,0,1-5.91-3.48,17.55,17.55,0,0,1-2.77-9.81c18.63-94.51,42.31-187.91,63.51-281.86,9.22-40.83,18.24-81.71,27.76-122.47C920,410.87,921.33,398.72,929.91,389.36Z" transform="translate(-3.6 -365.11)"/><path class="cls-3" d="M1105.67,1063.78q-161.07.39-322.14.71c-76.22,0-152.43-.47-228.65-.73a4.4,4.4,0,0,1-1.34-3.26c0-1.22.19-1.83.42-1.84a19,19,0,0,1,5.66-6.21c55.93-44.63,111.09-90.21,166.09-136,32.59-27.12,64.07-55.61,98.33-80.73a8.06,8.06,0,0,1,5.54-.23l.74,1.26c29.73,15.47,53.56,38.92,79.27,59.64,60.89,49.08,122.6,97.16,182.47,147.5C1098.34,1049.18,1107.47,1052.84,1105.67,1063.78Z" transform="translate(-3.6 -365.11)"/><path class="cls-4" d="M1105.67,1063.78c-30.59-31-65.92-56.33-99.69-83.52q-86.15-69.35-172.33-138.63c-1.47-1.19-2.24-3.23-3.33-4.88Q916.9,823.39,1003.47,810q80.79-12.59,161.55-25.39a8.13,8.13,0,0,1,2.52,5.8c-5,49.07-18.39,96.62-26.43,145.17-6.2,37.38-14.08,74.5-20.87,111.79-1.08,6-2.06,11.82-6.54,16.36Z" transform="translate(-3.6 -365.11)"/><path class="cls-5" d="M1113.7,1063.73c3.56-42.13,13.82-83.14,21.06-124.64,8.49-48.66,18.13-97.12,27.42-145.64.33-1.75,2.14-3.22,3.27-4.82,15.34.82,20.39,14.22,28.74,23.57,4.73,5.3,9.79,10.31,14.08,16a51.45,51.45,0,0,0,7.94,7.16c38.45,38.46,74.38,79.28,111.66,118.82,7.74,8.21,15.78,16.15,24.2,23.67,34.44,24.65,69.56,48.29,104.41,72.32,5,3.47,13,4.75,12.41,13.56Z" transform="translate(-3.6 -365.11)"/><path class="cls-6" d="M554.78,1060c.06,1.24.09,2.48.1,3.72-57.1-.13-114.19-.48-171.28-.35q-162.41.35-324.8,1.13c-6.89,0-13.78,0-21.49-3.9q66.6-32.37,133.21-64.74c53.68-26.1,107.3-52.33,161.08-78.23A66,66,0,0,0,351,904.19a3.8,3.8,0,0,1,5-.12c4.17,13,15.38,19.34,25.54,26.67,53.18,38.34,106,77.14,159.05,115.7C545.88,1050.3,551.64,1053.84,554.78,1060Z" transform="translate(-3.6 -365.11)"/><path class="cls-7" d="M1468.89,1063.7q-54.81-37.2-109.67-74.31c-3.87-2.6-8.13-4.47-10-9.11-.9-4.44,2.12-6.19,5.32-7.84,59.74-10.87,119.76-20.1,179.67-30,6.41-1.06,13.16-1.93,19.38,1.53,47.37,13,92.7,31.91,139,48.1,64.35,22.52,128.47,45.68,192.83,68.62-.95,1.69-1.44,3.35-1.94,3.35Q1676.16,1064,1468.89,1063.7Z" transform="translate(-3.6 -365.11)"/><path class="cls-8" d="M829.58,835.5a8.93,8.93,0,0,0-3,.33c-21.47-5.58-35.27-22.67-51.89-35.28-44.8-34-89-68.77-133.28-103.39-3.71-2.83-8.12-3.41-12.59-3.85-4.44-1.14-9.79-1.09-10.12-7.64,14.74,1.26,23.65-5.47,31.79-18C693.7,601,738,535,781.87,468.74c12.87,3,12.35,14.46,13.34,23.54q14,129.59,29.27,259c3.06,25.6,4.52,51.24,5.28,77Z" transform="translate(-3.6 -365.11)"/><path class="cls-9" d="M829.76,828.25c-10.59-22.83-7.53-47.87-10.94-71.8-8-56.17-14.15-112.64-19.77-169.12-3.59-36.14-6.75-72.3-12.34-108.21-.63-4-1-8-4.84-10.38,4-15.3,19.42-14.44,29.83-19.92,39-20.54,78.75-39.75,118.21-59.46q-30.72,136-61.48,272C855.75,717,842.66,772.62,829.76,828.25Z" transform="translate(-3.6 -365.11)"/><path class="cls-10" d="M618.7,685.67l12.72,4.11c.43,8.71-6.07,12.91-11.78,17.24C537,769.65,455.32,833.44,372.77,896.15c-5.22,4-10.12,8.85-17.51,8.43l-4.26-.39C389.37,844,429.74,784.85,465.34,723c19.67-34.18,40.8-52.39,82.16-42.71C570.4,685.66,594.91,684.11,618.7,685.67Z" transform="translate(-3.6 -365.11)"/><path class="cls-11" d="M1213.16,836.68c-3.3-.11-6.2-.91-7.46-4.45,14.86-36.85,28.17-74.27,41.85-111.56,4.76-13,7.1-27.9,21.27-35.43l144,155.34c-7.3,7.18-16.66,7.54-26,7.49-51-.28-101.83-5.42-152.84-5.53C1226.48,842.53,1219.65,840.23,1213.16,836.68Z" transform="translate(-3.6 -365.11)"/><path class="cls-12" d="M1213.16,836.68c58.17-1.24,116.12,3.53,174.15,6.23,8.43.39,17-1.5,25.47-2.33l4.44,3.84c-20.57,37.13-35.6,76.85-53.6,115.17-2.84,6-5.2,12.18-10.43,16.63q-2,2-4,4.06c-38.16-31.91-67.76-72.09-103-106.8C1234.43,862,1224.12,849,1213.16,836.68Z" transform="translate(-3.6 -365.11)"/><path class="cls-13" d="M1353.19,976.22C1368,932.93,1388.28,892,1408,850.83a10.63,10.63,0,0,1,9.25-6.41c46.11,32.27,92.13,64.67,136.34,99.53C1487,956.07,1420.48,968.6,1353.19,976.22Z" transform="translate(-3.6 -365.11)"/><path class="cls-14" d="M1268.82,685.24c-21.27,41.35-32.92,86.44-50.35,129.29-2.79,6.85-1.73,16.72-12.77,17.7-13.31-14.63-23.89-31.79-40.25-43.6l-.42-4a23.25,23.25,0,0,0,.4-3.72c33.84-28.58,63.55-61.35,94.42-92.95C1262.58,685.15,1263.11,677.33,1268.82,685.24Z" transform="translate(-3.6 -365.11)"/><path class="cls-15" d="M355.26,904.58C424.56,851.2,494.17,798.2,563,744.21c22.91-18,47.84-33.49,68.4-54.43,4.06-.63,8.22-1.63,10.85,3C623,784.1,602.42,875.17,582.88,966.47c-4.71,22-9.85,43.94-14.76,65.91-1.88,8.4-3,17-9.33,23.68l-4,4c-18.19-6.81-31.53-20.91-46.9-31.82-49.31-35-97.66-71.29-146.75-106.57C354.17,916.65,349.7,912.9,355.26,904.58Z" transform="translate(-3.6 -365.11)"/><path class="cls-16" d="M558.79,1056.06c6-47.84,20.06-94,29.48-141.15,14.06-70.41,30.8-140.29,46.14-210.45,1.17-5.31.69-10.82,7.85-11.73l184.32,143.1c-25.37,26.92-55.74,48.07-83.64,72.07C702.54,942.66,662,977.37,620,1010.15,600,1025.81,583,1045.94,558.79,1056.06Z" transform="translate(-3.6 -365.11)"/></svg>