<svg width="107" height="61" viewBox="0 0 107 61" fill="none" xmlns="http://www.w3.org/2000/svg">
<path fill-rule="evenodd" clip-rule="evenodd" d="M76.717 0C80.597 0 85 0.987364 85 3.94948C85 6.70831 82.1931 8.13479 77.4284 10.5562L77.4252 10.5578L77.4233 10.5588L77.4153 10.5629C77.0683 10.7392 76.7109 10.9208 76.3435 11.1086L76.3433 11.1087L76.3433 11.1088C74.9198 11.8364 73.5525 12.5353 72.4247 13.6385C70.0723 15.9395 70.0723 19.67 72.4247 21.971C74.7771 24.272 78.591 24.272 80.9434 21.971C82.0713 20.8678 82.7859 19.5304 83.5297 18.1381L83.5297 18.138L83.5299 18.1378L83.6563 17.9009C85.6785 14.1109 89.4526 7.03757 94.0821 8.83701C96.0752 9.61173 97.208 10.6859 98 12.6355C99.8344 17.1509 92.6161 20.8344 88.732 22.8164L88.4567 22.957L88.4566 22.9571C87.0331 23.6847 85.6658 24.3836 84.5379 25.4869C82.1855 27.7878 82.1855 31.5184 84.5379 33.8194C86.8903 36.1203 90.7042 36.1203 93.0566 33.8194C94.1846 32.7161 94.8868 31.5957 95.8962 29.6209C98.4198 24.6841 99.934 21.971 102.962 21.971C105.991 21.971 107 25.8887 107 29.6209C107 45.9801 94.434 66.9679 76.717 59.2418C59 51.5157 47.5 51.1864 30.283 59.2418C13.066 67.2973 0 45.9801 0 29.6209C0 13.2617 13.5582 0 30.283 0H76.717ZM71 30C71 33.3137 68.3137 36 65 36C61.6863 36 59 33.3137 59 30C59 26.6863 61.6863 24 65 24C68.3137 24 71 26.6863 71 30ZM77 48C80.3137 48 83 45.3137 83 42C83 38.6863 80.3137 36 77 36C73.6863 36 71 38.6863 71 42C71 45.3137 73.6863 48 77 48ZM24 18C24 14.6863 26.6863 12 30 12C33.3137 12 36 14.6863 36 18V22C36 23.1046 36.8954 24 38 24H42C45.3137 24 48 26.6863 48 30C48 33.3137 45.3137 36 42 36H38C36.8954 36 36 36.8954 36 38V42C36 45.3137 33.3137 48 30 48C26.6863 48 24 45.3137 24 42V38C24 36.8954 23.1046 36 22 36H18C14.6863 36 12 33.3137 12 30C12 26.6863 14.6863 24 18 24H22C23.1046 24 24 23.1046 24 22V18Z" fill="url(#paint0_linear)"/>
<defs>
<linearGradient id="paint0_linear" x1="-7.97212e-07" y1="30.8903" x2="107" y2="30.8903" gradientUnits="userSpaceOnUse">
<stop stop-color="#23BFFE"/>
<stop offset="1" stop-color="#029AEB"/>
</linearGradient>
</defs>
</svg>
