<?xml version="1.0" encoding="utf-8"?>
<!-- Generator: Adobe Illustrator 23.0.3, SVG Export Plug-In . SVG Version: 6.00 Build 0)  -->
<svg version="1.1" id="Layer_1" xmlns="http://www.w3.org/2000/svg" xmlns:xlink="http://www.w3.org/1999/xlink" x="0px" y="0px"
	 viewBox="0 0 1920 1080" style="enable-background:new 0 0 1920 1080;" xml:space="preserve">
<style type="text/css">
	.st0{opacity:5.000000e-02;}
	.st1{fill:#FFFFFF;}
</style>
<g id="Sprinkles_dark_14_" class="st0">
	<g>
		<path class="st1" d="M309.5,51c9.9-2.3,19.7-4.6,29.6-6.9c5.2-1.2,7.4,6.8,2.2,8c-9.9,2.3-19.7,4.6-29.6,6.9
			C306.5,60.2,304.3,52.3,309.5,51"/>
		<path class="st1" d="M324.5,67.2l-6.9-29.7c-1.2-5.2,6.8-7.4,8-2.2l7,29.6C333.7,70.2,325.7,72.4,324.5,67.2"/>
	</g>
	<g>
		<path class="st1" d="M244.8,299l28.8,9.8c5,1.7,2.9,9.7-2.2,8c-9.6-3.3-19.2-6.6-28.8-9.9C237.5,305.2,239.7,297.2,244.8,299"/>
		<path class="st1" d="M248.9,320.7l9.9-28.8c1.7-5,9.7-2.9,8,2.2l-9.9,28.8C255.2,327.9,247.2,325.8,248.9,320.7"/>
	</g>
	<path class="st1" d="M212.1,200.4c2.9,0,5.3-2.4,5.3-5.3s-2.4-5.3-5.3-5.3s-5.3,2.4-5.3,5.3S209.1,200.4,212.1,200.4"/>
	<path class="st1" d="M533.2,326.7c9-0.5,9.1-14.1,0-14.1C524.1,312.6,524.2,326.2,533.2,326.7c5.3,0.3,5.3,8.6,0,8.3
		c-8.5,0.4-15.6-6.2-16-14.7c-0.4-8.5,6.2-15.6,14.7-16c0.4,0,0.9,0,1.3,0c8.5,0.4,15.1,7.5,14.7,16c-0.3,8-6.7,14.4-14.7,14.7
		C527.9,335.3,527.9,327,533.2,326.7"/>
	<path class="st1" d="M352.7,373.8c9-0.5,9.1-14.1,0-14.1S343.6,373.3,352.7,373.8c5.3,0.3,5.3,8.6,0,8.3c-8.5,0-15.4-6.8-15.4-15.3
		c0-8.5,6.8-15.4,15.3-15.4c8.2,0,15,6.5,15.4,14.7c0.2,8.6-6.6,15.8-15.2,16c0,0-0.1,0-0.1,0C347.4,382.4,347.4,374.1,352.7,373.8"
		/>
	<path class="st1" d="M460.6,231.4l-5.3-17.3l5.1,2.9c-5.9,1.8-11.9,3.7-17.8,5.5c1-1.7,1.9-3.4,2.9-5.1l5.3,17.3l-5.1-2.9
		c5.9-1.8,11.9-3.7,17.8-5.5c5.1-1.6,7.3,6.4,2.2,8c-5.9,1.8-11.9,3.6-17.8,5.5c-2.2,0.6-4.5-0.7-5.1-2.9l-5.3-17.3
		c-0.6-2.2,0.7-4.5,2.9-5.1c5.9-1.8,11.9-3.7,17.8-5.5c2.2-0.6,4.5,0.7,5.1,2.9l5.3,17.3C470.2,234.3,462.2,236.5,460.6,231.4"/>
	<path class="st1" d="M611.5,405.1c9-0.5,9.1-14.1,0-14.1C602.4,391,602.4,404.6,611.5,405.1c5.3,0.3,5.3,8.6,0,8.3
		c-8.5,0-15.3-6.9-15.3-15.3c0-8.5,6.9-15.3,15.3-15.3c8.2,0,15,6.5,15.3,14.7c0.2,8.6-6.6,15.8-15.2,16c0,0-0.1,0-0.1,0
		C606.1,413.6,606.1,405.3,611.5,405.1"/>
	<path class="st1" d="M601.9,140c9-0.5,9.1-14.1,0-14.1C592.8,125.9,592.9,139.5,601.9,140c5.3,0.3,5.3,8.6,0,8.3
		c-8.5,0-15.4-6.8-15.4-15.3c0-8.5,6.8-15.4,15.3-15.4c8.3,0,15.1,6.5,15.4,14.7c0.2,8.6-6.6,15.8-15.2,16c0,0,0,0,0,0
		C596.6,148.5,596.6,140.3,601.9,140"/>
	<path class="st1" d="M204.7,263.8c6.7,6.1,16.4-3.5,10-10C208.2,247.4,198.6,257.1,204.7,263.8c3.6,4-2.3,9.8-5.9,5.9
		c-6-6-6-15.7-0.1-21.7c6-6,15.7-6,21.7-0.1c5.9,5.8,6.1,15.2,0.5,21.3c-6,6.2-15.8,6.5-22.1,0.5c0,0,0,0,0,0
		C194.9,266.1,200.7,260.3,204.7,263.8"/>
	<path class="st1" d="M220.2,36.6c2.1,2.1,5.5,2.1,7.5,0s2.1-5.5,0-7.5s-5.5-2.1-7.5,0S218.2,34.5,220.2,36.6"/>
	<path class="st1" d="M78.7,125.8c2.1,2.1,5.5,2.1,7.5,0s2.1-5.5,0-7.5c-2.1-2.1-5.5-2.1-7.5,0C76.6,120.3,76.6,123.7,78.7,125.8"/>
	<path class="st1" d="M176.7,439.7c2.1,2.1,5.5,2.1,7.5,0c2.1-2.1,2.1-5.5,0-7.5c-2.1-2.1-5.5-2.1-7.5,0
		C174.6,434.2,174.6,437.6,176.7,439.7"/>
	<path class="st1" d="M7.7,493.7c2.1,2.1,5.5,2.1,7.5,0c2.1-2.1,2.1-5.5,0-7.5c-2.1-2.1-5.5-2.1-7.5,0
		C5.6,488.2,5.6,491.6,7.7,493.7"/>
	<path class="st1" d="M8.6,227.2c2.1,2.1,5.5,2.1,7.5,0s2.1-5.5,0-7.5c-2.1-2.1-5.5-2.1-7.5,0S6.5,225.1,8.6,227.2"/>
	<path class="st1" d="M299.6,202.5c2.1,2.1,5.5,2.1,7.5,0c2.1-2.1,2.1-5.5,0-7.5c-2.1-2.1-5.5-2.1-7.5,0
		C297.6,197,297.6,200.4,299.6,202.5"/>
	<g>
		<path class="st1" d="M761,125.7l13.4,27.3c2.3,4.8-4.8,8.9-7.2,4.1c-4.5-9.1-8.9-18.2-13.4-27.3C751.5,125,758.7,120.9,761,125.7"
			/>
		<path class="st1" d="M748.6,144l27.3-13.4c4.8-2.3,8.9,4.8,4.1,7.2l-27.3,13.4C747.9,153.5,743.8,146.3,748.6,144"/>
	</g>
	<path class="st1" d="M844.6,26.4c6.7,6.1,16.4-3.5,10-10C848.1,10,838.5,19.7,844.6,26.4c3.6,4-2.3,9.8-5.9,5.9c-6-6-6-15.7,0-21.7
		c6-6,15.7-6,21.7,0c5.8,5.8,6,15.2,0.5,21.2c-6,6.2-15.8,6.5-22.1,0.5c0,0,0,0,0,0C834.7,28.7,840.6,22.9,844.6,26.4"/>
	<path class="st1" d="M937.3,16.2c2.1,2.1,5.5,2.1,7.5,0s2.1-5.5,0-7.5s-5.5-2.1-7.5,0C935.2,10.7,935.2,14.1,937.3,16.2"/>
	<path class="st1" d="M1016,113.8c2.1,2.1,5.5,2.1,7.5,0c2.1-2.1,2.1-5.5,0-7.5c-2.1-2.1-5.5-2.1-7.5,0
		C1014,108.4,1014,111.7,1016,113.8"/>
	<path class="st1" d="M969,584.1c2.1,2.1,5.5,2.1,7.5,0c2.1-2.1,2.1-5.5,0-7.5c-2.1-2.1-5.5-2.1-7.5,0S966.9,582,969,584.1"/>
	<g>
		<path class="st1" d="M1064.9,375.4v30.4c-0.2,2.3-2.2,4-4.5,3.8c-2.1-0.2-3.7-1.8-3.8-3.8v-30.4c0.2-2.3,2.2-4,4.5-3.8
			C1063.1,371.7,1064.7,373.4,1064.9,375.4"/>
		<path class="st1" d="M1045.8,386.2l30.5,0c2.3,0.2,4,2.2,3.8,4.5c-0.2,2.1-1.8,3.7-3.8,3.8h-30.4c-2.3,0-4.1-1.8-4.1-4.1
			C1041.7,388,1043.5,386.2,1045.8,386.2"/>
	</g>
	<g>
		<path class="st1" d="M915.6,450L902,477.2c-2.4,4.8-9.6,0.7-7.2-4.1l13.6-27.2C910.8,441.1,917.9,445.2,915.6,450"/>
		<path class="st1" d="M894.1,451l27.3,13.6c4.8,2.4,0.6,9.6-4.1,7.2L890,458.2C885.2,455.8,889.3,448.6,894.1,451"/>
	</g>
	<g>
		<path class="st1" d="M847.6,591.1l-11.9,28c-2.1,4.9-9.3,0.8-7.2-4.1l11.9-28C842.4,582.1,849.6,586.3,847.6,591.1"/>
		<path class="st1" d="M826.5,593.3c9.3,4,18.7,7.9,28,11.9c4.9,2.1,0.8,9.3-4.1,7.2l-28-11.9C817.5,598.4,821.7,591.2,826.5,593.3"
			/>
	</g>
	<g>
		<path class="st1" d="M1046.1,467.4v30.4c-0.2,2.3-2.2,4-4.5,3.8c-2.1-0.2-3.7-1.8-3.8-3.8v-30.4c0.2-2.3,2.2-4,4.5-3.8
			C1044.3,463.7,1045.9,465.4,1046.1,467.4"/>
		<path class="st1" d="M1027,478.2l30.5,0c2.3,0.2,4,2.2,3.8,4.5c-0.2,2.1-1.8,3.7-3.8,3.8h-30.4c-2.3,0-4.1-1.8-4.1-4.1
			C1022.9,480,1024.8,478.2,1027,478.2"/>
	</g>
	<path class="st1" d="M935.2,319c6.7,6,16.4-3.5,10-10C938.7,302.5,929.1,312.2,935.2,319c3.6,4-2.3,9.8-5.9,5.9
		c-6.2-5.7-6.6-15.5-0.9-21.7c5.7-6.2,15.5-6.6,21.7-0.9c0.3,0.3,0.6,0.6,0.9,0.9c5.7,6.2,5.3,16-0.9,21.7c-5.9,5.4-14.9,5.4-20.8,0
		C925.3,321.2,931.2,315.4,935.2,319"/>
	<path class="st1" d="M868,122.2c6.7,6,16.4-3.5,10-10C871.5,105.8,861.9,115.4,868,122.2c3.6,4-2.3,9.8-5.8,5.8
		c-6-6-6-15.7-0.1-21.7c6-6,15.7-6,21.7-0.1c5.8,5.8,6,15.2,0.5,21.2c-5.9,6.2-15.8,6.5-22.1,0.6c0,0,0,0-0.1-0.1
		C858.1,124.5,864,118.6,868,122.2"/>
	<path class="st1" d="M981.5,216.9l8.5-16l1.5,5.7c-5.5-2.9-11-5.8-16.5-8.7c1.9-0.5,3.8-1.1,5.7-1.5l-8.5,16l-1.5-5.7
		c5.5,2.9,11,5.8,16.5,8.7c4.8,2.5,0.6,9.7-4.1,7.2c-5.5-2.9-11-5.8-16.5-8.7c-2-1.1-2.7-3.7-1.5-5.7l8.5-16c1.1-2,3.6-2.7,5.6-1.6
		c5.5,2.9,11,5.8,16.5,8.7c2,1.1,2.7,3.7,1.5,5.7l-8.5,16C986.3,225.8,979.1,221.7,981.5,216.9"/>
	<path class="st1" d="M121,234.7l8.5-16l1.5,5.7c-5.5-2.9-11-5.8-16.5-8.7c1.9-0.5,3.8-1.1,5.7-1.5l-8.5,16l-1.5-5.7
		c5.5,2.9,11,5.8,16.5,8.7c4.8,2.5,0.6,9.7-4.1,7.2c-5.5-3-11-5.8-16.5-8.7c-2-1.1-2.7-3.7-1.5-5.7l8.5-16c1.1-2,3.6-2.7,5.6-1.6
		c5.5,2.9,11,5.8,16.5,8.7c2,1.1,2.7,3.7,1.5,5.7l-8.5,16C125.7,243.5,118.5,239.4,121,234.7"/>
	<g>
		<path class="st1" d="M98.8,43.7l-11.9,28c-2.1,4.9-9.3,0.8-7.2-4.1l11.9-28C93.7,34.7,100.9,38.8,98.8,43.7"/>
		<path class="st1" d="M77.8,45.8c9.3,4,18.7,7.9,28,11.9c4.9,2.1,0.8,9.3-4.1,7.2L73.7,53C68.7,50.9,72.9,43.8,77.8,45.8"/>
	</g>
	<g>
		<path class="st1" d="M105,349.5c4.5,9.1,8.9,18.2,13.4,27.3c2.3,4.8-4.8,8.9-7.2,4.1c-4.4-9.1-8.9-18.2-13.4-27.3
			C95.5,348.8,102.7,344.6,105,349.5"/>
		<path class="st1" d="M92.6,367.8l27.3-13.4c4.8-2.3,8.9,4.9,4.1,7.2L96.7,375C91.9,377.3,87.8,370.1,92.6,367.8"/>
	</g>
	<g>
		<path class="st1" d="M436.3,533.3c8.6,5.3,17.2,10.7,25.9,16.1c4.5,2.8,0.4,10-4.1,7.2c-8.6-5.4-17.2-10.7-25.8-16
			C427.7,537.7,431.8,530.5,436.3,533.3"/>
		<path class="st1" d="M435.4,555.3l16.1-25.9c2.8-4.5,10-0.4,7.2,4.1l-16,25.9C439.8,563.9,432.6,559.9,435.4,555.3"/>
	</g>
	<path class="st1" d="M297.1,575.3c6.7,6.1,16.4-3.5,10-10C300.6,558.9,291,568.6,297.1,575.3c3.6,4-2.3,9.8-5.9,5.9
		c-6-6-6-15.7,0-21.7c6-6,15.7-6,21.7,0c5.8,5.8,6,15.2,0.5,21.2c-6,6.2-15.8,6.5-22.1,0.5c0,0,0,0,0,0
		C287.2,577.6,293.1,571.7,297.1,575.3"/>
	<path class="st1" d="M570.6,259.8c6.7,6.1,16.4-3.5,10-10C574.1,243.4,564.6,253.1,570.6,259.8c3.6,4-2.3,9.8-5.9,5.9
		c-6-6-6-15.7-0.1-21.7c6-6,15.7-6,21.7-0.1c5.8,5.8,6.1,15.2,0.5,21.3c-6,6.2-15.8,6.5-22.1,0.5c0,0,0,0,0,0
		C560.8,262.1,566.6,256.2,570.6,259.8"/>
	<path class="st1" d="M503.4,63c6.8,6,16.4-3.5,10-10C507,46.6,497.4,56.2,503.4,63c3.6,4-2.3,9.8-5.8,5.8c-6-6-6-15.7,0-21.7
		c6-6,15.7-6,21.7,0c5.8,5.8,6,15.2,0.5,21.2c-5.9,6.2-15.8,6.5-22.1,0.6c0,0-0.1-0.1-0.1-0.1C493.6,65.3,499.5,59.4,503.4,63"/>
	<path class="st1" d="M604.3,100.2c2.1,2.1,5.5,2.1,7.5,0c2.1-2.1,2.1-5.5,0-7.5c-2.1-2.1-5.5-2.1-7.5,0
		C602.2,94.8,602.2,98.2,604.3,100.2"/>
	<path class="st1" d="M539.7,406.9c2.1,2.1,5.5,2.1,7.5,0c2.1-2.1,2.1-5.5,0-7.5c-2.1-2.1-5.5-2.1-7.5,0
		C537.7,401.5,537.7,404.9,539.7,406.9"/>
	<path class="st1" d="M472.1,505.4c2.1,2.1,5.5,2.1,7.5,0c2.1-2.1,2.1-5.5,0-7.5c-2.1-2.1-5.5-2.1-7.5,0
		C470,500,470,503.3,472.1,505.4"/>
	<path class="st1" d="M335.1,605.4c2.1,2.1,5.5,2.1,7.5,0c2.1-2.1,2.1-5.5,0-7.5c-2.1-2.1-5.5-2.1-7.5,0
		C333,600,333,603.4,335.1,605.4"/>
	<path class="st1" d="M634.1,423.7c2.1,2.1,5.5,2.1,7.5,0c2.1-2.1,2.1-5.5,0-7.5c-2.1-2.1-5.5-2.1-7.5,0
		C632,418.3,632,421.7,634.1,423.7"/>
	<path class="st1" d="M682.1,304c2,2,5.2,2,7.2,0s2-5.2,0-7.2s-5.2-2-7.2,0c0,0,0,0,0,0C680.2,298.8,680.2,302,682.1,304"/>
	<path class="st1" d="M697.6,214c2.1,2.1,5.5,2.1,7.5,0c2.1-2.1,2.1-5.5,0-7.5c-2.1-2.1-5.5-2.1-7.5,0
		C695.5,208.6,695.5,211.9,697.6,214"/>
	<path class="st1" d="M471.8,136.6l8.5-16l1.5,5.7c-5.5-2.9-11-5.8-16.5-8.7c1.9-0.5,3.8-1.1,5.7-1.5l-8.5,16l-1.5-5.7
		c5.5,2.9,11,5.8,16.5,8.7c4.8,2.5,0.6,9.7-4.1,7.2c-5.5-3-11-5.8-16.5-8.7c-2-1.1-2.7-3.7-1.5-5.7l8.5-16c1.1-2,3.6-2.7,5.6-1.6
		c5.5,2.9,11,5.8,16.5,8.7c2,1.1,2.7,3.7,1.5,5.7l-8.5,16C476.5,145.4,469.3,141.3,471.8,136.6"/>
	<path class="st1" d="M650.1,576.2c6.7,6,16.4-3.5,10-10C653.7,559.8,644.1,569.4,650.1,576.2c3.6,4-2.3,9.8-5.9,5.9
		c-6-6-6.1-15.7-0.1-21.7c6-6,15.7-6.1,21.7-0.1c5.9,5.8,6.1,15.2,0.5,21.3c-6,6.2-15.8,6.5-22.1,0.5c0,0,0,0,0,0
		C640.3,578.5,646.2,572.6,650.1,576.2"/>
	<path class="st1" d="M252.2,115.1c6.7,6.1,16.4-3.5,10-10S246.1,108.4,252.2,115.1c3.6,4-2.3,9.8-5.9,5.9c-6-6-6-15.7-0.1-21.7
		c6-6,15.7-6,21.7-0.1c5.9,5.8,6.1,15.2,0.5,21.3c-6,6.2-15.8,6.5-22.1,0.5c0,0,0,0,0,0C242.3,117.4,248.2,111.6,252.2,115.1"/>
	<path class="st1" d="M821.4,406.2c2.1,2.1,5.5,2.1,7.5,0c2.1-2.1,2.1-5.5,0-7.5c-2.1-2.1-5.5-2.1-7.5,0
		C819.3,400.8,819.3,404.2,821.4,406.2"/>
	<path class="st1" d="M741.2,517.6c2.1,2.1,5.5,2.1,7.5,0c2.1-2.1,2.1-5.5,0-7.5c-2.1-2.1-5.5-2.1-7.5,0
		C739.1,512.2,739.1,515.5,741.2,517.6"/>
	<path class="st1" d="M391.9,65.5l8.5-16l1.5,5.7c-5.5-2.9-11-5.8-16.5-8.7c1.9-0.5,3.8-1.1,5.7-1.5l-8.5,16l-1.5-5.7
		c5.5,2.9,11,5.8,16.5,8.7c4.8,2.5,0.6,9.7-4.1,7.2c-5.5-3-11-5.8-16.5-8.7c-2-1.1-2.7-3.7-1.5-5.7l8.5-16c1.1-2,3.6-2.7,5.6-1.6
		c5.5,2.9,11,5.8,16.5,8.7c2,1.1,2.7,3.7,1.5,5.7l-8.5,16C396.7,74.3,389.5,70.2,391.9,65.5"/>
	<g>
		<path class="st1" d="M686.7,479.9l-13.5,27.2c-2.4,4.8-9.6,0.7-7.2-4.1l13.6-27.2C682,470.9,689.2,475,686.7,479.9"/>
		<path class="st1" d="M665.3,480.9l27.3,13.6c4.8,2.4,0.7,9.6-4.1,7.2c-9.1-4.5-18.2-9-27.3-13.6
			C656.4,485.7,660.5,478.5,665.3,480.9"/>
	</g>
	<g>
		<path class="st1" d="M841.4,324.1l-11.9,28c-2.1,4.9-9.3,0.8-7.2-4.1l11.9-28C836.3,315.1,843.5,319.3,841.4,324.1"/>
		<path class="st1" d="M820.4,326.3c9.3,4,18.7,7.9,28,11.9c4.9,2.1,0.8,9.3-4.1,7.2l-28-11.9C811.4,331.4,815.5,324.2,820.4,326.3"
			/>
	</g>
	<g>
		<path class="st1" d="M349.5,205.3l-15.2,26.3c-2.7,4.6-10.1,0.9-7.4-3.7c5.1-8.8,10.2-17.6,15.3-26.3
			C344.8,197,352.2,200.7,349.5,205.3"/>
		<path class="st1" d="M327.4,205.2l26.3,15.3c4.6,2.7,0.9,10.1-3.7,7.4l-26.3-15.3C319.1,209.9,322.8,202.5,327.4,205.2"/>
	</g>
	<path class="st1" d="M147.3,557.2c6.7,6.1,16.4-3.5,10-10C150.8,540.8,141.2,550.5,147.3,557.2c3.6,4-2.3,9.8-5.9,5.9
		c-6-6-6-15.7,0-21.7c6-6,15.7-6,21.7,0c5.8,5.8,6,15.2,0.5,21.2c-6,6.2-15.8,6.5-22.1,0.5c0,0,0,0,0,0
		C137.5,559.5,143.3,553.7,147.3,557.2"/>
	<path class="st1" d="M285.8,457.5c-1.3,8.9,12.1,11.7,13.8,2.7C301.4,451.4,288,448.8,285.8,457.5c-1.3,5.2-9.4,3.6-8.1-1.6
		c1.3-8.4,9.1-14.1,17.5-12.8c8.4,1.3,14.1,9.1,12.8,17.5c-0.1,0.4-0.1,0.8-0.2,1.3c-2,8.2-10.3,13.3-18.5,11.3
		c-7.8-1.9-12.8-9.4-11.6-17.3C278.5,450.6,286.6,452.3,285.8,457.5"/>
	<path class="st1" d="M411.9,292.2c-1.3,8.9,12.1,11.7,13.8,2.7S414.2,283.4,411.9,292.2c-1.3,5.2-9.4,3.6-8.1-1.6
		c1.6-8.3,9.7-13.7,18-12.1c8.3,1.6,13.7,9.7,12.1,18c-1.6,8.1-9.2,13.5-17.4,12.2c-8.5-1.5-14.2-9.5-12.7-18c0,0,0-0.1,0-0.1
		C404.6,285.3,412.7,286.9,411.9,292.2"/>
	<path class="st1" d="M396.4,439.3l18-1.9l-3.8,4.4c-0.7-6.2-1.3-12.4-2-18.5c1.5,1.3,3,2.5,4.4,3.8l-18,1.9l3.8-4.4
		c0.7,6.2,1.3,12.4,2,18.5c0.6,5.3-7.7,5.9-8.3,0.6c-0.6-6.2-1.3-12.3-2-18.5c-0.2-2.3,1.6-4.3,3.8-4.4l18-1.9
		c2.3-0.1,4.2,1.5,4.4,3.8c0.7,6.2,1.3,12.4,2,18.5c0.2,2.3-1.6,4.3-3.8,4.4l-18,1.9C391.7,448.2,391.1,439.9,396.4,439.3"/>
	<path class="st1" d="M732.9,218c9-0.5,9.1-14.1,0-14.1C723.8,203.9,723.8,217.5,732.9,218c5.3,0.3,5.3,8.6,0,8.3
		c-8.5,0-15.3-6.9-15.3-15.3c0-8.5,6.9-15.3,15.3-15.3c8.2,0,15,6.5,15.3,14.7c0.2,8.6-6.6,15.8-15.2,16c0,0,0,0-0.1,0
		C727.6,226.6,727.6,218.3,732.9,218"/>
	<path class="st1" d="M894.1,51.5c2.9,0,5.3-2.4,5.3-5.3s-2.4-5.3-5.3-5.3s-5.3,2.4-5.3,5.3S891.1,51.5,894.1,51.5"/>
	<path class="st1" d="M798.6,209.1c2.9,0,5.3-2.4,5.3-5.3c0-2.9-2.4-5.3-5.3-5.3c-2.9,0-5.3,2.4-5.3,5.3
		C793.3,206.7,795.7,209.1,798.6,209.1"/>
	<path class="st1" d="M673,219.1c2.9,0,5.3-2.4,5.3-5.3c0-2.9-2.4-5.3-5.3-5.3s-5.3,2.4-5.3,5.3C667.7,216.7,670.1,219.1,673,219.1"
		/>
	<path class="st1" d="M624.9,34.2c2.9,0,5.3-2.4,5.3-5.3s-2.4-5.3-5.3-5.3c-2.9,0-5.3,2.4-5.3,5.3S622,34.2,624.9,34.2"/>
	<g>
		<path class="st1" d="M559.7,46l9.7,28.8c1.7,5.1-6.3,7.2-8,2.2l-9.6-28.9c-1.7-5.1,6.3-7.3,8-2.2"/>
		<path class="st1" d="M545.2,61.9l28.9-9.7c5.1-1.7,7.3,6.3,2.2,8c-9.6,3.2-19.2,6.5-28.9,9.7C542.4,71.6,540.2,63.6,545.2,61.9"/>
	</g>
	<g>
		<path class="st1" d="M779.6,38.3c9.6,3.3,19.2,6.6,28.8,9.9c5,1.7,2.9,9.7-2.2,8c-9.6-3.3-19.2-6.6-28.8-9.9
			C772.4,44.5,774.5,36.5,779.6,38.3"/>
		<path class="st1" d="M783.7,60l9.9-28.8c1.7-5,9.7-2.9,8,2.2l-9.9,28.8C790,67.2,782,65.1,783.7,60"/>
	</g>
	<path class="st1" d="M1075.1,62.2c9-0.5,9.1-14.1,0-14.1S1066,61.7,1075.1,62.2c5.3,0.3,5.3,8.6,0,8.3c-8.5,0-15.3-6.9-15.3-15.3
		c0-8.5,6.9-15.3,15.3-15.3c8.2,0,15,6.5,15.3,14.7c0.2,8.6-6.6,15.8-15.2,16c0,0,0,0-0.1,0C1069.7,70.8,1069.7,62.5,1075.1,62.2"/>
	<path class="st1" d="M956.4,155.3c9-0.5,9.1-14.1,0-14.1C947.3,141.2,947.4,154.8,956.4,155.3c5.3,0.3,5.3,8.6,0,8.3
		c-8.5,0-15.3-6.9-15.3-15.3c0-8.5,6.9-15.3,15.3-15.3c8.2,0,15,6.5,15.3,14.7c0.2,8.6-6.6,15.8-15.2,16c0,0,0,0-0.1,0
		C951.1,163.9,951.1,155.6,956.4,155.3"/>
	<path class="st1" d="M1036.2,298c5.4,7.2,16.8-0.3,11.7-7.9S1031.6,290.2,1036.2,298c2.7,4.6-4.1,9.2-6.9,4.6
		c-5-6.8-3.5-16.5,3.3-21.5s16.5-3.5,21.5,3.3c0.3,0.3,0.5,0.7,0.7,1.1c4.4,7.2,2.1,16.7-5.1,21.1c-6.8,4.2-15.7,2.4-20.4-4
		C1026.1,298.3,1033,293.7,1036.2,298"/>
	<path class="st1" d="M708.9,360.2c2.9,0,5.3-2.4,5.3-5.3c0-2.9-2.4-5.3-5.3-5.3s-5.3,2.4-5.3,5.3
		C703.6,357.8,706,360.2,708.9,360.2"/>
	<path class="st1" d="M621.8,645.2c2.9,0,5.3-2.4,5.3-5.3c0-2.9-2.4-5.3-5.3-5.3c-2.9,0-5.3,2.4-5.3,5.3
		C616.5,642.8,618.9,645.2,621.8,645.2"/>
	<g>
		<path class="st1" d="M542,429.8l21.5,21.5c1.5,1.7,1.3,4.4-0.4,5.9c-1.6,1.3-3.9,1.3-5.4,0l-21.5-21.5c-1.5-1.7-1.3-4.4,0.4-5.9
			C538.2,428.5,540.5,428.5,542,429.8"/>
		<path class="st1" d="M536.2,450.9l21.5-21.6c1.7-1.5,4.4-1.3,5.9,0.4c1.3,1.6,1.3,3.9,0,5.4L542,456.7c-1.6,1.6-4.2,1.6-5.9,0
			C534.5,455.1,534.5,452.5,536.2,450.9"/>
	</g>
	<g>
		<path class="st1" d="M489.2,588.1l9.7,28.9c1.7,5.1-6.3,7.2-8,2.2l-9.7-28.8C479.4,585.2,487.4,583,489.2,588.1"/>
		<path class="st1" d="M474.7,604l28.9-9.7c5.1-1.7,7.2,6.3,2.2,8l-28.9,9.7C471.8,613.7,469.6,605.7,474.7,604"/>
	</g>
	<path class="st1" d="M1027.3,555.2c9-0.5,9.1-14.1,0-14.1S1018.3,554.7,1027.3,555.2c5.3,0.3,5.3,8.6,0,8.3
		c-8.5,0-15.4-6.8-15.4-15.3s6.8-15.4,15.3-15.4c8.3,0,15,6.5,15.4,14.7c0.2,8.6-6.6,15.8-15.2,16c0,0,0,0-0.1,0
		C1022,563.8,1022,555.5,1027.3,555.2"/>
	<path class="st1" d="M840.7,463.6c9-0.5,9.1-14.1,0-14.1S831.6,463.1,840.7,463.6c5.3,0.3,5.3,8.6,0,8.3c-8.5,0-15.3-6.9-15.3-15.3
		c0-8.5,6.9-15.3,15.3-15.3c8.2,0,15,6.5,15.3,14.7c0.2,8.6-6.6,15.8-15.2,16c0,0-0.1,0-0.1,0C835.4,472.1,835.4,463.8,840.7,463.6"
		/>
	<path class="st1" d="M385.8,523c0.5,9,14.1,9.1,14.1,0C399.9,513.9,386.3,514,385.8,523c-0.3,5.3-8.6,5.3-8.3,0
		c0-8.5,6.9-15.3,15.3-15.3s15.3,6.9,15.3,15.3c0,8.2-6.5,15-14.7,15.3c-8.6,0.2-15.8-6.6-16-15.2c0,0,0-0.1,0-0.1
		C377.2,517.7,385.5,517.7,385.8,523"/>
	<path class="st1" d="M430.7,620.5c0,2.9,2.4,5.3,5.3,5.3c2.9,0,5.3-2.4,5.3-5.3c0-2.9-2.4-5.3-5.3-5.3
		C433,615.1,430.7,617.5,430.7,620.5"/>
	<path class="st1" d="M145.7,533.3c0,2.9,2.4,5.3,5.3,5.3s5.3-2.4,5.3-5.3c0-2.9-2.4-5.3-5.3-5.3S145.7,530.4,145.7,533.3"/>
	<path class="st1" d="M20.7,587.2l17.3-5.3l-2.9,5.1c-1.8-5.9-3.7-11.9-5.5-17.8c1.7,1,3.4,1.9,5.1,2.9l-17.3,5.3l2.9-5.1
		c1.8,5.9,3.7,11.9,5.5,17.8c1.6,5.1-6.4,7.3-8,2.2c-1.8-6-3.6-11.9-5.5-17.8c-0.6-2.2,0.7-4.5,2.9-5.1l17.3-5.3
		c2.2-0.6,4.5,0.7,5.1,2.9c1.8,5.9,3.7,11.9,5.5,17.8c0.6,2.2-0.7,4.5-2.9,5.1l-17.3,5.3C17.8,596.8,15.6,588.8,20.7,587.2"/>
	<g>
		<path class="st1" d="M361,453.6l-21.5,21.5c-1.7,1.5-4.4,1.3-5.9-0.4c-1.3-1.6-1.3-3.9,0-5.4l21.5-21.5c1.7-1.5,4.4-1.3,5.9,0.4
			C362.4,449.7,362.4,452,361,453.6"/>
		<path class="st1" d="M340,447.7l21.6,21.5c1.5,1.7,1.3,4.4-0.4,5.9c-1.6,1.3-3.9,1.3-5.4,0l-21.5-21.5c-1.6-1.6-1.6-4.2,0-5.9
			C335.7,446.1,338.3,446.1,340,447.7"/>
	</g>
	<g>
		<path class="st1" d="M202.8,400.7l-28.9,9.7c-5.1,1.7-7.2-6.3-2.2-8l28.8-9.7C205.6,391,207.8,399,202.8,400.7"/>
		<path class="st1" d="M186.9,386.2l9.7,28.9c1.7,5.1-6.3,7.2-8,2.2l-9.7-28.9C177.2,383.3,185.2,381.2,186.9,386.2"/>
	</g>
	<g>
		<path class="st1" d="M54.8,452.4l-28.2,11.4c-5,2-7.1-6-2.2-8l28.2-11.4C57.6,442.4,59.7,450.5,54.8,452.4"/>
		<path class="st1" d="M38.4,439.1c3.8,9.4,7.6,18.8,11.4,28.2c2,5-6,7.1-8,2.2l-11.4-28.2C28.4,436.3,36.5,434.2,38.4,439.1"/>
	</g>
	<g>
		<path class="st1" d="M663.8,149.8c2.3,9.9,4.6,19.7,6.9,29.6c1.2,5.2-6.8,7.4-8,2.2c-2.3-9.9-4.6-19.7-6.9-29.6
			C654.6,146.8,662.5,144.6,663.8,149.8"/>
		<path class="st1" d="M647.6,164.8l29.7-6.9c5.2-1.2,7.4,6.8,2.2,8l-29.6,7C644.6,174,642.4,166,647.6,164.8"/>
	</g>
	<path class="st1" d="M80.3,172.2c0.5,9,14.1,9.1,14.1,0S80.8,163.2,80.3,172.2c-0.3,5.3-8.6,5.3-8.3,0c0-8.5,6.9-15.3,15.3-15.3
		c8.5,0,15.3,6.9,15.3,15.3c0,8.2-6.5,15-14.7,15.3c-8.6,0.2-15.8-6.6-16-15.2c0,0,0,0,0-0.1C71.7,166.9,80,166.9,80.3,172.2"/>
	<path class="st1" d="M826.3,133.6c0,2.9,2.4,5.3,5.3,5.3c2.9,0,5.3-2.4,5.3-5.3s-2.4-5.3-5.3-5.3
		C828.6,128.3,826.3,130.7,826.3,133.6"/>
	<path class="st1" d="M708.8,155.4c0,2.9,2.4,5.3,5.3,5.3c2.9,0,5.3-2.4,5.3-5.3c0-2.9-2.4-5.3-5.3-5.3
		C711.1,150.1,708.8,152.5,708.8,155.4"/>
	<path class="st1" d="M85.9,220.4c0,2.9,2.4,5.3,5.3,5.3s5.3-2.4,5.3-5.3c0-2.9-2.4-5.3-5.3-5.3S85.9,217.5,85.9,220.4"/>
	<path class="st1" d="M20.6,265c0.5,9,14.1,9.1,14.1,0C34.7,255.9,21.1,256,20.6,265c-0.3,5.3-8.6,5.3-8.3,0
		c0-8.5,6.8-15.4,15.3-15.4c8.5,0,15.4,6.8,15.4,15.3c0,8.2-6.5,15-14.7,15.4c-8.6,0.2-15.8-6.6-16-15.2c0,0,0-0.1,0-0.1
		C12.1,259.7,20.3,259.7,20.6,265"/>
	<path class="st1" d="M784.6,331.4c0.5,9,14.1,9.1,14.1,0S785.2,322.3,784.6,331.4c-0.3,5.3-8.6,5.3-8.3,0c0-8.5,6.8-15.4,15.3-15.4
		c8.5,0,15.4,6.8,15.4,15.3c0,8.3-6.5,15.1-14.7,15.4c-8.6,0.2-15.8-6.6-16-15.2c0,0,0,0,0,0C776.1,326,784.4,326,784.6,331.4"/>
	<path class="st1" d="M112.7,611.4c0.5,9,14.1,9.1,14.1,0C126.8,602.3,113.2,602.4,112.7,611.4c-0.3,5.3-8.6,5.3-8.3,0
		c0-8.5,6.8-15.4,15.3-15.4c8.5,0,15.4,6.8,15.4,15.3c0,8.3-6.5,15-14.7,15.4c-8.6,0.2-15.8-6.6-16-15.2c0,0,0,0,0-0.1
		C104.2,606.1,112.4,606.1,112.7,611.4"/>
	<path class="st1" d="M495.9,223.1c0,2.9,2.4,5.3,5.3,5.3s5.3-2.4,5.3-5.3c0-2.9-2.4-5.3-5.3-5.3S495.9,220.2,495.9,223.1"/>
	<g>
		<path class="st1" d="M282.7,505.3l-21.5,21.5c-1.7,1.5-4.4,1.3-5.9-0.4c-1.3-1.6-1.3-3.9,0-5.4l21.5-21.5c1.7-1.5,4.4-1.3,5.9,0.4
			C284,501.5,284,503.8,282.7,505.3"/>
		<path class="st1" d="M261.6,499.5l21.6,21.5c1.5,1.7,1.3,4.4-0.4,5.9c-1.6,1.3-3.9,1.3-5.4,0l-21.5-21.5c-1.6-1.6-1.6-4.2,0-5.9
			C257.4,497.9,260,497.9,261.6,499.5"/>
	</g>
	<g>
		<path class="st1" d="M878.6,289.1l-28.8,9.7c-5.1,1.7-7.2-6.3-2.2-8l28.9-9.6c5.1-1.7,7.3,6.3,2.2,8"/>
		<path class="st1" d="M862.7,274.7l9.7,28.9c1.7,5.1-6.3,7.3-8,2.2c-3.2-9.6-6.5-19.2-9.7-28.9C853,271.8,861,269.6,862.7,274.7"/>
	</g>
	<g>
		<path class="st1" d="M568.2,179.2L540,190.6c-5,2-7.1-6-2.2-8l28.2-11.4C570.9,169.2,573.1,177.3,568.2,179.2"/>
		<path class="st1" d="M551.8,165.9c3.8,9.4,7.6,18.8,11.4,28.2c2,5-6,7.1-8,2.2l-11.4-28.2C541.8,163.1,549.8,161,551.8,165.9"/>
	</g>
	<path class="st1" d="M155.6,81c-7.2,5.4,0.3,16.8,7.9,11.7C171,87.7,163.4,76.4,155.6,81c-4.6,2.7-9.2-4.1-4.6-6.9
		c6.8-5,16.5-3.5,21.5,3.3c5,6.8,3.5,16.5-3.3,21.5c-0.3,0.3-0.7,0.5-1.1,0.7c-7.2,4.4-16.7,2.1-21.1-5.1c-4.2-6.8-2.4-15.7,4-20.4
		C155.3,70.9,159.9,77.8,155.6,81"/>
	<path class="st1" d="M702,55.1l14.1,11.4l-5.9,0.4c3.9-4.8,7.8-9.7,11.7-14.5c0.2,2,0.3,3.9,0.4,5.9l-14.1-11.4l5.9-0.4
		c-3.9,4.8-7.8,9.7-11.7,14.5c-3.4,4.2-9.6-1.3-6.3-5.4c3.9-4.8,7.8-9.6,11.7-14.5c1.5-1.7,4.1-1.9,5.9-0.4l14.1,11.4
		c1.7,1.5,1.9,4.1,0.4,5.8c-3.9,4.8-7.8,9.7-11.7,14.5c-1.5,1.7-4.1,1.9-5.9,0.4l-14.1-11.4C692.4,58.1,697.8,51.8,702,55.1"/>
	<path class="st1" d="M938.3,418.6c2.9,0,5.3-2.4,5.3-5.3c0-2.9-2.4-5.3-5.3-5.3s-5.3,2.4-5.3,5.3
		C933,416.2,935.4,418.6,938.3,418.6"/>
	<path class="st1" d="M1084.8,433.1c2.9,0,5.3-2.4,5.3-5.3s-2.4-5.3-5.3-5.3c-2.9,0-5.3,2.4-5.3,5.3S1081.8,433.1,1084.8,433.1"/>
	<path class="st1" d="M870.3,538l-5.3-17.3l5.1,2.9c-5.9,1.8-11.9,3.7-17.8,5.5c1-1.7,1.9-3.4,2.9-5.1l5.3,17.3l-5.1-2.9
		c5.9-1.8,11.9-3.7,17.8-5.5c5.1-1.6,7.3,6.4,2.2,8c-6,1.8-11.9,3.6-17.8,5.5c-2.2,0.6-4.5-0.7-5.1-2.9l-5.3-17.3
		c-0.6-2.2,0.7-4.5,2.9-5.1c5.9-1.8,11.9-3.7,17.8-5.5c2.2-0.6,4.5,0.7,5.1,2.9l5.3,17.3C880,540.9,871.9,543.1,870.3,538"/>
	<path class="st1" d="M763.6,544.2l-5.3-17.3l5.1,2.9c-5.9,1.8-11.9,3.7-17.8,5.5c1-1.7,1.9-3.4,2.9-5.1l5.3,17.3l-5.1-2.9
		c5.9-1.8,11.9-3.7,17.8-5.5c5.1-1.6,7.3,6.4,2.2,8c-6,1.8-11.9,3.6-17.8,5.5c-2.2,0.6-4.5-0.7-5.1-2.9l-5.3-17.3
		c-0.6-2.2,0.7-4.5,2.9-5.1c5.9-1.8,11.9-3.7,17.8-5.5c2.2-0.6,4.5,0.7,5.1,2.9l5.3,17.3C773.2,547.1,765.2,549.2,763.6,544.2"/>
	<g>
		<path class="st1" d="M593.8,508.2l21.5,21.5c1.5,1.7,1.3,4.4-0.4,5.9c-1.6,1.3-3.9,1.3-5.4,0L587.9,514c-1.5-1.7-1.3-4.4,0.4-5.9
			C589.9,506.8,592.2,506.8,593.8,508.2"/>
		<path class="st1" d="M587.9,529.2l21.5-21.6c1.7-1.5,4.4-1.3,5.9,0.4c1.3,1.6,1.3,3.9,0,5.4l-21.5,21.5c-1.6,1.6-4.2,1.6-5.9,0
			C586.3,533.5,586.3,530.9,587.9,529.2"/>
	</g>
	<path class="st1" d="M137.9,39.6l11.4-14.1l0.4,5.9c-4.8-3.9-9.7-7.8-14.5-11.7c2-0.2,3.9-0.3,5.9-0.4l-11.4,14.1l-0.4-5.9
		c4.8,3.9,9.7,7.8,14.5,11.7c4.2,3.4-1.3,9.6-5.4,6.3c-4.8-3.9-9.6-7.8-14.5-11.7c-1.7-1.5-1.9-4.1-0.4-5.9l11.4-14.1
		c1.5-1.7,4.1-1.9,5.8-0.4c4.8,3.9,9.7,7.8,14.5,11.7c1.7,1.5,1.9,4.1,0.4,5.9L144.2,45C140.9,49.2,134.6,43.7,137.9,39.6"/>
</g>
<g id="Sprinkles_dark_1_" class="st0">
	<g>
		<path class="st1" d="M1425.3,117.6c9.9-2.3,19.7-4.6,29.6-6.9c5.2-1.2,7.4,6.8,2.2,8c-9.9,2.3-19.7,4.6-29.6,6.9
			C1422.4,126.8,1420.1,118.9,1425.3,117.6"/>
		<path class="st1" d="M1440.3,133.8l-6.9-29.7c-1.2-5.2,6.8-7.4,8-2.2l7,29.6C1449.5,136.8,1441.5,139,1440.3,133.8"/>
	</g>
	<g>
		<path class="st1" d="M1360.6,365.6l28.8,9.8c5,1.7,2.9,9.7-2.2,8c-9.6-3.3-19.2-6.6-28.8-9.9
			C1353.3,371.8,1355.5,363.8,1360.6,365.6"/>
		<path class="st1" d="M1364.7,387.3l9.9-28.8c1.7-5,9.7-2.9,8,2.2l-9.9,28.8C1371,394.5,1363,392.4,1364.7,387.3"/>
	</g>
	<path class="st1" d="M1327.9,267c2.9,0,5.3-2.4,5.3-5.3c0-2.9-2.4-5.3-5.3-5.3c-2.9,0-5.3,2.4-5.3,5.3
		C1322.6,264.6,1324.9,267,1327.9,267"/>
	<path class="st1" d="M1649,393.3c9-0.5,9.1-14.1,0-14.1C1639.9,379.2,1640,392.8,1649,393.3c5.3,0.3,5.3,8.6,0,8.3
		c-8.5,0.4-15.6-6.2-16-14.7c-0.4-8.5,6.2-15.6,14.7-16c0.4,0,0.9,0,1.3,0c8.5,0.4,15.1,7.5,14.7,16c-0.3,8-6.7,14.4-14.7,14.7
		C1643.7,401.9,1643.7,393.6,1649,393.3"/>
	<path class="st1" d="M1468.5,440.4c9-0.5,9.1-14.1,0-14.1C1459.4,426.3,1459.5,439.9,1468.5,440.4c5.3,0.3,5.3,8.6,0,8.3
		c-8.5,0-15.4-6.8-15.4-15.3c0-8.5,6.8-15.4,15.3-15.4c8.2,0,15,6.5,15.4,14.7c0.2,8.6-6.6,15.8-15.2,16c0,0-0.1,0-0.1,0
		C1463.2,449,1463.2,440.7,1468.5,440.4"/>
	<path class="st1" d="M1576.4,298l-5.3-17.3l5.1,2.9c-5.9,1.8-11.9,3.7-17.8,5.5c1-1.7,1.9-3.4,2.9-5.1l5.3,17.3l-5.1-2.9
		c5.9-1.8,11.9-3.7,17.8-5.5c5.1-1.6,7.3,6.4,2.2,8c-5.9,1.8-11.9,3.6-17.8,5.5c-2.2,0.6-4.5-0.7-5.1-2.9l-5.3-17.3
		c-0.6-2.2,0.7-4.5,2.9-5.1c5.9-1.8,11.9-3.7,17.8-5.5c2.2-0.6,4.5,0.7,5.1,2.9l5.3,17.3C1586,300.9,1578,303.1,1576.4,298"/>
	<path class="st1" d="M1727.3,471.7c9-0.5,9.1-14.1,0-14.1C1718.2,457.6,1718.3,471.2,1727.3,471.7c5.3,0.3,5.3,8.6,0,8.3
		c-8.5,0-15.3-6.9-15.3-15.3c0-8.5,6.9-15.3,15.3-15.3c8.2,0,15,6.5,15.3,14.7c0.2,8.6-6.6,15.8-15.2,16c0,0-0.1,0-0.1,0
		C1722,480.2,1722,471.9,1727.3,471.7"/>
	<path class="st1" d="M1717.7,206.6c9-0.5,9.1-14.1,0-14.1S1708.7,206.1,1717.7,206.6c5.3,0.3,5.3,8.6,0,8.3
		c-8.5,0-15.4-6.8-15.4-15.3s6.8-15.4,15.3-15.4c8.3,0,15.1,6.5,15.4,14.7c0.2,8.6-6.6,15.8-15.2,16c0,0,0,0,0,0
		C1712.4,215.1,1712.4,206.9,1717.7,206.6"/>
	<path class="st1" d="M1320.5,330.4c6.7,6.1,16.4-3.5,10-10C1324,314,1314.5,323.7,1320.5,330.4c3.6,4-2.3,9.8-5.9,5.9
		c-6-6-6-15.7-0.1-21.7c6-6,15.7-6,21.7-0.1c5.8,5.8,6.1,15.2,0.5,21.3c-6,6.2-15.8,6.5-22.1,0.5c0,0,0,0,0,0
		C1310.7,332.7,1316.5,326.9,1320.5,330.4"/>
	<path class="st1" d="M1336.1,103.2c2.1,2.1,5.5,2.1,7.5,0c2.1-2.1,2.1-5.5,0-7.5c-2.1-2.1-5.5-2.1-7.5,0S1334,101.1,1336.1,103.2"
		/>
	<path class="st1" d="M1194.5,192.4c2.1,2.1,5.5,2.1,7.5,0c2.1-2.1,2.1-5.5,0-7.5c-2.1-2.1-5.5-2.1-7.5,0
		C1192.4,186.9,1192.4,190.3,1194.5,192.4"/>
	<path class="st1" d="M1292.5,506.3c2.1,2.1,5.5,2.1,7.5,0c2.1-2.1,2.1-5.5,0-7.5c-2.1-2.1-5.5-2.1-7.5,0
		C1290.4,500.8,1290.4,504.2,1292.5,506.3"/>
	<path class="st1" d="M1113.5,550.3c2.1,2.1,5.5,2.1,7.5,0c2.1-2.1,2.1-5.5,0-7.5c-2.1-2.1-5.5-2.1-7.5,0S1111.4,548.2,1113.5,550.3
		"/>
	<path class="st1" d="M1114.4,303.8c2.1,2.1,5.5,2.1,7.5,0c2.1-2.1,2.1-5.5,0-7.5c-2.1-2.1-5.5-2.1-7.5,0
		C1112.3,298.3,1112.3,301.7,1114.4,303.8"/>
	<path class="st1" d="M1415.5,269.1c2.1,2.1,5.5,2.1,7.5,0c2.1-2.1,2.1-5.5,0-7.5c-2.1-2.1-5.5-2.1-7.5,0
		C1413.4,263.6,1413.4,267,1415.5,269.1"/>
	<g>
		<path class="st1" d="M1876.9,192.3l13.4,27.3c2.3,4.8-4.8,8.9-7.2,4.1c-4.5-9.1-8.9-18.2-13.4-27.3
			C1867.3,191.6,1874.5,187.5,1876.9,192.3"/>
		<path class="st1" d="M1864.4,210.6l27.3-13.4c4.8-2.3,8.9,4.8,4.1,7.2l-27.3,13.4C1863.7,220.1,1859.6,212.9,1864.4,210.6"/>
	</g>
	<path class="st1" d="M1236.8,301.3l8.5-16l1.5,5.7c-5.5-2.9-11-5.8-16.5-8.7c1.9-0.5,3.8-1.1,5.7-1.5l-8.5,16l-1.5-5.7
		c5.5,2.9,11,5.8,16.5,8.7c4.8,2.5,0.6,9.7-4.1,7.2c-5.5-3-11-5.8-16.5-8.7c-2-1.1-2.7-3.7-1.5-5.7l8.5-16c1.1-2,3.6-2.7,5.6-1.6
		c5.5,2.9,11,5.8,16.5,8.7c2,1.1,2.7,3.7,1.5,5.7l-8.5,16C1241.5,310.1,1234.3,306,1236.8,301.3"/>
	<g>
		<path class="st1" d="M1214.6,110.3l-11.9,28c-2.1,4.9-9.3,0.8-7.2-4.1l11.9-28C1209.5,101.2,1216.7,105.4,1214.6,110.3"/>
		<path class="st1" d="M1193.6,112.4c9.3,4,18.7,7.9,28,11.9c4.9,2.1,0.8,9.3-4.1,7.2l-28-11.9
			C1184.5,117.5,1188.7,110.4,1193.6,112.4"/>
	</g>
	<g>
		<path class="st1" d="M1220.9,416.1c4.5,9.1,8.9,18.2,13.4,27.3c2.3,4.8-4.8,8.9-7.2,4.1c-4.4-9.1-8.9-18.2-13.4-27.3
			C1211.3,415.4,1218.5,411.2,1220.9,416.1"/>
		<path class="st1" d="M1208.4,434.4l27.3-13.4c4.8-2.3,8.9,4.9,4.1,7.2l-27.3,13.4C1207.7,443.9,1203.6,436.7,1208.4,434.4"/>
	</g>
	<g>
		<path class="st1" d="M1552.1,599.9c8.6,5.3,17.2,10.7,25.9,16.1c4.5,2.8,0.4,10-4.1,7.2c-8.6-5.4-17.2-10.7-25.8-16
			C1543.5,604.3,1547.6,597.1,1552.1,599.9"/>
		<path class="st1" d="M1551.2,621.9l16.1-25.9c2.8-4.5,10-0.4,7.2,4.1l-16,25.9C1555.7,630.5,1548.4,626.5,1551.2,621.9"/>
	</g>
	<path class="st1" d="M1412.9,641.9c6.7,6.1,16.4-3.5,10-10C1416.4,625.5,1406.8,635.2,1412.9,641.9c3.6,4-2.3,9.8-5.9,5.9
		c-6-6-6-15.7,0-21.7s15.7-6,21.7,0c5.8,5.8,6,15.2,0.5,21.2c-6,6.2-15.8,6.5-22.1,0.5c0,0,0,0,0,0
		C1403,644.2,1408.9,638.3,1412.9,641.9"/>
	<path class="st1" d="M1686.4,326.4c6.7,6.1,16.4-3.5,10-10C1689.9,310,1680.4,319.7,1686.4,326.4c3.6,4-2.3,9.8-5.9,5.9
		c-6-6-6-15.7-0.1-21.7c6-6,15.7-6,21.7-0.1c5.9,5.8,6.1,15.2,0.5,21.3c-6,6.2-15.8,6.5-22.1,0.5c0,0,0,0,0,0
		C1676.6,328.7,1682.4,322.8,1686.4,326.4"/>
	<path class="st1" d="M1619.2,129.6c6.8,6,16.4-3.5,10-10S1613.2,122.8,1619.2,129.6c3.6,4-2.3,9.8-5.8,5.8c-6-6-6-15.7,0-21.7
		c6-6,15.7-6,21.7,0c5.8,5.8,6,15.2,0.5,21.2c-5.9,6.2-15.8,6.5-22.1,0.6c0,0-0.1-0.1-0.1-0.1C1609.4,131.9,1615.3,126,1619.2,129.6
		"/>
	<path class="st1" d="M1720.1,166.8c2.1,2.1,5.5,2.1,7.5,0c2.1-2.1,2.1-5.5,0-7.5s-5.5-2.1-7.5,0
		C1718,161.4,1718,164.8,1720.1,166.8"/>
	<path class="st1" d="M1655.6,473.5c2.1,2.1,5.5,2.1,7.5,0c2.1-2.1,2.1-5.5,0-7.5c-2.1-2.1-5.5-2.1-7.5,0
		C1653.5,468.1,1653.5,471.5,1655.6,473.5"/>
	<path class="st1" d="M1587.9,572c2.1,2.1,5.5,2.1,7.5,0s2.1-5.5,0-7.5s-5.5-2.1-7.5,0C1585.8,566.6,1585.8,569.9,1587.9,572"/>
	<path class="st1" d="M1450.9,672c2.1,2.1,5.5,2.1,7.5,0c2.1-2.1,2.1-5.5,0-7.5c-2.1-2.1-5.5-2.1-7.5,0
		C1448.8,666.6,1448.8,670,1450.9,672"/>
	<path class="st1" d="M1749.9,490.3c2.1,2.1,5.5,2.1,7.5,0c2.1-2.1,2.1-5.5,0-7.5c-2.1-2.1-5.5-2.1-7.5,0
		C1747.8,484.9,1747.8,488.3,1749.9,490.3"/>
	<path class="st1" d="M1797.9,370.6c2,2,5.2,2,7.2,0c2-2,2-5.2,0-7.2s-5.2-2-7.2,0c0,0,0,0,0,0C1796,365.4,1796,368.6,1797.9,370.6"
		/>
	<path class="st1" d="M1813.4,280.6c2.1,2.1,5.5,2.1,7.5,0c2.1-2.1,2.1-5.5,0-7.5c-2.1-2.1-5.5-2.1-7.5,0
		C1811.3,275.2,1811.3,278.5,1813.4,280.6"/>
	<path class="st1" d="M1587.6,203.2l8.5-16l1.5,5.7c-5.5-2.9-11-5.8-16.5-8.7c1.9-0.5,3.8-1.1,5.7-1.5l-8.5,16l-1.5-5.7
		c5.5,2.9,11,5.8,16.5,8.7c4.8,2.5,0.6,9.7-4.1,7.2c-5.5-3-11-5.8-16.5-8.7c-2-1.1-2.7-3.7-1.5-5.7l8.5-16c1.1-2,3.6-2.7,5.6-1.6
		c5.5,2.9,11,5.8,16.5,8.7c2,1.1,2.7,3.7,1.5,5.7l-8.5,16C1592.3,212,1585.1,207.9,1587.6,203.2"/>
	<path class="st1" d="M1765.9,642.8c6.7,6,16.4-3.5,10-10C1769.5,626.4,1759.9,636,1765.9,642.8c3.6,4-2.3,9.8-5.9,5.9
		c-6-6-6.1-15.7-0.1-21.7c6-6,15.7-6.1,21.7-0.1c5.9,5.8,6.1,15.2,0.5,21.3c-6,6.2-15.8,6.5-22.1,0.5c0,0,0,0,0,0
		C1756.1,645.1,1762,639.2,1765.9,642.8"/>
	<path class="st1" d="M1368,181.7c6.7,6.1,16.4-3.5,10-10C1371.5,165.3,1361.9,175,1368,181.7c3.6,4-2.3,9.8-5.9,5.9
		c-6-6-6-15.7-0.1-21.7c6-6,15.7-6,21.7-0.1c5.9,5.8,6.1,15.2,0.5,21.3c-6,6.2-15.8,6.5-22.1,0.5c0,0,0,0,0,0
		C1358.1,184,1364,178.2,1368,181.7"/>
	<path class="st1" d="M1857,584.2c2.1,2.1,5.5,2.1,7.5,0c2.1-2.1,2.1-5.5,0-7.5c-2.1-2.1-5.5-2.1-7.5,0
		C1854.9,578.8,1854.9,582.1,1857,584.2"/>
	<path class="st1" d="M1507.7,132.1l8.5-16l1.5,5.7c-5.5-2.9-11-5.8-16.5-8.7c1.9-0.5,3.8-1.1,5.7-1.5l-8.5,16l-1.5-5.7
		c5.5,2.9,11,5.8,16.5,8.7c4.8,2.5,0.6,9.7-4.1,7.2c-5.5-3-11-5.8-16.5-8.7c-2-1.1-2.7-3.7-1.5-5.7l8.5-16c1.1-2,3.6-2.7,5.6-1.6
		c5.5,2.9,11,5.8,16.5,8.7c2,1.1,2.7,3.7,1.5,5.7l-8.5,16C1512.5,140.9,1505.3,136.8,1507.7,132.1"/>
	<g>
		<path class="st1" d="M1802.5,546.5l-13.5,27.2c-2.4,4.8-9.6,0.7-7.2-4.1l13.6-27.2C1797.8,537.5,1805,541.6,1802.5,546.5"/>
		<path class="st1" d="M1781.1,547.5l27.3,13.6c4.8,2.4,0.7,9.6-4.1,7.2c-9.1-4.5-18.2-9-27.3-13.6
			C1772.2,552.3,1776.3,545.1,1781.1,547.5"/>
	</g>
	<g>
		<path class="st1" d="M1465.3,271.9l-15.2,26.3c-2.7,4.6-10.1,0.9-7.4-3.7c5.1-8.8,10.2-17.6,15.3-26.3
			C1460.6,263.6,1468,267.3,1465.3,271.9"/>
		<path class="st1" d="M1443.2,271.8l26.3,15.3c4.6,2.7,0.9,10.1-3.7,7.4l-26.3-15.3C1434.9,276.5,1438.6,269.1,1443.2,271.8"/>
	</g>
	<path class="st1" d="M1263.1,623.8c6.7,6.1,16.4-3.5,10-10C1266.6,607.4,1257.1,617.1,1263.1,623.8c3.6,4-2.3,9.8-5.9,5.9
		c-6-6-6-15.7,0-21.7s15.7-6,21.7,0c5.8,5.8,6,15.2,0.5,21.2c-6,6.2-15.8,6.5-22.1,0.5c0,0,0,0,0,0
		C1253.3,626.1,1259.1,620.3,1263.1,623.8"/>
	<path class="st1" d="M1401.6,524.1c-1.3,8.9,12.1,11.7,13.8,2.7C1417.2,518,1403.9,515.4,1401.6,524.1c-1.3,5.2-9.4,3.6-8.1-1.6
		c1.3-8.4,9.1-14.1,17.5-12.8s14.1,9.1,12.8,17.5c-0.1,0.4-0.1,0.8-0.2,1.3c-2,8.2-10.3,13.3-18.5,11.3c-7.8-1.9-12.8-9.4-11.6-17.3
		C1394.3,517.2,1402.4,518.9,1401.6,524.1"/>
	<path class="st1" d="M1527.7,358.8c-1.3,8.9,12.1,11.7,13.8,2.7C1543.3,352.6,1530,350,1527.7,358.8c-1.3,5.2-9.4,3.6-8.1-1.6
		c1.6-8.3,9.7-13.7,18-12.1c8.3,1.6,13.7,9.7,12.1,18c-1.6,8.1-9.2,13.5-17.4,12.2c-8.5-1.5-14.2-9.5-12.7-18c0,0,0-0.1,0-0.1
		C1520.4,351.9,1528.5,353.5,1527.7,358.8"/>
	<path class="st1" d="M1512.2,505.9l18-1.9l-3.8,4.4c-0.7-6.2-1.3-12.4-2-18.5c1.5,1.3,3,2.5,4.4,3.8l-18,1.9l3.8-4.4
		c0.7,6.2,1.3,12.4,2,18.5c0.6,5.3-7.7,5.9-8.3,0.6c-0.6-6.2-1.3-12.3-2-18.5c-0.2-2.3,1.6-4.3,3.8-4.4l18-1.9
		c2.3-0.1,4.2,1.5,4.4,3.8c0.7,6.2,1.3,12.4,2,18.5c0.2,2.3-1.6,4.3-3.8,4.4l-18,1.9C1507.5,514.8,1506.9,506.5,1512.2,505.9"/>
	<path class="st1" d="M1848.7,284.6c9-0.5,9.1-14.1,0-14.1S1839.7,284.1,1848.7,284.6c5.3,0.3,5.3,8.6,0,8.3
		c-8.5,0-15.3-6.9-15.3-15.3c0-8.5,6.9-15.3,15.3-15.3c8.2,0,15,6.5,15.3,14.7c0.2,8.6-6.6,15.8-15.2,16c0,0,0,0-0.1,0
		C1843.4,293.2,1843.4,284.9,1848.7,284.6"/>
	<path class="st1" d="M1912.4,275.7c2.9,0,5.3-2.4,5.3-5.3c0-2.9-2.4-5.3-5.3-5.3s-5.3,2.4-5.3,5.3
		C1907.1,273.3,1909.5,275.7,1912.4,275.7"/>
	<path class="st1" d="M1788.8,285.7c2.9,0,5.3-2.4,5.3-5.3c0-2.9-2.4-5.3-5.3-5.3s-5.3,2.4-5.3,5.3
		C1783.5,283.3,1785.9,285.7,1788.8,285.7"/>
	<path class="st1" d="M1740.7,100.8c2.9,0,5.3-2.4,5.3-5.3c0-2.9-2.4-5.3-5.3-5.3s-5.3,2.4-5.3,5.3
		C1735.4,98.4,1737.8,100.8,1740.7,100.8"/>
	<g>
		<path class="st1" d="M1675.5,112.6l9.7,28.8c1.7,5.1-6.3,7.2-8,2.2l-9.6-28.9c-1.7-5.1,6.3-7.3,8-2.2"/>
		<path class="st1" d="M1661.1,128.5l28.9-9.7c5.1-1.7,7.3,6.3,2.2,8c-9.6,3.2-19.2,6.5-28.9,9.7
			C1658.2,138.2,1656,130.2,1661.1,128.5"/>
	</g>
	<g>
		<path class="st1" d="M1885.4,104.9c9.6,3.3,19.2,6.6,28.8,9.9c5,1.7,2.9,9.7-2.2,8c-9.6-3.3-19.2-6.6-28.8-9.9
			C1878.2,111.1,1880.3,103.1,1885.4,104.9"/>
		<path class="st1" d="M1889.5,126.6l9.9-28.8c1.7-5,9.7-2.9,8,2.2l-9.9,28.8C1895.8,133.8,1887.8,131.7,1889.5,126.6"/>
	</g>
	<path class="st1" d="M1824.8,426.8c2.9,0,5.3-2.4,5.3-5.3c0-2.9-2.4-5.3-5.3-5.3c-2.9,0-5.3,2.4-5.3,5.3
		C1819.4,424.4,1821.8,426.8,1824.8,426.8"/>
	<path class="st1" d="M1737.6,711.8c2.9,0,5.3-2.4,5.3-5.3s-2.4-5.3-5.3-5.3c-2.9,0-5.3,2.4-5.3,5.3S1734.7,711.8,1737.6,711.8"/>
	<g>
		<path class="st1" d="M1657.8,496.4l21.5,21.5c1.5,1.7,1.3,4.4-0.4,5.9c-1.6,1.3-3.9,1.3-5.4,0l-21.5-21.5
			c-1.5-1.7-1.3-4.4,0.4-5.9C1654,495.1,1656.3,495.1,1657.8,496.4"/>
		<path class="st1" d="M1652,517.5l21.5-21.6c1.7-1.5,4.4-1.3,5.9,0.4c1.3,1.6,1.3,3.9,0,5.4l-21.5,21.5c-1.6,1.6-4.2,1.6-5.9,0
			C1650.4,521.7,1650.4,519.1,1652,517.5"/>
	</g>
	<g>
		<path class="st1" d="M1605,654.7l9.7,28.9c1.7,5.1-6.3,7.2-8,2.2l-9.7-28.8C1595.3,651.8,1603.3,649.6,1605,654.7"/>
		<path class="st1" d="M1590.5,670.6l28.9-9.7c5.1-1.7,7.2,6.3,2.2,8l-28.9,9.7C1587.6,680.3,1585.4,672.3,1590.5,670.6"/>
	</g>
	<path class="st1" d="M1501.6,589.6c0.5,9,14.1,9.1,14.1,0C1515.7,580.5,1502.1,580.6,1501.6,589.6c-0.3,5.3-8.6,5.3-8.3,0
		c0-8.5,6.9-15.3,15.3-15.3c8.5,0,15.3,6.9,15.3,15.3c0,8.2-6.5,15-14.7,15.3c-8.6,0.2-15.8-6.6-16-15.2c0,0,0-0.1,0-0.1
		C1493,584.3,1501.3,584.3,1501.6,589.6"/>
	<path class="st1" d="M1546.5,687.1c0,2.9,2.4,5.3,5.3,5.3s5.3-2.4,5.3-5.3c0-2.9-2.4-5.3-5.3-5.3S1546.5,684.1,1546.5,687.1"/>
	<path class="st1" d="M1261.5,599.9c0,2.9,2.4,5.3,5.3,5.3c2.9,0,5.3-2.4,5.3-5.3s-2.4-5.3-5.3-5.3
		C1263.9,594.6,1261.5,597,1261.5,599.9"/>
	<path class="st1" d="M1098.4,562.9c0,2.9,2.4,5.3,5.3,5.3c2.9,0,5.3-2.4,5.3-5.3c0-2.9-2.4-5.3-5.3-5.3
		C1100.7,557.6,1098.4,560,1098.4,562.9"/>
	<path class="st1" d="M1105.8,681.1l17.3-5.3l-2.9,5.1c-1.8-5.9-3.7-11.9-5.5-17.8c1.7,1,3.4,1.9,5.1,2.9l-17.3,5.3l2.9-5.1
		c1.8,5.9,3.7,11.9,5.5,17.8c1.6,5.1-6.4,7.3-8,2.2c-1.8-6-3.6-11.9-5.5-17.8c-0.6-2.2,0.7-4.5,2.9-5.1l17.3-5.3
		c2.2-0.6,4.5,0.7,5.1,2.9c1.8,5.9,3.7,11.9,5.5,17.8c0.6,2.2-0.7,4.5-2.9,5.1l-17.3,5.3C1102.9,690.7,1100.7,682.7,1105.8,681.1"/>
	<g>
		<path class="st1" d="M1476.9,520.2l-21.5,21.5c-1.7,1.5-4.4,1.3-5.9-0.4c-1.3-1.6-1.3-3.9,0-5.4l21.5-21.5
			c1.7-1.5,4.4-1.3,5.9,0.4C1478.2,516.3,1478.2,518.6,1476.9,520.2"/>
		<path class="st1" d="M1455.8,514.3l21.6,21.5c1.5,1.7,1.3,4.4-0.4,5.9c-1.6,1.3-3.9,1.3-5.4,0l-21.5-21.5c-1.6-1.6-1.6-4.2,0-5.9
			C1451.5,512.7,1454.2,512.7,1455.8,514.3"/>
	</g>
	<g>
		<path class="st1" d="M1318.6,467.3l-28.9,9.7c-5.1,1.7-7.2-6.3-2.2-8l28.8-9.7C1321.5,457.6,1323.6,465.6,1318.6,467.3"/>
		<path class="st1" d="M1302.7,452.8l9.7,28.9c1.7,5.1-6.3,7.2-8,2.2l-9.7-28.9C1293,449.9,1301,447.8,1302.7,452.8"/>
	</g>
	<g>
		<path class="st1" d="M1170.6,519l-28.2,11.4c-5,2-7.1-6-2.2-8l28.2-11.4C1173.4,509,1175.5,517.1,1170.6,519"/>
		<path class="st1" d="M1154.2,505.7c3.8,9.4,7.6,18.8,11.4,28.2c2,5-6,7.1-8,2.2l-11.4-28.2
			C1144.2,502.9,1152.3,500.8,1154.2,505.7"/>
	</g>
	<g>
		<path class="st1" d="M1779.6,216.4c2.3,9.9,4.6,19.7,6.9,29.6c1.2,5.2-6.8,7.4-8,2.2c-2.3-9.9-4.6-19.7-6.9-29.6
			C1770.4,213.4,1778.3,211.2,1779.6,216.4"/>
		<path class="st1" d="M1763.4,231.4l29.7-6.9c5.2-1.2,7.4,6.8,2.2,8l-29.6,7C1760.4,240.6,1758.2,232.6,1763.4,231.4"/>
	</g>
	<path class="st1" d="M1196.1,238.8c0.5,9,14.1,9.1,14.1,0C1210.2,229.7,1196.6,229.8,1196.1,238.8c-0.3,5.3-8.6,5.3-8.3,0
		c0-8.5,6.9-15.3,15.3-15.3c8.5,0,15.3,6.9,15.3,15.3c0,8.2-6.5,15-14.7,15.3c-8.6,0.2-15.8-6.6-16-15.2c0,0,0,0,0-0.1
		C1187.5,233.5,1195.8,233.5,1196.1,238.8"/>
	<path class="st1" d="M1824.6,222c0,2.9,2.4,5.3,5.3,5.3s5.3-2.4,5.3-5.3s-2.4-5.3-5.3-5.3S1824.6,219.1,1824.6,222"/>
	<path class="st1" d="M1201.7,287c0,2.9,2.4,5.3,5.3,5.3s5.3-2.4,5.3-5.3s-2.4-5.3-5.3-5.3S1201.7,284.1,1201.7,287"/>
	<path class="st1" d="M1136.4,331.6c0.5,9,14.1,9.1,14.1,0S1136.9,322.6,1136.4,331.6c-0.3,5.3-8.6,5.3-8.3,0
		c0-8.5,6.8-15.4,15.3-15.4c8.5,0,15.4,6.8,15.4,15.3c0,8.2-6.5,15-14.7,15.4c-8.6,0.2-15.8-6.6-16-15.2c0,0,0-0.1,0-0.1
		C1127.9,326.3,1136.2,326.3,1136.4,331.6"/>
	<path class="st1" d="M1890.5,398c0.5,9,14.1,9.1,14.1,0S1891,388.9,1890.5,398c-0.3,5.3-8.6,5.3-8.3,0c0-8.5,6.8-15.4,15.3-15.4
		c8.5,0,15.4,6.8,15.4,15.3c0,8.3-6.5,15.1-14.7,15.4c-8.6,0.2-15.8-6.6-16-15.2c0,0,0,0,0,0C1881.9,392.6,1890.2,392.6,1890.5,398"
		/>
	<path class="st1" d="M1228.5,678c0.5,9,14.1,9.1,14.1,0C1242.7,668.9,1229,669,1228.5,678c-0.3,5.3-8.6,5.3-8.3,0
		c0-8.5,6.8-15.4,15.3-15.4c8.5,0,15.4,6.8,15.4,15.3c0,8.3-6.5,15-14.7,15.4c-8.6,0.2-15.8-6.6-16-15.2c0,0,0,0,0-0.1
		C1220,672.7,1228.3,672.7,1228.5,678"/>
	<path class="st1" d="M1611.7,289.7c0,2.9,2.4,5.3,5.3,5.3s5.3-2.4,5.3-5.3c0-2.9-2.4-5.3-5.3-5.3S1611.7,286.8,1611.7,289.7"/>
	<g>
		<path class="st1" d="M1398.5,571.9l-21.5,21.5c-1.7,1.5-4.4,1.3-5.9-0.4c-1.3-1.6-1.3-3.9,0-5.4l21.5-21.5
			c1.7-1.5,4.4-1.3,5.9,0.4C1399.8,568.1,1399.8,570.4,1398.5,571.9"/>
		<path class="st1" d="M1377.4,566.1l21.6,21.5c1.5,1.7,1.3,4.4-0.4,5.9c-1.6,1.3-3.9,1.3-5.4,0l-21.5-21.5c-1.6-1.6-1.6-4.2,0-5.9
			C1373.2,564.5,1375.8,564.5,1377.4,566.1"/>
	</g>
	<g>
		<path class="st1" d="M1684,245.8l-28.2,11.4c-5,2-7.1-6-2.2-8l28.2-11.4C1686.8,235.8,1688.9,243.9,1684,245.8"/>
		<path class="st1" d="M1667.6,232.5c3.8,9.4,7.6,18.8,11.4,28.2c2,5-6,7.1-8,2.2l-11.4-28.2
			C1657.6,229.7,1665.6,227.6,1667.6,232.5"/>
	</g>
	<path class="st1" d="M1103,120.2c0.5,9,14.1,9.1,14.1,0S1103.5,111.1,1103,120.2c-0.3,5.3-8.6,5.3-8.3,0c0-8.5,6.9-15.3,15.3-15.3
		c8.5,0,15.3,6.9,15.3,15.3c0,8.2-6.5,15-14.7,15.3c-8.6,0.2-15.8-6.6-16-15.2c0,0,0,0,0-0.1C1094.4,114.8,1102.7,114.8,1103,120.2"
		/>
	<path class="st1" d="M1271.4,147.6c-7.2,5.4,0.3,16.8,7.9,11.7S1279.2,143,1271.4,147.6c-4.6,2.7-9.2-4.1-4.6-6.9
		c6.8-5,16.5-3.5,21.5,3.3s3.5,16.5-3.3,21.5c-0.3,0.3-0.7,0.5-1.1,0.7c-7.2,4.4-16.7,2.1-21.1-5.1c-4.2-6.8-2.4-15.7,4-20.4
		C1271.1,137.5,1275.7,144.4,1271.4,147.6"/>
	<path class="st1" d="M1817.8,121.7l14.1,11.4l-5.9,0.4c3.9-4.8,7.8-9.7,11.7-14.5c0.2,2,0.3,3.9,0.4,5.9l-14.1-11.4l5.9-0.4
		c-3.9,4.8-7.8,9.7-11.7,14.5c-3.4,4.2-9.6-1.3-6.3-5.4c3.9-4.8,7.8-9.6,11.7-14.5c1.5-1.7,4.1-1.9,5.9-0.4l14.1,11.4
		c1.7,1.5,1.9,4.1,0.4,5.8c-3.9,4.8-7.8,9.7-11.7,14.5c-1.5,1.7-4.1,1.9-5.9,0.4l-14.1-11.4C1808.2,124.7,1813.7,118.4,1817.8,121.7
		"/>
	<path class="st1" d="M1879.4,610.8l-5.3-17.3l5.1,2.9c-5.9,1.8-11.9,3.7-17.8,5.5c1-1.7,1.9-3.4,2.9-5.1l5.3,17.3l-5.1-2.9
		c5.9-1.8,11.9-3.7,17.8-5.5c5.1-1.6,7.3,6.4,2.2,8c-6,1.8-11.9,3.6-17.8,5.5c-2.2,0.6-4.5-0.7-5.1-2.9l-5.3-17.3
		c-0.6-2.2,0.7-4.5,2.9-5.1c5.9-1.8,11.9-3.7,17.8-5.5c2.2-0.6,4.5,0.7,5.1,2.9l5.3,17.3C1889,613.7,1881,615.8,1879.4,610.8"/>
	<g>
		<path class="st1" d="M1709.6,574.8l21.5,21.5c1.5,1.7,1.3,4.4-0.4,5.9c-1.6,1.3-3.9,1.3-5.4,0l-21.5-21.5
			c-1.5-1.7-1.3-4.4,0.4-5.9C1705.7,573.4,1708.1,573.4,1709.6,574.8"/>
		<path class="st1" d="M1703.7,595.8l21.5-21.6c1.7-1.5,4.4-1.3,5.9,0.4c1.3,1.6,1.3,3.9,0,5.4l-21.5,21.5c-1.6,1.6-4.2,1.6-5.9,0
			C1702.1,600.1,1702.1,597.5,1703.7,595.8"/>
	</g>
	<path class="st1" d="M1103.7,220.5c9-0.5,9.1-14.1,0-14.1S1094.7,220,1103.7,220.5c5.3,0.3,5.3,8.6,0,8.3
		c-8.5,0-15.3-6.9-15.3-15.3c0-8.5,6.9-15.3,15.3-15.3c8.2,0,15,6.5,15.3,14.7c0.2,8.6-6.6,15.8-15.2,16c0,0,0,0-0.1,0
		C1098.4,229.1,1098.4,220.8,1103.7,220.5"/>
	<path class="st1" d="M1253.7,106.2l11.4-14.1l0.4,5.9c-4.8-3.9-9.7-7.8-14.5-11.7c2-0.2,3.9-0.3,5.9-0.4l-11.4,14.1l-0.4-5.9
		c4.8,3.9,9.7,7.8,14.5,11.7c4.2,3.4-1.3,9.6-5.4,6.3c-4.8-3.9-9.6-7.8-14.5-11.7c-1.7-1.5-1.9-4.1-0.4-5.9l11.4-14.1
		c1.5-1.7,4.1-1.9,5.8-0.4c4.8,3.9,9.7,7.8,14.5,11.7c1.7,1.5,1.9,4.1,0.4,5.9l-11.4,14.1C1256.7,115.8,1250.4,110.3,1253.7,106.2"
		/>
</g>
<g id="Sprinkles_dark_2_" class="st0">
	<g>
		<path class="st1" d="M273.7,690.5c9.9-2.3,19.7-4.6,29.6-6.9c5.2-1.2,7.4,6.8,2.2,8c-9.9,2.3-19.7,4.6-29.6,6.9
			C270.7,699.7,268.5,691.8,273.7,690.5"/>
		<path class="st1" d="M288.6,706.7l-6.9-29.7c-1.2-5.2,6.8-7.4,8-2.2l7,29.6C297.8,709.7,289.9,711.9,288.6,706.7"/>
	</g>
	<g>
		<path class="st1" d="M208.9,938.5l28.8,9.8c5,1.7,2.9,9.7-2.2,8c-9.6-3.3-19.2-6.6-28.8-9.9C201.7,944.8,203.8,936.7,208.9,938.5"
			/>
		<path class="st1" d="M213,960.2l9.9-28.8c1.7-5,9.7-2.9,8,2.2l-9.9,28.8C219.3,967.5,211.3,965.3,213,960.2"/>
	</g>
	<path class="st1" d="M176.2,839.9c2.9,0,5.3-2.4,5.3-5.3s-2.4-5.3-5.3-5.3s-5.3,2.4-5.3,5.3S173.3,839.9,176.2,839.9"/>
	<path class="st1" d="M497.4,966.2c9-0.5,9.1-14.1,0-14.1S488.3,965.7,497.4,966.2c5.3,0.3,5.3,8.6,0,8.3c-8.5,0.4-15.6-6.2-16-14.7
		s6.2-15.6,14.7-16c0.4,0,0.9,0,1.3,0c8.5,0.4,15.1,7.5,14.7,16c-0.3,8-6.7,14.4-14.7,14.7C492,974.8,492,966.5,497.4,966.2"/>
	<path class="st1" d="M316.8,1013.3c9-0.5,9.1-14.1,0-14.1S307.8,1012.8,316.8,1013.3c5.3,0.3,5.3,8.6,0,8.3
		c-8.5,0-15.4-6.8-15.4-15.3c0-8.5,6.8-15.4,15.3-15.4c8.2,0,15,6.5,15.4,14.7c0.2,8.6-6.6,15.8-15.2,16c0,0-0.1,0-0.1,0
		C311.5,1021.9,311.5,1013.6,316.8,1013.3"/>
	<path class="st1" d="M424.7,870.9l-5.3-17.3l5.1,2.9c-5.9,1.8-11.9,3.7-17.8,5.5c1-1.7,1.9-3.4,2.9-5.1l5.3,17.3l-5.1-2.9
		c5.9-1.8,11.9-3.7,17.8-5.5c5.1-1.6,7.3,6.4,2.2,8c-5.9,1.8-11.9,3.6-17.8,5.5c-2.2,0.6-4.5-0.7-5.1-2.9l-5.3-17.3
		c-0.6-2.2,0.7-4.5,2.9-5.1c5.9-1.8,11.9-3.7,17.8-5.5c2.2-0.6,4.5,0.7,5.1,2.9l5.3,17.3C434.3,873.8,426.3,876,424.7,870.9"/>
	<path class="st1" d="M575.6,1044.6c9-0.5,9.1-14.1,0-14.1C566.5,1030.5,566.6,1044.1,575.6,1044.6c5.3,0.3,5.3,8.6,0,8.3
		c-8.5,0-15.3-6.9-15.3-15.3c0-8.5,6.9-15.3,15.3-15.3c8.2,0,15,6.5,15.3,14.7c0.2,8.6-6.6,15.8-15.2,16c0,0-0.1,0-0.1,0
		C570.3,1053.2,570.3,1044.9,575.6,1044.6"/>
	<path class="st1" d="M566.1,779.5c9-0.5,9.1-14.1,0-14.1C557,765.4,557,779,566.1,779.5c5.3,0.3,5.3,8.6,0,8.3
		c-8.5,0-15.4-6.8-15.4-15.3c0-8.5,6.8-15.4,15.3-15.4c8.3,0,15.1,6.5,15.4,14.7c0.2,8.6-6.6,15.8-15.2,16c0,0,0,0,0,0
		C560.7,788.1,560.7,779.8,566.1,779.5"/>
	<path class="st1" d="M168.8,903.3c6.7,6.1,16.4-3.5,10-10C172.4,886.9,162.8,896.6,168.8,903.3c3.6,4-2.3,9.8-5.9,5.9
		c-6-6-6-15.7-0.1-21.7c6-6,15.7-6,21.7-0.1c5.9,5.8,6.1,15.2,0.5,21.3c-6,6.2-15.8,6.5-22.1,0.5c0,0,0,0,0,0
		C159,905.6,164.9,899.8,168.8,903.3"/>
	<path class="st1" d="M184.4,676.1c2.1,2.1,5.5,2.1,7.5,0c2.1-2.1,2.1-5.5,0-7.5s-5.5-2.1-7.5,0S182.3,674.1,184.4,676.1"/>
	<path class="st1" d="M42.8,765.3c2.1,2.1,5.5,2.1,7.5,0c2.1-2.1,2.1-5.5,0-7.5c-2.1-2.1-5.5-2.1-7.5,0S40.8,763.2,42.8,765.3"/>
	<path class="st1" d="M263.8,842c2.1,2.1,5.5,2.1,7.5,0c2.1-2.1,2.1-5.5,0-7.5c-2.1-2.1-5.5-2.1-7.5,0
		C261.7,836.5,261.7,839.9,263.8,842"/>
	<g>
		<path class="st1" d="M725.2,765.2l13.4,27.3c2.3,4.8-4.8,8.9-7.2,4.1c-4.5-9.1-8.9-18.2-13.4-27.3
			C715.6,764.5,722.8,760.4,725.2,765.2"/>
		<path class="st1" d="M712.7,783.5l27.3-13.4c4.8-2.3,8.9,4.8,4.1,7.2l-27.3,13.4C712.1,793,707.9,785.8,712.7,783.5"/>
	</g>
	<path class="st1" d="M808.7,665.9c6.7,6.1,16.4-3.5,10-10C812.2,649.5,802.6,659.2,808.7,665.9c3.6,4-2.3,9.8-5.9,5.9
		c-6-6-6-15.7,0-21.7c6-6,15.7-6,21.7,0c5.8,5.8,6,15.2,0.5,21.2c-6,6.2-15.8,6.5-22.1,0.5c0,0,0,0,0,0
		C798.9,668.2,804.7,662.4,808.7,665.9"/>
	<path class="st1" d="M901.4,655.7c2.1,2.1,5.5,2.1,7.5,0s2.1-5.5,0-7.5c-2.1-2.1-5.5-2.1-7.5,0
		C899.3,650.2,899.3,653.6,901.4,655.7"/>
	<path class="st1" d="M980.2,753.3c2.1,2.1,5.5,2.1,7.5,0c2.1-2.1,2.1-5.5,0-7.5s-5.5-2.1-7.5,0
		C978.1,747.9,978.1,751.3,980.2,753.3"/>
	<g>
		<path class="st1" d="M1029,1014.9v30.4c-0.2,2.3-2.2,4-4.5,3.8c-2.1-0.2-3.7-1.8-3.8-3.8l0-30.4c0.2-2.3,2.2-4,4.5-3.8
			C1027.2,1011.2,1028.9,1012.9,1029,1014.9"/>
		<path class="st1" d="M1010,1025.7l30.5,0c2.3,0.2,4,2.2,3.8,4.5c-0.2,2.1-1.8,3.7-3.8,3.8H1010c-2.3,0-4.1-1.8-4.1-4.1
			C1005.8,1027.5,1007.7,1025.7,1010,1025.7"/>
	</g>
	<path class="st1" d="M899.3,958.5c6.7,6,16.4-3.5,10-10C902.8,942.1,893.2,951.7,899.3,958.5c3.6,4-2.3,9.8-5.9,5.9
		c-6.2-5.7-6.6-15.5-0.9-21.7s15.5-6.6,21.7-0.9c0.3,0.3,0.6,0.6,0.9,0.9c5.7,6.2,5.3,16-0.9,21.7c-5.9,5.4-14.9,5.4-20.8,0
		C889.5,960.7,895.3,954.9,899.3,958.5"/>
	<path class="st1" d="M832.1,761.7c6.7,6,16.4-3.5,10-10S826.1,754.9,832.1,761.7c3.6,4-2.3,9.8-5.8,5.8c-6-6-6-15.7-0.1-21.7
		c6-6,15.7-6,21.7-0.1c5.8,5.8,6,15.2,0.5,21.2c-5.9,6.2-15.8,6.5-22.1,0.6c0,0,0,0-0.1-0.1C822.3,764,828.1,758.1,832.1,761.7"/>
	<path class="st1" d="M945.7,856.4l8.5-16l1.5,5.7c-5.5-2.9-11-5.8-16.5-8.7c1.9-0.5,3.8-1.1,5.7-1.5l-8.5,16l-1.5-5.7
		c5.5,2.9,11,5.8,16.5,8.7c4.8,2.5,0.6,9.7-4.1,7.2c-5.5-2.9-11-5.8-16.5-8.7c-2-1.1-2.7-3.7-1.5-5.7l8.5-16c1.1-2,3.6-2.7,5.6-1.6
		c5.5,2.9,11,5.8,16.5,8.7c2,1.1,2.7,3.7,1.5,5.7l-8.5,16C950.4,865.3,943.2,861.2,945.7,856.4"/>
	<path class="st1" d="M85.1,874.2l8.5-16l1.5,5.7c-5.5-2.9-11-5.8-16.5-8.7c1.9-0.5,3.8-1.1,5.7-1.5l-8.5,16l-1.5-5.7
		c5.5,2.9,11,5.8,16.5,8.7c4.8,2.5,0.6,9.7-4.1,7.2c-5.5-3-11-5.8-16.5-8.7c-2-1.1-2.7-3.7-1.5-5.7l8.5-16c1.1-2,3.6-2.7,5.6-1.6
		c5.5,2.9,11,5.8,16.5,8.7c2,1.1,2.7,3.7,1.5,5.7l-8.5,16C89.8,883,82.6,878.9,85.1,874.2"/>
	<g>
		<path class="st1" d="M62.9,683.2l-11.9,28c-2.1,4.9-9.3,0.8-7.2-4.1l11.9-28C57.8,674.2,65,678.3,62.9,683.2"/>
		<path class="st1" d="M41.9,685.3c9.3,4,18.7,7.9,28,11.9c4.9,2.1,0.8,9.3-4.1,7.2l-28-11.9C32.9,690.5,37,683.3,41.9,685.3"/>
	</g>
	<g>
		<path class="st1" d="M69.2,989c4.5,9.1,8.9,18.2,13.4,27.3c2.3,4.8-4.8,8.9-7.2,4.1c-4.4-9.1-8.9-18.2-13.4-27.3
			C59.6,988.3,66.8,984.2,69.2,989"/>
		<path class="st1" d="M56.7,1007.3l27.3-13.4c4.8-2.3,8.9,4.9,4.1,7.2l-27.3,13.4C56,1016.8,51.9,1009.6,56.7,1007.3"/>
	</g>
	<path class="st1" d="M534.7,899.3c6.7,6.1,16.4-3.5,10-10C538.3,882.9,528.7,892.6,534.7,899.3c3.6,4-2.3,9.8-5.9,5.9
		c-6-6-6-15.7-0.1-21.7c6-6,15.7-6,21.7-0.1c5.9,5.8,6.1,15.2,0.5,21.3c-6,6.2-15.8,6.5-22.1,0.5c0,0,0,0,0,0
		C524.9,901.6,530.8,895.7,534.7,899.3"/>
	<path class="st1" d="M467.6,702.5c6.8,6,16.4-3.5,10-10C471.1,686.1,461.5,695.8,467.6,702.5c3.6,4-2.3,9.8-5.8,5.8
		c-6-6-6-15.7,0-21.7c6-6,15.7-6,21.7,0c5.8,5.8,6,15.2,0.5,21.2c-5.9,6.2-15.8,6.5-22.1,0.6c0,0-0.1-0.1-0.1-0.1
		C457.7,704.8,463.6,698.9,467.6,702.5"/>
	<path class="st1" d="M568.4,739.8c2.1,2.1,5.5,2.1,7.5,0c2.1-2.1,2.1-5.5,0-7.5s-5.5-2.1-7.5,0
		C566.3,734.3,566.3,737.7,568.4,739.8"/>
	<path class="st1" d="M503.9,1046.5c2.1,2.1,5.5,2.1,7.5,0c2.1-2.1,2.1-5.5,0-7.5c-2.1-2.1-5.5-2.1-7.5,0
		C501.8,1041,501.8,1044.4,503.9,1046.5"/>
	<path class="st1" d="M598.2,1063.2c2.1,2.1,5.5,2.1,7.5,0c2.1-2.1,2.1-5.5,0-7.5c-2.1-2.1-5.5-2.1-7.5,0S596.1,1061.2,598.2,1063.2
		"/>
	<path class="st1" d="M646.3,943.5c2,2,5.2,2,7.2,0c2-2,2-5.2,0-7.2c-2-2-5.2-2-7.2,0c0,0,0,0,0,0
		C644.3,938.4,644.3,941.6,646.3,943.5"/>
	<path class="st1" d="M661.7,853.5c2.1,2.1,5.5,2.1,7.5,0s2.1-5.5,0-7.5c-2.1-2.1-5.5-2.1-7.5,0
		C659.6,848.1,659.6,851.4,661.7,853.5"/>
	<path class="st1" d="M435.9,776.1l8.5-16l1.5,5.7c-5.5-2.9-11-5.8-16.5-8.7c1.9-0.5,3.8-1.1,5.7-1.5l-8.5,16l-1.5-5.7
		c5.5,2.9,11,5.8,16.5,8.7c4.8,2.5,0.6,9.7-4.1,7.2c-5.5-3-11-5.8-16.5-8.7c-2-1.1-2.7-3.7-1.5-5.7l8.5-16c1.1-2,3.6-2.7,5.6-1.6
		c5.5,2.9,11,5.8,16.5,8.7c2,1.1,2.7,3.7,1.5,5.7l-8.5,16C440.6,784.9,433.4,780.8,435.9,776.1"/>
	<path class="st1" d="M216.3,754.7c6.7,6.1,16.4-3.5,10-10C219.8,738.2,210.2,747.9,216.3,754.7c3.6,4-2.3,9.8-5.9,5.9
		c-6-6-6-15.7-0.1-21.7c6-6,15.7-6,21.7-0.1c5.9,5.8,6.1,15.2,0.5,21.3c-6,6.2-15.8,6.5-22.1,0.5c0,0,0,0,0,0
		C206.5,756.9,212.3,751.1,216.3,754.7"/>
	<path class="st1" d="M785.5,1045.8c2.1,2.1,5.5,2.1,7.5,0c2.1-2.1,2.1-5.5,0-7.5c-2.1-2.1-5.5-2.1-7.5,0
		C783.4,1040.3,783.4,1043.7,785.5,1045.8"/>
	<path class="st1" d="M356.1,705l8.5-16l1.5,5.7c-5.5-2.9-11-5.8-16.5-8.7c1.9-0.5,3.8-1.1,5.7-1.5l-8.5,16l-1.5-5.7
		c5.5,2.9,11,5.8,16.5,8.7c4.8,2.5,0.6,9.7-4.1,7.2c-5.5-3-11-5.8-16.5-8.7c-2-1.1-2.7-3.7-1.5-5.7l8.5-16c1.1-2,3.6-2.7,5.6-1.6
		c5.5,2.9,11,5.8,16.5,8.7c2,1.1,2.7,3.7,1.5,5.7l-8.5,16C360.8,713.8,353.6,709.7,356.1,705"/>
	<g>
		<path class="st1" d="M805.6,963.6l-11.9,28c-2.1,4.9-9.3,0.8-7.2-4.1l11.9-28C800.4,954.6,807.6,958.8,805.6,963.6"/>
		<path class="st1" d="M784.5,965.8c9.3,4,18.7,7.9,28,11.9c4.9,2.1,0.8,9.3-4.1,7.2l-28-11.9C775.5,970.9,779.7,963.7,784.5,965.8"
			/>
	</g>
	<g>
		<path class="st1" d="M313.6,844.8l-15.2,26.3c-2.7,4.6-10.1,0.9-7.4-3.7c5.1-8.8,10.2-17.6,15.3-26.3
			C308.9,836.5,316.4,840.2,313.6,844.8"/>
		<path class="st1" d="M291.5,844.7l26.3,15.3c4.6,2.7,0.9,10.1-3.7,7.4l-26.3-15.3C283.2,849.4,286.9,842,291.5,844.7"/>
	</g>
	<path class="st1" d="M376.1,931.7c-1.3,8.9,12.1,11.7,13.8,2.7C391.7,925.5,378.3,922.9,376.1,931.7c-1.3,5.2-9.4,3.6-8.1-1.6
		c1.6-8.3,9.7-13.7,18-12.1c8.3,1.6,13.7,9.7,12.1,18c-1.6,8.1-9.2,13.5-17.4,12.2c-8.5-1.5-14.2-9.5-12.7-18c0,0,0-0.1,0-0.1
		C368.7,924.8,376.8,926.4,376.1,931.7"/>
	<path class="st1" d="M364.5,1064.8l18-1.9l-3.8,4.4c-0.7-6.2-1.3-12.4-2-18.5c1.5,1.3,3,2.5,4.4,3.8l-18,1.9l3.8-4.4
		c0.7,6.2,1.3,12.4,2,18.5c0.6,5.3-7.7,5.9-8.3,0.6c-0.6-6.2-1.3-12.3-2-18.5c-0.2-2.3,1.6-4.3,3.8-4.4l18-1.9
		c2.3-0.1,4.2,1.5,4.4,3.8c0.7,6.2,1.3,12.4,2,18.5c0.2,2.3-1.6,4.3-3.8,4.4l-18,1.9C359.8,1073.7,359.2,1065.4,364.5,1064.8"/>
	<path class="st1" d="M697,857.5c9-0.5,9.1-14.1,0-14.1C687.9,843.4,688,857,697,857.5c5.3,0.3,5.3,8.6,0,8.3
		c-8.5,0-15.3-6.9-15.3-15.3c0-8.5,6.9-15.3,15.3-15.3c8.2,0,15,6.5,15.3,14.7c0.2,8.6-6.6,15.8-15.2,16c0,0,0,0-0.1,0
		C691.7,866.1,691.7,857.8,697,857.5"/>
	<path class="st1" d="M858.2,691c2.9,0,5.3-2.4,5.3-5.3c0-2.9-2.4-5.3-5.3-5.3c-2.9,0-5.3,2.4-5.3,5.3
		C852.9,688.6,855.2,691,858.2,691"/>
	<path class="st1" d="M762.7,848.6c2.9,0,5.3-2.4,5.3-5.3c0-2.9-2.4-5.3-5.3-5.3c-2.9,0-5.3,2.4-5.3,5.3
		C757.4,846.2,759.8,848.6,762.7,848.6"/>
	<path class="st1" d="M637.1,858.6c2.9,0,5.3-2.4,5.3-5.3c0-2.9-2.4-5.3-5.3-5.3s-5.3,2.4-5.3,5.3
		C631.8,856.2,634.2,858.6,637.1,858.6"/>
	<path class="st1" d="M589,673.7c2.9,0,5.3-2.4,5.3-5.3c0-2.9-2.4-5.3-5.3-5.3c-2.9,0-5.3,2.4-5.3,5.3
		C583.7,671.3,586.1,673.7,589,673.7"/>
	<g>
		<path class="st1" d="M523.8,685.5l9.7,28.8c1.7,5.1-6.3,7.2-8,2.2l-9.6-28.9c-1.7-5.1,6.3-7.3,8-2.2"/>
		<path class="st1" d="M509.4,701.4l28.9-9.7c5.1-1.7,7.3,6.3,2.2,8c-9.6,3.2-19.2,6.5-28.9,9.7
			C506.5,711.1,504.3,703.1,509.4,701.4"/>
	</g>
	<g>
		<path class="st1" d="M743.7,677.8c9.6,3.3,19.2,6.6,28.8,9.9c5,1.7,2.9,9.7-2.2,8c-9.6-3.3-19.2-6.6-28.8-9.9
			C736.5,684.1,738.7,676.1,743.7,677.8"/>
		<path class="st1" d="M747.9,699.5l9.9-28.8c1.7-5,9.7-2.9,8,2.2l-9.9,28.8C754.1,706.8,746.1,704.6,747.9,699.5"/>
	</g>
	<path class="st1" d="M1039.2,701.7c9-0.5,9.1-14.1,0-14.1C1030.1,687.6,1030.2,701.2,1039.2,701.7c5.3,0.3,5.3,8.6,0,8.3
		c-8.5,0-15.3-6.9-15.3-15.3c0-8.5,6.9-15.3,15.3-15.3c8.2,0,15,6.5,15.3,14.7c0.2,8.6-6.6,15.8-15.2,16c0,0,0,0-0.1,0
		C1033.9,710.3,1033.9,702,1039.2,701.7"/>
	<path class="st1" d="M920.5,794.8c9-0.5,9.1-14.1,0-14.1C911.4,780.8,911.5,794.4,920.5,794.8c5.3,0.3,5.3,8.6,0,8.3
		c-8.5,0-15.3-6.9-15.3-15.3s6.9-15.3,15.3-15.3c8.2,0,15,6.5,15.3,14.7c0.2,8.6-6.6,15.8-15.2,16c0,0,0,0-0.1,0
		C915.2,803.4,915.2,795.1,920.5,794.8"/>
	<path class="st1" d="M1000.3,937.5c5.4,7.2,16.8-0.3,11.7-7.9S995.7,929.7,1000.3,937.5c2.7,4.6-4.1,9.2-6.9,4.6
		c-5-6.8-3.5-16.5,3.3-21.5c6.8-5,16.5-3.5,21.5,3.3c0.3,0.3,0.5,0.7,0.7,1.1c4.4,7.2,2.1,16.7-5.1,21.1c-6.8,4.2-15.7,2.4-20.4-4
		C990.2,937.8,997.1,933.2,1000.3,937.5"/>
	<path class="st1" d="M673.1,999.7c2.9,0,5.3-2.4,5.3-5.3c0-2.9-2.4-5.3-5.3-5.3s-5.3,2.4-5.3,5.3
		C667.7,997.3,670.1,999.7,673.1,999.7"/>
	<g>
		<path class="st1" d="M166.9,1040.2l-28.9,9.7c-5.1,1.7-7.2-6.3-2.2-8l28.8-9.7C169.8,1030.5,171.9,1038.5,166.9,1040.2"/>
		<path class="st1" d="M151,1025.7l9.7,28.9c1.7,5.1-6.3,7.2-8,2.2l-9.7-28.9C141.3,1022.8,149.3,1020.7,151,1025.7"/>
	</g>
	<g>
		<path class="st1" d="M627.9,789.3c2.3,9.9,4.6,19.7,6.9,29.6c1.2,5.2-6.8,7.4-8,2.2c-2.3-9.9-4.6-19.7-6.9-29.6
			C618.7,786.3,626.7,784.1,627.9,789.3"/>
		<path class="st1" d="M611.7,804.3l29.7-6.9c5.2-1.2,7.4,6.8,2.2,8l-29.6,7C608.7,813.5,606.5,805.5,611.7,804.3"/>
	</g>
	<path class="st1" d="M44.4,811.7c0.5,9,14.1,9.1,14.1,0C58.5,802.6,44.9,802.7,44.4,811.7c-0.3,5.3-8.6,5.3-8.3,0
		c0-8.5,6.9-15.3,15.3-15.3c8.5,0,15.3,6.9,15.3,15.3c0,8.2-6.5,15-14.7,15.3c-8.6,0.2-15.8-6.6-16-15.2c0,0,0,0,0-0.1
		C35.9,806.4,44.2,806.4,44.4,811.7"/>
	<path class="st1" d="M790.4,773.1c0,2.9,2.4,5.3,5.3,5.3s5.3-2.4,5.3-5.3s-2.4-5.3-5.3-5.3S790.4,770.2,790.4,773.1"/>
	<path class="st1" d="M672.9,794.9c0,2.9,2.4,5.3,5.3,5.3s5.3-2.4,5.3-5.3c0-2.9-2.4-5.3-5.3-5.3S672.9,792,672.9,794.9"/>
	<path class="st1" d="M50,859.9c0,2.9,2.4,5.3,5.3,5.3s5.3-2.4,5.3-5.3s-2.4-5.3-5.3-5.3S50,857,50,859.9"/>
	<path class="st1" d="M748.8,970.9c0.5,9,14.1,9.1,14.1,0C762.9,961.8,749.3,961.8,748.8,970.9c-0.3,5.3-8.6,5.3-8.3,0
		c0-8.5,6.8-15.4,15.3-15.4c8.5,0,15.4,6.8,15.4,15.3c0,8.3-6.5,15.1-14.7,15.4c-8.6,0.2-15.8-6.6-16-15.2c0,0,0,0,0,0
		C740.2,965.5,748.5,965.5,748.8,970.9"/>
	<path class="st1" d="M460,862.6c0,2.9,2.4,5.3,5.3,5.3c2.9,0,5.3-2.4,5.3-5.3c0-2.9-2.4-5.3-5.3-5.3
		C462.4,857.3,460,859.7,460,862.6"/>
	<g>
		<path class="st1" d="M842.8,928.6l-28.8,9.7c-5.1,1.7-7.2-6.3-2.2-8l28.9-9.6c5.1-1.7,7.3,6.3,2.2,8"/>
		<path class="st1" d="M826.9,914.2l9.7,28.9c1.7,5.1-6.3,7.3-8,2.2c-3.2-9.6-6.5-19.2-9.7-28.9
			C817.2,911.3,825.2,909.1,826.9,914.2"/>
	</g>
	<g>
		<path class="st1" d="M532.3,818.7l-28.2,11.4c-5,2-7.1-6-2.2-8l28.2-11.4C535.1,808.7,537.2,816.8,532.3,818.7"/>
		<path class="st1" d="M515.9,805.4c3.8,9.4,7.6,18.8,11.4,28.2c2,5-6,7.1-8,2.2l-11.4-28.2C505.9,802.6,514,800.5,515.9,805.4"/>
	</g>
	<path class="st1" d="M119.7,720.5c-7.2,5.4,0.3,16.8,7.9,11.7C135.2,727.2,127.5,715.9,119.7,720.5c-4.6,2.7-9.2-4.1-4.6-6.9
		c6.8-5,16.5-3.5,21.5,3.3c5,6.8,3.5,16.5-3.3,21.5c-0.3,0.3-0.7,0.5-1.1,0.7c-7.2,4.4-16.7,2.1-21.1-5.1c-4.2-6.8-2.4-15.7,4-20.4
		C119.4,710.4,124,717.3,119.7,720.5"/>
	<path class="st1" d="M666.1,694.7l14.1,11.4l-5.9,0.4c3.9-4.8,7.8-9.7,11.7-14.5c0.2,2,0.3,3.9,0.4,5.9l-14.1-11.4l5.9-0.4
		c-3.9,4.8-7.8,9.7-11.7,14.5c-3.4,4.2-9.6-1.3-6.3-5.4c3.9-4.8,7.8-9.6,11.7-14.5c1.5-1.7,4.1-1.9,5.9-0.4l14.1,11.4
		c1.7,1.5,1.9,4.1,0.4,5.8c-3.9,4.8-7.8,9.7-11.7,14.5c-1.5,1.7-4.1,1.9-5.9,0.4l-14.1-11.4C656.5,697.6,662,691.3,666.1,694.7"/>
	<path class="st1" d="M902.5,1058.1c2.9,0,5.3-2.4,5.3-5.3s-2.4-5.3-5.3-5.3s-5.3,2.4-5.3,5.3S899.5,1058.1,902.5,1058.1"/>
	<path class="st1" d="M1048.9,1072.6c2.9,0,5.3-2.4,5.3-5.3s-2.4-5.3-5.3-5.3s-5.3,2.4-5.3,5.3S1046,1072.6,1048.9,1072.6"/>
	<path class="st1" d="M102.1,679.1l11.4-14.1l0.4,5.9c-4.8-3.9-9.7-7.8-14.5-11.7c2-0.2,3.9-0.3,5.9-0.4l-11.4,14.1l-0.4-5.9
		c4.8,3.9,9.7,7.8,14.5,11.7c4.2,3.4-1.3,9.6-5.4,6.3c-4.8-3.9-9.6-7.8-14.5-11.7c-1.7-1.5-1.9-4.1-0.4-5.9L99,653.3
		c1.5-1.7,4.1-1.9,5.8-0.4c4.8,3.9,9.7,7.8,14.5,11.7c1.7,1.5,1.9,4.1,0.4,5.9l-11.4,14.1C105,688.7,98.7,683.2,102.1,679.1"/>
</g>
<g id="Sprinkles_dark_3_" class="st0">
	<g>
		<path class="st1" d="M1387.5,766.6c9.9-2.3,19.7-4.6,29.6-6.9c5.2-1.2,7.4,6.8,2.2,8c-9.9,2.3-19.7,4.6-29.6,6.9
			C1384.5,775.8,1382.3,767.9,1387.5,766.6"/>
		<path class="st1" d="M1402.5,782.8l-6.9-29.7c-1.2-5.2,6.8-7.4,8-2.2l7,29.6C1411.7,785.8,1403.7,788,1402.5,782.8"/>
	</g>
	<g>
		<path class="st1" d="M1322.8,1014.6l28.8,9.8c5,1.7,2.9,9.7-2.2,8c-9.6-3.3-19.2-6.6-28.8-9.9
			C1315.5,1020.9,1317.7,1012.8,1322.8,1014.6"/>
		<path class="st1" d="M1326.9,1036.3l9.9-28.8c1.7-5,9.7-2.9,8,2.2l-9.9,28.8C1333.2,1043.6,1325.2,1041.4,1326.9,1036.3"/>
	</g>
	<path class="st1" d="M1290.1,916c2.9,0,5.3-2.4,5.3-5.3c0-2.9-2.4-5.3-5.3-5.3s-5.3,2.4-5.3,5.3
		C1284.7,913.6,1287.1,916,1290.1,916"/>
	<path class="st1" d="M1611.2,1042.3c9-0.5,9.1-14.1,0-14.1C1602.1,1028.2,1602.2,1041.8,1611.2,1042.3c5.3,0.3,5.3,8.6,0,8.3
		c-8.5,0.4-15.6-6.2-16-14.7c-0.4-8.5,6.2-15.6,14.7-16c0.4,0,0.9,0,1.3,0c8.5,0.4,15.1,7.5,14.7,16c-0.3,8-6.7,14.4-14.7,14.7
		C1605.9,1050.9,1605.9,1042.6,1611.2,1042.3"/>
	<path class="st1" d="M1538.6,947l-5.3-17.3l5.1,2.9c-5.9,1.8-11.9,3.7-17.8,5.5c1-1.7,1.9-3.4,2.9-5.1l5.3,17.3l-5.1-2.9
		c5.9-1.8,11.9-3.7,17.8-5.5c5.1-1.6,7.3,6.4,2.2,8c-5.9,1.8-11.9,3.6-17.8,5.5c-2.2,0.6-4.5-0.7-5.1-2.9l-5.3-17.3
		c-0.6-2.2,0.7-4.5,2.9-5.1c5.9-1.8,11.9-3.7,17.8-5.5c2.2-0.6,4.5,0.7,5.1,2.9l5.3,17.3C1548.2,949.9,1540.2,952.1,1538.6,947"/>
	<path class="st1" d="M1679.9,855.6c9-0.5,9.1-14.1,0-14.1S1670.9,855.1,1679.9,855.6c5.3,0.3,5.3,8.6,0,8.3
		c-8.5,0-15.4-6.8-15.4-15.3s6.8-15.4,15.3-15.4c8.3,0,15.1,6.5,15.4,14.7c0.2,8.6-6.6,15.8-15.2,16c0,0,0,0,0,0
		C1674.6,864.2,1674.6,855.9,1679.9,855.6"/>
	<path class="st1" d="M1282.7,979.4c6.7,6.1,16.4-3.5,10-10C1286.2,963,1276.7,972.7,1282.7,979.4c3.6,4-2.3,9.8-5.9,5.9
		c-6-6-6-15.7-0.1-21.7c6-6,15.7-6,21.7-0.1c5.8,5.8,6.1,15.2,0.5,21.3c-6,6.2-15.8,6.5-22.1,0.5c0,0,0,0,0,0
		C1272.9,981.7,1278.7,975.9,1282.7,979.4"/>
	<path class="st1" d="M1298.2,752.2c2.1,2.1,5.5,2.1,7.5,0c2.1-2.1,2.1-5.5,0-7.5c-2.1-2.1-5.5-2.1-7.5,0
		C1296.2,746.8,1296.2,750.2,1298.2,752.2"/>
	<path class="st1" d="M1156.7,841.4c2.1,2.1,5.5,2.1,7.5,0c2.1-2.1,2.1-5.5,0-7.5c-2.1-2.1-5.5-2.1-7.5,0
		C1154.6,836,1154.6,839.3,1156.7,841.4"/>
	<path class="st1" d="M1076.6,952.8c2.1,2.1,5.5,2.1,7.5,0c2.1-2.1,2.1-5.5,0-7.5c-2.1-2.1-5.5-2.1-7.5,0
		C1074.5,947.3,1074.5,950.7,1076.6,952.8"/>
	<path class="st1" d="M1377.7,918.1c2.1,2.1,5.5,2.1,7.5,0c2.1-2.1,2.1-5.5,0-7.5c-2.1-2.1-5.5-2.1-7.5,0
		C1375.6,912.6,1375.6,916,1377.7,918.1"/>
	<g>
		<path class="st1" d="M1839.1,841.3l13.4,27.3c2.3,4.8-4.8,8.9-7.2,4.1c-4.5-9.1-8.9-18.2-13.4-27.3
			C1829.5,840.6,1836.7,836.5,1839.1,841.3"/>
		<path class="st1" d="M1826.6,859.6l27.3-13.4c4.8-2.3,8.9,4.8,4.1,7.2l-27.3,13.4C1825.9,869.1,1821.8,862,1826.6,859.6"/>
	</g>
	<path class="st1" d="M1199,950.3l8.5-16l1.5,5.7c-5.5-2.9-11-5.8-16.5-8.7c1.9-0.5,3.8-1.1,5.7-1.5l-8.5,16l-1.5-5.7
		c5.5,2.9,11,5.8,16.5,8.7c4.8,2.5,0.6,9.7-4.1,7.2c-5.5-3-11-5.8-16.5-8.7c-2-1.1-2.7-3.7-1.5-5.7l8.5-16c1.1-2,3.6-2.7,5.6-1.6
		c5.5,2.9,11,5.8,16.5,8.7c2,1.1,2.7,3.7,1.5,5.7l-8.5,16C1203.7,959.1,1196.5,955,1199,950.3"/>
	<g>
		<path class="st1" d="M1176.8,759.3l-11.9,28c-2.1,4.9-9.3,0.8-7.2-4.1l11.9-28C1171.7,750.3,1178.9,754.4,1176.8,759.3"/>
		<path class="st1" d="M1155.8,761.4c9.3,4,18.7,7.9,28,11.9c4.9,2.1,0.8,9.3-4.1,7.2l-28-11.9
			C1146.7,766.6,1150.9,759.4,1155.8,761.4"/>
	</g>
	<path class="st1" d="M1648.6,975.4c6.7,6.1,16.4-3.5,10-10C1652.1,959,1642.6,968.7,1648.6,975.4c3.6,4-2.3,9.8-5.9,5.9
		c-6-6-6-15.7-0.1-21.7c6-6,15.7-6,21.7-0.1c5.8,5.8,6.1,15.2,0.5,21.3c-6,6.2-15.8,6.5-22.1,0.5c0,0,0,0,0,0
		C1638.8,977.7,1644.6,971.8,1648.6,975.4"/>
	<path class="st1" d="M1581.4,778.6c6.8,6,16.4-3.5,10-10S1575.4,771.9,1581.4,778.6c3.6,4-2.3,9.8-5.8,5.8c-6-6-6-15.7,0-21.7
		c6-6,15.7-6,21.7,0c5.8,5.8,6,15.2,0.5,21.2c-5.9,6.2-15.8,6.5-22.1,0.6c0,0-0.1-0.1-0.1-0.1C1571.6,780.9,1577.5,775,1581.4,778.6
		"/>
	<path class="st1" d="M1682.3,815.9c2.1,2.1,5.5,2.1,7.5,0c2.1-2.1,2.1-5.5,0-7.5c-2.1-2.1-5.5-2.1-7.5,0
		C1680.2,810.4,1680.2,813.8,1682.3,815.9"/>
	<path class="st1" d="M1760.1,1019.6c2,2,5.2,2,7.2,0c2-2,2-5.2,0-7.2s-5.2-2-7.2,0c0,0,0,0,0,0
		C1758.2,1014.5,1758.2,1017.7,1760.1,1019.6"/>
	<path class="st1" d="M1775.6,929.6c2.1,2.1,5.5,2.1,7.5,0c2.1-2.1,2.1-5.5,0-7.5c-2.1-2.1-5.5-2.1-7.5,0
		C1773.5,924.2,1773.5,927.5,1775.6,929.6"/>
	<path class="st1" d="M1549.8,852.2l8.5-16l1.5,5.7c-5.5-2.9-11-5.8-16.5-8.7c1.9-0.5,3.8-1.1,5.7-1.5l-8.5,16l-1.5-5.7
		c5.5,2.9,11,5.8,16.5,8.7c4.8,2.5,0.6,9.7-4.1,7.2c-5.5-3-11-5.8-16.5-8.7c-2-1.1-2.7-3.7-1.5-5.7l8.5-16c1.1-2,3.6-2.7,5.6-1.6
		c5.5,2.9,11,5.8,16.5,8.7c2,1.1,2.7,3.7,1.5,5.7l-8.5,16C1554.5,861.1,1547.3,856.9,1549.8,852.2"/>
	<path class="st1" d="M1330.2,830.8c6.7,6.1,16.4-3.5,10-10C1333.7,814.3,1324.1,824,1330.2,830.8c3.6,4-2.3,9.8-5.9,5.9
		c-6-6-6-15.7-0.1-21.7c6-6,15.7-6,21.7-0.1c5.9,5.8,6.1,15.2,0.5,21.3c-6,6.2-15.8,6.5-22.1,0.5c0,0,0,0,0,0
		C1320.3,833,1326.2,827.2,1330.2,830.8"/>
	<path class="st1" d="M1469.9,781.1l8.5-16l1.5,5.7c-5.5-2.9-11-5.8-16.5-8.7c1.9-0.5,3.8-1.1,5.7-1.5l-8.5,16l-1.5-5.7
		c5.5,2.9,11,5.8,16.5,8.7c4.8,2.5,0.6,9.7-4.1,7.2c-5.5-3-11-5.8-16.5-8.7c-2-1.1-2.7-3.7-1.5-5.7l8.5-16c1.1-2,3.6-2.7,5.6-1.6
		c5.5,2.9,11,5.8,16.5,8.7c2,1.1,2.7,3.7,1.5,5.7l-8.5,16C1474.7,789.9,1467.5,785.8,1469.9,781.1"/>
	<g>
		<path class="st1" d="M1427.5,920.9l-15.2,26.3c-2.7,4.6-10.1,0.9-7.4-3.7c5.1-8.8,10.2-17.6,15.3-26.3
			C1422.8,912.6,1430.2,916.3,1427.5,920.9"/>
		<path class="st1" d="M1405.4,920.8l26.3,15.3c4.6,2.7,0.9,10.1-3.7,7.4l-26.3-15.3C1397.1,925.5,1400.8,918.1,1405.4,920.8"/>
	</g>
	<path class="st1" d="M1489.9,1007.8c-1.3,8.9,12.1,11.7,13.8,2.7S1492.2,999,1489.9,1007.8c-1.3,5.2-9.4,3.6-8.1-1.6
		c1.6-8.3,9.7-13.7,18-12.1c8.3,1.6,13.7,9.7,12.1,18c-1.6,8.1-9.2,13.5-17.4,12.2c-8.5-1.5-14.2-9.5-12.7-18c0,0,0-0.1,0-0.1
		C1482.6,1000.9,1490.7,1002.5,1489.9,1007.8"/>
	<path class="st1" d="M1810.9,933.6c9-0.5,9.1-14.1,0-14.1S1801.9,933.1,1810.9,933.6c5.3,0.3,5.3,8.6,0,8.3
		c-8.5,0-15.3-6.9-15.3-15.3c0-8.5,6.9-15.3,15.3-15.3c8.2,0,15,6.5,15.3,14.7c0.2,8.6-6.6,15.8-15.2,16c0,0,0,0-0.1,0
		C1805.6,942.2,1805.6,933.9,1810.9,933.6"/>
	<path class="st1" d="M1876.6,924.7c2.9,0,5.3-2.4,5.3-5.3c0-2.9-2.4-5.3-5.3-5.3s-5.3,2.4-5.3,5.3
		C1871.3,922.3,1873.7,924.7,1876.6,924.7"/>
	<path class="st1" d="M1751,934.7c2.9,0,5.3-2.4,5.3-5.3c0-2.9-2.4-5.3-5.3-5.3s-5.3,2.4-5.3,5.3
		C1745.7,932.4,1748.1,934.7,1751,934.7"/>
	<path class="st1" d="M1702.9,749.8c2.9,0,5.3-2.4,5.3-5.3c0-2.9-2.4-5.3-5.3-5.3c-2.9,0-5.3,2.4-5.3,5.3
		C1697.6,747.4,1700,749.8,1702.9,749.8"/>
	<g>
		<path class="st1" d="M1637.7,761.6l9.7,28.8c1.7,5.1-6.3,7.2-8,2.2l-9.6-28.9c-1.7-5.1,6.3-7.3,8-2.2"/>
		<path class="st1" d="M1623.2,777.5l28.9-9.7c5.1-1.7,7.3,6.3,2.2,8c-9.6,3.2-19.2,6.5-28.9,9.7
			C1620.4,787.2,1618.2,779.2,1623.2,777.5"/>
	</g>
	<g>
		<path class="st1" d="M1857.6,753.9c9.6,3.3,19.2,6.6,28.8,9.9c5,1.7,2.9,9.7-2.2,8c-9.6-3.3-19.2-6.6-28.8-9.9
			C1850.4,760.2,1852.5,752.2,1857.6,753.9"/>
		<path class="st1" d="M1861.7,775.6l9.9-28.8c1.7-5,9.7-2.9,8,2.2l-9.9,28.8C1868,782.9,1860,780.7,1861.7,775.6"/>
	</g>
	<path class="st1" d="M1786.9,1075.8c2.9,0,5.3-2.4,5.3-5.3c0-2.9-2.4-5.3-5.3-5.3s-5.3,2.4-5.3,5.3
		C1781.6,1073.4,1784,1075.8,1786.9,1075.8"/>
	<g>
		<path class="st1" d="M1741.8,865.4c2.3,9.9,4.6,19.7,6.9,29.6c1.2,5.2-6.8,7.4-8,2.2c-2.3-9.9-4.6-19.7-6.9-29.6
			C1732.6,862.5,1740.5,860.2,1741.8,865.4"/>
		<path class="st1" d="M1725.6,880.4l29.7-6.9c5.2-1.2,7.4,6.8,2.2,8l-29.6,7C1722.6,889.6,1720.4,881.6,1725.6,880.4"/>
	</g>
	<path class="st1" d="M1158.3,887.9c0.5,9,14.1,9.1,14.1,0S1158.8,878.8,1158.3,887.9c-0.3,5.3-8.6,5.3-8.3,0
		c0-8.5,6.9-15.3,15.3-15.3c8.5,0,15.3,6.9,15.3,15.3c0,8.2-6.5,15-14.7,15.3c-8.6,0.2-15.8-6.6-16-15.2c0,0,0,0,0-0.1
		C1149.7,882.5,1158,882.5,1158.3,887.9"/>
	<path class="st1" d="M1904.3,849.3c0,2.9,2.4,5.3,5.3,5.3c2.9,0,5.3-2.4,5.3-5.3c0-2.9-2.4-5.3-5.3-5.3
		C1906.6,843.9,1904.3,846.3,1904.3,849.3"/>
	<path class="st1" d="M1786.8,871c0,2.9,2.4,5.3,5.3,5.3s5.3-2.4,5.3-5.3s-2.4-5.3-5.3-5.3S1786.8,868.1,1786.8,871"/>
	<path class="st1" d="M1163.9,936.1c0,2.9,2.4,5.3,5.3,5.3s5.3-2.4,5.3-5.3c0-2.9-2.4-5.3-5.3-5.3S1163.9,933.1,1163.9,936.1"/>
	<path class="st1" d="M1098.6,980.6c0.5,9,14.1,9.1,14.1,0C1112.7,971.5,1099.1,971.6,1098.6,980.6c-0.3,5.3-8.6,5.3-8.3,0
		c0-8.5,6.8-15.4,15.3-15.4c8.5,0,15.4,6.8,15.4,15.3c0,8.2-6.5,15-14.7,15.4c-8.6,0.2-15.8-6.6-16-15.2c0,0,0-0.1,0-0.1
		C1090.1,975.3,1098.4,975.3,1098.6,980.6"/>
	<path class="st1" d="M1862.6,1047c0.5,9,14.1,9.1,14.1,0S1863.2,1037.9,1862.6,1047c-0.3,5.3-8.6,5.3-8.3,0
		c0-8.5,6.8-15.4,15.3-15.4c8.5,0,15.4,6.8,15.4,15.3c0,8.3-6.5,15.1-14.7,15.4c-8.6,0.2-15.8-6.6-16-15.2c0,0,0,0,0,0
		C1854.1,1041.6,1862.4,1041.6,1862.6,1047"/>
	<path class="st1" d="M1573.9,938.7c0,2.9,2.4,5.3,5.3,5.3s5.3-2.4,5.3-5.3s-2.4-5.3-5.3-5.3S1573.9,935.8,1573.9,938.7"/>
	<g>
		<path class="st1" d="M1646.2,894.8l-28.2,11.4c-5,2-7.1-6-2.2-8l28.2-11.4C1649,884.8,1651.1,892.9,1646.2,894.8"/>
		<path class="st1" d="M1629.8,881.5c3.8,9.4,7.6,18.8,11.4,28.2c2,5-6,7.1-8,2.2l-11.4-28.2
			C1619.8,878.7,1627.8,876.6,1629.8,881.5"/>
	</g>
	<path class="st1" d="M1065.2,769.2c0.5,9,14.1,9.1,14.1,0C1079.3,760,1065.6,760.1,1065.2,769.2c-0.3,5.3-8.6,5.3-8.3,0
		c0-8.5,6.9-15.3,15.3-15.3c8.5,0,15.3,6.9,15.3,15.3c0,8.2-6.5,15-14.7,15.3c-8.6,0.2-15.8-6.6-16-15.2c0,0,0,0,0-0.1
		C1056.6,763.8,1064.9,763.8,1065.2,769.2"/>
	<path class="st1" d="M1233.6,796.6c-7.2,5.4,0.3,16.8,7.9,11.7S1241.4,792,1233.6,796.6c-4.6,2.7-9.2-4.1-4.6-6.9
		c6.8-5,16.5-3.5,21.5,3.3c5,6.8,3.5,16.5-3.3,21.5c-0.3,0.3-0.7,0.5-1.1,0.7c-7.2,4.4-16.7,2.1-21.1-5.1c-4.2-6.8-2.4-15.7,4-20.4
		C1233.3,786.5,1237.9,793.4,1233.6,796.6"/>
	<path class="st1" d="M1780,770.8l14.1,11.4l-5.9,0.4c3.9-4.8,7.8-9.7,11.7-14.5c0.2,2,0.3,3.9,0.4,5.9l-14.1-11.4l5.9-0.4
		c-3.9,4.8-7.8,9.7-11.7,14.5c-3.4,4.2-9.6-1.3-6.3-5.4c3.9-4.8,7.8-9.6,11.7-14.5c1.5-1.7,4.1-1.9,5.9-0.4l14.1,11.4
		c1.7,1.5,1.9,4.1,0.4,5.8c-3.9,4.8-7.8,9.7-11.7,14.5c-1.5,1.7-4.1,1.9-5.9,0.4l-14.1-11.4C1770.4,773.7,1775.8,767.4,1780,770.8"
		/>
	<path class="st1" d="M1065.9,869.5c9-0.5,9.1-14.1,0-14.1C1056.8,855.4,1056.9,869,1065.9,869.5c5.3,0.3,5.3,8.6,0,8.3
		c-8.5,0-15.3-6.9-15.3-15.3s6.9-15.3,15.3-15.3c8.2,0,15,6.5,15.3,14.7c0.2,8.6-6.6,15.8-15.2,16c0,0,0,0-0.1,0
		C1060.6,878.1,1060.6,869.8,1065.9,869.5"/>
	<path class="st1" d="M1215.9,755.2l11.4-14.1l0.4,5.9c-4.8-3.9-9.7-7.8-14.5-11.7c2-0.2,3.9-0.3,5.9-0.4l-11.4,14.1l-0.4-5.9
		c4.8,3.9,9.7,7.8,14.5,11.7c4.2,3.4-1.3,9.6-5.4,6.3c-4.8-3.9-9.6-7.8-14.5-11.7c-1.7-1.5-1.9-4.1-0.4-5.9l11.4-14.1
		c1.5-1.7,4.1-1.9,5.8-0.4c4.8,3.9,9.7,7.8,14.5,11.7c1.7,1.5,1.9,4.1,0.4,5.9l-11.4,14.1C1218.9,764.8,1212.6,759.4,1215.9,755.2"
		/>
</g>
<g id="Sprinkles_dark_4_" class="st0">
	<path class="st1" d="M1505,33.1c6.7,6.1,16.4-3.5,10-10S1498.9,26.3,1505,33.1c3.6,4-2.3,9.8-5.9,5.9c-6-6-6-15.7,0-21.7
		c6-6,15.7-6,21.7,0c5.8,5.8,6,15.2,0.5,21.2c-6,6.2-15.8,6.5-22.1,0.5c0,0,0,0,0,0C1495.1,35.4,1501,29.5,1505,33.1"/>
	<path class="st1" d="M1583,43.2c2.1,2.1,5.5,2.1,7.5,0c2.1-2.1,2.1-5.5,0-7.5c-2.1-2.1-5.5-2.1-7.5,0
		C1580.9,37.7,1580.9,41.1,1583,43.2"/>
	<path class="st1" d="M1887.6,29.2c6.7,6,16.4-3.5,10-10C1891.1,12.8,1881.5,22.5,1887.6,29.2c3.6,4-2.3,9.8-5.9,5.9
		c-6-6-6.1-15.7-0.1-21.7c6-6,15.7-6.1,21.7-0.1c5.9,5.8,6.1,15.2,0.5,21.3c-6,6.2-15.8,6.5-22.1,0.5c0,0,0,0,0,0
		C1877.8,31.5,1883.6,25.7,1887.6,29.2"/>
	<path class="st1" d="M1869.7,82.9c2.9,0,5.3-2.4,5.3-5.3s-2.4-5.3-5.3-5.3s-5.3,2.4-5.3,5.3S1866.8,82.9,1869.7,82.9"/>
	<g>
		<path class="st1" d="M1737.1,25.8l9.7,28.9c1.7,5.1-6.3,7.2-8,2.2l-9.7-28.8C1727.3,23,1735.3,20.8,1737.1,25.8"/>
		<path class="st1" d="M1722.6,41.7l28.9-9.7c5.1-1.7,7.2,6.3,2.2,8l-28.9,9.7C1719.7,51.4,1717.5,43.4,1722.6,41.7"/>
	</g>
	<path class="st1" d="M1678.6,58.2c0,2.9,2.4,5.3,5.3,5.3c2.9,0,5.3-2.4,5.3-5.3c0-2.9-2.4-5.3-5.3-5.3
		C1680.9,52.9,1678.6,55.3,1678.6,58.2"/>
	<path class="st1" d="M1237.9,52.3l17.3-5.3l-2.9,5.1c-1.8-5.9-3.7-11.9-5.5-17.8c1.7,1,3.4,1.9,5.1,2.9l-17.3,5.3l2.9-5.1
		c1.8,5.9,3.7,11.9,5.5,17.8c1.6,5.1-6.4,7.3-8,2.2c-1.8-6-3.6-11.9-5.5-17.8c-0.6-2.2,0.7-4.5,2.9-5.1l17.3-5.3
		c2.2-0.6,4.5,0.7,5.1,2.9c1.8,5.9,3.7,11.9,5.5,17.8c0.6,2.2-0.7,4.5-2.9,5.1l-17.3,5.3C1235,61.9,1232.8,53.9,1237.9,52.3"/>
	<path class="st1" d="M1360.6,49.2c0.5,9,14.1,9.1,14.1,0S1361.1,40.1,1360.6,49.2c-0.3,5.3-8.6,5.3-8.3,0c0-8.5,6.8-15.4,15.3-15.4
		c8.5,0,15.4,6.8,15.4,15.3c0,8.3-6.5,15-14.7,15.4c-8.6,0.2-15.8-6.6-16-15.2c0,0,0,0,0-0.1C1352.1,43.8,1360.3,43.8,1360.6,49.2"
		/>
</g>
</svg>
