<svg id="Layer_1" data-name="Layer 1" xmlns="http://www.w3.org/2000/svg" viewBox="0 0 1853.69 1059.73"><defs><style>.cls-1{opacity:0.6;}.cls-2{fill:#1d1d1b;}</style></defs><title>Sprinkles light_bg</title><g id="Sprinkles_dark" data-name="Sprinkles dark" class="cls-1"><path class="cls-2" d="M1701.67,974.3a8.85,8.85,0,1,0,0-12.51,8.84,8.84,0,0,0,0,12.51" transform="translate(-49.27 -15.81)"/><path class="cls-2" d="M1860.64,628.23v50.42a6.9,6.9,0,0,1-13.76,0V628.23a6.9,6.9,0,0,1,13.76,0" transform="translate(-49.27 -15.81)"/><path class="cls-2" d="M1829.06,646.06l50.51,0a6.91,6.91,0,0,1,0,13.77h-50.48a6.87,6.87,0,0,1,0-13.73" transform="translate(-49.27 -15.81)"/><path class="cls-2" d="M1613.06,751.83,1590.54,797c-3.94,7.94-15.86,1.09-12-6.82l22.49-45.13c4-8,15.89-1.13,12,6.78" transform="translate(-49.27 -15.81)"/><path class="cls-2" d="M1577.47,753.52,1622.66,776c7.92,4,1.07,15.89-6.82,12l-45.16-22.52c-8-4-1.13-15.89,6.79-12" transform="translate(-49.27 -15.81)"/><path class="cls-2" d="M1500.28,986l-19.77,46.41c-3.47,8.16-15.39,1.25-12-6.82l19.74-46.38c3.47-8.16,15.39-1.25,12,6.79" transform="translate(-49.27 -15.81)"/><path class="cls-2" d="M1465.4,989.56q23.22,9.88,46.45,19.74c8.19,3.5,1.28,15.42-6.79,12l-46.47-19.77c-8.17-3.47-1.25-15.39,6.81-12" transform="translate(-49.27 -15.81)"/><path class="cls-2" d="M1829.49,780.82v50.41a6.9,6.9,0,0,1-13.77,0V780.82a6.9,6.9,0,0,1,13.77,0" transform="translate(-49.27 -15.81)"/><path class="cls-2" d="M1797.9,798.64l50.51,0a6.9,6.9,0,0,1,0,13.76h-50.48a6.87,6.87,0,0,1,0-13.73" transform="translate(-49.27 -15.81)"/></g><g id="Sprinkles_dark-2" data-name="Sprinkles dark" class="cls-1"><path class="cls-2" d="M1356.81,214.11,1379,259.4c3.88,7.94-8,14.79-12,6.82q-11.1-22.68-22.17-45.32c-3.91-7.91,8-14.79,11.94-6.82" transform="translate(-49.27 -15.81)"/><path class="cls-2" d="M1336.17,244.45l45.35-22.21c7.94-3.87,14.79,8,6.82,11.95L1343,256.4c-8,3.88-14.8-8-6.82-11.95" transform="translate(-49.27 -15.81)"/><path class="cls-2" d="M1495.3,49.52c11.17,10,27.21-5.82,16.52-16.51s-26.56,5.34-16.52,16.51c5.92,6.6-3.81,16.33-9.72,9.73a25.43,25.43,0,1,1,36.72-.82,25.92,25.92,0,0,1-36.65.89l-.07-.07c-6.6-5.92,3.12-15.64,9.72-9.73" transform="translate(-49.27 -15.81)"/><path class="cls-2" d="M1649.05,32.53a8.85,8.85,0,1,0,0-12.51,8.84,8.84,0,0,0,0,12.51" transform="translate(-49.27 -15.81)"/><path class="cls-2" d="M1779.64,194.45a8.85,8.85,0,1,0,0-12.51,8.84,8.84,0,0,0,0,12.51" transform="translate(-49.27 -15.81)"/><path class="cls-2" d="M1645.52,534.6c11.14,10,27.22-5.88,16.55-16.54s-26.59,5.38-16.55,16.54c5.92,6.6-3.78,16.3-9.72,9.73a25.48,25.48,0,0,1,34.5-37.5q.78.72,1.5,1.5a25.48,25.48,0,0,1-36,36c-6.57-5.94,3.13-15.64,9.72-9.73" transform="translate(-49.27 -15.81)"/><path class="cls-2" d="M1534.09,208.29c11.16,10,27.21-5.88,16.54-16.54s-26.55,5.35-16.54,16.54c5.94,6.57-3.79,16.3-9.7,9.7a25.43,25.43,0,1,1,36.69-.84,25.88,25.88,0,0,1-36.58.94l-.11-.1c-6.6-5.91,3.13-15.64,9.7-9.7" transform="translate(-49.27 -15.81)"/><path class="cls-2" d="M1722.43,365.43l14-26.56,2.56,9.39c-9.1-4.79-18.23-9.61-27.37-14.36,3.13-.87,6.26-1.75,9.39-2.56l-14,26.55-2.56-9.38c9.1,4.78,18.23,9.6,27.37,14.35,7.88,4.13,1,16.05-6.79,12q-13.58-7.32-27.37-14.35a6.91,6.91,0,0,1-2.56-9.39l14-26.55a7,7,0,0,1,9.35-2.6c9.14,4.82,18.27,9.57,27.37,14.36a6.89,6.89,0,0,1,2.56,9.38l-14,26.56c-4.1,7.85-16,1-12-6.82" transform="translate(-49.27 -15.81)"/></g><g id="Sprinkles_dark-3" data-name="Sprinkles dark" class="cls-1"><path class="cls-2" d="M434.24,443.19c11.17,10,27.25-5.85,16.55-16.55s-26.58,5.38-16.55,16.55c5.92,6.6-3.78,16.29-9.72,9.73a25.48,25.48,0,1,1,36.72-.82,25.92,25.92,0,0,1-36.65.89l-.07-.07c-6.57-5.95,3.13-15.64,9.72-9.73" transform="translate(-49.27 -15.81)"/><path class="cls-2" d="M460,66.43a8.85,8.85,0,1,0,0-12.51,8.84,8.84,0,0,0,0,12.51" transform="translate(-49.27 -15.81)"/><path class="cls-2" d="M225.32,214.31a8.85,8.85,0,1,0,0-12.51,8.85,8.85,0,0,0,0,12.51" transform="translate(-49.27 -15.81)"/><path class="cls-2" d="M387.74,734.84a8.85,8.85,0,1,0,0-12.51,8.84,8.84,0,0,0,0,12.51" transform="translate(-49.27 -15.81)"/><path class="cls-2" d="M91,807.78a8.85,8.85,0,1,0,0-12.51,8.85,8.85,0,0,0,0,12.51" transform="translate(-49.27 -15.81)"/><path class="cls-2" d="M92.43,399a8.85,8.85,0,1,0,0-12.52,8.85,8.85,0,0,0,0,12.52" transform="translate(-49.27 -15.81)"/><path class="cls-2" d="M591.69,341.42a8.85,8.85,0,1,0,0-12.52,8.85,8.85,0,0,0,0,12.52" transform="translate(-49.27 -15.81)"/><path class="cls-2" d="M295.38,394.84l14-26.56,2.57,9.38c-9.11-4.78-18.24-9.6-27.37-14.35,3.13-.88,6.25-1.75,9.38-2.57L280,387.3l-2.57-9.39c9.11,4.79,18.24,9.61,27.37,14.36,7.88,4.13,1,16.05-6.79,12q-13.61-7.35-27.36-14.36a6.9,6.9,0,0,1-2.57-9.38l14-26.55a6.94,6.94,0,0,1,9.35-2.6c9.13,4.82,18.26,9.57,27.36,14.36a6.9,6.9,0,0,1,2.57,9.38l-14,26.55c-4.1,7.85-16.05,1-11.95-6.81" transform="translate(-49.27 -15.81)"/><path class="cls-2" d="M258.63,78.1l-19.77,46.41c-3.47,8.17-15.39,1.25-12-6.81l19.74-46.39c3.47-8.16,15.39-1.25,12,6.79" transform="translate(-49.27 -15.81)"/><path class="cls-2" d="M223.75,81.7l46.45,19.73c8.19,3.5,1.28,15.42-6.79,12L216.94,93.64c-8.17-3.47-1.25-15.38,6.81-11.94" transform="translate(-49.27 -15.81)"/><path class="cls-2" d="M269,585.18q11.07,22.71,22.18,45.32c3.87,8-8,14.8-12,6.79Q268.17,614.64,257,592c-3.88-7.94,8-14.79,12-6.82" transform="translate(-49.27 -15.81)"/><path class="cls-2" d="M248.34,615.52l45.35-22.2c7.91-3.85,14.76,8.06,6.79,12L255.12,627.5c-7.91,3.85-14.76-8.07-6.78-12" transform="translate(-49.27 -15.81)"/><path class="cls-2" d="M818.29,890l42.88,26.62c7.5,4.63.72,16.61-6.82,12Q833,915.28,811.5,902c-7.51-4.69-.75-16.64,6.79-12" transform="translate(-49.27 -15.81)"/><path class="cls-2" d="M816.85,926.5l26.65-42.91c4.66-7.54,16.6-.72,11.94,6.82l-26.58,42.91c-4.69,7.51-16.64.75-12-6.79" transform="translate(-49.27 -15.81)"/><path class="cls-2" d="M587.44,959.69c11.16,10,27.21-5.82,16.51-16.52s-26.55,5.35-16.51,16.52c5.91,6.6-3.82,16.32-9.73,9.72a25.43,25.43,0,1,1,36.72-.81,25.92,25.92,0,0,1-36.65.88l-.07-.07c-6.6-5.91,3.13-15.63,9.73-9.72" transform="translate(-49.27 -15.81)"/><path class="cls-2" d="M1041,436.5c11.16,10,27.24-5.85,16.54-16.55S1031,425.33,1041,436.5c5.91,6.59-3.79,16.29-9.73,9.72a25.48,25.48,0,1,1,36.72-.81,25.92,25.92,0,0,1-36.65.88l-.07-.07c-6.57-5.94,3.13-15.64,9.73-9.72" transform="translate(-49.27 -15.81)"/><path class="cls-2" d="M929.6,110.16c11.2,10,27.24-5.85,16.55-16.55S919.59,99,929.6,110.16c5.94,6.57-3.78,16.29-9.7,9.69a25.43,25.43,0,1,1,36.72-.81A25.87,25.87,0,0,1,920,120l-.14-.13c-6.59-5.91,3.13-15.63,9.7-9.69" transform="translate(-49.27 -15.81)"/><path class="cls-2" d="M1096.84,171.93a8.85,8.85,0,1,0,0-12.51,8.85,8.85,0,0,0,0,12.51" transform="translate(-49.27 -15.81)"/><path class="cls-2" d="M989.84,680.51a8.85,8.85,0,1,0,0-12.51,8.84,8.84,0,0,0,0,12.51" transform="translate(-49.27 -15.81)"/><path class="cls-2" d="M877.59,843.81a8.85,8.85,0,1,0,0-12.51,8.85,8.85,0,0,0,0,12.51" transform="translate(-49.27 -15.81)"/><path class="cls-2" d="M650.49,1009.67a8.85,8.85,0,1,0,0-12.51,8.85,8.85,0,0,0,0,12.51" transform="translate(-49.27 -15.81)"/><path class="cls-2" d="M1146.22,708.35a8.85,8.85,0,1,0,0-12.51,8.85,8.85,0,0,0,0,12.51" transform="translate(-49.27 -15.81)"/><path class="cls-2" d="M1225.94,509.84A8.4,8.4,0,1,0,1226,498l0,0a8.4,8.4,0,0,0,0,11.85" transform="translate(-49.27 -15.81)"/><path class="cls-2" d="M1251.59,360.59a8.85,8.85,0,1,0,0-12.51,8.85,8.85,0,0,0,0,12.51" transform="translate(-49.27 -15.81)"/><path class="cls-2" d="M877.12,232.2l14-26.56,2.57,9.39c-9.1-4.79-18.24-9.6-27.37-14.36,3.13-.87,6.26-1.75,9.38-2.56l-14,26.55-2.57-9.38c9.11,4.78,18.24,9.6,27.37,14.35,7.88,4.13,1,16.05-6.79,12q-13.61-7.35-27.36-14.35a6.91,6.91,0,0,1-2.57-9.39l14.05-26.55a7,7,0,0,1,9.35-2.6c9.13,4.82,18.26,9.57,27.36,14.36a6.9,6.9,0,0,1,2.57,9.38l-14,26.56c-4.1,7.85-16.05,1-12-6.82" transform="translate(-49.27 -15.81)"/><path class="cls-2" d="M1172.89,961.15c11.17,10,27.21-5.88,16.55-16.55s-26.56,5.35-16.55,16.55c5.94,6.56-3.78,16.29-9.73,9.72a25.48,25.48,0,1,1,36.69-.84,25.91,25.91,0,0,1-36.64.88l0,0c-6.56-5.94,3.13-15.64,9.73-9.72" transform="translate(-49.27 -15.81)"/><path class="cls-2" d="M513,196.63c11.17,10,27.24-5.85,16.54-16.55s-26.58,5.38-16.54,16.55c5.91,6.6-3.78,16.29-9.73,9.72a25.48,25.48,0,1,1,36.72-.81,25.91,25.91,0,0,1-36.64.88l-.08-.07c-6.57-5.94,3.13-15.63,9.73-9.72" transform="translate(-49.27 -15.81)"/><path class="cls-2" d="M1456.82,679.35a8.85,8.85,0,1,0,0-12.51,8.85,8.85,0,0,0,0,12.51" transform="translate(-49.27 -15.81)"/><path class="cls-2" d="M1323.92,864a8.85,8.85,0,1,0,0-12.51,8.85,8.85,0,0,0,0,12.51" transform="translate(-49.27 -15.81)"/><path class="cls-2" d="M744.7,114.23l14-26.56,2.56,9.39c-9.1-4.79-18.23-9.61-27.37-14.36,3.13-.88,6.26-1.75,9.39-2.56l-14.05,26.55-2.56-9.38c9.1,4.78,18.23,9.6,27.37,14.35,7.88,4.13,1,16-6.79,12q-13.6-7.35-27.37-14.36a6.89,6.89,0,0,1-2.56-9.38l14-26.55a7,7,0,0,1,9.35-2.6c9.14,4.82,18.27,9.57,27.37,14.36a6.89,6.89,0,0,1,2.56,9.38l-14,26.55c-4.1,7.85-16,1-11.95-6.81" transform="translate(-49.27 -15.81)"/><path class="cls-2" d="M1233.57,801.45l-22.43,45.07c-3.94,7.94-15.86,1.09-12-6.82l22.55-45.13c4-8,15.89-1.13,12,6.79" transform="translate(-49.27 -15.81)"/><path class="cls-2" d="M1198,803.14l45.23,22.52c7.94,4,1.09,15.92-6.79,12q-22.61-11.24-45.19-22.55c-8-4-1.13-15.89,6.79-12" transform="translate(-49.27 -15.81)"/><path class="cls-2" d="M1490.13,543.14l-19.77,46.41c-3.47,8.16-15.39,1.25-11.95-6.82l19.74-46.38c3.47-8.16,15.39-1.25,12,6.79" transform="translate(-49.27 -15.81)"/><path class="cls-2" d="M1455.25,546.73q23.22,9.88,46.45,19.74c8.19,3.5,1.28,15.42-6.79,12l-46.47-19.77c-8.17-3.47-1.26-15.39,6.81-11.95" transform="translate(-49.27 -15.81)"/><path class="cls-2" d="M674.38,346.19l-25.27,43.65c-4.44,7.64-16.77,1.55-12.32-6.13q12.68-21.85,25.32-43.65c4.4-7.65,16.76-1.55,12.31,6.14" transform="translate(-49.27 -15.81)"/><path class="cls-2" d="M637.68,345.92l43.69,25.32c7.64,4.44,1.56,16.77-6.13,12.32l-43.69-25.33c-7.64-4.44-1.55-16.76,6.13-12.31" transform="translate(-49.27 -15.81)"/><path class="cls-2" d="M339.06,929.75c11.16,10,27.21-5.82,16.51-16.52s-26.55,5.35-16.51,16.52c5.91,6.6-3.82,16.32-9.73,9.72a25.43,25.43,0,1,1,36.72-.81,25.92,25.92,0,0,1-36.65.88l-.07-.07c-6.6-5.91,3.13-15.63,9.73-9.72" transform="translate(-49.27 -15.81)"/><path class="cls-2" d="M568.76,764.41c-2.12,14.82,20,19.34,23,4.54s-19.26-19.09-23-4.54c-2.2,8.59-15.65,5.93-13.5-2.67a25.48,25.48,0,1,1,50.36,7.8c-.11.7-.25,1.39-.41,2.08a25.48,25.48,0,0,1-50-9.88c1.29-8.76,14.74-6.1,13.5,2.67" transform="translate(-49.27 -15.81)"/><path class="cls-2" d="M777.86,490.24c-2.07,14.83,20,19.34,23,4.54s-19.22-19.09-23-4.54c-2.15,8.59-15.64,5.92-13.45-2.66a25.43,25.43,0,1,1,21.12,30,25.87,25.87,0,0,1-21.14-29.86.77.77,0,0,1,0-.15c1.24-8.77,14.73-6.1,13.45,2.66" transform="translate(-49.27 -15.81)"/><path class="cls-2" d="M752.12,734.17,782,731.06l-6.37,7.36c-1.08-10.23-2.16-20.5-3.3-30.73,2.47,2.11,4.94,4.22,7.36,6.37l-29.88,3.11,6.37-7.36c1.09,10.23,2.17,20.5,3.3,30.73.95,8.85-12.76,9.79-13.73,1q-1.47-15.36-3.3-30.73a6.89,6.89,0,0,1,6.37-7.35l29.87-3.11a6.94,6.94,0,0,1,7.36,6.33c1.08,10.26,2.22,20.5,3.31,30.72a6.9,6.9,0,0,1-6.37,7.35l-29.88,3.11c-8.8,1-9.79-12.75-1-13.72" transform="translate(-49.27 -15.81)"/></g><g id="Sprinkles_dark-4" data-name="Sprinkles dark" class="cls-1"><path class="cls-2" d="M1092.94,237.82c15-.84,15.08-23.4,0-23.4s-15,22.56,0,23.4c8.84.44,8.84,14.2,0,13.76A25.48,25.48,0,1,1,1118.28,225,25.92,25.92,0,0,1,1093,251.58h-.06c-8.85.44-8.85-13.27,0-13.76" transform="translate(-49.27 -15.81)"/><path class="cls-2" d="M1310.12,367.2c15-.8,15.12-23.36,0-23.36s-15,22.56,0,23.36c8.84.48,8.84,14.24,0,13.75a25.43,25.43,0,1,1,25.38-26.53A25.9,25.9,0,0,1,1310.22,381h-.1c-8.85.49-8.85-13.27,0-13.75" transform="translate(-49.27 -15.81)"/><path class="cls-2" d="M1577.36,91a8.85,8.85,0,1,0-8.84-8.85,8.85,8.85,0,0,0,8.84,8.85" transform="translate(-49.27 -15.81)"/><path class="cls-2" d="M1419.1,352.43a8.85,8.85,0,1,0-8.84-8.85,8.85,8.85,0,0,0,8.84,8.85" transform="translate(-49.27 -15.81)"/><path class="cls-2" d="M1210.82,369.06a8.85,8.85,0,1,0-8.85-8.85,8.84,8.84,0,0,0,8.85,8.85" transform="translate(-49.27 -15.81)"/><path class="cls-2" d="M1131.07,62.35a8.85,8.85,0,1,0-8.85-8.84,8.84,8.84,0,0,0,8.85,8.84" transform="translate(-49.27 -15.81)"/><path class="cls-2" d="M1022.92,82l16,47.73c2.83,8.4-10.44,12-13.27,3.63l-16-47.86c-2.83-8.45,10.44-12,13.27-3.67" transform="translate(-49.27 -15.81)"/><path class="cls-2" d="M999,108.36l47.9-16.06c8.45-2.79,12,10.48,3.67,13.27q-23.93,8.06-47.9,16c-8.45,2.83-12-10.44-3.67-13.27" transform="translate(-49.27 -15.81)"/><path class="cls-2" d="M1387.56,69.17q23.89,8.22,47.73,16.36c8.36,2.88,4.78,16.15-3.67,13.27q-23.8-8.22-47.68-16.36c-8.36-2.88-4.78-16.15,3.62-13.27" transform="translate(-49.27 -15.81)"/><path class="cls-2" d="M1394.42,105.22l16.37-47.77c2.87-8.32,16.14-4.74,13.27,3.67l-16.37,47.77c-2.87,8.31-16.14,4.73-13.27-3.67" transform="translate(-49.27 -15.81)"/><path class="cls-2" d="M1877.56,108.8c15-.8,15.13-23.36,0-23.36s-15,22.56,0,23.36c8.85.48,8.85,14.24,0,13.75A25.43,25.43,0,1,1,1903,96a25.91,25.91,0,0,1-25.29,26.54h-.1c-8.84.49-8.84-13.27,0-13.75" transform="translate(-49.27 -15.81)"/><path class="cls-2" d="M1680.76,263.26c15-.8,15.13-23.36,0-23.36s-15,22.56,0,23.36c8.85.48,8.85,14.24,0,13.75a25.43,25.43,0,1,1,25.39-26.53A25.92,25.92,0,0,1,1680.86,277h-.1c-8.85.49-8.85-13.27,0-13.75" transform="translate(-49.27 -15.81)"/><path class="cls-2" d="M1813.07,499.84c9,12,27.84-.49,19.45-13s-27.13.12-19.45,13c4.52,7.62-6.87,15.25-11.42,7.66a25.48,25.48,0,1,1,41.11-30.1c.42.58.82,1.16,1.18,1.77a25.47,25.47,0,0,1-42.29,28.33c-5.3-7.11,6.1-14.74,11.42-7.66" transform="translate(-49.27 -15.81)"/></g><g id="Sprinkles_dark-5" data-name="Sprinkles dark" class="cls-1"><path class="cls-2" d="M1108.79,677.37c15-.79,15.08-23.35,0-23.35s-15,22.56,0,23.35c8.85.49,8.85,14.25,0,13.76a25.44,25.44,0,1,1,25.39-26.54,25.87,25.87,0,0,1-25.2,26.53h-.19c-8.85.49-8.85-13.27,0-13.76" transform="translate(-49.27 -15.81)"/><path class="cls-2" d="M1270.41,603a8.85,8.85,0,1,0-8.85-8.85,8.85,8.85,0,0,0,8.85,8.85" transform="translate(-49.27 -15.81)"/><path class="cls-2" d="M1125.91,1075.54a8.85,8.85,0,1,0-8.85-8.84,8.84,8.84,0,0,0,8.85,8.84" transform="translate(-49.27 -15.81)"/><path class="cls-2" d="M993.61,718.42l35.65,35.65a6.9,6.9,0,0,1-9.73,9.73l-35.65-35.65a6.9,6.9,0,0,1,9.73-9.73" transform="translate(-49.27 -15.81)"/><path class="cls-2" d="M983.88,753.36l35.69-35.74a6.9,6.9,0,0,1,9.74,9.73l-35.7,35.7a6.87,6.87,0,0,1-9.73-9.69" transform="translate(-49.27 -15.81)"/><path class="cls-2" d="M905.94,980.89l16,47.86c2.83,8.4-10.44,12-13.27,3.62l-16-47.81c-2.83-8.45,10.44-12,13.27-3.67" transform="translate(-49.27 -15.81)"/><path class="cls-2" d="M882,1007.25l47.86-16c8.4-2.79,12,10.48,3.63,13.26l-47.86,16c-8.45,2.83-12-10.44-3.67-13.27" transform="translate(-49.27 -15.81)"/><path class="cls-2" d="M1798.4,926.4c15-.8,15.13-23.4,0-23.4s-15,22.6,0,23.4c8.85.48,8.85,14.19,0,13.75a25.48,25.48,0,1,1,25.39-26.54,25.93,25.93,0,0,1-25.29,26.54h-.1c-8.84.44-8.84-13.27,0-13.75" transform="translate(-49.27 -15.81)"/><path class="cls-2" d="M1488.87,774.42c15-.84,15.13-23.4,0-23.4s-15,22.56,0,23.4c8.85.44,8.85,14.19,0,13.71a25.44,25.44,0,1,1,25.39-26.54,25.86,25.86,0,0,1-25.2,26.53h-.19c-8.85.48-8.85-13.27,0-13.71" transform="translate(-49.27 -15.81)"/><path class="cls-2" d="M1650.8,699.84A8.85,8.85,0,1,0,1642,691a8.84,8.84,0,0,0,8.84,8.84" transform="translate(-49.27 -15.81)"/><path class="cls-2" d="M1893.63,723.82a8.85,8.85,0,1,0-8.84-8.85,8.85,8.85,0,0,0,8.84,8.85" transform="translate(-49.27 -15.81)"/><path class="cls-2" d="M1538.06,897.82l-8.85-28.7,8.45,4.82c-9.82,3-19.69,6.1-29.5,9.2,1.59-2.83,3.18-5.66,4.82-8.45l8.84,28.71-8.45-4.83c9.82-3.05,19.69-6.1,29.51-9.2,8.49-2.65,12.07,10.62,3.67,13.27q-14.82,4.43-29.5,9.2a6.89,6.89,0,0,1-8.45-4.82l-8.85-28.7a6.94,6.94,0,0,1,4.78-8.45c9.86-3,19.68-6.15,29.5-9.2a6.9,6.9,0,0,1,8.45,4.82l8.85,28.71c2.65,8.44-10.62,12.07-13.27,3.62" transform="translate(-49.27 -15.81)"/><path class="cls-2" d="M1361,908l-8.85-28.71,8.45,4.82c-9.82,3.05-19.69,6.1-29.5,9.2,1.59-2.83,3.18-5.66,4.82-8.45l8.84,28.71-8.45-4.82c9.82-3,19.69-6.11,29.51-9.2,8.49-2.66,12.07,10.61,3.67,13.27q-14.82,4.42-29.5,9.2a6.9,6.9,0,0,1-8.45-4.82l-8.85-28.71a6.94,6.94,0,0,1,4.78-8.45c9.86-3.05,19.68-6.15,29.5-9.2a6.91,6.91,0,0,1,8.45,4.82l8.85,28.71c2.65,8.45-10.62,12.07-13.27,3.63" transform="translate(-49.27 -15.81)"/><path class="cls-2" d="M1079.47,848.35,1115.12,884a6.9,6.9,0,0,1-9.73,9.73l-35.65-35.65a6.9,6.9,0,0,1,9.73-9.73" transform="translate(-49.27 -15.81)"/><path class="cls-2" d="M1069.74,883.29l35.7-35.74a6.9,6.9,0,0,1,9.73,9.73l-35.7,35.7a6.87,6.87,0,1,1-9.73-9.69" transform="translate(-49.27 -15.81)"/></g><g id="Sprinkles_dark-6" data-name="Sprinkles dark" class="cls-1"><path class="cls-2" d="M608.08,90.32q24.54-5.76,49.14-11.5c8.58-2,12.25,11.23,3.62,13.27q-24.54,5.7-49.09,11.5c-8.63,2-12.3-11.24-3.67-13.27" transform="translate(-49.27 -15.81)"/><path class="cls-2" d="M632.85,117.12l-11.5-49.18c-2-8.63,11.23-12.26,13.27-3.63l11.54,49.14c2,8.62-11.23,12.3-13.27,3.67" transform="translate(-49.27 -15.81)"/><path class="cls-2" d="M500.67,501.48l47.72,16.32c8.36,2.87,4.78,16.14-3.62,13.27Q520.88,522.88,497,514.7c-8.36-2.83-4.78-16.14,3.63-13.27" transform="translate(-49.27 -15.81)"/><path class="cls-2" d="M507.52,537.52l16.37-47.77c2.87-8.36,16.14-4.77,13.27,3.63l-16.37,47.77c-2.87,8.36-16.14,4.78-13.27-3.63" transform="translate(-49.27 -15.81)"/><path class="cls-2" d="M446.47,338a8.85,8.85,0,1,0-8.84-8.85,8.85,8.85,0,0,0,8.84,8.85" transform="translate(-49.27 -15.81)"/><path class="cls-2" d="M979,547.46c15-.8,15.08-23.4,0-23.4s-15,22.6,0,23.4c8.84.48,8.84,14.2,0,13.75a25.48,25.48,0,1,1-2.12-50.91c.7,0,1.41,0,2.12,0a25.48,25.48,0,0,1,0,50.91c-8.85.45-8.85-13.27,0-13.75" transform="translate(-49.27 -15.81)"/><path class="cls-2" d="M679.65,625.56c15-.84,15.08-23.4,0-23.4s-15,22.56,0,23.4c8.84.45,8.84,14.2,0,13.72A25.44,25.44,0,1,1,705,612.74a25.87,25.87,0,0,1-25.2,26.53h-.14c-8.85.48-8.85-13.27,0-13.72" transform="translate(-49.27 -15.81)"/><path class="cls-2" d="M858.53,389.38l-8.85-28.7,8.45,4.82c-9.82,3.05-19.68,6.1-29.5,9.2,1.59-2.83,3.18-5.66,4.82-8.45L842.3,395l-8.45-4.83c9.82-3.05,19.68-6.1,29.5-9.2,8.49-2.65,12.07,10.62,3.67,13.27q-14.78,4.43-29.5,9.2a6.9,6.9,0,0,1-8.45-4.82l-8.85-28.7a7,7,0,0,1,4.78-8.45c9.86-3.05,19.68-6.15,29.5-9.2a6.89,6.89,0,0,1,8.45,4.82l8.85,28.71c2.65,8.44-10.62,12.07-13.27,3.62" transform="translate(-49.27 -15.81)"/><path class="cls-2" d="M74.72,260.89c15-.79,15.13-23.35,0-23.35s-15,22.56,0,23.35c8.85.49,8.85,14.25,0,13.76a25.44,25.44,0,1,1,25.39-26.54,25.92,25.92,0,0,1-25.29,26.54h-.1c-8.84.49-8.84-13.27,0-13.76" transform="translate(-49.27 -15.81)"/><path class="cls-2" d="M323.53,71.31,342.46,48l.69,9.7c-8-6.46-16-13-24.06-19.39,3.24-.25,6.48-.51,9.7-.7L309.87,60.93l-.7-9.7c8,6.46,16,13,24.06,19.39,6.93,5.58-2.1,15.94-9,10.43q-11.89-9.81-24.06-19.39a6.9,6.9,0,0,1-.7-9.7l18.93-23.33a7,7,0,0,1,9.68-.73c8,6.5,16.06,12.93,24.06,19.39a6.91,6.91,0,0,1,.7,9.71L333.93,80.32c-5.54,6.91-15.94-2.1-10.4-9" transform="translate(-49.27 -15.81)"/></g><g id="Sprinkles_dark-7" data-name="Sprinkles dark" class="cls-1"><path class="cls-2" d="M734.54,873c.8,15,23.36,15.08,23.36,0s-22.56-15-23.36,0c-.49,8.84-14.24,8.84-13.76,0a25.44,25.44,0,1,1,26.54,25.39,25.88,25.88,0,0,1-26.53-25.2,1.15,1.15,0,0,0,0-.19c-.48-8.85,13.27-8.85,13.76,0" transform="translate(-49.27 -15.81)"/><path class="cls-2" d="M808.94,1034.6a8.85,8.85,0,1,0,8.84-8.85,8.84,8.84,0,0,0-8.84,8.85" transform="translate(-49.27 -15.81)"/><path class="cls-2" d="M336.37,890.1a8.85,8.85,0,1,0,8.85-8.85,8.84,8.84,0,0,0-8.85,8.85" transform="translate(-49.27 -15.81)"/><path class="cls-2" d="M65.85,828.7a8.85,8.85,0,1,0,8.85-8.84,8.85,8.85,0,0,0-8.85,8.84" transform="translate(-49.27 -15.81)"/><path class="cls-2" d="M78.27,1024.72l28.7-8.85-4.82,8.45c-3.05-9.82-6.1-19.68-9.2-29.5,2.83,1.59,5.66,3.18,8.45,4.82l-28.71,8.84,4.83-8.44c3,9.82,6.1,19.68,9.2,29.5,2.65,8.49-10.62,12.07-13.27,3.67q-4.42-14.82-9.2-29.5a6.9,6.9,0,0,1,4.82-8.45l28.7-8.85a7,7,0,0,1,8.45,4.78c3,9.86,6.15,19.68,9.2,29.5a6.89,6.89,0,0,1-4.82,8.45L81.89,1038c-8.44,2.65-12.07-10.62-3.62-13.27" transform="translate(-49.27 -15.81)"/><path class="cls-2" d="M693.49,757.8l-35.65,35.65a6.9,6.9,0,0,1-9.73-9.73l35.65-35.65a6.9,6.9,0,0,1,9.73,9.73" transform="translate(-49.27 -15.81)"/><path class="cls-2" d="M658.55,748.07l35.74,35.69a6.9,6.9,0,0,1-9.73,9.73l-35.7-35.69a6.87,6.87,0,1,1,9.69-9.73" transform="translate(-49.27 -15.81)"/><path class="cls-2" d="M431,670.13l-47.85,16c-8.41,2.84-12-10.43-3.63-13.27l47.81-16c8.45-2.83,12,10.44,3.67,13.27" transform="translate(-49.27 -15.81)"/><path class="cls-2" d="M404.66,646.16,420.72,694c2.78,8.4-10.48,12-13.27,3.62l-16-47.85c-2.83-8.45,10.44-12,13.27-3.68" transform="translate(-49.27 -15.81)"/><path class="cls-2" d="M185.72,755.94l-46.8,18.84c-8.23,3.32-11.77-10-3.63-13.27l46.76-18.84c8.22-3.32,11.76,10,3.67,13.27" transform="translate(-49.27 -15.81)"/><path class="cls-2" d="M158.51,733.83q9.42,23.38,18.89,46.79c3.32,8.27-10,11.81-13.27,3.67l-18.89-46.84c-3.31-8.22,10-11.76,13.27-3.62" transform="translate(-49.27 -15.81)"/><path class="cls-2" d="M1195.48,254.14q5.76,24.56,11.5,49.14c2,8.58-11.23,12.26-13.27,3.63q-5.7-24.56-11.5-49.1c-2-8.62,11.24-12.29,13.27-3.67" transform="translate(-49.27 -15.81)"/><path class="cls-2" d="M1168.68,278.91l49.18-11.5c8.63-2,12.26,11.24,3.63,13.27l-49.14,11.55c-8.63,2-12.3-11.24-3.67-13.27" transform="translate(-49.27 -15.81)"/><path class="cls-2" d="M228,291.3c.8,15,23.36,15.13,23.36,0s-22.56-15-23.36,0c-.49,8.85-14.24,8.85-13.76,0a25.44,25.44,0,1,1,26.54,25.39,25.9,25.9,0,0,1-26.53-25.28v-.11c-.48-8.84,13.27-8.84,13.76,0" transform="translate(-49.27 -15.81)"/><path class="cls-2" d="M1464.94,227.29a8.85,8.85,0,1,0,8.85-8.84,8.85,8.85,0,0,0-8.85,8.84" transform="translate(-49.27 -15.81)"/><path class="cls-2" d="M1270.1,263.39a8.85,8.85,0,1,0,8.85-8.85,8.84,8.84,0,0,0-8.85,8.85" transform="translate(-49.27 -15.81)"/><path class="cls-2" d="M237.22,371.23a8.85,8.85,0,1,0,8.84-8.85,8.84,8.84,0,0,0-8.84,8.85" transform="translate(-49.27 -15.81)"/><path class="cls-2" d="M129,445.14c.84,14.95,23.4,15.08,23.4,0s-22.56-15-23.4,0c-.44,8.85-14.2,8.85-13.71,0a25.44,25.44,0,1,1,26.54,25.35,25.88,25.88,0,0,1-26.54-25.2v-.15c-.49-8.85,13.27-8.85,13.71,0" transform="translate(-49.27 -15.81)"/><path class="cls-2" d="M1395.94,555.17c.84,15,23.4,15.08,23.4,0s-22.56-15-23.4,0c-.44,8.84-14.2,8.84-13.76,0a25.48,25.48,0,1,1,26.54,25.34,25.9,25.9,0,0,1-26.53-25.28v-.06c-.44-8.85,13.27-8.85,13.76,0" transform="translate(-49.27 -15.81)"/><path class="cls-2" d="M281.74,1019.59c.79,15,23.4,15.12,23.4,0s-22.61-15-23.4,0c-.49,8.84-14.2,8.84-13.76,0A25.48,25.48,0,1,1,294.52,1045,25.92,25.92,0,0,1,268,1019.69v-.1c-.44-8.85,13.27-8.85,13.76,0" transform="translate(-49.27 -15.81)"/><path class="cls-2" d="M917.15,375.66a8.85,8.85,0,1,0,8.85-8.84,8.85,8.85,0,0,0-8.85,8.84" transform="translate(-49.27 -15.81)"/><path class="cls-2" d="M563.57,843.66l-35.66,35.65a6.9,6.9,0,0,1-9.73-9.73l35.65-35.65a6.9,6.9,0,0,1,9.74,9.73" transform="translate(-49.27 -15.81)"/><path class="cls-2" d="M528.62,833.93l35.74,35.7a6.9,6.9,0,0,1-9.73,9.73l-35.69-35.7a6.86,6.86,0,1,1,9.68-9.73" transform="translate(-49.27 -15.81)"/><path class="cls-2" d="M1551.77,485.15l-47.73,16c-8.4,2.83-12-10.44-3.62-13.27l47.85-16c8.45-2.83,12,10.44,3.68,13.27" transform="translate(-49.27 -15.81)"/><path class="cls-2" d="M1525.41,461.18l16,47.9c2.79,8.45-10.48,12-13.27,3.67q-8-23.92-16-47.9c-2.83-8.45,10.44-12,13.27-3.67" transform="translate(-49.27 -15.81)"/><path class="cls-2" d="M1037,302.9l-46.8,18.84c-8.23,3.32-11.76-10-3.63-13.27l46.76-18.84c8.22-3.32,11.76,10,3.67,13.27" transform="translate(-49.27 -15.81)"/><path class="cls-2" d="M1009.82,280.79q9.42,23.38,18.88,46.79c3.32,8.27-10,11.81-13.27,3.67l-18.88-46.84c-3.32-8.22,10-11.76,13.27-3.62" transform="translate(-49.27 -15.81)"/><path class="cls-2" d="M73.51,94.5c.8,15,23.35,15.13,23.35,0s-22.55-15-23.35,0c-.49,8.85-14.24,8.85-13.76,0a25.44,25.44,0,1,1,26.54,25.39A25.91,25.91,0,0,1,59.76,94.6v-.1c-.48-8.84,13.27-8.84,13.76,0" transform="translate(-49.27 -15.81)"/><path class="cls-2" d="M352.84,140c-12,9,.49,27.83,13,19.44s-.12-27.13-13-19.44c-7.62,4.51-15.25-6.88-7.65-11.43a25.48,25.48,0,0,1,30.09,41.12c-.57.41-1.16.81-1.76,1.18a25.48,25.48,0,0,1-28.33-42.3c7.1-5.29,14.73,6.1,7.65,11.43" transform="translate(-49.27 -15.81)"/><path class="cls-2" d="M1258.9,97.14l23.33,18.93-9.7.69c6.46-8,13-16,19.39-24.06.25,3.24.5,6.48.69,9.7l-23.32-18.92,9.7-.7c-6.46,8-13,16-19.39,24.06-5.58,6.93-15.94-2.1-10.44-9Q1259,86,1268.56,73.8a6.9,6.9,0,0,1,9.7-.7L1301.58,92a6.94,6.94,0,0,1,.74,9.68c-6.5,8-12.94,16.06-19.4,24.06a6.9,6.9,0,0,1-9.7.7l-23.32-18.93c-6.91-5.54,2.1-15.94,9-10.4" transform="translate(-49.27 -15.81)"/></g></svg>